<svg xmlns="http://www.w3.org/2000/svg" xmlns:xlink="http://www.w3.org/1999/xlink" width="559" height="55" overflow="hidden"><defs><clipPath id="clip0"><rect width="559" height="55" x="102" y="480"/></clipPath></defs><g clip-path="url(#clip0)" transform="translate(-102 -480)"><rect width="53" height="53" x="178.5" y="481.5" fill="none" stroke="#000005" stroke-linejoin="round" stroke-miterlimit="10" stroke-width=".333"/><text fill="#000005" font-family="Cambria Math,Cambria Math_MSFontService,sans-serif" font-size="21" font-weight="400" transform="translate(185.616 516)">𝐺𝑁<tspan x="26.9" y="4" font-size="15">1</tspan></text><rect width="53" height="53" x="361.5" y="481.5" fill="none" stroke="#000005" stroke-linejoin="round" stroke-miterlimit="10" stroke-width=".333"/><text fill="#000005" font-family="Cambria Math,Cambria Math_MSFontService,sans-serif" font-size="21" font-weight="400" transform="translate(368.736 516)">𝐺𝑁<tspan x="27.393" y="4" font-size="15">2</tspan></text><rect width="53" height="53" x="531.5" y="481.5" fill="none" stroke="#000005" stroke-linejoin="round" stroke-miterlimit="10" stroke-width=".333"/><text fill="#000005" font-family="Cambria Math,Cambria Math_MSFontService,sans-serif" font-size="21" font-weight="400" transform="translate(536.318 516)">𝐺𝑁<tspan x="27.393" y="4" font-size="15">𝑀</tspan><tspan x="-76.854" y="4" font-size="32">⋯</tspan></text><path fill="#000005" d="M140.501 507.333 171.635 507.486 171.633 507.82 140.499 507.667ZM170.32 503.646 178.301 507.686 170.281 511.646Z"/><text fill="#000005" font-family="Cambria Math,Cambria Math_MSFontService,sans-serif" font-size="24" font-weight="400" transform="translate(106.24 511)">𝐺<tspan x="14.467" y="5" font-size="18">0</tspan></text><path fill="#000005" d="M230.501 508.333 261.635 508.486 261.633 508.82 230.499 508.667ZM260.32 504.646 268.301 508.686 260.281 512.646Z"/><path fill="#000005" d="M321.501 507.333 352.635 507.486 352.633 507.82 321.499 507.667ZM351.32 503.646 359.301 507.686 351.281 511.646Z"/><text fill="#000005" font-family="Cambria Math,Cambria Math_MSFontService,sans-serif" font-size="24" font-weight="400" transform="translate(282.414 511)">𝐺<tspan x="13.913" y="5" font-size="18">1</tspan></text><path fill="#000005" d="M584.501 508.333 615.635 508.486 615.633 508.82 584.499 508.667ZM614.32 504.646 622.301 508.686 614.281 512.646Z"/><text fill="#000005" font-family="Cambria Math,Cambria Math_MSFontService,sans-serif" font-size="24" font-weight="400" transform="translate(625.259 515)">𝐺<tspan x="14.467" y="5" font-size="18">𝑀</tspan></text><path fill="#000005" d="M410.501 508.333 441.635 508.486 441.633 508.82 410.499 508.667ZM440.32 504.646 448.301 508.686 440.281 512.646Z"/><path fill="#000005" d="M493.501 508.333 524.635 508.486 524.633 508.82 493.499 508.667ZM523.32 504.646 531.301 508.686 523.281 512.646Z"/></g></svg>