<svg width="892" height="220" xmlns="http://www.w3.org/2000/svg" xmlns:xlink="http://www.w3.org/1999/xlink" overflow="hidden"><defs><clipPath id="clip0"><rect x="31" y="284" width="892" height="220"/></clipPath></defs><g clip-path="url(#clip0)" transform="translate(-31 -284)"><path d="M76.5001 363.5C76.5001 350.798 86.7975 340.5 99.5001 340.5 112.203 340.5 122.5 350.798 122.5 363.5 122.5 376.203 112.203 386.5 99.5001 386.5 86.7975 386.5 76.5001 376.203 76.5001 363.5Z" stroke="#00B050" stroke-width="3" stroke-linejoin="round" stroke-miterlimit="10" fill="none" fill-rule="evenodd"/><text fill="#000005" font-family="Cambria Math,Cambria Math_MSFontService,sans-serif" font-weight="400" font-size="24" transform="translate(87.8159 370)">𝐯<tspan font-size="18" x="11.2733" y="5">1</tspan></text><path d="M139.5 466.5C139.5 453.798 149.798 443.5 162.5 443.5 175.203 443.5 185.5 453.798 185.5 466.5 185.5 479.203 175.203 489.5 162.5 489.5 149.798 489.5 139.5 479.203 139.5 466.5Z" stroke="#00B050" stroke-width="3" stroke-linejoin="round" stroke-miterlimit="10" fill="none" fill-rule="evenodd"/><text fill="#000005" font-family="Cambria Math,Cambria Math_MSFontService,sans-serif" font-weight="400" font-size="24" transform="translate(150.345 473)">𝐯<tspan font-size="18" x="11.8267" y="5">3</tspan></text><path d="M199.5 363.5C199.5 350.798 209.798 340.5 222.5 340.5 235.203 340.5 245.5 350.798 245.5 363.5 245.5 376.203 235.203 386.5 222.5 386.5 209.798 386.5 199.5 376.203 199.5 363.5Z" stroke="#00B050" stroke-width="3" stroke-linejoin="round" stroke-miterlimit="10" fill="none" fill-rule="evenodd"/><text fill="#000005" font-family="Cambria Math,Cambria Math_MSFontService,sans-serif" font-weight="400" font-size="24" transform="translate(210.128 370)">𝐯<tspan font-size="18" x="11.8267" y="5">2</tspan></text><path d="M283.5 447.5C283.5 434.798 293.798 424.5 306.5 424.5 319.203 424.5 329.5 434.798 329.5 447.5 329.5 460.203 319.203 470.5 306.5 470.5 293.798 470.5 283.5 460.203 283.5 447.5Z" stroke="#00B050" stroke-width="3" stroke-linejoin="round" stroke-miterlimit="10" fill="none" fill-rule="evenodd"/><text fill="#000005" font-family="Cambria Math,Cambria Math_MSFontService,sans-serif" font-weight="400" font-size="24" transform="translate(294.463 454)">𝐯<tspan font-size="18" x="11.8267" y="5">4</tspan></text><path d="M122.5 362 191.448 362 191.448 365 122.5 365ZM189.948 359 198.948 363.5 189.948 368Z" fill="#00B050"/><path d="M239.56 378.438 285.958 424.742 283.839 426.865 237.44 380.562ZM287.016 421.559 290.208 431.101 280.658 427.929Z" fill="#00B050"/><path d="M144.782 451.302 102.699 393.448 105.125 391.683 147.208 449.537ZM101.155 396.425 99.5 386.5 108.433 391.131Z" fill="#00B050"/><path d="M115.5 346 197.963 346 197.963 349 115.5 349ZM196.463 343 205.463 347.5 196.463 352Z" fill="#00B050"/><path d="M1.24036-0.843513 40.4914 56.8738 38.0107 58.5608-1.24036 0.843513ZM42.1287 53.9465 43.4687 63.9192 34.6865 59.0076Z" fill="#00B050" transform="matrix(1 0 0 -1 178.5 450.419)"/><text fill="#000005" font-family="Cambria Math,Cambria Math_MSFontService,sans-serif" font-weight="400" font-size="24" transform="translate(101.991 433)">𝐞<tspan font-size="18" x="12.6133" y="5">1</tspan><tspan font-size="24" x="100.208" y="-3">𝐞</tspan><tspan font-size="18" x="113.374" y="2">4</tspan><tspan font-size="24" x="48.0239" y="-51">𝐞</tspan><tspan font-size="18" x="61.1906" y="-47">3</tspan><tspan font-size="24" x="44.5035" y="-92">𝐞</tspan><tspan font-size="18" x="57.6702" y="-87">2</tspan><tspan font-size="24" x="-8.54488" y="-126">𝐞</tspan><tspan font-size="18" x="4.62179" y="-121">5</tspan><tspan font-size="24" x="158.477" y="-28">𝐞</tspan><tspan font-size="18" x="171.644" y="-23">6</tspan></text><path d="M74.7675 361.772 66.7675 356.772 59.0572 351.758 51.831 346.731 45.3445 341.821 39.8673 336.861 37.5842 334.391 35.6352 331.93 34.0541 329.504C34.0148 329.443 33.9797 329.379 33.9495 329.314L32.887 327.001C32.8483 326.917 32.8174 326.829 32.7948 326.739L32.2323 324.489C32.2094 324.397 32.1951 324.303 32.1899 324.208L32.0649 321.958C32.0574 321.824 32.068 321.689 32.0964 321.558L32.5964 319.246C32.6219 319.128 32.6615 319.013 32.7144 318.905L33.9644 316.342C33.9995 316.27 34.0402 316.202 34.0863 316.136L36.0238 313.386 38.479 310.47 41.5134 307.491 44.8187 304.564 52.2234 298.989 60.0838 294.101 63.9907 292.047 67.7702 290.377 71.2999 289.09 74.5875 288.291C74.6579 288.275 74.7297 288.263 74.8018 288.256L77.5517 288.006C77.6793 287.995 77.8078 287.999 77.9342 288.02L80.1842 288.395C80.3182 288.418 80.4487 288.458 80.5719 288.516L82.4469 289.391C82.5509 289.439 82.649 289.5 82.7393 289.571L84.4893 290.946C84.5653 291.005 84.6355 291.072 84.6987 291.146L86.2612 292.958 87.8161 295.301C87.8624 295.372 87.9026 295.446 87.9364 295.523L90.3739 301.086 92.4382 308.011 94.1527 315.803 95.604 324.375 96.8608 333.419 97.0836 335.249 94.1055 335.611 93.8893 333.831 92.6461 324.875 91.2224 316.447 89.5619 308.864 87.6262 302.29 85.1887 296.727 85.309 296.949 83.9889 294.917 82.4264 293.104 82.6358 293.305 80.8858 291.93 81.1782 292.109 79.3032 291.234 79.6909 291.355 77.441 290.98 77.8234 290.994 75.0734 291.244 75.2876 291.209 72.3252 291.91 68.9799 293.123 65.3844 294.703 61.6664 296.649 54.0267 301.386 46.8064 306.811 43.6117 309.635 40.7711 312.405 38.4763 315.114 36.5388 317.864 36.6607 317.658 35.4107 320.22 35.5287 319.88 35.0287 322.192 35.0602 321.792 35.1852 324.042 35.1428 323.761 35.7053 326.011 35.6131 325.749 36.6756 328.061 36.571 327.871 37.9899 330.071 39.7909 332.359 41.8828 334.639 47.1556 339.429 53.5442 344.269 60.6929 349.243 68.3576 354.228 76.3576 359.228ZM99.8805 333.398 96.5 342.875 90.9464 334.484Z" fill="#00B050"/><path d="M331.5 355 356.5 330.5 381.5 355 356.5 379.5Z" stroke="#00B050" stroke-width="3" stroke-linejoin="round" stroke-miterlimit="10" fill="none" fill-rule="evenodd"/><text fill="#000005" font-family="Cambria Math,Cambria Math_MSFontService,sans-serif" font-weight="400" font-size="27" transform="translate(347.96 368)">𝐮</text><path d="M608.5 371.5C608.5 358.245 619.245 347.5 632.5 347.5 645.755 347.5 656.5 358.245 656.5 371.5 656.5 384.755 645.755 395.5 632.5 395.5 619.245 395.5 608.5 384.755 608.5 371.5Z" stroke="#00B050" stroke-width="3" stroke-linejoin="round" stroke-miterlimit="10" fill="none" fill-rule="evenodd"/><text fill="#000005" font-family="Cambria Math,Cambria Math_MSFontService,sans-serif" font-weight="400" font-size="24" transform="translate(621.011 377)">𝐯<tspan font-size="18" x="11.2734" y="5">1</tspan><tspan font-size="18" x="13.94" y="-9">′</tspan></text><path d="M673.5 478.5C673.5 465.245 684.245 454.5 697.5 454.5 710.755 454.5 721.5 465.245 721.5 478.5 721.5 491.755 710.755 502.5 697.5 502.5 684.245 502.5 673.5 491.755 673.5 478.5Z" stroke="#00B050" stroke-width="3" stroke-linejoin="round" stroke-miterlimit="10" fill="none" fill-rule="evenodd"/><text fill="#000005" font-family="Cambria Math,Cambria Math_MSFontService,sans-serif" font-weight="400" font-size="24" transform="translate(685.885 484)">𝐯<tspan font-size="18" x="11.8267" y="6">3</tspan><tspan font-size="18" x="13.94" y="-9">′</tspan></text><path d="M735.5 371.5C735.5 358.245 746.245 347.5 759.5 347.5 772.755 347.5 783.5 358.245 783.5 371.5 783.5 384.755 772.755 395.5 759.5 395.5 746.245 395.5 735.5 384.755 735.5 371.5Z" stroke="#00B050" stroke-width="3" stroke-linejoin="round" stroke-miterlimit="10" fill="none" fill-rule="evenodd"/><text fill="#000005" font-family="Cambria Math,Cambria Math_MSFontService,sans-serif" font-weight="400" font-size="24" transform="translate(747.899 377)">𝐯<tspan font-size="18" x="11.8267" y="5">2</tspan><tspan font-size="18" x="13.94" y="-9">′</tspan></text><path d="M823.5 458.5C823.5 445.245 834.245 434.5 847.5 434.5 860.755 434.5 871.5 445.245 871.5 458.5 871.5 471.755 860.755 482.5 847.5 482.5 834.245 482.5 823.5 471.755 823.5 458.5Z" stroke="#00B050" stroke-width="3" stroke-linejoin="round" stroke-miterlimit="10" fill="none" fill-rule="evenodd"/><text fill="#000005" font-family="Cambria Math,Cambria Math_MSFontService,sans-serif" font-weight="400" font-size="24" transform="translate(835.383 464)">𝐯<tspan font-size="18" x="11.8267" y="6">4</tspan><tspan font-size="18" x="13.94" y="-9">′</tspan></text><path d="M656.5 370 728.302 370 728.302 373 656.5 373ZM726.802 367 735.802 371.5 726.802 376Z" fill="#00B050"/><path d="M777.56 387.438 825.888 435.668 823.769 437.791 775.44 389.562ZM826.946 432.485 830.138 442.027 820.588 438.855Z" fill="#00B050"/><path d="M679.517 462.687 635.699 402.448 638.125 400.683 681.943 460.923ZM634.155 405.425 632.5 395.5 641.433 400.131Z" fill="#00B050"/><path d="M649.5 353 735.321 353 735.321 356 649.5 356ZM733.821 350 742.821 354.5 733.821 359Z" fill="#00B050"/><path d="M1.24036-0.843514 42.114 59.2597 39.6333 60.9468-1.24036 0.843514ZM43.7512 56.3323 45.0912 66.305 36.3091 61.3934Z" fill="#00B050" transform="matrix(1 0 0 -1 714.5 461.805)"/><text fill="#000005" font-family="Cambria Math,Cambria Math_MSFontService,sans-serif" font-weight="400" font-size="24" transform="translate(631.356 446)">𝐞<tspan font-size="18" x="12.6133" y="5">1</tspan><tspan font-size="18" x="13.1667" y="-10">′</tspan><tspan font-size="24" x="107.421" y="-2">𝐞</tspan><tspan font-size="18" x="120.587" y="3">4</tspan><tspan font-size="18" x="120.587" y="-11">′</tspan><tspan font-size="24" x="55.1752" y="-53">𝐞</tspan><tspan font-size="18" x="68.3419" y="-48">3</tspan><tspan font-size="18" x="68.3419" y="-63">′</tspan><tspan font-size="24" x="53.0576" y="-100">𝐞</tspan><tspan font-size="18" x="66.2243" y="-95">2</tspan><tspan font-size="18" x="66.2243" y="-109">′</tspan><tspan font-size="24" x="-4.53534" y="-134">𝐞</tspan><tspan font-size="18" x="8.63135" y="-128">5</tspan><tspan font-size="18" x="8.63135" y="-143">′</tspan><tspan font-size="24" x="148.052" y="-14">𝐞</tspan><tspan font-size="18" x="161.219" y="-9">6</tspan><tspan font-size="18" x="161.219" y="-24">′</tspan></text><path d="M607.07 369.766 598.82 364.516 590.867 359.318 583.392 354.105 576.764 348.932 571.115 343.797 568.724 341.282 566.738 338.65 565.112 336.122C565.072 336.059 565.036 335.993 565.006 335.925L563.943 333.55C563.91 333.476 563.883 333.398 563.862 333.319L563.237 330.944C563.211 330.846 563.195 330.745 563.19 330.644L563.065 328.331C563.057 328.191 563.069 328.05 563.101 327.913L563.663 325.475C563.687 325.374 563.721 325.275 563.765 325.18L565.015 322.492C565.05 322.416 565.092 322.343 565.14 322.274L567.077 319.462 569.67 316.403 572.752 313.314 576.191 310.254 583.842 304.431 591.955 299.353 595.992 297.234 599.874 295.449 603.566 294.147 606.949 293.295C607.025 293.276 607.102 293.263 607.18 293.256L609.992 293.006C610.117 292.995 610.242 292.999 610.365 293.019L612.678 293.394C612.821 293.418 612.96 293.462 613.091 293.525L615.028 294.462C615.135 294.514 615.236 294.578 615.327 294.653L617.077 296.091C617.143 296.145 617.203 296.204 617.259 296.268L618.884 298.143 620.508 300.621 621.91 303.467 623.149 306.645 625.31 313.752 627.031 321.943 628.542 330.875 629.799 340.302 630.07 342.498 627.093 342.865 626.826 340.698 625.584 331.375 624.094 322.557 622.44 314.623 620.352 307.73 619.215 304.783 617.992 302.254 616.617 300.107 614.992 298.232 615.173 298.409 613.423 296.972 613.722 297.163 611.784 296.225 612.197 296.356 609.885 295.981 610.258 295.994 607.445 296.244 607.676 296.205 604.559 296.978 601.126 298.176 597.384 299.891 593.545 301.897 585.658 306.819 578.184 312.496 574.873 315.436 571.955 318.347 569.548 321.164 567.61 323.976 567.735 323.758 566.485 326.445 566.587 326.15 566.024 328.587 566.06 328.169 566.185 330.482 566.138 330.181 566.763 332.556 566.682 332.325 567.744 334.7 567.638 334.503 569.138 336.85 570.901 339.218 573.135 341.578 578.611 346.568 585.108 351.645 592.508 356.807 600.43 361.985 608.68 367.235ZM632.864 340.642 629.5 350.125 623.932 341.744Z" fill="#00B050"/><path d="M870.5 349.5 896 324.5 921.5 349.5 896 374.5Z" stroke="#00B050" stroke-width="3" stroke-linejoin="round" stroke-miterlimit="10" fill="none" fill-rule="evenodd"/><text fill="#000005" font-family="Cambria Math,Cambria Math_MSFontService,sans-serif" font-weight="400" font-size="27" transform="translate(883.241 363)">𝐮<tspan font-size="20" x="16.3333" y="-10">′</tspan></text><rect x="429.5" y="363.5" width="97" height="97" stroke="#000005" stroke-width="0.333333" stroke-linejoin="round" stroke-miterlimit="10" fill="none"/><text fill="#000005" font-family="Arial,Arial_MSFontService,sans-serif" font-weight="400" font-size="27" transform="translate(457.244 406)">GN <tspan font-size="27" x="-12.6667" y="32">Block</tspan></text><path d="M392.503 411.333 422.246 411.787 422.241 412.12 392.498 411.667ZM420.972 407.934 428.91 412.055 420.85 415.933Z" fill="#000005"/><path d="M526.5 412.333 560.689 412.333 560.689 412.667 526.5 412.667ZM559.356 408.5 567.356 412.5 559.356 416.5Z" fill="#000005"/></g></svg>