<svg width="712" height="107" xmlns="http://www.w3.org/2000/svg" xmlns:xlink="http://www.w3.org/1999/xlink" overflow="hidden"><defs><clipPath id="clip0"><rect x="101" y="315" width="712" height="107"/></clipPath></defs><g clip-path="url(#clip0)" transform="translate(-101 -315)"><path d="M396.5 368.5C396.5 339.229 420.229 315.5 449.5 315.5 478.771 315.5 502.5 339.229 502.5 368.5 502.5 397.771 478.771 421.5 449.5 421.5 420.229 421.5 396.5 397.771 396.5 368.5Z" stroke="#000005" stroke-width="0.333333" stroke-linejoin="round" stroke-miterlimit="10" fill="none" fill-rule="evenodd"/><text fill="#000005" font-family="Arial,Arial_MSFontService,sans-serif" font-weight="400" font-size="19" transform="translate(421.364 375)">apples</text><path d="M706.5 368.5C706.5 339.229 730.229 315.5 759.5 315.5 788.771 315.5 812.5 339.229 812.5 368.5 812.5 397.771 788.771 421.5 759.5 421.5 730.229 421.5 706.5 397.771 706.5 368.5Z" stroke="#000005" stroke-width="0.333333" stroke-linejoin="round" stroke-miterlimit="10" fill="none" fill-rule="evenodd"/><text fill="#000005" font-family="Arial,Arial_MSFontService,sans-serif" font-weight="400" font-size="19" transform="translate(738.803 375)">John</text><path d="M102.5 368.5C102.5 339.229 126.229 315.5 155.5 315.5 184.771 315.5 208.5 339.229 208.5 368.5 208.5 397.771 184.771 421.5 155.5 421.5 126.229 421.5 102.5 397.771 102.5 368.5Z" stroke="#000005" stroke-width="0.333333" stroke-linejoin="round" stroke-miterlimit="10" fill="none" fill-rule="evenodd"/><text fill="#000005" font-family="Arial,Arial_MSFontService,sans-serif" font-weight="400" font-size="19" transform="translate(134.249 375)">Mary</text><path d="M509.167 368.333 706.848 368.333 706.848 368.667 509.167 368.667ZM510.5 372.5 502.5 368.5 510.5 364.5Z" fill="#000005"/><path d="M208.5 368.333 389.857 368.333 389.857 368.667 208.5 368.667ZM388.524 364.5 396.524 368.5 388.524 372.5Z" fill="#000005"/><text fill="#000005" font-family="Arial,Arial_MSFontService,sans-serif" font-weight="400" font-size="19" transform="translate(270.357 356)">likes<tspan font-size="19" x="318.962" y="-6">likes</tspan></text></g></svg>