<svg xmlns="http://www.w3.org/2000/svg" xmlns:xlink="http://www.w3.org/1999/xlink" width="567" height="292" overflow="hidden"><defs><clipPath id="clip0"><rect width="567" height="292" x="278" y="335"/></clipPath></defs><g clip-path="url(#clip0)" transform="translate(-278 -335)"><text fill="red" font-family="Arial,Arial_MSFontService,sans-serif" font-size="27" font-weight="400" transform="translate(602.469 373)">node attribute</text><path fill="#C40D2C" d="M0.120471-0.48527 149.41 36.5765 149.169 37.5471-0.120471 0.48527ZM148.959 32.8583 155.759 38.668 147.031 40.6227Z" transform="matrix(-1 0 0 1 685.259 384.5)"/><path fill="none" fill-rule="evenodd" stroke="#00B050" stroke-linejoin="round" stroke-miterlimit="10" stroke-width="3" d="M686.5 458 715 430.5 743.5 458 715 485.5Z"/><text fill="#000005" font-family="Cambria Math,Cambria Math_MSFontService,sans-serif" font-size="27" font-weight="400" transform="translate(706.563 470)">ğ®<tspan x="-412.123" y="134" fill="red" font-family="Arial,Arial_MSFontService,sans-serif" font-size="27">edge attribute</tspan><tspan x="-53.471" y="128" fill="red" font-family="Arial,Arial_MSFontService,sans-serif" font-size="27">global attribute</tspan></text><path fill="#C40D2C" d="M741.726 567.941 717.082 491.995 718.033 491.687 742.677 567.632ZM714.165 494.344 715.5 485.5 721.774 491.875Z"/><path fill="#C40D2C" d="M0.483087-0.128945 15.7956 57.2388 14.8295 57.4967-0.483087 0.128945ZM18.8334 55.048 17.0318 63.8089 11.104 57.1111Z" transform="matrix(1 0 0 -1 377.5 573.309)"/><path fill="none" fill-rule="evenodd" stroke="#00B050" stroke-linejoin="round" stroke-miterlimit="10" stroke-width="3" d="M350.5 426C350.5 411.365 362.365 399.5 377 399.5 391.636 399.5 403.5 411.365 403.5 426 403.5 440.636 391.636 452.5 377 452.5 362.365 452.5 350.5 440.636 350.5 426Z"/><text fill="#000005" font-family="Cambria Math,Cambria Math_MSFontService,sans-serif" font-size="24" font-weight="400" transform="translate(365.454 430)">ğ¯<tspan x="11.273" y="5" font-size="18">1</tspan></text><path fill="none" fill-rule="evenodd" stroke="#00B050" stroke-linejoin="round" stroke-miterlimit="10" stroke-width="3" d="M422.5 545C422.5 530.365 434.365 518.5 449 518.5 463.636 518.5 475.5 530.365 475.5 545 475.5 559.636 463.636 571.5 449 571.5 434.365 571.5 422.5 559.636 422.5 545Z"/><text fill="#000005" font-family="Cambria Math,Cambria Math_MSFontService,sans-serif" font-size="24" font-weight="400" transform="translate(437.322 549)">ğ¯<tspan x="11.827" y="5" font-size="18">3</tspan></text><path fill="none" fill-rule="evenodd" stroke="#00B050" stroke-linejoin="round" stroke-miterlimit="10" stroke-width="3" d="M491.5 426C491.5 411.365 503.365 399.5 518 399.5 532.636 399.5 544.5 411.365 544.5 426 544.5 440.636 532.636 452.5 518 452.5 503.365 452.5 491.5 440.636 491.5 426Z"/><text fill="#000005" font-family="Cambria Math,Cambria Math_MSFontService,sans-serif" font-size="24" font-weight="400" transform="translate(505.988 430)">ğ¯<tspan x="11.827" y="5" font-size="18">2</tspan></text><path fill="none" fill-rule="evenodd" stroke="#00B050" stroke-linejoin="round" stroke-miterlimit="10" stroke-width="3" d="M588.5 523C588.5 508.365 600.365 496.5 615 496.5 629.636 496.5 641.5 508.365 641.5 523 641.5 537.636 629.636 549.5 615 549.5 600.365 549.5 588.5 537.636 588.5 523Z"/><text fill="#000005" font-family="Cambria Math,Cambria Math_MSFontService,sans-serif" font-size="24" font-weight="400" transform="translate(602.855 527)">ğ¯<tspan x="11.827" y="5" font-size="18">4</tspan></text><path fill="#00B050" d="M403.5 425 483.807 425 483.807 428 403.5 428ZM482.307 422 491.307 426.5 482.307 431Z"/><path fill="#00B050" d="M537.56 444.438 591.642 498.409 589.522 500.533 535.44 446.562ZM592.699 495.226 595.891 504.769 586.341 501.596Z"/><path fill="#00B050" d="M429.69 526.799 380.699 459.448 383.125 457.683 432.116 525.034ZM379.155 462.425 377.5 452.5 386.433 457.131Z"/><path fill="#00B050" d="M395.5 406 491.331 406 491.331 409 395.5 409ZM489.831 403 498.831 407.5 489.831 412Z"/><path fill="#00B050" d="M1.24036-0.843514 46.9505 66.3715 44.4698 68.0586-1.24036 0.843514ZM48.5877 63.4441 49.9277 73.4168 41.1455 68.5052Z" transform="matrix(1 0 0 -1 468.5 525.917)"/><text fill="#000005" font-family="Cambria Math,Cambria Math_MSFontService,sans-serif" font-size="24" font-weight="400" transform="translate(381.855 503)">ğ<tspan x="12.613" y="5" font-size="18">1</tspan><tspan x="115.101" y="-4" font-size="24">ğ</tspan><tspan x="128.268" y="1" font-size="18">4</tspan><tspan x="55.164" y="-59" font-size="24">ğ</tspan><tspan x="68.33" y="-54" font-size="18">3</tspan><tspan x="51.12" y="-105" font-size="24">ğ</tspan><tspan x="64.287" y="-100" font-size="18">2</tspan><tspan x="-9.811" y="-144" font-size="24">ğ</tspan><tspan x="3.356" y="-140" font-size="18">5</tspan><tspan x="182.029" y="-33" font-size="24">ğ</tspan><tspan x="195.195" y="-28" font-size="18">6</tspan></text><path fill="#00B050" d="M348.763 423.769 339.638 418.019 330.812 412.323 322.524 406.61 315.148 400.939 308.935 395.366 306.278 392.523 304.073 389.743 302.301 386.999C302.261 386.937 302.226 386.873 302.196 386.806L301.008 384.181C300.975 384.107 300.947 384.03 300.926 383.951L300.239 381.389C300.211 381.286 300.195 381.18 300.189 381.073L300.064 378.511C300.058 378.372 300.07 378.233 300.102 378.098L300.727 375.41C300.751 375.304 300.787 375.201 300.834 375.103L302.209 372.228C302.245 372.154 302.286 372.082 302.334 372.015L304.521 368.89 307.355 365.531 310.752 362.127 314.508 358.812 322.972 352.427 331.966 346.909 336.439 344.604 340.7 342.694 344.825 341.269 348.517 340.356C348.595 340.337 348.675 340.324 348.755 340.317L351.88 340.067C351.993 340.058 352.106 340.062 352.217 340.078L354.78 340.453C354.926 340.475 355.068 340.518 355.201 340.58L357.326 341.58C357.427 341.628 357.523 341.687 357.611 341.756L359.611 343.318C359.685 343.376 359.753 343.44 359.814 343.51L361.627 345.572C361.678 345.631 361.725 345.693 361.767 345.759L363.392 348.322 364.91 351.403 366.323 354.8 368.686 362.63 370.653 371.553 372.231 381.324 373.673 391.604 374.064 394.747 371.087 395.117 370.702 392.021 369.269 381.801 367.723 372.197 365.814 363.495 363.552 355.95 362.215 352.722 360.858 349.928 359.233 347.366 359.373 347.553 357.561 345.49 357.764 345.682 355.764 344.12 356.049 344.295 353.924 343.295 354.345 343.422 351.783 343.047 352.12 343.058 348.995 343.308 349.233 343.269 345.8 344.106 341.926 345.432 337.811 347.271 333.534 349.467 324.778 354.823 316.492 361.063 312.873 364.248 309.645 367.469 306.979 370.61 304.791 373.735 304.916 373.522 303.541 376.397 303.649 376.09 303.024 378.777 303.061 378.364 303.186 380.927 303.136 380.611 303.824 383.174 303.742 382.944 304.929 385.569 304.824 385.376 306.427 387.882 308.472 390.477 310.94 393.134 316.977 398.561 324.226 404.14 332.438 409.802 341.237 415.481 350.362 421.231ZM376.856 392.889 373.5 402.375 367.925 393.999Z"/></g></svg>