<svg width="841" height="283" xmlns="http://www.w3.org/2000/svg" xmlns:xlink="http://www.w3.org/1999/xlink" overflow="hidden"><defs><clipPath id="clip0"><rect x="86" y="249" width="841" height="283"/></clipPath></defs><g clip-path="url(#clip0)" transform="translate(-86 -249)"><path d="M17.3988 0C17.882 4.67955 18.4161 20.295 15.5677 25.941 12.7193 31.587 0.206567 32.2482 0.308296 33.8759 0.410026 35.5036 10.9899 34.8424 16.1781 35.707 21.3663 36.5718 31.4884 38.1485 31.4375 39.0641 31.3867 39.9797 21.0103 40.4883 15.8729 41.2004 10.7356 41.9125 0.562636 42.4212 0.613485 43.3367 0.664365 44.2523 10.939 45.6257 16.1781 46.6938 21.4171 47.762 32.0479 48.8301 32.0479 49.7457 32.0479 50.6613 21.5189 51.2208 16.1781 52.1872 10.8373 53.1537 0.206567 54.6796 0.00310795 55.5443-0.200351 56.409 9.61656 56.8159 14.9573 57.3754 20.2981 57.9349 31.997 57.7823 32.0479 58.9014 32.0988 60.0204 20.349 62.4619 15.2625 64.0896 10.1761 65.7172 1.52905 67.5484 1.52905 68.6674 1.52905 69.7864 10.1761 70.0407 15.2625 70.8037 20.349 71.5667 31.997 72.1771 32.0479 73.2452 32.0987 74.3133 20.8576 75.8902 15.5677 77.2127 10.2778 78.5351 0.308296 80.1628 0.308296 81.1801 0.308296 82.1974 10.2778 82.4517 15.5677 83.3164 20.8576 84.1811 31.9462 85.0967 32.0479 86.3683 32.1496 87.6399 21.468 89.5219 16.1781 90.9461 10.8882 92.3703 0.460874 93.998 0.308296 94.9136 0.155718 95.8291 9.92175 95.9309 15.2625 96.4395 20.6033 96.9482 32.3531 96.7956 32.3531 97.9655 32.3531 99.1353 20.5525 101.984 15.2625 103.459 9.97259 104.934 0.613485 105.087 0.613485 106.816 0.613485 108.545 12.5158 108.393 15.2625 113.835 18.0092 119.278 16.6867 136.368 17.0937 139.471" stroke="#000005" stroke-width="0.333333" stroke-linejoin="round" stroke-miterlimit="10" fill="none" fill-rule="evenodd" transform="matrix(-0.821275 0.570532 0.570532 0.821275 132.051 281.658)"/><path d="M17.3988 0C17.882 4.67955 18.4161 20.295 15.5677 25.941 12.7193 31.587 0.206567 32.2482 0.308296 33.8759 0.410026 35.5036 10.9899 34.8424 16.1781 35.707 21.3663 36.5718 31.4884 38.1485 31.4375 39.0641 31.3867 39.9797 21.0103 40.4883 15.8729 41.2004 10.7356 41.9125 0.562636 42.4212 0.613485 43.3367 0.664365 44.2523 10.939 45.6257 16.1781 46.6938 21.4171 47.762 32.0479 48.8301 32.0479 49.7457 32.0479 50.6613 21.5189 51.2208 16.1781 52.1872 10.8373 53.1537 0.206567 54.6796 0.00310795 55.5443-0.200351 56.409 9.61656 56.8159 14.9573 57.3754 20.2981 57.9349 31.997 57.7823 32.0479 58.9013 32.0988 60.0204 20.349 62.4619 15.2625 64.0896 10.1761 65.7172 1.52905 67.5483 1.52905 68.6674 1.52905 69.7864 10.1761 70.0407 15.2625 70.8037 20.349 71.5667 31.997 72.1771 32.0479 73.2452 32.0987 74.3133 20.8576 75.8902 15.5677 77.2126 10.2778 78.5351 0.308296 80.1628 0.308296 81.1801 0.308296 82.1974 10.2778 82.4517 15.5677 83.3164 20.8576 84.1811 31.9461 85.0967 32.0479 86.3683 32.1496 87.6399 21.468 89.5219 16.1781 90.9461 10.8882 92.3703 0.460874 93.998 0.308296 94.9136 0.155718 95.8291 9.92174 95.9309 15.2625 96.4395 20.6033 96.9482 32.3531 96.7956 32.3531 97.9655 32.3531 99.1353 20.5525 101.984 15.2625 103.459 9.97259 104.934 0.613485 105.087 0.613485 106.816 0.613485 108.545 12.5158 108.393 15.2625 113.835 18.0092 119.278 16.6867 136.368 17.0937 139.471" stroke="#000005" stroke-width="0.333333" stroke-linejoin="round" stroke-miterlimit="10" fill="none" fill-rule="evenodd" transform="matrix(-0.921085 -0.389363 -0.389363 0.921085 441.518 296.83)"/><path d="M17.7467 0C18.2396 4.6973 18.7844 20.372 15.879 26.0394 12.9736 31.7068 0.210697 32.3705 0.314461 34.0044 0.418225 35.6382 11.2096 34.9745 16.5016 35.8424 21.7935 36.7104 32.118 38.2932 32.0661 39.2123 32.0143 40.1313 21.4304 40.6419 16.1903 41.3567 10.9502 42.0715 0.573886 42.5821 0.625752 43.5011 0.67765 44.4201 11.1578 45.7987 16.5016 46.8709 21.8454 47.9431 32.6887 49.0153 32.6887 49.9344 32.6887 50.8534 21.9492 51.415 16.5016 52.3851 11.054 53.3552 0.210697 54.887 0.0031701 55.7549-0.204357 56.6229 9.80885 57.0314 15.2564 57.593 20.704 58.1546 32.6368 58.0015 32.6887 59.1247 32.7406 60.248 20.7559 62.6988 15.5677 64.3326 10.3795 65.9664 1.55962 67.8045 1.55962 68.9278 1.55962 70.0511 10.3795 70.3064 15.5677 71.0722 20.7559 71.8381 32.6368 72.4508 32.6887 73.523 32.7406 74.5952 21.2747 76.178 15.879 77.5055 10.4833 78.833 0.314461 80.4668 0.314461 81.488 0.314461 82.5091 10.4833 82.7644 15.879 83.6324 21.2747 84.5004 32.5849 85.4194 32.6887 86.6958 32.7925 87.9723 21.8973 89.8614 16.5016 91.291 11.1059 92.7206 0.47009 94.3545 0.314461 95.2735 0.158832 96.1926 10.1201 96.2947 15.5677 96.8052 21.0153 97.3158 33 97.1627 33 98.337 33 99.5113 20.9634 102.371 15.5677 103.851 10.172 105.332 0.625752 105.485 0.625752 107.221 0.625752 108.957 12.7661 108.804 15.5677 114.267 18.3693 119.73 17.0204 136.885 17.4355 140" stroke="#000005" stroke-width="0.333333" stroke-linejoin="round" stroke-miterlimit="10" fill="none" fill-rule="evenodd" transform="matrix(1.83697e-16 1 1 -1.83697e-16 125.5 265.5)"/><path d="M17.7467 0C18.2396 4.66375 18.7844 20.2265 15.879 25.8534 12.9736 31.4803 0.210697 32.1393 0.314461 33.7615 0.418225 35.3837 11.2096 34.7247 16.5016 35.5864 21.7935 36.4482 32.118 38.0197 32.0661 38.9322 32.0143 39.8446 21.4304 40.3516 16.1903 41.0613 10.9502 41.771 0.573886 42.2779 0.625752 43.1904 0.67765 44.1028 11.1578 45.4716 16.5016 46.5361 21.8454 47.6006 32.6887 48.6652 32.6887 49.5777 32.6887 50.4902 21.9492 51.0478 16.5016 52.0109 11.054 52.9741 0.210697 54.4949 0.0031701 55.3567-0.204357 56.2184 9.80885 56.624 15.2564 57.1816 20.704 57.7393 32.6368 57.5872 32.6887 58.7024 32.7406 59.8176 20.7559 62.2509 15.5677 63.8731 10.3795 65.4953 1.55962 67.3202 1.55962 68.4354 1.55962 69.5507 10.3795 69.8042 15.5677 70.5646 20.7559 71.3249 32.6368 71.9333 32.6887 72.9978 32.7406 74.0623 21.2747 75.6338 15.879 76.9519 10.4833 78.2699 0.314461 79.892 0.314461 80.9059 0.314461 81.9198 10.4833 82.1732 15.879 83.035 21.2747 83.8968 32.5849 84.8093 32.6887 86.0766 32.7925 87.3439 21.8973 89.2195 16.5016 90.6389 11.1059 92.0583 0.47009 93.6805 0.314461 94.593 0.158832 95.5055 10.1201 95.6069 15.5677 96.1138 21.0153 96.6207 33 96.4687 33 97.6346 33 98.8005 20.9634 101.639 15.5677 103.109 10.172 104.579 0.625752 104.732 0.625752 106.455 0.625752 108.179 12.7661 108.027 15.5677 113.451 18.3693 118.875 17.0204 135.908 17.4355 139" stroke="#000005" stroke-width="0.333333" stroke-linejoin="round" stroke-miterlimit="10" fill="none" fill-rule="evenodd" transform="matrix(1.83697e-16 1 1 -1.83697e-16 282.5 264.5)"/><path d="M17.3988 0C17.882 4.67955 18.4161 20.295 15.5677 25.941 12.7193 31.587 0.206567 32.2482 0.308296 33.8759 0.410026 35.5036 10.9899 34.8424 16.1781 35.707 21.3663 36.5718 31.4884 38.1485 31.4375 39.0641 31.3867 39.9797 21.0103 40.4883 15.8729 41.2004 10.7356 41.9125 0.562636 42.4212 0.613485 43.3367 0.664365 44.2523 10.939 45.6257 16.1781 46.6938 21.4171 47.762 32.0479 48.8301 32.0479 49.7457 32.0479 50.6613 21.5189 51.2208 16.1781 52.1872 10.8373 53.1537 0.206567 54.6796 0.00310795 55.5443-0.200351 56.409 9.61656 56.8159 14.9573 57.3754 20.2981 57.9349 31.997 57.7823 32.0479 58.9013 32.0988 60.0204 20.349 62.4619 15.2625 64.0896 10.1761 65.7172 1.52905 67.5483 1.52905 68.6674 1.52905 69.7864 10.1761 70.0407 15.2625 70.8037 20.349 71.5667 31.997 72.1771 32.0479 73.2452 32.0987 74.3133 20.8576 75.8902 15.5677 77.2126 10.2778 78.5351 0.308296 80.1628 0.308296 81.1801 0.308296 82.1974 10.2778 82.4517 15.5677 83.3164 20.8576 84.1811 31.9461 85.0967 32.0479 86.3683 32.1496 87.6399 21.468 89.5219 16.1781 90.9461 10.8882 92.3703 0.460874 93.998 0.308296 94.9136 0.155718 95.8291 9.92174 95.9309 15.2625 96.4395 20.6033 96.9482 32.3531 96.7956 32.3531 97.9655 32.3531 99.1353 20.5525 101.984 15.2625 103.459 9.97259 104.934 0.613485 105.087 0.613485 106.816 0.613485 108.545 12.5158 108.393 15.2625 113.835 18.0092 119.278 16.6867 136.368 17.0937 139.471" stroke="#000005" stroke-width="0.333333" stroke-linejoin="round" stroke-miterlimit="10" fill="none" fill-rule="evenodd" transform="matrix(-0.841758 -0.539855 -0.539855 0.841758 290.198 301.42)"/><path d="M17.3988 0C17.882 4.67955 18.4161 20.295 15.5677 25.941 12.7193 31.587 0.206567 32.2482 0.308296 33.8759 0.410026 35.5036 10.9899 34.8424 16.1781 35.707 21.3663 36.5718 31.4884 38.1485 31.4375 39.0641 31.3867 39.9797 21.0103 40.4883 15.8729 41.2004 10.7356 41.9125 0.562636 42.4212 0.613485 43.3367 0.664365 44.2523 10.939 45.6257 16.1781 46.6938 21.4171 47.762 32.0479 48.8301 32.0479 49.7457 32.0479 50.6613 21.5189 51.2208 16.1781 52.1872 10.8373 53.1537 0.206567 54.6796 0.00310795 55.5443-0.200351 56.409 9.61656 56.8159 14.9573 57.3754 20.2981 57.9349 31.997 57.7823 32.0479 58.9013 32.0988 60.0204 20.349 62.4619 15.2625 64.0896 10.1761 65.7172 1.52905 67.5483 1.52905 68.6674 1.52905 69.7864 10.1761 70.0407 15.2625 70.8037 20.349 71.5667 31.997 72.1771 32.0479 73.2452 32.0987 74.3133 20.8576 75.8902 15.5677 77.2126 10.2778 78.5351 0.308296 80.1628 0.308296 81.1801 0.308296 82.1974 10.2778 82.4517 15.5677 83.3164 20.8576 84.1811 31.9461 85.0967 32.0479 86.3683 32.1496 87.6399 21.468 89.5219 16.1781 90.9461 10.8882 92.3703 0.460874 93.998 0.308296 94.9136 0.155718 95.8291 9.92174 95.9309 15.2625 96.4395 20.6033 96.9482 32.3531 96.7956 32.3531 97.9655 32.3531 99.1353 20.5525 101.984 15.2625 103.459 9.97259 104.934 0.613485 105.087 0.613485 106.816 0.613485 108.545 12.5158 108.393 15.2625 113.835 18.0092 119.278 16.6867 136.368 17.0937 139.471" stroke="#000005" stroke-width="0.333333" stroke-linejoin="round" stroke-miterlimit="10" fill="none" fill-rule="evenodd" transform="matrix(-0.0598659 0.998206 0.998206 0.0598659 213.561 404.955)"/><path d="M87.5001 281C87.5001 266.365 99.3645 254.5 114 254.5 128.636 254.5 140.5 266.365 140.5 281 140.5 295.636 128.636 307.5 114 307.5 99.3645 307.5 87.5001 295.636 87.5001 281Z" stroke="#000005" stroke-width="0.333333" stroke-linejoin="round" stroke-miterlimit="10" fill="#902D06" fill-rule="evenodd"/><path d="M172.5 418C172.5 403.365 184.365 391.5 199 391.5 213.636 391.5 225.5 403.365 225.5 418 225.5 432.636 213.636 444.5 199 444.5 184.365 444.5 172.5 432.636 172.5 418Z" stroke="#000005" stroke-width="0.333333" stroke-linejoin="round" stroke-miterlimit="10" fill="#902D06" fill-rule="evenodd"/><path d="M248.5 281C248.5 266.365 260.365 254.5 275 254.5 289.636 254.5 301.5 266.365 301.5 281 301.5 295.636 289.636 307.5 275 307.5 260.365 307.5 248.5 295.636 248.5 281Z" stroke="#000005" stroke-width="0.333333" stroke-linejoin="round" stroke-miterlimit="10" fill="#902D06" fill-rule="evenodd"/><path d="M401.5 278C401.5 263.365 413.365 251.5 428 251.5 442.636 251.5 454.5 263.365 454.5 278 454.5 292.636 442.636 304.5 428 304.5 413.365 304.5 401.5 292.636 401.5 278Z" stroke="#000005" stroke-width="0.333333" stroke-linejoin="round" stroke-miterlimit="10" fill="#902D06" fill-rule="evenodd"/><path d="M339.5 433C339.5 418.365 351.365 406.5 366 406.5 380.636 406.5 392.5 418.365 392.5 433 392.5 447.636 380.636 459.5 366 459.5 351.365 459.5 339.5 447.636 339.5 433Z" stroke="#000005" stroke-width="0.333333" stroke-linejoin="round" stroke-miterlimit="10" fill="#902D06" fill-rule="evenodd"/><path d="M557.5 281C557.5 266.365 569.365 254.5 584 254.5 598.636 254.5 610.5 266.365 610.5 281 610.5 295.636 598.636 307.5 584 307.5 569.365 307.5 557.5 295.636 557.5 281Z" stroke="#00B050" stroke-width="3" stroke-linejoin="round" stroke-miterlimit="10" fill="none" fill-rule="evenodd"/><path d="M643.5 418C643.5 403.365 655.365 391.5 670 391.5 684.636 391.5 696.5 403.365 696.5 418 696.5 432.636 684.636 444.5 670 444.5 655.365 444.5 643.5 432.636 643.5 418Z" stroke="#00B050" stroke-width="3" stroke-linejoin="round" stroke-miterlimit="10" fill="none" fill-rule="evenodd"/><path d="M719.5 281C719.5 266.365 731.365 254.5 746 254.5 760.636 254.5 772.5 266.365 772.5 281 772.5 295.636 760.636 307.5 746 307.5 731.365 307.5 719.5 295.636 719.5 281Z" stroke="#00B050" stroke-width="3" stroke-linejoin="round" stroke-miterlimit="10" fill="none" fill-rule="evenodd"/><path d="M872.5 278C872.5 263.365 884.365 251.5 899 251.5 913.636 251.5 925.5 263.365 925.5 278 925.5 292.636 913.636 304.5 899 304.5 884.365 304.5 872.5 292.636 872.5 278Z" stroke="#00B050" stroke-width="3" stroke-linejoin="round" stroke-miterlimit="10" fill="none" fill-rule="evenodd"/><path d="M810.5 433C810.5 418.365 822.365 406.5 837 406.5 851.636 406.5 863.5 418.365 863.5 433 863.5 447.636 851.636 459.5 837 459.5 822.365 459.5 810.5 447.636 810.5 433Z" stroke="#00B050" stroke-width="3" stroke-linejoin="round" stroke-miterlimit="10" fill="none" fill-rule="evenodd"/><path d="M613.47 280 715.701 280 715.701 283 613.47 283ZM621.714 288.046 610.493 281.5 621.714 274.954C622.43 274.537 623.348 274.779 623.766 275.494 624.183 276.21 623.941 277.128 623.226 277.546L614.226 282.796 614.226 280.204 623.226 285.454C623.941 285.872 624.183 286.79 623.766 287.506 623.348 288.221 622.43 288.463 621.714 288.046ZM707.457 274.954 718.678 281.5 707.457 288.046C706.741 288.463 705.823 288.222 705.405 287.506 704.988 286.79 705.23 285.872 705.945 285.454L714.945 280.204 714.945 282.796 705.945 277.546C705.23 277.128 704.988 276.21 705.405 275.494 705.823 274.779 706.741 274.537 707.457 274.954Z" fill="#00B050"/><path d="M3.01157-1.41509 97.1464 1.25788 97.0612 4.25667 2.92642 1.5837ZM11.0239 6.86133-0.00694943-0.000197305 11.3955-6.22473C12.1226-6.62167 13.0338-6.35399 13.4308-5.62686 13.8277-4.89972 13.5601-3.98847 12.8329-3.59153L3.68753 1.4009 3.76108-1.18939 12.6084 4.31394C13.3119 4.75151 13.5274 5.67647 13.0899 6.37992 12.6523 7.08336 11.7273 7.29889 11.0239 6.86133ZM89.0487-4.01976 100.079 2.84177 88.6771 9.06631C87.9499 9.46325 87.0387 9.19557 86.6417 8.46843 86.2448 7.74129 86.5125 6.83005 87.2396 6.43311L96.385 1.44068 96.3115 4.03097 87.4641-1.47237C86.7607-1.90993 86.5451-2.8349 86.9827-3.53834 87.4202-4.24178 88.3452-4.45732 89.0487-4.01976Z" fill="#00B050" transform="matrix(1 0 0 -1 772.5 281.342)"/><path d="M587.454 309.031 650.412 396.273 647.98 398.029 585.022 310.786ZM585.755 320.424 584.496 307.494 596.37 312.763C597.128 313.099 597.469 313.986 597.133 314.743 596.797 315.5 595.911 315.841 595.154 315.505L585.63 311.28 587.731 309.763 588.74 320.133C588.821 320.958 588.217 321.691 587.393 321.772 586.568 321.852 585.835 321.249 585.755 320.424ZM649.68 386.636 650.938 399.565 639.064 394.296C638.307 393.961 637.965 393.074 638.301 392.317 638.637 391.56 639.524 391.218 640.281 391.554L649.805 395.78 647.703 397.297 646.694 386.926C646.614 386.102 647.217 385.368 648.042 385.288 648.866 385.208 649.6 385.811 649.68 386.636Z" fill="#00B050"/><path d="M2.84245 1.7299 56.9651 88.7456 54.4177 90.33 0.295015 3.31437ZM0.364635 12.9796-0.00367177-0.00590326 11.4811 6.06534C12.2135 6.45251 12.4933 7.36009 12.1062 8.09248 11.719 8.82487 10.8114 9.10472 10.079 8.71756L0.867602 3.84807 3.06803 2.47944 3.36343 12.8946C3.38692 13.7227 2.73465 14.413 1.90656 14.4365 1.07847 14.46 0.388122 13.8077 0.364635 12.9796ZM56.8953 79.08 57.2636 92.0655 45.7788 85.9943C45.0465 85.6071 44.7666 84.6996 45.1538 83.9672 45.5409 83.2348 46.4485 82.9549 47.1809 83.3421L56.3923 88.2116 54.1919 89.5802 53.8965 79.165C53.873 78.337 54.5253 77.6466 55.3534 77.6231 56.1815 77.5996 56.8718 78.2519 56.8953 79.08Z" fill="#00B050" transform="matrix(-1 0 0 1 745.76 307.5)"/><path d="M2.48191 2.21619 43.332 106.231 40.5396 107.327-0.310464 3.31285ZM-1.99326 12.8309-0.00254173-0.00647125 10.192 8.04527C10.8421 8.55874 10.9529 9.502 10.4395 10.1521 9.92599 10.8022 8.98273 10.913 8.33261 10.3995L0.155985 3.94158 2.56798 2.99431 0.971305 13.2906C0.844356 14.1092 0.0778026 14.6699-0.74084 14.543-1.55948 14.416-2.12021 13.6495-1.99326 12.8309ZM45.0147 96.7126 43.024 109.55 32.8294 101.498C32.1793 100.985 32.0685 100.041 32.582 99.3913 33.0954 98.7412 34.0387 98.6304 34.6888 99.1439L42.8654 105.602 40.4534 106.549 42.0501 96.2528C42.1771 95.4342 42.9436 94.8735 43.7623 95.0004 44.5809 95.1274 45.1416 95.8939 45.0147 96.7126Z" fill="#00B050" transform="matrix(1 0 0 -1 855.5 414.043)"/><path d="M699.637 417.39 808.056 431.277 807.675 434.253 699.255 420.365ZM706.792 426.417 696.493 418.499 708.455 413.432C709.218 413.109 710.098 413.466 710.421 414.228 710.744 414.991 710.388 415.871 709.625 416.195L700.031 420.259 700.36 417.688 708.62 424.039C709.277 424.544 709.4 425.486 708.895 426.143 708.39 426.799 707.448 426.922 706.792 426.417ZM800.519 425.225 810.818 433.143 798.856 438.21C798.093 438.533 797.213 438.177 796.89 437.414 796.567 436.651 796.923 435.771 797.686 435.448L807.28 431.384 806.951 433.954 798.691 427.603C798.034 427.098 797.911 426.156 798.416 425.5 798.921 424.843 799.863 424.72 800.519 425.225Z" fill="#00B050"/><path d="M756.393 531.297 750.839 458.16 751.171 458.135 756.725 531.272ZM747.117 459.78 750.5 451.5 755.094 459.174Z" fill="#FF0000"/></g></svg>