<svg width="559" height="55" xmlns="http://www.w3.org/2000/svg" xmlns:xlink="http://www.w3.org/1999/xlink" overflow="hidden"><defs><clipPath id="clip0"><rect x="102" y="480" width="559" height="55"/></clipPath></defs><g clip-path="url(#clip0)" transform="translate(-102 -480)"><rect x="178.5" y="481.5" width="53" height="53" stroke="#000005" stroke-width="0.333333" stroke-linejoin="round" stroke-miterlimit="10" fill="none"/><text fill="#000005" font-family="Cambria Math,Cambria Math_MSFontService,sans-serif" font-weight="400" font-size="21" transform="translate(185.616 516)">𝐺𝑁<tspan font-size="15" x="26.9" y="4">1</tspan></text><rect x="361.5" y="481.5" width="53" height="53" stroke="#000005" stroke-width="0.333333" stroke-linejoin="round" stroke-miterlimit="10" fill="none"/><text fill="#000005" font-family="Cambria Math,Cambria Math_MSFontService,sans-serif" font-weight="400" font-size="21" transform="translate(368.736 516)">𝐺𝑁<tspan font-size="15" x="27.3933" y="4">2</tspan></text><rect x="531.5" y="481.5" width="53" height="53" stroke="#000005" stroke-width="0.333333" stroke-linejoin="round" stroke-miterlimit="10" fill="none"/><text fill="#000005" font-family="Cambria Math,Cambria Math_MSFontService,sans-serif" font-weight="400" font-size="21" transform="translate(536.318 516)">𝐺𝑁<tspan font-size="15" x="27.3934" y="4">𝑀</tspan><tspan font-size="32" x="-76.8536" y="4">⋯</tspan></text><path d="M140.501 507.333 171.635 507.486 171.633 507.82 140.499 507.667ZM170.32 503.646 178.301 507.686 170.281 511.646Z" fill="#000005"/><text fill="#000005" font-family="Cambria Math,Cambria Math_MSFontService,sans-serif" font-weight="400" font-size="24" transform="translate(106.24 511)">𝐺<tspan font-size="18" x="14.4667" y="5">0</tspan></text><path d="M230.501 508.333 261.635 508.486 261.633 508.82 230.499 508.667ZM260.32 504.646 268.301 508.686 260.281 512.646Z" fill="#000005"/><path d="M321.501 507.333 352.635 507.486 352.633 507.82 321.499 507.667ZM351.32 503.646 359.301 507.686 351.281 511.646Z" fill="#000005"/><text fill="#000005" font-family="Cambria Math,Cambria Math_MSFontService,sans-serif" font-weight="400" font-size="24" transform="translate(282.414 511)">𝐺<tspan font-size="18" x="13.9133" y="5">1</tspan></text><path d="M584.501 508.333 615.635 508.486 615.633 508.82 584.499 508.667ZM614.32 504.646 622.301 508.686 614.281 512.646Z" fill="#000005"/><text fill="#000005" font-family="Cambria Math,Cambria Math_MSFontService,sans-serif" font-weight="400" font-size="24" transform="translate(625.259 515)">𝐺<tspan font-size="18" x="14.4667" y="5">𝑀</tspan></text><path d="M410.501 508.333 441.635 508.486 441.633 508.82 410.499 508.667ZM440.32 504.646 448.301 508.686 440.281 512.646Z" fill="#000005"/><path d="M493.501 508.333 524.635 508.486 524.633 508.82 493.499 508.667ZM523.32 504.646 531.301 508.686 523.281 512.646Z" fill="#000005"/></g></svg>