<svg width="165" height="514" xmlns="http://www.w3.org/2000/svg" xmlns:xlink="http://www.w3.org/1999/xlink" overflow="hidden"><defs><clipPath id="clip0"><rect x="215" y="157" width="165" height="514"/></clipPath></defs><g clip-path="url(#clip0)" transform="translate(-215 -157)"><path d="M254.682 595.341 253.462 532.169 253.795 532.162 255.015 595.335ZM249.655 533.576 253.5 525.5 257.654 533.421Z" fill="#000005"/><path d="M0.166659-0.00160919 0.776622 63.1703 0.443304 63.1735-0.166659 0.00160919ZM4.5969 61.8001 0.674331 69.8383-3.40272 61.8773Z" fill="#000005" transform="matrix(1 0 0 -1 253.5 449.338)"/><path d="M216.5 196.5C216.5 175.513 233.513 158.5 254.5 158.5 275.487 158.5 292.5 175.513 292.5 196.5 292.5 217.487 275.487 234.5 254.5 234.5 233.513 234.5 216.5 217.487 216.5 196.5Z" stroke="#000005" stroke-width="0.333333" stroke-linejoin="round" stroke-miterlimit="10" fill="none" fill-rule="evenodd"/><text fill="#000005" font-family="Cambria Math,Cambria Math_MSFontService,sans-serif" font-weight="400" font-size="27" transform="translate(246.142 195)">𝒐</text><path d="M216.5 487.5C216.5 466.513 233.513 449.5 254.5 449.5 275.487 449.5 292.5 466.513 292.5 487.5 292.5 508.487 275.487 525.5 254.5 525.5 233.513 525.5 216.5 508.487 216.5 487.5Z" stroke="#000005" stroke-width="0.333333" stroke-linejoin="round" stroke-miterlimit="10" fill="none" fill-rule="evenodd"/><text fill="#000005" font-family="Cambria Math,Cambria Math_MSFontService,sans-serif" font-weight="400" font-size="27" transform="translate(245.389 486)">𝒉</text><path d="M216.5 632.5C216.5 611.513 233.513 594.5 254.5 594.5 275.487 594.5 292.5 611.513 292.5 632.5 292.5 653.487 275.487 670.5 254.5 670.5 233.513 670.5 216.5 653.487 216.5 632.5Z" stroke="#000005" stroke-width="0.333333" stroke-linejoin="round" stroke-miterlimit="10" fill="none" fill-rule="evenodd"/><text fill="#000005" font-family="Cambria Math,Cambria Math_MSFontService,sans-serif" font-weight="400" font-size="27" transform="translate(246.142 631)">𝒙</text><path d="M0.0184053 0.165647-2.23159 0.415647-2.1973 0.408114-4.4473 1.15811-4.42048 1.14648-6.60798 2.33398-6.58626 2.31989-8.71126 3.94489-10.759 5.93215-12.7475 8.29486-16.3595 13.9646-19.411 20.6319-21.7786 28.1128-23.2737 36.0932-23.8337 44.3238-23.8338 44.2999-23.5213 48.4249-22.7115 52.5303-21.3421 56.5716-19.4745 60.4908-17.17 64.2886-14.4903 67.9643-8.00549 74.6338-8.02658 74.6155-0.339082 80.2405 3.83222 82.605 8.19429 84.5984 12.6816 86.2182 17.3534 87.4009 22.0263 88.1479 26.7588 88.3961 31.4912 88.1461 36.1612 87.3979 40.8341 86.2134 45.3203 84.6551 49.6807 82.6609 53.8569 80.3541 61.5273 74.8025 61.506 74.8208 68.006 68.1958 70.6794 64.6496 72.9825 60.8511 74.85 56.9899 76.2174 53.0083 77.0241 48.9673 77.3338 44.9247 77.3337 44.949 76.7712 36.824 75.2738 28.9687 72.904 21.6765 69.8487 15.0699 69.8604 15.091 66.2354 9.5285 64.2489 7.23403 62.1965 5.24465 62.2313 5.27056 59.6686 3.84114 59.8309 3.55003 62.3937 4.97944C62.4064 4.98652 62.4181 4.99523 62.4285 5.00535L64.5011 7.01597 66.5146 9.3465 70.1396 14.909C70.144 14.9157 70.1479 14.9228 70.1513 14.9301L73.221 21.5735 75.6012 28.9063 77.1038 36.801 77.6663 44.926C77.6668 44.9341 77.6668 44.9422 77.6662 44.9503L77.3509 49.0327 76.5326 53.1167 75.15 57.1351 73.2675 61.0239 70.9455 64.8504 68.244 68.4292 61.744 75.0542C61.7374 75.0609 61.7303 75.067 61.7227 75.0725L54.0181 80.6459 49.8193 82.9641 45.4297 84.9699 40.9159 86.5366 36.2138 87.7271 31.5088 88.4789 26.7412 88.7289 21.9737 88.4771 17.2716 87.7241 12.5684 86.5318 8.05571 84.9016 3.66778 82.895-0.535918 80.5095-8.22342 74.8845C-8.23095 74.879-8.23801 74.8728-8.24451 74.8662L-14.7597 68.1607-17.455 64.4614-19.7755 60.6342-21.6579 56.6784-23.0385 52.5947-23.8537 48.4501-24.1662 44.3251C-24.1668 44.3171-24.1668 44.3091-24.1663 44.3012L-23.6013 36.0318-22.0964 28.0122-19.714 20.4931-16.6405 13.7854-13.0025 8.08014-10.991 5.69285-8.91374 3.68011-6.78874 2.05511C-6.78187 2.04985-6.77462 2.04515-6.76701 2.04102L-4.57951 0.853524C-4.57094 0.848869-4.56196 0.844972-4.5527 0.841886L-2.3027 0.0918861C-2.29158 0.0881766-2.28006 0.0856481-2.26841 0.0843527L-0.0184053-0.165647ZM59.6073 7.90955 53.5 1.375 62.392 0.409854Z" fill="#000005" transform="matrix(1.83697e-16 1 1 -1.83697e-16 281.5 460.5)"/><rect x="347.5" y="462.5" width="31" height="30" stroke="#000005" stroke-width="0.333333" stroke-linejoin="round" stroke-miterlimit="10" fill="#902D06"/><path d="M216.5 341.5C216.5 320.513 233.513 303.5 254.5 303.5 275.487 303.5 292.5 320.513 292.5 341.5 292.5 362.487 275.487 379.5 254.5 379.5 233.513 379.5 216.5 362.487 216.5 341.5Z" stroke="#000005" stroke-width="0.333333" stroke-linejoin="round" stroke-miterlimit="10" fill="none" fill-rule="evenodd"/><text fill="#000005" font-family="Cambria Math,Cambria Math_MSFontService,sans-serif" font-weight="400" font-size="27" transform="translate(246.889 341)">𝒛</text><path d="M0.0184053 0.165647-2.23159 0.415647-2.1973 0.408114-4.4473 1.15811-4.42048 1.14648-6.60798 2.33398-6.58626 2.31989-8.71126 3.94489-10.759 5.93215-12.7475 8.29486-16.3595 13.9646-19.411 20.6319-21.7786 28.1128-23.2737 36.0932-23.8337 44.3238-23.8338 44.2999-23.5213 48.4249-22.7115 52.5303-21.3421 56.5716-19.4745 60.4908-17.17 64.2886-14.4903 67.9643-8.00549 74.6338-8.02658 74.6155-0.339082 80.2405 3.83222 82.605 8.19429 84.5984 12.6816 86.2182 17.3534 87.4009 22.0263 88.1479 26.7588 88.3961 31.4912 88.1461 36.1612 87.3979 40.8341 86.2134 45.3203 84.6551 49.6807 82.6609 53.8569 80.3541 61.5273 74.8025 61.506 74.8208 68.006 68.1958 70.6794 64.6496 72.9825 60.8511 74.85 56.9899 76.2174 53.0083 77.0241 48.9673 77.3338 44.9247 77.3337 44.949 76.7712 36.824 75.2738 28.9687 72.904 21.6765 69.8487 15.0699 69.8604 15.091 66.2354 9.5285 64.2489 7.23403 62.1965 5.24465 62.2313 5.27056 59.6686 3.84114 59.8309 3.55003 62.3937 4.97944C62.4064 4.98652 62.4181 4.99523 62.4285 5.00535L64.5011 7.01597 66.5146 9.3465 70.1396 14.909C70.144 14.9157 70.1479 14.9228 70.1513 14.9301L73.221 21.5735 75.6012 28.9063 77.1038 36.801 77.6663 44.926C77.6668 44.9341 77.6668 44.9422 77.6662 44.9503L77.3509 49.0327 76.5326 53.1167 75.15 57.1351 73.2675 61.0239 70.9455 64.8504 68.244 68.4292 61.744 75.0542C61.7374 75.0609 61.7303 75.067 61.7227 75.0725L54.0181 80.6459 49.8193 82.9641 45.4297 84.9699 40.9159 86.5366 36.2138 87.7271 31.5088 88.4789 26.7412 88.7289 21.9737 88.4771 17.2716 87.7241 12.5684 86.5318 8.05571 84.9016 3.66778 82.895-0.535918 80.5095-8.22342 74.8845C-8.23095 74.879-8.23801 74.8728-8.24451 74.8662L-14.7597 68.1607-17.455 64.4614-19.7755 60.6342-21.6579 56.6784-23.0385 52.5947-23.8537 48.4501-24.1662 44.3251C-24.1668 44.3171-24.1668 44.3091-24.1663 44.3012L-23.6013 36.0318-22.0964 28.0122-19.714 20.4931-16.6405 13.7854-13.0025 8.08014-10.991 5.69285-8.91374 3.68011-6.78874 2.05511C-6.78187 2.04985-6.77462 2.04515-6.76701 2.04102L-4.57951 0.853524C-4.57094 0.848869-4.56196 0.844972-4.5527 0.841886L-2.3027 0.0918861C-2.29158 0.0881766-2.28006 0.0856481-2.26841 0.0843527L-0.0184053-0.165647ZM59.6073 7.90955 53.5 1.375 62.392 0.409854Z" fill="#000005" transform="matrix(1.83697e-16 1 1 -1.83697e-16 283.5 315.5)"/><rect x="349.5" y="322.5" width="30" height="30" stroke="#000005" stroke-width="0.333333" stroke-linejoin="round" stroke-miterlimit="10" fill="#902D06"/><path d="M0.166663-0.0010861 0.578337 63.1705 0.245011 63.1727-0.166663 0.0010861ZM4.4029 61.8122 0.455118 69.8381-3.59693 61.8643Z" fill="#000005" transform="matrix(1 0 0 -1 254.5 304.338)"/></g></svg>