<svg width="474" height="228" xmlns="http://www.w3.org/2000/svg" xmlns:xlink="http://www.w3.org/1999/xlink" overflow="hidden"><defs><clipPath id="clip0"><rect x="200" y="111" width="474" height="228"/></clipPath></defs><g clip-path="url(#clip0)" transform="translate(-200 -111)"><path d="M264 131.33C264 120.102 273.102 111 284.33 111L592.67 111C603.898 111 613 120.102 613 131.33L613 287.669C613 298.898 603.898 308 592.67 308L284.33 308C273.102 308 264 298.898 264 287.669Z" fill="#CDCDFF" fill-rule="evenodd"/><path d="M295 319 295 296.273C295 277.428 310.277 262.152 329.122 262.152L374 262.152 374 258 374 263.738 374 269.475 374 265.324 329.122 265.324C312.029 265.324 298.172 279.18 298.172 296.273L298.172 319Z" fill="#7030A0" fill-rule="evenodd"/><path d="M0 87 0 14.9654C0 8.24855 5.44514 2.80343 12.1621 2.80343L20.2982 2.80343 20.2982 0 26 4.53487 20.2982 9.06983 20.2982 6.2664 12.1621 6.2664C7.35769 6.2664 3.46298 10.1611 3.46298 14.9654L3.46298 87Z" fill="#7030A0" fill-rule="evenodd" transform="matrix(-1.83697e-16 -1 -1 1.83697e-16 557 286)"/><path d="M0 87 0 16.4065C-2.76907e-15 8.65606 6.28298 2.37309 14.0334 2.37309L23.6658 2.37319 23.6658 0 30 3.72452 23.6658 7.44895 23.6658 5.07586 14.0334 5.07586C7.77568 5.07586 2.70277 10.1488 2.70277 16.4065L2.70267 87Z" fill="#7030A0" fill-rule="evenodd" transform="matrix(-1.83697e-16 -1 -1 1.83697e-16 486 266)"/><path d="M241 134 647 134 647 132 651 136 647 140 647 138 241 138Z" fill="#7030A0" fill-rule="evenodd"/><path d="M469 137.5C469 131.149 474.373 126 481 126 487.627 126 493 131.149 493 137.5 493 143.851 487.627 149 481 149 474.373 149 469 143.851 469 137.5Z" fill="#FFC000" fill-rule="evenodd"/><text fill="#000005" font-family="Arial,Arial_MSFontService,sans-serif" font-weight="400" font-size="19" transform="translate(474.534 144)">X</text><path d="M478 151.5 480.5 149 483 151.5 481.75 151.5 481.75 210 479.25 210 479.25 151.5Z" fill="#7030A0" fill-rule="evenodd"/><path d="M541 191C541 184.373 546.373 179 553 179 559.627 179 565 184.373 565 191 565 197.627 559.627 203 553 203 546.373 203 541 197.627 541 191Z" fill="#FFC000" fill-rule="evenodd"/><text fill="#000005" font-family="Arial,Arial_MSFontService,sans-serif" font-weight="400" font-size="19" transform="translate(547.083 198)">X</text><path d="M541 135.5C541 129.149 546.373 124 553 124 559.627 124 565 129.149 565 135.5 565 141.851 559.627 147 553 147 546.373 147 541 141.851 541 135.5Z" fill="#FFC000" fill-rule="evenodd"/><text fill="#000005" font-family="Arial,Arial_MSFontService,sans-serif" font-weight="400" font-size="27" transform="translate(545.128 145)">+</text><path d="M549 153.481 553 147 557 153.481 555 153.481 555 179 551 179 551 153.481Z" fill="#7030A0" fill-rule="evenodd"/><text fill="#000005" font-family="Cambria Math,Cambria Math_MSFontService,sans-serif" font-weight="400" font-size="16" transform="translate(203.024 137)">𝒉<tspan font-size="12" x="10.1667" y="3">𝑡</tspan><tspan font-size="12" x="15.6467" y="3">−</tspan><tspan font-size="12" x="24.1467" y="3">1</tspan><tspan font-size="16" x="452.007" y="3">𝒉</tspan><tspan font-size="12" x="462.173" y="6">𝑡</tspan><tspan font-size="16" x="182.741" y="53">𝒓</tspan><tspan font-size="12" x="191.408" y="57">𝑡</tspan><tspan font-size="16" x="85.7489" y="198">𝒙</tspan><tspan font-size="12" x="94.9155" y="201">𝑡</tspan><tspan font-size="16" x="256.701" y="62">𝒛</tspan><tspan font-size="12" x="265.034" y="65">𝑡</tspan><tspan font-size="16" x="355.476" y="87">𝒉</tspan></text><path d="M4.91406-10.7812 8.88281-8.85156 8.65625-8.35938 4.47656-9.77344 4.39062-9.77344 0.21875-8.35938 0-8.85156 3.86719-10.7812Z" fill="#000005" transform="translate(559.14 221)"/><text fill="#000005" font-family="Cambria Math,Cambria Math_MSFontService,sans-serif" font-weight="400" font-size="12" transform="translate(568.667 228)">𝑡</text><path d="M462 215.167C462 212.866 463.866 211 466.167 211L496.833 211C499.134 211 501 212.866 501 215.167L501 231.833C501 234.134 499.134 236 496.833 236L466.167 236C463.866 236 462 234.134 462 231.833Z" fill="#F593A3" fill-rule="evenodd"/><text fill="#000005" font-family="Arial,Arial_MSFontService,sans-serif" font-weight="400" font-size="15" transform="translate(466.133 229)">fcl<tspan font-size="15" x="14.6667" y="0">, </tspan>σ</text><path d="M399 215.167C399 212.866 400.866 211 403.167 211L433.833 211C436.134 211 438 212.866 438 215.167L438 231.833C438 234.134 436.134 236 433.833 236L403.167 236C400.866 236 399 234.134 399 231.833Z" fill="#F593A3" fill-rule="evenodd"/><text fill="#000005" font-family="Arial,Arial_MSFontService,sans-serif" font-weight="400" font-size="15" transform="translate(402.243 229)">fcl<tspan font-size="15" x="14.6667" y="0">, </tspan>σ</text><path d="M252 134 271.211 134C286.944 134 299.699 146.755 299.699 162.488L299.699 209 305 209 297.987 209 290.974 209 296.275 209 296.275 162.488C296.275 148.645 285.054 137.423 271.211 137.423L252 137.423Z" fill="#7030A0" fill-rule="evenodd"/><path d="M0 68 0 34.9455C-4.77425e-15 18.0655 13.684 4.38156 30.564 4.38156L75 4.38156 75 0 75 5.88197 75 11.764 75 7.38238 30.564 7.38238C15.3413 7.38238 3.00082 19.7228 3.00082 34.9455L3.00082 68Z" fill="#7030A0" fill-rule="evenodd" transform="matrix(1 0 0 -1 296 270)"/><path d="M469 170C469 163.373 474.373 158 481 158 487.627 158 493 163.373 493 170 493 176.627 487.627 182 481 182 474.373 182 469 176.627 469 170Z" fill="#FFC000" fill-rule="evenodd"/><text fill="#000005" font-family="Arial,Arial_MSFontService,sans-serif" font-weight="400" font-size="19" transform="translate(472.534 177)">1<tspan font-size="19" x="10.3333" y="0">-</tspan></text><path d="M0 59 0 16.197C-1.87787e-15 8.44656 6.28297 2.16359 14.0334 2.16359L23.6658 2.16359 23.6658 0 30 3.72447 23.6658 7.44901 23.6658 5.28542 14.0334 5.28542C8.00711 5.28542 3.12183 10.1707 3.12183 16.197L3.12183 59Z" fill="#7030A0" fill-rule="evenodd" transform="matrix(-1.83697e-16 -1 -1 1.83697e-16 423 266)"/><path d="M305 135 327.445 135C341.991 135 353.783 146.792 353.783 161.338L353.783 176.725 357 176.725 352.447 184 347.895 176.725 351.112 176.725 351.112 161.338C351.112 148.267 340.516 137.671 327.445 137.671L305 137.671Z" fill="#7030A0" fill-rule="evenodd"/><path d="M0 87 0 40.8126C-1.48957e-14 20.6259 16.3645 4.26134 36.5512 4.26134L117 4.26121 117 0 117 5.94213 117 11.8843 117 7.62292 36.5512 7.62292C18.2211 7.62292 3.36157 22.4824 3.36157 40.8126L3.3617 87Z" fill="#7030A0" fill-rule="evenodd" transform="matrix(1 0 0 -1 352 290)"/><path d="M480 211 480 201.73C480 195.272 485.236 190.036 491.694 190.036L533.971 190.036 533.971 186 542 191.416 533.971 196.831 533.971 192.795 491.694 192.795C486.76 192.795 482.759 196.796 482.759 201.73L482.759 211Z" fill="#7030A0" fill-rule="evenodd"/><path d="M341 196C341 189.373 346.373 184 353 184 359.627 184 365 189.373 365 196 365 202.627 359.627 208 353 208 346.373 208 341 202.627 341 196Z" fill="#FFC000" fill-rule="evenodd"/><text fill="#000005" font-family="Arial,Arial_MSFontService,sans-serif" font-weight="400" font-size="19" transform="translate(346.552 203)">X</text><path d="M0 20 0 12.2705C-3.62843e-15 7.10359 4.18863 2.91495 9.35557 2.91495L48.5842 2.91489 48.5842 0 57 4.46581 48.5842 8.93162 48.5842 6.01673 9.35557 6.01673C5.90169 6.01673 3.10177 8.81665 3.10177 12.2705L3.10177 20Z" fill="#7030A0" fill-rule="evenodd" transform="matrix(-1 0 0 1 421 192)"/><path d="M523 239.167C523 236.866 524.866 235 527.167 235L578.833 235C581.135 235 583 236.866 583 239.167L583 255.833C583 258.134 581.135 260 578.833 260L527.167 260C524.866 260 523 258.134 523 255.833Z" fill="#F593A3" fill-rule="evenodd"/><text fill="#000005" font-family="Arial,Arial_MSFontService,sans-serif" font-weight="400" font-size="15" transform="translate(527.497 253)">fcl<tspan font-size="15" x="14.6667" y="0">, tanh</tspan></text><path d="M549 207.481 553 201 557 207.481 555 207.481 555 235 551 235 551 207.481Z" fill="#7030A0" fill-rule="evenodd"/></g></svg>