<svg width="478" height="229" xmlns="http://www.w3.org/2000/svg" xmlns:xlink="http://www.w3.org/1999/xlink" overflow="hidden"><defs><clipPath id="clip0"><rect x="197" y="105" width="478" height="229"/></clipPath></defs><g clip-path="url(#clip0)" transform="translate(-197 -105)"><path d="M264 126.33C264 115.102 273.102 106 284.33 106L592.67 106C603.898 106 613 115.102 613 126.33L613 282.669C613 293.898 603.898 303 592.67 303L284.33 303C273.102 303 264 293.898 264 282.669Z" fill="#CDCDFF" fill-rule="evenodd"/><path d="M284 318 284 293.74C284 280.085 295.07 269.015 308.725 269.015L320.511 269.015 320.511 265 330 271.087 320.511 277.173 320.511 273.159 308.725 273.159C297.359 273.159 288.144 282.373 288.144 293.74L288.144 318Z" fill="#7030A0" fill-rule="evenodd"/><path d="M0 49 0 20.4123C-3.11918e-15 10.5951 7.95843 2.63664 17.7756 2.63664L30.2229 2.63664 30.2229 0 38 4.34832 30.2229 8.6967 30.2229 6.06005 17.7756 6.06005C9.84912 6.06005 3.42341 12.4858 3.42341 20.4123L3.42341 49Z" fill="#7030A0" fill-rule="evenodd" transform="matrix(-1.83697e-16 -1 -1 1.83697e-16 419 273)"/><path d="M0 49 0 21.1506C-3.11918e-15 11.3334 7.95843 3.37497 17.7756 3.37497L29.7304 3.37497 29.7304 0 38 5.0867 29.7304 10.1733 29.7304 6.79838 17.7756 6.79838C9.84912 6.79838 3.42341 13.2241 3.42341 21.1506L3.42341 49Z" fill="#7030A0" fill-rule="evenodd" transform="matrix(-1.83697e-16 -1 -1 1.83697e-16 486 273)"/><path d="M0 49 0 20.7816C-3.11918e-15 10.9644 7.95843 3.00597 17.7756 3.00597L29.9767 3.00597 29.9767 0 38 4.7177 29.9767 9.43539 29.9767 6.42943 17.7756 6.42943C9.84912 6.42943 3.42341 12.8551 3.42341 20.7816L3.42341 49Z" fill="#7030A0" fill-rule="evenodd" transform="matrix(-1.83697e-16 -1 -1 1.83697e-16 355 273)"/><path d="M241 133.75 645.5 133.75 645.5 131 651 136.5 645.5 142 645.5 139.25 241 139.25Z" fill="#7030A0" fill-rule="evenodd"/><path d="M241 268.75 645.5 268.75 645.5 266 651 271.5 645.5 277 645.5 274.25 241 274.25Z" fill="#7030A0" fill-rule="evenodd"/><path d="M338 137.5C338 131.149 343.373 126 350 126 356.627 126 362 131.149 362 137.5 362 143.851 356.627 149 350 149 343.373 149 338 143.851 338 137.5Z" fill="#FFC000" fill-rule="evenodd"/><text fill="#000005" font-family="Arial,Arial_MSFontService,sans-serif" font-weight="400" font-size="19" transform="translate(343.867 144)">X</text><path d="M346 153.5 350.5 149 355 153.5 352.75 153.5 352.75 210 348.25 210 348.25 153.5Z" fill="#7030A0" fill-rule="evenodd"/><path d="M468 178.5C468 172.149 473.373 167 480 167 486.627 167 492 172.149 492 178.5 492 184.851 486.627 190 480 190 473.373 190 468 184.851 468 178.5Z" fill="#FFC000" fill-rule="evenodd"/><text fill="#000005" font-family="Arial,Arial_MSFontService,sans-serif" font-weight="400" font-size="19" transform="translate(473.75 185)">X</text><path d="M467 135.5C467 129.149 472.596 124 479.5 124 486.404 124 492 129.149 492 135.5 492 141.851 486.404 147 479.5 147 472.596 147 467 141.851 467 135.5Z" fill="#FFC000" fill-rule="evenodd"/><text fill="#000005" font-family="Arial,Arial_MSFontService,sans-serif" font-weight="400" font-size="27" transform="translate(471.795 145)">+</text><path d="M572 270C572 263.373 577.373 258 584 258 590.627 258 596 263.373 596 270 596 276.627 590.627 282 584 282 577.373 282 572 276.627 572 270Z" fill="#FFC000" fill-rule="evenodd"/><text fill="#000005" font-family="Arial,Arial_MSFontService,sans-serif" font-weight="400" font-size="19" transform="translate(578.08 277)">X</text><path d="M540 136 555.932 136C572.326 136 585.616 149.29 585.616 165.684L585.616 190.779 589 190.779 583.812 200 578.625 190.779 582.009 190.779 582.009 165.684C582.009 151.282 570.334 139.607 555.932 139.607L540 139.607Z" fill="#7030A0" fill-rule="evenodd"/><path d="M561 213C561 205.82 566.82 200 574 200L593 200C600.18 200 606 205.82 606 213L606 213C606 220.18 600.18 226 593 226L574 226C566.82 226 561 220.18 561 213Z" fill="#FFC000" fill-rule="evenodd"/><text fill="#000005" font-family="Arial,Arial_MSFontService,sans-serif" font-weight="400" font-size="15" transform="translate(569.496 218)">tanh</text><path d="M580 250.642 582.25 250.642 582.25 226 586.75 226 586.75 250.642 589 250.642 584.5 258Z" fill="#7030A0" fill-rule="evenodd"/><path d="M476 153.481 480 147 484 153.481 482 153.481 482 167 478 167 478 153.481Z" fill="#7030A0" fill-rule="evenodd"/><path d="M413 210 413 197.421C413 186.734 421.663 178.07 432.35 178.07L461.143 178.07 461.143 174 467 179.977 461.143 185.955 461.143 181.885 432.35 181.885C423.77 181.885 416.814 188.84 416.814 197.421L416.814 210Z" fill="#7030A0" fill-rule="evenodd"/><text fill="#000005" font-family="Cambria Math,Cambria Math_MSFontService,sans-serif" font-weight="400" font-size="16" transform="translate(203.024 137)">𝒄<tspan font-size="12" x="8" y="3">𝑡</tspan><tspan font-size="12" x="13.48" y="3">−</tspan><tspan font-size="12" x="21.98" y="3">1</tspan><tspan font-size="16" x="-3.37323" y="136">𝒉</tspan><tspan font-size="12" x="6.79343" y="139">𝑡</tspan><tspan font-size="12" x="12.2734" y="139">−</tspan><tspan font-size="12" x="20.7734" y="139">1</tspan><tspan font-size="16" x="451.927" y="3">𝒄</tspan><tspan font-size="12" x="459.927" y="6">𝑡</tspan><tspan font-size="16" x="452.498" y="140">𝒉</tspan><tspan font-size="12" x="462.665" y="143">𝑡</tspan><tspan font-size="16" x="75.61" y="192">𝒙</tspan><tspan font-size="12" x="84.7766" y="196">𝑡</tspan></text><path d="M476 195.835 479.5 190 483 195.835 481.25 195.835 481.25 210 477.75 210 477.75 195.835Z" fill="#7030A0" fill-rule="evenodd"/><text fill="#000005" font-family="Cambria Math,Cambria Math_MSFontService,sans-serif" font-weight="400" font-size="16" transform="translate(330.753 186)">𝒇<tspan font-size="12" x="9" y="3">𝑡</tspan><tspan font-size="16" x="107.476" y="-13">𝒊</tspan><tspan font-size="12" x="113.476" y="-10">𝑡</tspan><tspan font-size="16" x="153.5" y="20">𝒄</tspan></text><path d="M5.64844-10.6719 6.25781-10.4062C6.01302-9.97917 5.77995-9.64974 5.55859-9.41797 5.33724-9.1862 5.125-9.02734 4.92188-8.94141 4.71875-8.85547 4.48698-8.8125 4.22656-8.8125 4.05469-8.8125 3.90365-8.82682 3.77344-8.85547 3.64323-8.88411 3.51562-8.92578 3.39062-8.98047 3.26562-9.03516 3.07031-9.13542 2.80469-9.28125 2.63281-9.375 2.49609-9.44792 2.39453-9.5 2.29297-9.55208 2.1875-9.59505 2.07812-9.62891 1.96875-9.66276 1.85417-9.67969 1.73438-9.67969 1.5625-9.67969 1.42057-9.65365 1.30859-9.60156 1.19661-9.54948 1.08333-9.45833 0.96875-9.32812 0.854167-9.19792 0.734375-9.02604 0.609375-8.8125L0-9.07812C0.307292-9.57812 0.558594-9.92578 0.753906-10.1211 0.949219-10.3164 1.14844-10.457 1.35156-10.543 1.55469-10.6289 1.79688-10.6719 2.07812-10.6719 2.23438-10.6719 2.375-10.6576 2.5-10.6289 2.625-10.6003 2.74089-10.5625 2.84766-10.5156 2.95443-10.4688 3.13802-10.375 3.39844-10.2344 3.58073-10.1302 3.72786-10.0495 3.83984-9.99219 3.95182-9.9349 4.0651-9.88932 4.17969-9.85547 4.29427-9.82161 4.42708-9.80469 4.57812-9.80469 4.78125-9.80469 4.96354-9.86849 5.125-9.99609 5.28646-10.1237 5.46094-10.349 5.64844-10.6719Z" fill="#000005" transform="translate(485.126 205)"/><text fill="#000005" font-family="Cambria Math,Cambria Math_MSFontService,sans-serif" font-weight="400" font-size="12" transform="translate(492.253 209)">𝑡<tspan font-size="16" x="63.4638" y="78">𝒐</tspan><tspan font-size="12" x="72.6305" y="81">𝑡</tspan></text><path d="M332 214.167C332 211.866 333.866 210 336.167 210L366.833 210C369.134 210 371 211.866 371 214.167L371 230.833C371 233.134 369.134 235 366.833 235L336.167 235C333.866 235 332 233.134 332 230.833Z" fill="#F593A3" fill-rule="evenodd"/><text fill="#000005" font-family="Arial,Arial_MSFontService,sans-serif" font-weight="400" font-size="15" transform="translate(335.467 228)">fcl<tspan font-size="15" x="14.6667" y="0">, </tspan>σ</text><path d="M396 214.167C396 211.866 397.866 210 400.167 210L430.833 210C433.134 210 435 211.866 435 214.167L435 230.833C435 233.134 433.134 235 430.833 235L400.167 235C397.866 235 396 233.134 396 230.833Z" fill="#F593A3" fill-rule="evenodd"/><text fill="#000005" font-family="Arial,Arial_MSFontService,sans-serif" font-weight="400" font-size="15" transform="translate(399.499 228)">fcl<tspan font-size="15" x="14.6667" y="0">, </tspan>σ</text><path d="M511 263.167C511 260.866 512.866 259 515.167 259L545.833 259C548.134 259 550 260.866 550 263.167L550 279.833C550 282.134 548.134 284 545.833 284L515.167 284C512.866 284 511 282.134 511 279.833Z" fill="#F593A3" fill-rule="evenodd"/><text fill="#000005" font-family="Arial,Arial_MSFontService,sans-serif" font-weight="400" font-size="15" transform="translate(514.412 276)">fcl<tspan font-size="15" x="14.6666" y="0">, </tspan>σ</text><path d="M451 214.167C451 211.866 452.866 210 455.167 210L506.833 210C509.134 210 511 211.866 511 214.167L511 230.833C511 233.134 509.134 235 506.833 235L455.167 235C452.866 235 451 233.134 451 230.833Z" fill="#F593A3" fill-rule="evenodd"/><text fill="#000005" font-family="Arial,Arial_MSFontService,sans-serif" font-weight="400" font-size="15" transform="translate(455.335 228)">fcl<tspan font-size="15" x="14.6667" y="0">, tanh</tspan></text></g></svg>