<svg xmlns="http://www.w3.org/2000/svg" xmlns:xlink="http://www.w3.org/1999/xlink" width="175" height="369" overflow="hidden"><defs><clipPath id="clip0"><rect width="175" height="369" x="356" y="236"/></clipPath></defs><g clip-path="url(#clip0)" transform="translate(-356 -236)"><path fill="#000005" d="M0.166659-0.00162967 0.775803 62.2928 0.442485 62.296-0.166659 0.00162967ZM4.59592 60.922 0.674331 68.9607-3.4037 61.0002Z" transform="matrix(1 0 0 -1 394.5 528.461)"/><path fill="none" fill-rule="evenodd" stroke="#000005" stroke-linejoin="round" stroke-miterlimit="10" stroke-width=".333" d="M358.5 275C358.5 254.289 375.513 237.5 396.5 237.5 417.487 237.5 434.5 254.289 434.5 275 434.5 295.711 417.487 312.5 396.5 312.5 375.513 312.5 358.5 295.711 358.5 275Z"/><text fill="#000005" font-family="Cambria Math,Cambria Math_MSFontService,sans-serif" font-size="27" font-weight="400" transform="translate(388.101 285)">𝒐</text><path fill="none" fill-rule="evenodd" stroke="#000005" stroke-linejoin="round" stroke-miterlimit="10" stroke-width=".333" d="M356.5 566.5C356.5 545.513 373.513 528.5 394.5 528.5 415.487 528.5 432.5 545.513 432.5 566.5 432.5 587.487 415.487 604.5 394.5 604.5 373.513 604.5 356.5 587.487 356.5 566.5Z"/><text fill="#000005" font-family="Cambria Math,Cambria Math_MSFontService,sans-serif" font-size="27" font-weight="400" transform="translate(386.483 576)">𝒙</text><path fill="#000005" d="M0.110432 0.993884-2.13957 1.24388-1.93377 1.19868-4.18377 1.94868-4.02291 1.87885-6.21041 3.06635-6.08005 2.98186-8.20505 4.60686-10.1789 6.5304-12.1101 8.83164-15.6567 14.4125-18.6533 20.9789-20.9842 28.3644-22.4546 36.2468-23.0023 44.3805-23.0029 44.237-22.6904 48.362-21.8939 52.3692-20.5528 56.3044-18.7221 60.1326-16.4575 63.8564-13.8169 67.4735-7.40791 74.053-7.53449 73.943 0.15301 79.568 4.24334 81.8802 8.54076 83.8405 12.9646 85.4344 17.5581 86.5931 22.158 87.3251 26.8026 87.5639 31.4474 87.3139 36.0295 86.5751 40.6294 85.4056 45.047 83.8678 49.3342 81.903 53.4541 79.6246 61.0388 74.1273 60.9112 74.2372 67.4112 67.6122 70.0142 64.1478 72.27 60.4189 74.0998 56.6269 75.4293 52.7374 76.2069 48.8039 76.5029 44.8608 76.5024 45.0066 75.9399 36.8816 74.4552 29.1246 72.1114 21.9339 69.0923 15.4196 69.1622 15.546 65.5372 9.98348 63.6186 7.77915 61.6163 5.8429 61.8254 5.99834 59.2626 4.56892 60.2369 2.82225 62.7996 4.25166C62.8758 4.29414 62.946 4.3464 63.0086 4.4071L65.1314 6.47085 67.2128 8.89152 70.8378 14.454C70.864 14.4943 70.8875 14.5368 70.9077 14.5804L74.0136 21.3161 76.4198 28.7504 77.9351 36.7434 78.4976 44.8684C78.501 44.9169 78.5008 44.9657 78.4971 45.0142L78.1681 49.1961 77.3207 53.3876 75.9002 57.4981 73.98 61.4561 71.6108 65.3522 68.8388 69.0128 62.3388 75.6378C62.2994 75.678 62.2568 75.7147 62.2112 75.7477L54.4209 81.3754 50.1658 83.722 45.703 85.7572 41.1206 87.3444 36.3455 88.5499 31.5526 89.3111 26.6974 89.5611 21.842 89.2999 17.0669 88.5319 12.2854 87.3156 7.70924 85.6595 3.25666 83.6198-1.02801 81.182-8.71551 75.557C-8.7607 75.524-8.80306 75.4871-8.84209 75.447L-15.4331 68.6515-18.1675 64.8936-20.5279 60.9924-22.4472 56.9456-23.8561 52.7558-24.6846 48.513-24.9971 44.388C-25.0008 44.3403-25.0009 44.2923-24.9977 44.2445L-24.4204 35.8782-22.8908 27.7606-20.4717 20.1461-17.3433 13.3375-13.6399 7.54336-11.5711 5.0946-9.41995 3.01814-7.29495 1.39314C-7.25373 1.36162-7.21019 1.3334-7.16459 1.30865L-4.97709 0.121147C-4.92564 0.0932152-4.87177 0.0698302-4.81623 0.0513166L-2.56623-0.698683C-2.49946-0.72094-2.43038-0.736111-2.36043-0.743884L-0.110432-0.993884ZM59.6073 7.90955 53.5 1.375 62.392 0.409854Z" transform="matrix(1.83697e-16 1 1 -1.83697e-16 430 394)"/><rect width="31" height="31" x="499.5" y="405.5" fill="#902D06" stroke="#000005" stroke-linejoin="round" stroke-miterlimit="10" stroke-width=".333"/><path fill="#000005" d="M0.166652-0.00222329 1.02082 64.0238 0.687514 64.0283-0.166652 0.00222329ZM4.83602 62.6394 0.943097 70.6921-3.16326 62.7461Z" transform="matrix(1 0 0 -1 395.5 383.192)"/><path fill="#FFF" fill-rule="evenodd" stroke="#000005" stroke-linejoin="round" stroke-miterlimit="10" stroke-width=".333" d="M357.5 396.167C357.5 389.171 363.171 383.5 370.167 383.5L420.833 383.5C427.829 383.5 433.5 389.171 433.5 396.167L433.5 446.833C433.5 453.829 427.829 459.5 420.833 459.5L370.167 459.5C363.171 459.5 357.5 453.829 357.5 446.833Z"/><text fill="#000005" font-family="Arial,Arial_MSFontService,sans-serif" font-size="19" font-weight="400" transform="translate(370.053 428)">LSTM</text></g></svg>