<svg xmlns="http://www.w3.org/2000/svg" xmlns:xlink="http://www.w3.org/1999/xlink" width="365" height="267" overflow="hidden"><defs><clipPath id="clip0"><rect width="365" height="267" x="117" y="94"/></clipPath></defs><g clip-path="url(#clip0)" transform="translate(-117 -94)"><rect width="257" height="53" x="117.5" y="262.5" fill="none" stroke="#000005" stroke-linejoin="round" stroke-miterlimit="10" stroke-width=".333"/><text fill="#000005" font-family="Arial,Arial_MSFontService,sans-serif" font-size="21" font-weight="400" transform="translate(145.733 296)">Linear, d, <tspan x="93.82" y="0" font-size="21">vocab_size</tspan></text><rect width="257" height="53" x="117.5" y="148.5" fill="none" stroke="#000005" stroke-linejoin="round" stroke-miterlimit="10" stroke-width=".333"/><text fill="#000005" font-family="Arial,Arial_MSFontService,sans-serif" font-size="21" font-weight="400" transform="translate(206.726 183)">S<tspan x="14.167" y="0" font-size="21">oftmax</tspan></text><path fill="#000005" d="M0.166667-2.8855e-07 0.16676 53.9738-0.166573 53.9738-0.166667 2.8855e-07ZM4.00009 52.6404 0.000104987 60.6404-3.99991 52.6404Z" transform="matrix(1 0 0 -1 246.5 262.14)"/><path fill="#000005" d="M0.166667-3.86424e-07 0.166756 38.6147-0.166577 38.6147-0.166667 3.86424e-07ZM4.00009 37.2814 0.000104987 45.2814-3.99991 37.2814Z" transform="matrix(1 0 0 -1 246.5 360.781)"/><text fill="red" font-family="Cambria Math,Cambria Math_MSFontService,sans-serif" font-size="24" font-weight="400" transform="translate(257.319 343)">𝑠𝑒𝑞𝑙𝑒𝑛<tspan x="69.167" y="0" font-size="24">′</tspan><tspan x="80.667" y="0" font-size="24">×</tspan><tspan x="103.167" y="0" font-size="24">𝑑</tspan><tspan x=".52" y="-111" font-size="24">𝑠𝑒𝑞𝑙𝑒𝑛</tspan><tspan x="69.687" y="-111" font-size="24">′</tspan><tspan x="81.187" y="-111" font-size="24">×</tspan><tspan x="103.687" y="-111" font-size="24">𝑣𝑜𝑐𝑎𝑏</tspan><tspan x="167.38" y="-111" font-size="24">_</tspan><tspan x="176.213" y="-111" font-size="24">𝑠𝑖𝑧𝑒</tspan></text><path fill="#000005" d="M0.166667-3.87791e-07 0.166756 38.4551-0.166577 38.4551-0.166667 3.87791e-07ZM4.00009 37.1218 0.000104987 45.1218-3.99991 37.1218Z" transform="matrix(1 0 0 -1 246.5 148.622)"/></g></svg>