<svg width="365" height="267" xmlns="http://www.w3.org/2000/svg" xmlns:xlink="http://www.w3.org/1999/xlink" overflow="hidden"><defs><clipPath id="clip0"><rect x="117" y="94" width="365" height="267"/></clipPath></defs><g clip-path="url(#clip0)" transform="translate(-117 -94)"><rect x="117.5" y="262.5" width="257" height="53" stroke="#000005" stroke-width="0.333333" stroke-linejoin="round" stroke-miterlimit="10" fill="none"/><text fill="#000005" font-family="Arial,Arial_MSFontService,sans-serif" font-weight="400" font-size="21" transform="translate(145.733 296)">Linear, d, <tspan font-size="21" x="93.82" y="0">vocab_size</tspan></text><rect x="117.5" y="148.5" width="257" height="53" stroke="#000005" stroke-width="0.333333" stroke-linejoin="round" stroke-miterlimit="10" fill="none"/><text fill="#000005" font-family="Arial,Arial_MSFontService,sans-serif" font-weight="400" font-size="21" transform="translate(206.726 183)">S<tspan font-size="21" x="14.1667" y="0">oftmax</tspan></text><path d="M0.166667-2.8855e-07 0.16676 53.9738-0.166573 53.9738-0.166667 2.8855e-07ZM4.00009 52.6404 0.000104987 60.6404-3.99991 52.6404Z" fill="#000005" transform="matrix(1 0 0 -1 246.5 262.14)"/><path d="M0.166667-3.86424e-07 0.166756 38.6147-0.166577 38.6147-0.166667 3.86424e-07ZM4.00009 37.2814 0.000104987 45.2814-3.99991 37.2814Z" fill="#000005" transform="matrix(1 0 0 -1 246.5 360.781)"/><text fill="#FF0000" font-family="Cambria Math,Cambria Math_MSFontService,sans-serif" font-weight="400" font-size="24" transform="translate(257.319 343)">𝑠𝑒𝑞𝑙𝑒𝑛<tspan font-size="24" x="69.1667" y="0">′</tspan><tspan font-size="24" x="80.6667" y="0">×</tspan><tspan font-size="24" x="103.167" y="0">𝑑</tspan><tspan font-size="24" x="0.519989" y="-111">𝑠𝑒𝑞𝑙𝑒𝑛</tspan><tspan font-size="24" x="69.6867" y="-111">′</tspan><tspan font-size="24" x="81.1867" y="-111">×</tspan><tspan font-size="24" x="103.687" y="-111">𝑣𝑜𝑐𝑎𝑏</tspan><tspan font-size="24" x="167.38" y="-111">_</tspan><tspan font-size="24" x="176.213" y="-111">𝑠𝑖𝑧𝑒</tspan></text><path d="M0.166667-3.87791e-07 0.166756 38.4551-0.166577 38.4551-0.166667 3.87791e-07ZM4.00009 37.1218 0.000104987 45.1218-3.99991 37.1218Z" fill="#000005" transform="matrix(1 0 0 -1 246.5 148.622)"/></g></svg>