<svg width="514" height="155" xmlns="http://www.w3.org/2000/svg" xmlns:xlink="http://www.w3.org/1999/xlink" overflow="hidden"><defs><clipPath id="clip0"><rect x="165" y="299" width="514" height="155"/></clipPath></defs><g clip-path="url(#clip0)" transform="translate(-165 -299)"><rect x="166.5" y="300.5" width="32" height="32" stroke="#000005" stroke-width="0.333333" stroke-linejoin="round" stroke-miterlimit="10" fill="none"/><rect x="198.5" y="300.5" width="32" height="32" stroke="#000005" stroke-width="0.333333" stroke-linejoin="round" stroke-miterlimit="10" fill="#8181FF"/><rect x="230.5" y="300.5" width="32" height="32" stroke="#000005" stroke-width="0.333333" stroke-linejoin="round" stroke-miterlimit="10" fill="#8181FF"/><rect x="262.5" y="300.5" width="32" height="32" stroke="#000005" stroke-width="0.333333" stroke-linejoin="round" stroke-miterlimit="10" fill="#8181FF"/><rect x="294.5" y="300.5" width="32" height="32" stroke="#000005" stroke-width="0.333333" stroke-linejoin="round" stroke-miterlimit="10" fill="#8181FF"/><rect x="326.5" y="300.5" width="32" height="32" stroke="#000005" stroke-width="0.333333" stroke-linejoin="round" stroke-miterlimit="10" fill="#8181FF"/><rect x="358.5" y="300.5" width="32" height="32" stroke="#000005" stroke-width="0.333333" stroke-linejoin="round" stroke-miterlimit="10" fill="#8181FF"/><rect x="390.5" y="300.5" width="32" height="32" stroke="#000005" stroke-width="0.333333" stroke-linejoin="round" stroke-miterlimit="10" fill="#8181FF"/><rect x="422.5" y="300.5" width="32" height="32" stroke="#000005" stroke-width="0.333333" stroke-linejoin="round" stroke-miterlimit="10" fill="#8181FF"/><rect x="454.5" y="300.5" width="32" height="32" stroke="#000005" stroke-width="0.333333" stroke-linejoin="round" stroke-miterlimit="10" fill="#8181FF"/><rect x="486.5" y="300.5" width="32" height="32" stroke="#000005" stroke-width="0.333333" stroke-linejoin="round" stroke-miterlimit="10" fill="#8181FF"/><rect x="518.5" y="300.5" width="32" height="32" stroke="#000005" stroke-width="0.333333" stroke-linejoin="round" stroke-miterlimit="10" fill="#8181FF"/><rect x="550.5" y="300.5" width="32" height="32" stroke="#000005" stroke-width="0.333333" stroke-linejoin="round" stroke-miterlimit="10" fill="#8181FF"/><rect x="582.5" y="300.5" width="32" height="32" stroke="#000005" stroke-width="0.333333" stroke-linejoin="round" stroke-miterlimit="10" fill="#8181FF"/><rect x="614.5" y="300.5" width="32" height="32" stroke="#000005" stroke-width="0.333333" stroke-linejoin="round" stroke-miterlimit="10" fill="#8181FF"/><rect x="646.5" y="300.5" width="32" height="32" stroke="#000005" stroke-width="0.333333" stroke-linejoin="round" stroke-miterlimit="10" fill="none"/><rect x="198.5" y="421.5" width="32" height="32" stroke="#000005" stroke-width="0.333333" stroke-linejoin="round" stroke-miterlimit="10" fill="#8181FF"/><rect x="230.5" y="421.5" width="32" height="32" stroke="#000005" stroke-width="0.333333" stroke-linejoin="round" stroke-miterlimit="10" fill="#8181FF"/><rect x="262.5" y="421.5" width="32" height="32" stroke="#000005" stroke-width="0.333333" stroke-linejoin="round" stroke-miterlimit="10" fill="#8181FF"/><rect x="294.5" y="421.5" width="32" height="32" stroke="#000005" stroke-width="0.333333" stroke-linejoin="round" stroke-miterlimit="10" fill="#8181FF"/><rect x="326.5" y="421.5" width="32" height="32" stroke="#000005" stroke-width="0.333333" stroke-linejoin="round" stroke-miterlimit="10" fill="#0303FF"/><rect x="358.5" y="421.5" width="32" height="32" stroke="#000005" stroke-width="0.333333" stroke-linejoin="round" stroke-miterlimit="10" fill="#8181FF"/><rect x="390.5" y="421.5" width="32" height="32" stroke="#000005" stroke-width="0.333333" stroke-linejoin="round" stroke-miterlimit="10" fill="#8181FF"/><rect x="422.5" y="421.5" width="32" height="32" stroke="#000005" stroke-width="0.333333" stroke-linejoin="round" stroke-miterlimit="10" fill="#8181FF"/><rect x="454.5" y="421.5" width="32" height="32" stroke="#000005" stroke-width="0.333333" stroke-linejoin="round" stroke-miterlimit="10" fill="#8181FF"/><rect x="486.5" y="421.5" width="32" height="32" stroke="#000005" stroke-width="0.333333" stroke-linejoin="round" stroke-miterlimit="10" fill="#8181FF"/><rect x="518.5" y="421.5" width="32" height="32" stroke="#000005" stroke-width="0.333333" stroke-linejoin="round" stroke-miterlimit="10" fill="#8181FF"/><rect x="550.5" y="421.5" width="32" height="32" stroke="#000005" stroke-width="0.333333" stroke-linejoin="round" stroke-miterlimit="10" fill="#8181FF"/><rect x="582.5" y="421.5" width="32" height="32" stroke="#000005" stroke-width="0.333333" stroke-linejoin="round" stroke-miterlimit="10" fill="#8181FF"/><rect x="614.5" y="421.5" width="32" height="32" stroke="#000005" stroke-width="0.333333" stroke-linejoin="round" stroke-miterlimit="10" fill="#1600B6"/><path d="M326.5 422.039 294.5 332.5" stroke="#000005" stroke-width="0.333333" stroke-linejoin="round" stroke-miterlimit="10" fill="#902D06" fill-rule="evenodd"/><path d="M0 0 32 89.5385" stroke="#000005" stroke-width="0.333333" stroke-linejoin="round" stroke-miterlimit="10" fill="#902D06" fill-rule="evenodd" transform="matrix(1 0 0 -1 358.5 422.039)"/><path d="M614.5 422.039 582.5 332.5" stroke="#000005" stroke-width="0.333333" stroke-linejoin="round" stroke-miterlimit="10" fill="#902D06" fill-rule="evenodd"/><path d="M0 0 32 89.5385" stroke="#000005" stroke-width="0.333333" stroke-linejoin="round" stroke-miterlimit="10" fill="#902D06" fill-rule="evenodd" transform="matrix(1 0 0 -1 646.5 422.039)"/></g></svg>