<svg width="724" height="212" xmlns="http://www.w3.org/2000/svg" xmlns:xlink="http://www.w3.org/1999/xlink" overflow="hidden"><defs><clipPath id="clip0"><rect x="199" y="342" width="724" height="212"/></clipPath></defs><g clip-path="url(#clip0)" transform="translate(-199 -342)"><rect x="201.5" y="508.5" width="430" height="40" stroke="#000005" stroke-width="0.333333" stroke-linejoin="round" stroke-miterlimit="10" fill="none"/><text fill="#000005" font-family="Arial,Arial_MSFontService,sans-serif" font-weight="400" font-size="21" transform="translate(223.917 536)">o<tspan x="11.8333" y="0">ne</tspan><tspan x="35.5" y="0">-</tspan><tspan x="42.6667" y="0">hot encoding of </tspan><tspan x="194.5" y="0">input </tspan><tspan x="246.667" y="0">word;</tspan><tspan x="304.833" y="0">length </tspan>N</text><rect x="311.5" y="427.5" width="210" height="40" stroke="#000005" stroke-width="0.333333" stroke-linejoin="round" stroke-miterlimit="10" fill="none"/><text fill="#000005" font-family="Arial,Arial_MSFontService,sans-serif" font-weight="400" font-size="27" transform="translate(356.083 453)">fcl<tspan x="26.6667" y="0">, N, 300</tspan></text><rect x="200.5" y="351.5" width="431" height="40" stroke="#000005" stroke-width="0.333333" stroke-linejoin="round" stroke-miterlimit="10" fill="none"/><text fill="#000005" font-family="Arial,Arial_MSFontService,sans-serif" font-weight="400" font-size="27" transform="translate(301.5 377)">fcl<tspan x="26.6667" y="0">, 300, N, </tspan>softmax</text><path d="M0.166667-4.27118e-07 0.166755 34.3005-0.166579 34.3005-0.166667 4.27118e-07ZM4.00008 32.9671 0.000104987 40.9671-3.99992 32.9671Z" fill="#000005" transform="matrix(1 0 0 -1 416.5 508.467)"/><path d="M416 427.569 415.457 398.169 415.79 398.162 416.334 427.562ZM411.649 399.573 415.5 391.5 419.647 399.425Z" fill="#000005"/><path d="M3.05194e-07-0.166667 50.6667-0.166574 50.6667 0.166759-3.05194e-07 0.166667ZM49.3333-3.99991 57.3333 0.000104987 49.3333 4.00009Z" fill="#FF0000" transform="matrix(-1 -8.74228e-08 -8.74228e-08 1 605.833 447.5)"/><text fill="#FF0000" font-family="Arial,Arial_MSFontService,sans-serif" font-weight="400" font-size="27" transform="translate(648.855 428)">This is the required <tspan x="0" y="32">embedding for target </tspan><tspan x="0" y="64">word </tspan><tspan font-family="Cambria Math,Cambria Math_MSFontService,sans-serif" x="65.1666" y="64">∈</tspan><tspan font-family="Cambria Math,Cambria Math_MSFontService,sans-serif" x="89.24" y="64">ℝ</tspan><tspan font-family="Cambria Math,Cambria Math_MSFontService,sans-serif" font-size="20" x="109.073" y="54">300</tspan></text></g></svg>