<svg xmlns="http://www.w3.org/2000/svg" xmlns:xlink="http://www.w3.org/1999/xlink" width="805" height="94" overflow="hidden"><defs><clipPath id="clip0"><rect width="805" height="94" x="32" y="488"/></clipPath></defs><g clip-path="url(#clip0)" transform="translate(-32 -488)"><rect width="788" height="30" x="40.5" y="492.5" fill="none" stroke="#000005" stroke-linejoin="round" stroke-miterlimit="10" stroke-width=".333"/><text fill="#000005" font-family="Courier New,Courier New_MSFontService,sans-serif" font-size="17" font-weight="400" transform="translate(50.6823 513)">w<tspan x="10.333" y="0">hat</tspan><tspan x="41.333" y="0" fill="red" font-family="Arial,Arial_MSFontService,sans-serif" font-size="19">□</tspan><tspan x="52.667" y="0">can</tspan><tspan x="83.667" y="0" fill="red" font-family="Arial,Arial_MSFontService,sans-serif" font-size="19">□</tspan><tspan x="95" y="0">one</tspan><tspan x="126" y="0" fill="red" font-family="Arial,Arial_MSFontService,sans-serif" font-size="19">□</tspan>say<tspan x="168.333" y="0" fill="red" font-family="Arial,Arial_MSFontService,sans-serif" font-size="19">□</tspan><tspan x="179.667" y="0">about</tspan><tspan x="231.333" y="0" fill="red" font-family="Arial,Arial_MSFontService,sans-serif" font-size="19">□</tspan><tspan x="242.667" y="0">a</tspan><tspan x="253" y="0" fill="red" font-family="Arial,Arial_MSFontService,sans-serif" font-size="19">□</tspan>pack<tspan x="305.667" y="0" fill="red" font-family="Arial,Arial_MSFontService,sans-serif" font-size="19">□</tspan><tspan x="317" y="0">of</tspan><tspan x="337.667" y="0" fill="red" font-family="Arial,Arial_MSFontService,sans-serif" font-size="19">□</tspan><tspan x="349" y="0">batteries</tspan><tspan x="442" y="0" fill="red" font-family="Arial,Arial_MSFontService,sans-serif" font-size="19">□</tspan>delivery<tspan x="536" y="0" fill="red" font-family="Arial,Arial_MSFontService,sans-serif" font-size="19">□</tspan><tspan x="547.333" y="0">however</tspan><tspan x="619.667" y="0" fill="red" font-family="Arial,Arial_MSFontService,sans-serif" font-size="19">□</tspan>good<tspan x="672.333" y="0" font-size="19">♦♦♦</tspan><tspan x="716.167" y="0" font-family="Cambria Math,Cambria Math_MSFontService,sans-serif" font-size="19">⋯</tspan><tspan x="735.28" y="0" font-family="Cambria Math,Cambria Math_MSFontService,sans-serif" font-size="19"> </tspan><tspan x="739.447" y="0" font-size="19">♦♦♦</tspan></text><path fill="red" d="M6.67074-0.1575 780.745 0.906162 780.745 1.2395 6.67029 0.175833ZM7.9945 4.01099 0 0 8.00549-3.989ZM779.421-2.92899 787.416 1.08199 779.41 5.071Z" transform="matrix(1 0 0 -1 40.5001 542.582)"/><text fill="red" font-family="Arial,Arial_MSFontService,sans-serif" font-size="19" font-weight="400" transform="translate(368.638 565)">s character tokens</text></g></svg>