<svg width="805" height="94" xmlns="http://www.w3.org/2000/svg" xmlns:xlink="http://www.w3.org/1999/xlink" overflow="hidden"><defs><clipPath id="clip0"><rect x="32" y="488" width="805" height="94"/></clipPath></defs><g clip-path="url(#clip0)" transform="translate(-32 -488)"><rect x="40.5001" y="492.5" width="788" height="30" stroke="#000005" stroke-width="0.333333" stroke-linejoin="round" stroke-miterlimit="10" fill="none"/><text fill="#000005" font-family="Courier New,Courier New_MSFontService,sans-serif" font-weight="400" font-size="17" transform="translate(50.6823 513)">w<tspan x="10.3333" y="0">hat</tspan><tspan fill="#FF0000" font-family="Arial,Arial_MSFontService,sans-serif" font-size="19" x="41.3333" y="0">□</tspan><tspan x="52.6667" y="0">can</tspan><tspan fill="#FF0000" font-family="Arial,Arial_MSFontService,sans-serif" font-size="19" x="83.6667" y="0">□</tspan><tspan x="95" y="0">one</tspan><tspan fill="#FF0000" font-family="Arial,Arial_MSFontService,sans-serif" font-size="19" x="126" y="0">□</tspan>say<tspan fill="#FF0000" font-family="Arial,Arial_MSFontService,sans-serif" font-size="19" x="168.333" y="0">□</tspan><tspan x="179.667" y="0">about</tspan><tspan fill="#FF0000" font-family="Arial,Arial_MSFontService,sans-serif" font-size="19" x="231.333" y="0">□</tspan><tspan x="242.667" y="0">a</tspan><tspan fill="#FF0000" font-family="Arial,Arial_MSFontService,sans-serif" font-size="19" x="253" y="0">□</tspan>pack<tspan fill="#FF0000" font-family="Arial,Arial_MSFontService,sans-serif" font-size="19" x="305.667" y="0">□</tspan><tspan x="317" y="0">of</tspan><tspan fill="#FF0000" font-family="Arial,Arial_MSFontService,sans-serif" font-size="19" x="337.667" y="0">□</tspan><tspan x="349" y="0">batteries</tspan><tspan fill="#FF0000" font-family="Arial,Arial_MSFontService,sans-serif" font-size="19" x="442" y="0">□</tspan>delivery<tspan fill="#FF0000" font-family="Arial,Arial_MSFontService,sans-serif" font-size="19" x="536" y="0">□</tspan><tspan x="547.333" y="0">however</tspan><tspan fill="#FF0000" font-family="Arial,Arial_MSFontService,sans-serif" font-size="19" x="619.667" y="0">□</tspan>good<tspan font-size="19" x="672.333" y="0">♦♦♦</tspan><tspan font-family="Cambria Math,Cambria Math_MSFontService,sans-serif" font-size="19" x="716.167" y="0">⋯</tspan><tspan font-family="Cambria Math,Cambria Math_MSFontService,sans-serif" font-size="19" x="735.28" y="0"> </tspan><tspan font-size="19" x="739.447" y="0">♦♦♦</tspan></text><path d="M6.67074-0.1575 780.745 0.906162 780.745 1.2395 6.67029 0.175833ZM7.9945 4.01099 0 0 8.00549-3.989ZM779.421-2.92899 787.416 1.08199 779.41 5.071Z" fill="#FF0000" transform="matrix(1 0 0 -1 40.5001 542.582)"/><text fill="#FF0000" font-family="Arial,Arial_MSFontService,sans-serif" font-weight="400" font-size="19" transform="translate(368.638 565)">s character tokens</text></g></svg>