<svg xmlns="http://www.w3.org/2000/svg" xmlns:xlink="http://www.w3.org/1999/xlink" width="843" height="265" overflow="hidden"><defs><clipPath id="clip0"><rect width="843" height="265" x="-8" y="390"/></clipPath></defs><g clip-path="url(#clip0)" transform="translate(8 -390)"><rect width="788" height="113" x="46.5" y="436.5" fill="none" stroke="#000005" stroke-linejoin="round" stroke-miterlimit="10" stroke-width=".333"/><text fill="#000005" font-family="Arial,Arial_MSFontService,sans-serif" font-size="27" font-weight="400" transform="translate(446.394 424)">s<tspan x="-439.29" y="75" font-size="24">16</tspan></text><path fill="#902D06" fill-rule="evenodd" stroke="#000005" stroke-miterlimit="8" stroke-width=".333" d="M453.5 569 462 560.5 470.5 569 466.25 569 466.25 606.5 457.75 606.5 457.75 569Z"/><path fill="#902D06" fill-rule="evenodd" stroke="#000005" stroke-linejoin="round" stroke-miterlimit="10" stroke-width=".333" d="M60.5001 436.5 60.5002 549.902"/><path fill="#902D06" fill-rule="evenodd" stroke="#000005" stroke-linejoin="round" stroke-miterlimit="10" stroke-width=".333" d="M75.5001 436.5 75.5002 549.902"/><path fill="#902D06" fill-rule="evenodd" stroke="#000005" stroke-linejoin="round" stroke-miterlimit="10" stroke-width=".333" d="M92.5001 436.5 92.5002 549.902"/><path fill="#902D06" fill-rule="evenodd" stroke="#000005" stroke-linejoin="round" stroke-miterlimit="10" stroke-width=".333" d="M108.5 436.5 108.5 549.902"/><path fill="#902D06" fill-rule="evenodd" stroke="#000005" stroke-linejoin="round" stroke-miterlimit="10" stroke-width=".333" d="M124.5 436.5 124.5 549.902"/><path fill="#902D06" fill-rule="evenodd" stroke="#000005" stroke-linejoin="round" stroke-miterlimit="10" stroke-width=".333" d="M140.5 436.5 140.5 549.902"/><text fill="#000005" font-family="Cambria Math,Cambria Math_MSFontService,sans-serif" font-size="27" font-weight="400" transform="translate(160.582 499)">⋯</text><rect width="787" height="29" x="47.5" y="617.5" fill="none" stroke="#000005" stroke-linejoin="round" stroke-miterlimit="10" stroke-width=".333"/><text fill="#000005" font-family="Courier New,Courier New_MSFontService,sans-serif" font-size="17" font-weight="400" transform="translate(57.1815 637)">w<tspan x="10.333" y="0">hat</tspan><tspan x="41.333" y="0" fill="red" font-family="Arial,Arial_MSFontService,sans-serif" font-size="19">□</tspan><tspan x="52.667" y="0">can</tspan><tspan x="83.667" y="0" fill="red" font-family="Arial,Arial_MSFontService,sans-serif" font-size="19">□</tspan><tspan x="95" y="0">one</tspan><tspan x="126" y="0" fill="red" font-family="Arial,Arial_MSFontService,sans-serif" font-size="19">□</tspan><tspan x="137.333" y="0">say</tspan><tspan x="168.333" y="0" fill="red" font-family="Arial,Arial_MSFontService,sans-serif" font-size="19">□</tspan>about<tspan x="231.333" y="0" fill="red" font-family="Arial,Arial_MSFontService,sans-serif" font-size="19">□</tspan><tspan x="242.667" y="0">a</tspan><tspan x="253" y="0" fill="red" font-family="Arial,Arial_MSFontService,sans-serif" font-size="19">□</tspan>pack<tspan x="305.667" y="0" fill="red" font-family="Arial,Arial_MSFontService,sans-serif" font-size="19">□</tspan><tspan x="317" y="0">of</tspan><tspan x="337.667" y="0" fill="red" font-family="Arial,Arial_MSFontService,sans-serif" font-size="19">□</tspan><tspan x="349" y="0">batteries</tspan><tspan x="442" y="0" fill="red" font-family="Arial,Arial_MSFontService,sans-serif" font-size="19">□</tspan>delivery<tspan x="536" y="0" fill="red" font-family="Arial,Arial_MSFontService,sans-serif" font-size="19">□</tspan><tspan x="547.333" y="0">however</tspan><tspan x="619.667" y="0" fill="red" font-family="Arial,Arial_MSFontService,sans-serif" font-size="19">□</tspan>good<tspan x="672.333" y="0" font-size="19">♦♦♦</tspan><tspan x="716.167" y="0" font-family="Cambria Math,Cambria Math_MSFontService,sans-serif" font-size="19">⋯</tspan><tspan x="735.28" y="0" font-family="Cambria Math,Cambria Math_MSFontService,sans-serif" font-size="19"> </tspan><tspan x="739.447" y="0" font-size="19">♦♦♦</tspan></text></g></svg>