<svg width="843" height="265" xmlns="http://www.w3.org/2000/svg" xmlns:xlink="http://www.w3.org/1999/xlink" overflow="hidden"><defs><clipPath id="clip0"><rect x="-8" y="390" width="843" height="265"/></clipPath></defs><g clip-path="url(#clip0)" transform="translate(8 -390)"><rect x="46.5001" y="436.5" width="788" height="113" stroke="#000005" stroke-width="0.333333" stroke-linejoin="round" stroke-miterlimit="10" fill="none"/><text fill="#000005" font-family="Arial,Arial_MSFontService,sans-serif" font-weight="400" font-size="27" transform="translate(446.394 424)">s<tspan font-size="24" x="-439.29" y="75">16</tspan></text><path d="M453.5 569 462 560.5 470.5 569 466.25 569 466.25 606.5 457.75 606.5 457.75 569Z" stroke="#000005" stroke-width="0.333333" stroke-miterlimit="8" fill="#902D06" fill-rule="evenodd"/><path d="M60.5001 436.5 60.5002 549.902" stroke="#000005" stroke-width="0.333333" stroke-linejoin="round" stroke-miterlimit="10" fill="#902D06" fill-rule="evenodd"/><path d="M75.5001 436.5 75.5002 549.902" stroke="#000005" stroke-width="0.333333" stroke-linejoin="round" stroke-miterlimit="10" fill="#902D06" fill-rule="evenodd"/><path d="M92.5001 436.5 92.5002 549.902" stroke="#000005" stroke-width="0.333333" stroke-linejoin="round" stroke-miterlimit="10" fill="#902D06" fill-rule="evenodd"/><path d="M108.5 436.5 108.5 549.902" stroke="#000005" stroke-width="0.333333" stroke-linejoin="round" stroke-miterlimit="10" fill="#902D06" fill-rule="evenodd"/><path d="M124.5 436.5 124.5 549.902" stroke="#000005" stroke-width="0.333333" stroke-linejoin="round" stroke-miterlimit="10" fill="#902D06" fill-rule="evenodd"/><path d="M140.5 436.5 140.5 549.902" stroke="#000005" stroke-width="0.333333" stroke-linejoin="round" stroke-miterlimit="10" fill="#902D06" fill-rule="evenodd"/><text fill="#000005" font-family="Cambria Math,Cambria Math_MSFontService,sans-serif" font-weight="400" font-size="27" transform="translate(160.582 499)">⋯</text><rect x="47.5001" y="617.5" width="787" height="29" stroke="#000005" stroke-width="0.333333" stroke-linejoin="round" stroke-miterlimit="10" fill="none"/><text fill="#000005" font-family="Courier New,Courier New_MSFontService,sans-serif" font-weight="400" font-size="17" transform="translate(57.1815 637)">w<tspan x="10.3333" y="0">hat</tspan><tspan fill="#FF0000" font-family="Arial,Arial_MSFontService,sans-serif" font-size="19" x="41.3333" y="0">□</tspan><tspan x="52.6667" y="0">can</tspan><tspan fill="#FF0000" font-family="Arial,Arial_MSFontService,sans-serif" font-size="19" x="83.6667" y="0">□</tspan><tspan x="95" y="0">one</tspan><tspan fill="#FF0000" font-family="Arial,Arial_MSFontService,sans-serif" font-size="19" x="126" y="0">□</tspan><tspan x="137.333" y="0">say</tspan><tspan fill="#FF0000" font-family="Arial,Arial_MSFontService,sans-serif" font-size="19" x="168.333" y="0">□</tspan>about<tspan fill="#FF0000" font-family="Arial,Arial_MSFontService,sans-serif" font-size="19" x="231.333" y="0">□</tspan><tspan x="242.667" y="0">a</tspan><tspan fill="#FF0000" font-family="Arial,Arial_MSFontService,sans-serif" font-size="19" x="253" y="0">□</tspan>pack<tspan fill="#FF0000" font-family="Arial,Arial_MSFontService,sans-serif" font-size="19" x="305.667" y="0">□</tspan><tspan x="317" y="0">of</tspan><tspan fill="#FF0000" font-family="Arial,Arial_MSFontService,sans-serif" font-size="19" x="337.667" y="0">□</tspan><tspan x="349" y="0">batteries</tspan><tspan fill="#FF0000" font-family="Arial,Arial_MSFontService,sans-serif" font-size="19" x="442" y="0">□</tspan>delivery<tspan fill="#FF0000" font-family="Arial,Arial_MSFontService,sans-serif" font-size="19" x="536" y="0">□</tspan><tspan x="547.333" y="0">however</tspan><tspan fill="#FF0000" font-family="Arial,Arial_MSFontService,sans-serif" font-size="19" x="619.667" y="0">□</tspan>good<tspan font-size="19" x="672.333" y="0">♦♦♦</tspan><tspan font-family="Cambria Math,Cambria Math_MSFontService,sans-serif" font-size="19" x="716.167" y="0">⋯</tspan><tspan font-family="Cambria Math,Cambria Math_MSFontService,sans-serif" font-size="19" x="735.28" y="0"> </tspan><tspan font-size="19" x="739.447" y="0">♦♦♦</tspan></text></g></svg>