<svg xmlns="http://www.w3.org/2000/svg" xmlns:xlink="http://www.w3.org/1999/xlink" width="514" height="155" overflow="hidden"><defs><clipPath id="clip0"><rect width="514" height="155" x="165" y="299"/></clipPath></defs><g clip-path="url(#clip0)" transform="translate(-165 -299)"><rect width="32" height="32" x="166.5" y="300.5" fill="none" stroke="#000005" stroke-linejoin="round" stroke-miterlimit="10" stroke-width=".333"/><rect width="32" height="32" x="198.5" y="300.5" fill="#8181FF" stroke="#000005" stroke-linejoin="round" stroke-miterlimit="10" stroke-width=".333"/><rect width="32" height="32" x="230.5" y="300.5" fill="#8181FF" stroke="#000005" stroke-linejoin="round" stroke-miterlimit="10" stroke-width=".333"/><rect width="32" height="32" x="262.5" y="300.5" fill="#8181FF" stroke="#000005" stroke-linejoin="round" stroke-miterlimit="10" stroke-width=".333"/><rect width="32" height="32" x="294.5" y="300.5" fill="#8181FF" stroke="#000005" stroke-linejoin="round" stroke-miterlimit="10" stroke-width=".333"/><rect width="32" height="32" x="326.5" y="300.5" fill="#8181FF" stroke="#000005" stroke-linejoin="round" stroke-miterlimit="10" stroke-width=".333"/><rect width="32" height="32" x="358.5" y="300.5" fill="#8181FF" stroke="#000005" stroke-linejoin="round" stroke-miterlimit="10" stroke-width=".333"/><rect width="32" height="32" x="390.5" y="300.5" fill="#8181FF" stroke="#000005" stroke-linejoin="round" stroke-miterlimit="10" stroke-width=".333"/><rect width="32" height="32" x="422.5" y="300.5" fill="#8181FF" stroke="#000005" stroke-linejoin="round" stroke-miterlimit="10" stroke-width=".333"/><rect width="32" height="32" x="454.5" y="300.5" fill="#8181FF" stroke="#000005" stroke-linejoin="round" stroke-miterlimit="10" stroke-width=".333"/><rect width="32" height="32" x="486.5" y="300.5" fill="#8181FF" stroke="#000005" stroke-linejoin="round" stroke-miterlimit="10" stroke-width=".333"/><rect width="32" height="32" x="518.5" y="300.5" fill="#8181FF" stroke="#000005" stroke-linejoin="round" stroke-miterlimit="10" stroke-width=".333"/><rect width="32" height="32" x="550.5" y="300.5" fill="#8181FF" stroke="#000005" stroke-linejoin="round" stroke-miterlimit="10" stroke-width=".333"/><rect width="32" height="32" x="582.5" y="300.5" fill="#8181FF" stroke="#000005" stroke-linejoin="round" stroke-miterlimit="10" stroke-width=".333"/><rect width="32" height="32" x="614.5" y="300.5" fill="#8181FF" stroke="#000005" stroke-linejoin="round" stroke-miterlimit="10" stroke-width=".333"/><rect width="32" height="32" x="646.5" y="300.5" fill="none" stroke="#000005" stroke-linejoin="round" stroke-miterlimit="10" stroke-width=".333"/><rect width="32" height="32" x="198.5" y="421.5" fill="#8181FF" stroke="#000005" stroke-linejoin="round" stroke-miterlimit="10" stroke-width=".333"/><rect width="32" height="32" x="230.5" y="421.5" fill="#8181FF" stroke="#000005" stroke-linejoin="round" stroke-miterlimit="10" stroke-width=".333"/><rect width="32" height="32" x="262.5" y="421.5" fill="#8181FF" stroke="#000005" stroke-linejoin="round" stroke-miterlimit="10" stroke-width=".333"/><rect width="32" height="32" x="294.5" y="421.5" fill="#8181FF" stroke="#000005" stroke-linejoin="round" stroke-miterlimit="10" stroke-width=".333"/><rect width="32" height="32" x="326.5" y="421.5" fill="#0303FF" stroke="#000005" stroke-linejoin="round" stroke-miterlimit="10" stroke-width=".333"/><rect width="32" height="32" x="358.5" y="421.5" fill="#8181FF" stroke="#000005" stroke-linejoin="round" stroke-miterlimit="10" stroke-width=".333"/><rect width="32" height="32" x="390.5" y="421.5" fill="#8181FF" stroke="#000005" stroke-linejoin="round" stroke-miterlimit="10" stroke-width=".333"/><rect width="32" height="32" x="422.5" y="421.5" fill="#8181FF" stroke="#000005" stroke-linejoin="round" stroke-miterlimit="10" stroke-width=".333"/><rect width="32" height="32" x="454.5" y="421.5" fill="#8181FF" stroke="#000005" stroke-linejoin="round" stroke-miterlimit="10" stroke-width=".333"/><rect width="32" height="32" x="486.5" y="421.5" fill="#8181FF" stroke="#000005" stroke-linejoin="round" stroke-miterlimit="10" stroke-width=".333"/><rect width="32" height="32" x="518.5" y="421.5" fill="#8181FF" stroke="#000005" stroke-linejoin="round" stroke-miterlimit="10" stroke-width=".333"/><rect width="32" height="32" x="550.5" y="421.5" fill="#8181FF" stroke="#000005" stroke-linejoin="round" stroke-miterlimit="10" stroke-width=".333"/><rect width="32" height="32" x="582.5" y="421.5" fill="#8181FF" stroke="#000005" stroke-linejoin="round" stroke-miterlimit="10" stroke-width=".333"/><rect width="32" height="32" x="614.5" y="421.5" fill="#1600B6" stroke="#000005" stroke-linejoin="round" stroke-miterlimit="10" stroke-width=".333"/><path fill="#902D06" fill-rule="evenodd" stroke="#000005" stroke-linejoin="round" stroke-miterlimit="10" stroke-width=".333" d="M326.5 422.039 294.5 332.5"/><path fill="#902D06" fill-rule="evenodd" stroke="#000005" stroke-linejoin="round" stroke-miterlimit="10" stroke-width=".333" d="M0 0 32 89.5385" transform="matrix(1 0 0 -1 358.5 422.039)"/><path fill="#902D06" fill-rule="evenodd" stroke="#000005" stroke-linejoin="round" stroke-miterlimit="10" stroke-width=".333" d="M614.5 422.039 582.5 332.5"/><path fill="#902D06" fill-rule="evenodd" stroke="#000005" stroke-linejoin="round" stroke-miterlimit="10" stroke-width=".333" d="M0 0 32 89.5385" transform="matrix(1 0 0 -1 646.5 422.039)"/></g></svg>