<svg width="229" height="723" xmlns="http://www.w3.org/2000/svg" xmlns:xlink="http://www.w3.org/1999/xlink" overflow="hidden"><defs><clipPath id="clip0"><rect x="344" y="5" width="229" height="723"/></clipPath></defs><g clip-path="url(#clip0)" transform="translate(-344 -5)"><rect x="346.5" y="674.5" width="221" height="22" stroke="#000005" stroke-width="0.333333" stroke-linejoin="round" stroke-miterlimit="10" fill="none"/><text fill="#000005" font-family="Arial,Arial_MSFontService,sans-serif" font-weight="400" font-size="16" transform="translate(399.738 692)">Lookup table 16</text><rect x="346.5" y="631.5" width="221" height="21" stroke="#000005" stroke-width="0.333333" stroke-linejoin="round" stroke-miterlimit="10" fill="none"/><text fill="#000005" font-family="Arial,Arial_MSFontService,sans-serif" font-weight="400" font-size="16" transform="translate(412.905 648)">3, conv1, 64</text><rect x="346.5" y="577.5" width="221" height="21" stroke="#00B050" stroke-width="0.333333" stroke-linejoin="round" stroke-miterlimit="10" fill="none"/><text fill="#007B48" font-family="Arial,Arial_MSFontService,sans-serif" font-weight="400" font-size="16" transform="translate(365.155 594)">Convolutional block, 3, 64</text><rect x="346.5" y="538.5" width="221" height="22" stroke="#00B050" stroke-width="0.333333" stroke-linejoin="round" stroke-miterlimit="10" fill="none"/><text fill="#007B48" font-family="Arial,Arial_MSFontService,sans-serif" font-weight="400" font-size="16" transform="translate(365.155 555)">Convolutional block, 3, 64</text><rect x="346.5" y="501.5" width="221" height="21" stroke="#000005" stroke-width="0.333333" stroke-linejoin="round" stroke-miterlimit="10" fill="none"/><text fill="#000005" font-family="Arial,Arial_MSFontService,sans-serif" font-weight="400" font-size="16" transform="translate(404.155 518)">Max<tspan x="30.1667" y="0">-</tspan><tspan x="35.5" y="0">pooling, 2</tspan></text><rect x="346.5" y="449.5" width="221" height="21" stroke="#007B48" stroke-width="0.333333" stroke-linejoin="round" stroke-miterlimit="10" fill="none"/><text fill="#007B48" font-family="Arial,Arial_MSFontService,sans-serif" font-weight="400" font-size="16" transform="translate(360.738 466)">Convolutional block, 3, 12<tspan x="182.5" y="0">8</tspan></text><rect x="346.5" y="413.5" width="221" height="22" stroke="#007B48" stroke-width="0.333333" stroke-linejoin="round" stroke-miterlimit="10" fill="none"/><text fill="#007B48" font-family="Arial,Arial_MSFontService,sans-serif" font-weight="400" font-size="16" transform="translate(360.738 430)">Convolutional block, 3, 12<tspan x="182.5" y="0">8</tspan></text><rect x="346.5" y="381.5" width="221" height="21" stroke="#000005" stroke-width="0.333333" stroke-linejoin="round" stroke-miterlimit="10" fill="none"/><text fill="#000005" font-family="Arial,Arial_MSFontService,sans-serif" font-weight="400" font-size="16" transform="translate(404.155 398)">Max<tspan x="30.1667" y="0">-</tspan><tspan x="35.5" y="0">pooling, 2</tspan></text><rect x="346.5" y="328.5" width="221" height="21" stroke="#000005" stroke-width="0.333333" stroke-linejoin="round" stroke-miterlimit="10" fill="none"/><text fill="#007B48" font-family="Arial,Arial_MSFontService,sans-serif" font-weight="400" font-size="16" transform="translate(360.738 345)">Convolutional block, 3, <tspan x="164.833" y="0">25</tspan><tspan x="182.5" y="0">6</tspan></text><rect x="346.5" y="289.5" width="221" height="21" stroke="#000005" stroke-width="0.333333" stroke-linejoin="round" stroke-miterlimit="10" fill="none"/><text fill="#007B48" font-family="Arial,Arial_MSFontService,sans-serif" font-weight="400" font-size="16" transform="translate(360.738 306)">Convolutional block, 3, <tspan x="164.833" y="0">25</tspan><tspan x="182.5" y="0">6</tspan></text><rect x="346.5" y="251.5" width="221" height="21" stroke="#000005" stroke-width="0.333333" stroke-linejoin="round" stroke-miterlimit="10" fill="none"/><text fill="#000005" font-family="Arial,Arial_MSFontService,sans-serif" font-weight="400" font-size="16" transform="translate(404.155 268)">Max<tspan x="30.1667" y="0">-</tspan><tspan x="35.5" y="0">pooling, 2</tspan></text><rect x="346.5" y="201.5" width="221" height="22" stroke="#000005" stroke-width="0.333333" stroke-linejoin="round" stroke-miterlimit="10" fill="none"/><text fill="#007B48" font-family="Arial,Arial_MSFontService,sans-serif" font-weight="400" font-size="16" transform="translate(360.738 219)">Convolutional block, 3, <tspan x="164.833" y="0">51</tspan><tspan x="182.5" y="0">2</tspan></text><rect x="346.5" y="165.5" width="221" height="21" stroke="#000005" stroke-width="0.333333" stroke-linejoin="round" stroke-miterlimit="10" fill="none"/><text fill="#007B48" font-family="Arial,Arial_MSFontService,sans-serif" font-weight="400" font-size="16" transform="translate(360.738 182)">Convolutional block, 3, 51<tspan x="182.5" y="0">2</tspan></text><rect x="346.5" y="130.5" width="221" height="21" stroke="#000005" stroke-width="0.333333" stroke-linejoin="round" stroke-miterlimit="10" fill="none"/><text fill="#000005" font-family="Arial,Arial_MSFontService,sans-serif" font-weight="400" font-size="16" transform="translate(387.904 147)">K<tspan x="10.6667" y="0">-</tspan><tspan x="16" y="0">max pooling, k=8</tspan></text><rect x="346.5" y="81.5001" width="221" height="21" stroke="#000005" stroke-width="0.333333" stroke-linejoin="round" stroke-miterlimit="10" fill="none"/><text fill="#000005" font-family="Arial,Arial_MSFontService,sans-serif" font-weight="400" font-size="16" transform="translate(378.405 98)">fcl(4096,<tspan x="65.6667" y="0">2048), </tspan><tspan x="115.333" y="0">ReLU</tspan></text><rect x="346.5" y="44.5001" width="221" height="21" stroke="#000005" stroke-width="0.333333" stroke-linejoin="round" stroke-miterlimit="10" fill="none"/><text fill="#000005" font-family="Arial,Arial_MSFontService,sans-serif" font-weight="400" font-size="16" transform="translate(378.405 61)">fcl(204<tspan x="47.8333" y="0">8</tspan><tspan x="56.6667" y="0">, 2048</tspan><tspan x="101" y="0">), </tspan><tspan x="115.333" y="0">ReLU</tspan></text><rect x="346.5" y="9.50005" width="221" height="22" stroke="#000005" stroke-width="0.333333" stroke-linejoin="round" stroke-miterlimit="10" fill="none"/><text fill="#000005" font-family="Arial,Arial_MSFontService,sans-serif" font-weight="400" font-size="16" transform="translate(354.321 26)">fcl(204<tspan x="47.8333" y="0">8</tspan><tspan x="56.6667" y="0">, </tspan>nClasses), <tspan x="145.5" y="0">Softmax</tspan><tspan fill="#FF0000" x="174.142" y="689">1 x s</tspan><tspan fill="#FF0000" x="165.222" y="643">16 x s</tspan><tspan fill="#FF0000" x="165.222" y="594">6</tspan><tspan fill="#FF0000" x="174.056" y="594">4</tspan><tspan fill="#FF0000" x="187.389" y="594">x s</tspan><tspan fill="#FF0000" x="151.759" y="465">6</tspan><tspan fill="#FF0000" x="160.592" y="465">4</tspan><tspan fill="#FF0000" x="173.925" y="465">x s/2</tspan><tspan fill="#FF0000" x="142.839" y="345">12</tspan><tspan fill="#FF0000" x="160.506" y="345">8</tspan><tspan fill="#FF0000" x="173.839" y="345">x s/4</tspan><tspan fill="#FF0000" x="142.839" y="216">25</tspan><tspan fill="#FF0000" x="160.506" y="216">6</tspan><tspan fill="#FF0000" x="173.839" y="216">x s/8</tspan><tspan fill="#FF0000" x="155.461" y="95">51</tspan><tspan fill="#FF0000" x="173.128" y="95">2</tspan><tspan fill="#FF0000" x="186.461" y="95">x 8</tspan></text><path d="M456.334 674.992 456.333 659.167 456.667 659.167 456.667 674.992ZM452.5 660.5 456.5 652.5 460.5 660.5Z" fill="#000005"/><path d="M0.166667-1.0786e-06 0.166833 25.7788-0.1665 25.7788-0.166667 1.0786e-06ZM4.00016 24.4454 0.000209974 32.4455-3.99984 24.4455Z" fill="#000005" transform="matrix(1 0 0 -1 456.5 630.945)"/><path d="M0.166667-1.02265e-06 0.166731 10.4437-0.166603 10.4437-0.166667 1.02265e-06ZM4.00006 9.11032 0.000104987 17.1103-3.99994 9.11037Z" fill="#000005" transform="matrix(1 0 0 -1 456.5 577.61)"/><path d="M456.333 538.956 456.333 529.167 456.667 529.167 456.667 538.956ZM452.5 530.5 456.5 522.5 460.5 530.5Z" fill="#000005"/><path d="M0.166667-5.78623e-07 0.166749 23.5738-0.166585 23.5738-0.166667 5.78623e-07ZM4.00008 22.2404 0.000104987 30.2404-3.99992 22.2404Z" fill="#000005" transform="matrix(1 0 0 -1 456.5 500.74)"/><path d="M456.334 449.742 456.334 442.167 456.667 442.167 456.667 449.742ZM452.5 443.5 456.5 435.5 460.5 443.5Z" fill="#000005"/><path d="M0.166667-4.725e-06 0.166793 4.44304-0.166541 4.44305-0.166667 4.725e-06ZM4.00009 3.1096 0.000314961 11.1097-3.99991 3.10982Z" fill="#000005" transform="matrix(1 0 0 -1 456.5 413.61)"/><path d="M0.166667-1.1083e-06 0.166832 24.9092-0.166501 24.9092-0.166667 1.1083e-06ZM4.00016 23.5758 0.000209974 31.5759-3.99984 23.5759Z" fill="#000005" transform="matrix(1 0 0 -1 456.5 381.076)"/><path d="M0.166667-9.83516e-07 0.166732 11.1244-0.166601 11.1244-0.166667 9.83516e-07ZM4.00006 9.79105 0.000104987 17.7911-3.99994 9.7911Z" fill="#000005" transform="matrix(1 0 0 -1 456.5 328.291)"/><path d="M456.333 288.956 456.333 279.167 456.667 279.167 456.667 288.956ZM452.5 280.5 456.5 272.5 460.5 280.5Z" fill="#000005"/><path d="M0.166667-6.18514e-07 0.166747 21.6234-0.166586 21.6234-0.166667 6.18514e-07ZM4.00008 20.2901 0.000104987 28.2901-3.99992 20.2901Z" fill="#000005" transform="matrix(1 0 0 -1 456.5 251.79)"/><path d="M456.333 201.62 456.333 193.167 456.667 193.167 456.667 201.62ZM452.5 194.5 456.5 186.5 460.5 194.5Z" fill="#000005"/><path d="M456.334 165.136 456.334 158.167 456.667 158.167 456.667 165.136ZM452.5 159.5 456.5 151.5 460.5 159.5Z" fill="#000005"/><path d="M0.166667-1.24225e-06 0.166827 21.5045-0.166506 21.5045-0.166667 1.24225e-06ZM4.00015 20.1711 0.000209974 28.1711-3.99985 20.1712Z" fill="#000005" transform="matrix(1 0 0 -1 456.5 130.671)"/><path d="M0.166667-1.12583e-06 0.166727 8.87548-0.166607 8.87549-0.166667 1.12583e-06ZM4.00005 7.54212 0.000104987 15.5422-3.99995 7.54218Z" fill="#000005" transform="matrix(1 0 0 -1 456.5 81.0422)"/><path d="M456.333 44.5949 456.333 38.1667 456.667 38.1667 456.667 44.5949ZM452.5 39.5001 456.5 31.5001 460.5 39.5Z" fill="#000005"/></g></svg>