<svg xmlns="http://www.w3.org/2000/svg" xmlns:xlink="http://www.w3.org/1999/xlink" width="926" height="491" overflow="hidden"><defs><clipPath id="clip0"><rect width="926" height="491" x="41" y="152"/></clipPath></defs><g clip-path="url(#clip0)" transform="translate(-41 -152)"><rect width="73" height="39" x="105.5" y="177.5" fill="none" stroke="#000005" stroke-linejoin="round" stroke-miterlimit="10" stroke-width=".333"/><rect width="48" height="39" x="178.5" y="177.5" fill="none" stroke="#000005" stroke-linejoin="round" stroke-miterlimit="10" stroke-width=".333"/><rect width="56" height="39" x="49.5" y="279.5" fill="#FFF" stroke="#000" stroke-linejoin="round" stroke-miterlimit="10" stroke-width=".333"/><rect width="48" height="39" x="178.5" y="279.5" fill="none" stroke="#000005" stroke-linejoin="round" stroke-miterlimit="10" stroke-width=".333"/><rect width="56" height="39" x="49" y="177" fill="#FFF" stroke="red" stroke-linejoin="round" stroke-miterlimit="10" stroke-width="4"/><rect width="80" height="39" x="226.5" y="279.5" fill="none" stroke="#000005" stroke-linejoin="round" stroke-miterlimit="10" stroke-width=".333"/><rect width="73" height="39" x="105" y="279" fill="#FFF" stroke="red" stroke-linejoin="round" stroke-miterlimit="10" stroke-width="4"/><rect width="56" height="38" x="49.5" y="403.5" fill="#FFF" stroke="#000" stroke-linejoin="round" stroke-miterlimit="10" stroke-width=".333"/><rect width="73" height="38" x="105.5" y="403.5" fill="#FFF" stroke="#000003" stroke-linejoin="round" stroke-miterlimit="10" stroke-width=".333"/><rect width="80" height="38" x="226.5" y="403.5" fill="none" stroke="#000005" stroke-linejoin="round" stroke-miterlimit="10" stroke-width=".333"/><text fill="#000005" font-family="Courier New,Courier New_MSFontService,sans-serif" font-size="24" font-weight="400" transform="translate(55.7326 203)">The rain in Spain falls mainly on the plain</text><rect width="80" height="38" x="306.5" y="403.5" fill="none" stroke="#000005" stroke-linejoin="round" stroke-miterlimit="10" stroke-width=".333"/><rect width="48" height="38" x="178" y="403" fill="none" stroke="red" stroke-linejoin="round" stroke-miterlimit="10" stroke-width="4"/><text fill="#000005" font-family="Courier New,Courier New_MSFontService,sans-serif" font-size="24" font-weight="400" transform="translate(55.7326 305)">The rain in Spain falls mainly on the plain<tspan x="0" y="123">The rain in Spain falls mainly on the plain</tspan></text><rect width="73" height="39" x="105.5" y="545.5" fill="#FFF" stroke="#000003" stroke-linejoin="round" stroke-miterlimit="10" stroke-width=".333"/><rect width="80" height="39" x="226" y="545" fill="none" stroke="red" stroke-linejoin="round" stroke-miterlimit="10" stroke-width="4"/><rect width="80" height="39" x="306.5" y="545.5" fill="none" stroke="#000005" stroke-linejoin="round" stroke-miterlimit="10" stroke-width=".333"/><rect width="48" height="39" x="178.5" y="545.5" fill="none" stroke="#000" stroke-linejoin="round" stroke-miterlimit="10" stroke-width=".333"/><text fill="#000005" font-family="Courier New,Courier New_MSFontService,sans-serif" font-size="24" font-weight="400" transform="translate(55.7326 571)">The rain in Spain falls mainly on the plain</text><rect width="109" height="37" x="386.5" y="547.5" fill="none" stroke="#000005" stroke-linejoin="round" stroke-miterlimit="10" stroke-width=".333"/><path fill="#007B48" fill-rule="evenodd" stroke="#000005" stroke-miterlimit="8" stroke-width=".333" d="M696.5 188.75 740 188.75 740 182.5 752.5 195 740 207.5 740 201.25 696.5 201.25Z"/><path fill="#007B48" fill-rule="evenodd" stroke="#000005" stroke-miterlimit="8" stroke-width=".333" d="M696.5 293.75 740 293.75 740 287.5 752.5 300 740 312.5 740 306.25 696.5 306.25Z"/><path fill="#007B48" fill-rule="evenodd" stroke="#000005" stroke-miterlimit="8" stroke-width=".333" d="M698.5 416.5 742.5 416.5 742.5 410.5 754.5 422.5 742.5 434.5 742.5 428.5 698.5 428.5Z"/><path fill="#007B48" fill-rule="evenodd" stroke="#000005" stroke-miterlimit="8" stroke-width=".333" d="M696.5 561.75 740 561.75 740 555.5 752.5 568 740 580.5 740 574.25 696.5 574.25Z"/><text fill="#00B050" font-family="Arial,Arial_MSFontService,sans-serif" font-size="27" font-weight="400" transform="translate(776.884 187)">(the, rain)<tspan x="0" y="32">(the,</tspan><tspan x="60.5" y="32">in</tspan><tspan x="81.333" y="32">)</tspan><tspan x="0" y="83">(rain, the)</tspan><tspan x="0" y="115">(rain,</tspan><tspan x="68" y="115">in)</tspan><tspan x="0" y="147">(rain,</tspan><tspan x="68" y="147">s</tspan><tspan x="81.333" y="147">pain</tspan>)<tspan x="4.749" y="196">(in,</tspan><tspan x="49.082" y="196">the)</tspan><tspan x="4.749" y="228">(in, rain)</tspan><tspan x="4.749" y="260">(in,</tspan><tspan x="49.082" y="260">spain</tspan><tspan x="112.916" y="260">)</tspan><tspan x="4.749" y="292">(in, falls)</tspan><tspan x="0" y="337">(</tspan><tspan x="8.833" y="337">spain</tspan><tspan x="72.667" y="337">, rain)</tspan><tspan x="0" y="369">(</tspan><tspan x="8.833" y="369">spain</tspan><tspan x="72.667" y="369">, in)</tspan><tspan x="0" y="401">(</tspan><tspan x="8.833" y="401">spain</tspan><tspan x="72.667" y="401">, falls)</tspan><tspan x="0" y="433">(</tspan><tspan x="8.833" y="433">spain</tspan><tspan x="72.667" y="433">, mainly)</tspan></text></g></svg>