<svg width="550" height="421" xmlns="http://www.w3.org/2000/svg" xmlns:xlink="http://www.w3.org/1999/xlink" overflow="hidden"><defs><clipPath id="clip0"><rect x="201" y="199" width="550" height="421"/></clipPath></defs><g clip-path="url(#clip0)" transform="translate(-201 -199)"><text fill="#FF0000" font-family="Arial,Arial_MSFontService,sans-serif" font-weight="400" font-size="16" transform="translate(625.577 337)">n<tspan x="8.83331" y="0">umber of </tspan><tspan x="0" y="19">feature maps</tspan></text><rect x="346.5" y="525.5" width="221" height="30" stroke="#000005" stroke-width="0.333333" stroke-linejoin="round" stroke-miterlimit="10" fill="none"/><text fill="#000005" font-family="Arial,Arial_MSFontService,sans-serif" font-weight="400" font-size="16" transform="translate(408.488 546)">3, conv1, 256 </text><rect x="346.5" y="467.5" width="221" height="29" stroke="#000005" stroke-width="0.333333" stroke-linejoin="round" stroke-miterlimit="10" fill="none"/><text fill="#000005" font-family="Arial,Arial_MSFontService,sans-serif" font-weight="400" font-size="16" transform="translate(386.405 488)">B<tspan x="10.6667" y="0">atch normalisation</tspan></text><rect x="346.5" y="408.5" width="221" height="29" stroke="#000005" stroke-width="0.333333" stroke-linejoin="round" stroke-miterlimit="10" fill="none"/><text fill="#000005" font-family="Arial,Arial_MSFontService,sans-serif" font-weight="400" font-size="16" transform="translate(436.072 429)">ReL<tspan x="29.1667" y="0">U</tspan></text><rect x="346.5" y="349.5" width="221" height="30" stroke="#000005" stroke-width="0.333333" stroke-linejoin="round" stroke-miterlimit="10" fill="none"/><text fill="#000005" font-family="Arial,Arial_MSFontService,sans-serif" font-weight="400" font-size="16" transform="translate(408.488 370)">3, conv1, 256 </text><rect x="346.5" y="291.5" width="221" height="29" stroke="#000005" stroke-width="0.333333" stroke-linejoin="round" stroke-miterlimit="10" fill="none"/><text fill="#000005" font-family="Arial,Arial_MSFontService,sans-serif" font-weight="400" font-size="16" transform="translate(386.405 312)">B<tspan x="10.6667" y="0">atch normalisation</tspan></text><rect x="346.5" y="232.5" width="221" height="29" stroke="#000005" stroke-width="0.333333" stroke-linejoin="round" stroke-miterlimit="10" fill="none"/><text fill="#000005" font-family="Arial,Arial_MSFontService,sans-serif" font-weight="400" font-size="16" transform="translate(436.072 253)">ReL<tspan x="29.1667" y="0">U</tspan></text><path d="M0.166667-5.99212e-07 0.166748 22.5347-0.166586 22.5347-0.166667 5.99212e-07ZM4.00008 21.2013 0.000104987 29.2014-3.99992 21.2014Z" fill="#000005" transform="matrix(1 0 0 -1 456.5 525.701)"/><path d="M0.166667-5.96694e-07 0.166748 22.658-0.166586 22.658-0.166667 5.96694e-07ZM4.00008 21.3246 0.000104987 29.3246-3.99992 21.3246Z" fill="#000005" transform="matrix(1 0 0 -1 456.5 466.825)"/><path d="M0.166667-5.99212e-07 0.166748 22.5347-0.166586 22.5347-0.166667 5.99212e-07ZM4.00008 21.2013 0.000104987 29.2014-3.99992 21.2014Z" fill="#000005" transform="matrix(1 0 0 -1 456.5 408.701)"/><path d="M0.166667-6.00518e-07 0.166748 22.4712-0.166586 22.4712-0.166667 6.00518e-07ZM4.00008 21.1378 0.000104987 29.1378-3.99992 21.1379Z" fill="#000005" transform="matrix(1 0 0 -1 456.5 349.638)"/><path d="M0.166667-5.99866e-07 0.166748 22.5029-0.166586 22.5029-0.166667 5.99866e-07ZM4.00008 21.1695 0.000104987 29.1696-3.99992 21.1696Z" fill="#000005" transform="matrix(1 0 0 -1 456.5 290.67)"/><rect x="329.5" y="201.5" width="255" height="383" stroke="#00B050" stroke-width="3" stroke-linejoin="round" stroke-miterlimit="10" fill="none"/><path d="M0.166667-8.39779e-07 0.166738 14.1696-0.166595 14.1696-0.166667 8.39779e-07ZM4.00006 12.8362 0.000104987 20.8362-3.99994 12.8362Z" fill="#000005" transform="matrix(1 0 0 -1 456.5 232.336)"/><path d="M0.166667-8.91294e-07 0.166736 12.9652-0.166597 12.9653-0.166667 8.91294e-07ZM4.00006 11.6319 0.000104987 19.6319-3.99994 11.6319Z" fill="#000005" transform="matrix(1 0 0 -1 456.5 575.132)"/><text fill="#007B48" font-family="Arial,Arial_MSFontService,sans-serif" font-weight="400" font-size="16" transform="translate(355.576 606)">Convolutional block, 3, 256<tspan fill="#FF0000" x="-144.073" y="-264">k</tspan><tspan fill="#FF0000" x="-136.073" y="-264">ernel size</tspan></text><path d="M294.536 339.337 400.934 362.978 400.861 363.304 294.464 339.663ZM400.464 358.947 407.406 364.587 398.729 366.756Z" fill="#FF0000"/><path d="M0.033181-0.16333 103.929 20.9435 103.863 21.2701-0.033181 0.16333ZM103.386 16.9214 110.429 22.434 101.793 24.7613Z" fill="#FF0000" transform="matrix(-1 -8.74228e-08 -8.74228e-08 1 616.929 339.5)"/></g></svg>