<svg width="773" height="298" xmlns="http://www.w3.org/2000/svg" xmlns:xlink="http://www.w3.org/1999/xlink" overflow="hidden"><defs><clipPath id="clip0"><rect x="135" y="419" width="773" height="298"/></clipPath></defs><g clip-path="url(#clip0)" transform="translate(-135 -419)"><rect x="136.5" y="584.5" width="665" height="38" stroke="#000005" stroke-width="0.333333" stroke-linejoin="round" stroke-miterlimit="10" fill="#FFFFFF"/><text fill="#000005" font-family="Arial,Arial_MSFontService,sans-serif" font-weight="400" font-size="27" transform="translate(392.504 610)">Lookup table<tspan font-size="27" x="-184.532" y="84">IDs of first </tspan><tspan font-family="Cambria Math,Cambria Math_MSFontService,sans-serif" font-size="27" x="-57.5325" y="84">ğ‘ </tspan><tspan font-size="27" x="-37.3192" y="84">words of newsgroup document</tspan><tspan font-size="27" x="236.845" y="37">input: 1 x s</tspan></text><path d="M472.807 664.608 469.882 629.158 470.214 629.13 473.14 664.581ZM466.171 630.802 469.5 622.5 474.144 630.144Z" fill="#000005"/><text fill="#000005" font-family="Arial,Arial_MSFontService,sans-serif" font-weight="400" font-size="27" transform="translate(613.83 576)">output: 50 x s</text><rect x="299.5" y="465.5" width="340" height="81" stroke="#000005" stroke-width="0.333333" stroke-linejoin="round" stroke-miterlimit="10" fill="#FFFFFF"/><text fill="#000005" font-family="Arial,Arial_MSFontService,sans-serif" font-weight="400" font-size="27" transform="translate(413.92 516)">C<tspan font-size="27" x="19.3333" y="0">lassifier</tspan></text><path d="M469.333 583.847 469.333 553.167 469.667 553.167 469.667 583.847ZM465.5 554.5 469.5 546.5 473.5 554.5Z" fill="#000005"/><text fill="#000005" font-family="Arial,Arial_MSFontService,sans-serif" font-weight="400" font-size="24" transform="translate(480.681 451)">output: class ID</text><path d="M469.333 465.847 469.333 435.167 469.667 435.167 469.667 465.847ZM465.5 436.5 469.5 428.5 473.5 436.5Z" fill="#000005"/><path d="M699.5 567C699.5 555.678 708.454 546.5 719.5 546.5 730.546 546.5 739.5 555.678 739.5 567 739.5 578.322 730.546 587.5 719.5 587.5 708.454 587.5 699.5 578.322 699.5 567Z" stroke="#FF0000" stroke-width="0.333333" stroke-linejoin="round" stroke-miterlimit="10" fill="none" fill-rule="evenodd"/><text fill="#FF0000" font-family="Arial,Arial_MSFontService,sans-serif" font-weight="400" font-size="21" transform="translate(712.809 456)">Dimensionality of <tspan font-size="21" x="0" y="25">word embedding</tspan></text><path d="M0.322786-0.381849 67.324 56.2559 66.6784 57.0196-0.322786 0.381849ZM68.5652 52.7221 72.0925 60.9415 63.4006 58.8317Z" fill="#B10A26" transform="matrix(-1 0 0 1 805.593 491.5)"/></g></svg>