<svg xmlns="http://www.w3.org/2000/svg" xmlns:xlink="http://www.w3.org/1999/xlink" width="371" height="390" overflow="hidden"><defs><clipPath id="clip0"><rect width="371" height="390" x="203" y="179"/></clipPath></defs><g clip-path="url(#clip0)" transform="translate(-203 -179)"><text fill="#000005" font-family="Arial,Arial_MSFontService,sans-serif" font-size="27" font-weight="400" transform="translate(225.169 540)">input<tspan x="-5.79" y="-159" font-size="27">hidden state</tspan><tspan x="0" y="-311" font-size="27">output</tspan></text><path fill="#000005" d="M449.182 493.564 447.94 416.177 449.274 416.155 450.515 493.543ZM444.629 417.563 448.5 409.5 452.628 417.435Z"/><path fill="#000005" d="M0.666667-8.95055e-07 0.666763 71.5311-0.666571 71.5311-0.666667 8.95055e-07ZM4.00009 70.1977 0.000104987 78.1977-3.99991 70.1977Z" transform="matrix(1 0 0 -1 448.5 333.698)"/><path fill="none" fill-rule="evenodd" stroke="#000005" stroke-linejoin="round" stroke-miterlimit="10" stroke-width=".333" d="M411.5 217.5C411.5 196.513 428.289 179.5 449 179.5 469.711 179.5 486.5 196.513 486.5 217.5 486.5 238.487 469.711 255.5 449 255.5 428.289 255.5 411.5 238.487 411.5 217.5Z"/><text fill="#000005" font-family="Cambria Math,Cambria Math_MSFontService,sans-serif" font-size="27" font-weight="400" transform="translate(440.593 227)">ğ’</text><path fill="none" fill-rule="evenodd" stroke="#000005" stroke-linejoin="round" stroke-miterlimit="10" stroke-width=".333" d="M411.5 371.5C411.5 350.513 428.289 333.5 449 333.5 469.711 333.5 486.5 350.513 486.5 371.5 486.5 392.487 469.711 409.5 449 409.5 428.289 409.5 411.5 392.487 411.5 371.5Z"/><text fill="#000005" font-family="Cambria Math,Cambria Math_MSFontService,sans-serif" font-size="27" font-weight="400" transform="translate(439.84 381)">ğ’‰</text><path fill="none" fill-rule="evenodd" stroke="#000005" stroke-linejoin="round" stroke-miterlimit="10" stroke-width=".333" d="M412.5 531C412.5 510.289 429.289 493.5 450 493.5 470.711 493.5 487.5 510.289 487.5 531 487.5 551.711 470.711 568.5 450 568.5 429.289 568.5 412.5 551.711 412.5 531Z"/><text fill="#000005" font-family="Cambria Math,Cambria Math_MSFontService,sans-serif" font-size="27" font-weight="400" transform="translate(441.942 541)">ğ’™</text><path fill="#000005" d="M0.073621 0.662589-2.17638 0.912589-2.03918 0.882456-4.28918 1.63246-4.18194 1.5859-6.36944 2.7734-6.28253 2.71707-8.40753 4.34207-10.4109 6.2911-12.3651 8.61692-15.9378 14.2333-18.9564 20.8401-21.3019 28.2638-22.7823 36.1854-23.3349 44.3578-23.3352 44.2621-23.0227 48.3871-22.2209 52.4337-20.8685 56.4113-19.0231 60.2759-16.7425 64.0293-14.0862 67.6698-7.64694 74.2853-7.73133 74.212-0.0438267 79.837 4.07889 82.1701 8.40217 84.1437 12.8514 85.748 17.4762 86.9162 22.1053 87.6542 26.785 87.8968 31.465 87.6468 36.0822 86.9042 40.7113 85.7287 45.1563 84.1827 49.4728 82.2062 53.6152 79.9164 61.2342 74.3974 61.1491 74.4706 67.6491 67.8456 70.2803 64.3485 72.555 60.5918 74.3999 56.7721 75.7445 52.8458 76.5338 48.8693 76.8353 44.8864 76.8349 44.9835 76.2724 36.8585 74.7826 29.0622 72.4284 21.8309 69.3949 15.2797 69.4415 15.364 65.8165 9.80149 63.8708 7.5611 61.8484 5.6036 61.9878 5.70722 59.425 4.27781 60.0745 3.11336 62.6372 4.54278C62.688 4.57109 62.7349 4.60593 62.7766 4.6464L64.8792 6.6889 66.9335 9.07351 70.5585 14.636C70.576 14.6629 70.5917 14.6912 70.6051 14.7203L73.6966 21.4191 76.0924 28.8128 77.6026 36.7665 78.1651 44.8915C78.1673 44.9238 78.1672 44.9563 78.1647 44.9886L77.8412 49.1307 77.0055 53.2792 75.6001 57.3529 73.695 61.2832 71.3447 65.1515 68.6009 68.7794 62.1009 75.4044C62.0746 75.4311 62.0462 75.4556 62.0158 75.4776L54.2598 81.0836 50.0272 83.4188 45.5937 85.4423 41.0387 87.0212 36.2928 88.2208 31.535 88.9782 26.715 89.2282 21.8947 88.9708 17.1488 88.2087 12.3986 87.002 7.84783 85.3563 3.42111 83.3299-0.831173 80.913-8.51867 75.288C-8.5488 75.266-8.57704 75.2414-8.60306 75.2147L-15.1638 68.4552-17.8825 64.7207-20.2269 60.8491-22.1315 56.8387-23.5291 52.6913-24.3523 48.4879-24.6648 44.3629C-24.6672 44.331-24.6673 44.299-24.6651 44.2672L-24.0927 35.9396-22.5731 27.8612-20.1686 20.2849-17.0622 13.5167-13.3849 7.75808-11.3391 5.3339-9.21747 3.28293-7.09247 1.65793C-7.06499 1.63692-7.03596 1.6181-7.00556 1.6016L-4.81806 0.414098C-4.78376 0.395477-4.74785 0.379887-4.71082 0.367544L-2.46082-0.382456C-2.41631-0.397293-2.37026-0.407408-2.32362-0.412589L-0.073621-0.662589ZM59.6073 7.90955 53.5 1.375 62.392 0.409854Z" transform="matrix(1.83697e-16 1 1 -1.83697e-16 474.5 345.5)"/><rect width="31" height="30" x="542.5" y="360.5" fill="#902D06" stroke="#000005" stroke-linejoin="round" stroke-miterlimit="10" stroke-width=".333"/></g></svg>