<svg width="511" height="324" xmlns="http://www.w3.org/2000/svg" xmlns:xlink="http://www.w3.org/1999/xlink" overflow="hidden"><defs><clipPath id="clip0"><rect x="205" y="198" width="511" height="324"/></clipPath></defs><g clip-path="url(#clip0)" transform="translate(-205 -198)"><path d="M360.933 460.049 359.94 398.177 361.274 398.155 362.266 460.028ZM356.629 399.563 360.5 391.5 364.628 399.435Z" fill="#000005"/><path d="M0.666667-1.09767e-06 0.666761 57.0968-0.666573 57.0968-0.666667 1.09767e-06ZM4.00009 55.7635 0.000104987 63.7635-3.99991 55.7635Z" fill="#000005" transform="matrix(1 0 0 -1 360.5 329.264)"/><path d="M329.5 235C329.5 218.155 343.155 204.5 360 204.5 376.845 204.5 390.5 218.155 390.5 235 390.5 251.845 376.845 265.5 360 265.5 343.155 265.5 329.5 251.845 329.5 235Z" stroke="#000005" stroke-width="0.333333" stroke-linejoin="round" stroke-miterlimit="10" fill="none" fill-rule="evenodd"/><text fill="#000005" font-family="Cambria Math,Cambria Math_MSFontService,sans-serif" font-weight="400" font-size="24" transform="translate(344.084 243)">𝒐<tspan font-size="18" x="13.28" y="5">1</tspan></text><path d="M329.5 360.5C329.5 343.379 343.155 329.5 360 329.5 376.845 329.5 390.5 343.379 390.5 360.5 390.5 377.621 376.845 391.5 360 391.5 343.155 391.5 329.5 377.621 329.5 360.5Z" stroke="#000005" stroke-width="0.333333" stroke-linejoin="round" stroke-miterlimit="10" fill="none" fill-rule="evenodd"/><text fill="#000005" font-family="Cambria Math,Cambria Math_MSFontService,sans-serif" font-weight="400" font-size="24" transform="translate(343.418 368)">𝒉<tspan font-size="18" x="14.6133" y="5">1</tspan></text><path d="M330.5 490.5C330.5 473.379 344.379 459.5 361.5 459.5 378.621 459.5 392.5 473.379 392.5 490.5 392.5 507.621 378.621 521.5 361.5 521.5 344.379 521.5 330.5 507.621 330.5 490.5Z" stroke="#000005" stroke-width="0.333333" stroke-linejoin="round" stroke-miterlimit="10" fill="none" fill-rule="evenodd"/><text fill="#000005" font-family="Cambria Math,Cambria Math_MSFontService,sans-serif" font-weight="400" font-size="24" transform="translate(345.184 499)">𝒙<tspan font-size="18" x="13.28" y="5">1</tspan><tspan font-family="Arial,Arial_MSFontService,sans-serif" font-size="21" x="-118.672" y="-143">zero </tspan><tspan font-family="Arial,Arial_MSFontService,sans-serif" font-size="21" x="-127.005" y="-118">vector</tspan></text><path d="M476.933 458.049 475.94 396.177 477.274 396.155 478.266 458.028ZM472.629 397.563 476.5 389.5 480.628 397.435Z" fill="#000005"/><path d="M0.666667-1.09767e-06 0.666761 57.0968-0.666573 57.0968-0.666667 1.09767e-06ZM4.00009 55.7635 0.000104987 63.7635-3.99991 55.7635Z" fill="#000005" transform="matrix(1 0 0 -1 476.5 328.264)"/><path d="M445.5 233.5C445.5 216.379 459.155 202.5 476 202.5 492.845 202.5 506.5 216.379 506.5 233.5 506.5 250.621 492.845 264.5 476 264.5 459.155 264.5 445.5 250.621 445.5 233.5Z" stroke="#000005" stroke-width="0.333333" stroke-linejoin="round" stroke-miterlimit="10" fill="none" fill-rule="evenodd"/><text fill="#000005" font-family="Cambria Math,Cambria Math_MSFontService,sans-serif" font-weight="400" font-size="24" transform="translate(459.764 241)">𝒐<tspan font-size="18" x="13.8333" y="5">2</tspan></text><path d="M445.5 358.5C445.5 341.379 459.155 327.5 476 327.5 492.845 327.5 506.5 341.379 506.5 358.5 506.5 375.621 492.845 389.5 476 389.5 459.155 389.5 445.5 375.621 445.5 358.5Z" stroke="#000005" stroke-width="0.333333" stroke-linejoin="round" stroke-miterlimit="10" fill="none" fill-rule="evenodd"/><text fill="#000005" font-family="Cambria Math,Cambria Math_MSFontService,sans-serif" font-weight="400" font-size="24" transform="translate(459.098 367)">𝒉<tspan font-size="18" x="15.1667" y="5">2</tspan></text><path d="M446.5 489C446.5 472.155 460.379 458.5 477.5 458.5 494.621 458.5 508.5 472.155 508.5 489 508.5 505.845 494.621 519.5 477.5 519.5 460.379 519.5 446.5 505.845 446.5 489Z" stroke="#000005" stroke-width="0.333333" stroke-linejoin="round" stroke-miterlimit="10" fill="none" fill-rule="evenodd"/><text fill="#000005" font-family="Cambria Math,Cambria Math_MSFontService,sans-serif" font-weight="400" font-size="24" transform="translate(460.864 497)">𝒙<tspan font-size="18" x="13.8333" y="5">2</tspan></text><path d="M683.933 455.049 682.94 393.177 684.274 393.155 685.266 455.028ZM679.629 394.563 683.5 386.5 687.628 394.435Z" fill="#000005"/><path d="M0.666667-1.09767e-06 0.666761 57.0968-0.666573 57.0968-0.666667 1.09767e-06ZM4.00009 55.7635 0.000104987 63.7635-3.99991 55.7635Z" fill="#000005" transform="matrix(1 0 0 -1 683.5 325.264)"/><path d="M652.5 230.5C652.5 213.379 666.379 199.5 683.5 199.5 700.621 199.5 714.5 213.379 714.5 230.5 714.5 247.621 700.621 261.5 683.5 261.5 666.379 261.5 652.5 247.621 652.5 230.5Z" stroke="#000005" stroke-width="0.333333" stroke-linejoin="round" stroke-miterlimit="10" fill="none" fill-rule="evenodd"/><text fill="#000005" font-family="Cambria Math,Cambria Math_MSFontService,sans-serif" font-weight="400" font-size="24" transform="translate(666.12 239)">𝒐<tspan font-size="18" x="14.6867" y="4">𝑇</tspan></text><path d="M652.5 356C652.5 339.155 666.379 325.5 683.5 325.5 700.621 325.5 714.5 339.155 714.5 356 714.5 372.845 700.621 386.5 683.5 386.5 666.379 386.5 652.5 372.845 652.5 356Z" stroke="#000005" stroke-width="0.333333" stroke-linejoin="round" stroke-miterlimit="10" fill="none" fill-rule="evenodd"/><text fill="#000005" font-family="Cambria Math,Cambria Math_MSFontService,sans-serif" font-weight="400" font-size="24" transform="translate(665.453 364)">𝒉<tspan font-size="18" x="16.02" y="5">𝑇</tspan></text><path d="M653.5 486C653.5 469.155 667.379 455.5 684.5 455.5 701.621 455.5 715.5 469.155 715.5 486 715.5 502.845 701.621 516.5 684.5 516.5 667.379 516.5 653.5 502.845 653.5 486Z" stroke="#000005" stroke-width="0.333333" stroke-linejoin="round" stroke-miterlimit="10" fill="none" fill-rule="evenodd"/><text fill="#000005" font-family="Cambria Math,Cambria Math_MSFontService,sans-serif" font-weight="400" font-size="24" transform="translate(667.22 494)">𝒙<tspan font-size="18" x="14.6867" y="5">𝑇</tspan></text><path d="M0.00479145-0.166598 47.6511 1.20374 47.6415 1.53693-0.00479145 0.166598ZM46.4285-2.66634 54.3102 1.56199 46.1985 5.33035Z" fill="#000005" transform="matrix(1 0 0 -1 390.5 360.062)"/><path d="M506.5 358.333 554.845 358.333 554.845 358.667 506.5 358.667ZM553.512 354.5 561.512 358.5 553.512 362.5Z" fill="#000005"/><path d="M0.00258933-0.166647 45.2564 0.5365 45.2512 0.869793-0.00258933 0.166647ZM43.9828-3.31709 51.9197 0.806719 43.8585 4.68195Z" fill="#000005" transform="matrix(1 0 0 -1 599.5 356.307)"/><text fill="#000005" font-family="Cambria Math,Cambria Math_MSFontService,sans-serif" font-weight="400" font-size="24" transform="translate(567.825 365)">⋯</text><path d="M0.00239846-0.166649 35.4631 0.343711 35.4583 0.67701-0.00239846 0.166649ZM34.1851-3.50841 42.1267 0.606299 34.07 4.49076Z" fill="#000005" transform="matrix(1 0 0 -1 287.5 361.106)"/></g></svg>