<svg xmlns="http://www.w3.org/2000/svg" xmlns:xlink="http://www.w3.org/1999/xlink" width="838" height="459" overflow="hidden"><defs><clipPath id="clip0"><rect width="838" height="459" x="24" y="131"/></clipPath></defs><g clip-path="url(#clip0)" transform="translate(-24 -131)"><text fill="#000005" font-family="Calibri,Calibri_MSFontService,sans-serif" font-size="19" font-style="italic" font-weight="400" transform="translate(43.4604 163)">I<tspan x="9.447" y="0" font-size="19">was</tspan><tspan x="44.56" y="0" font-size="19">a</tspan><tspan x="59.007" y="0" font-size="19">person</tspan><tspan x="115.12" y="0" font-size="19">that</tspan><tspan x="151.9" y="0" font-size="19">saw</tspan><tspan x="187.013" y="0" font-size="19">all</tspan><tspan x="210.127" y="0" font-size="19">the</tspan><tspan x="239.74" y="0" font-size="19">hype</tspan><tspan x="280.68" y="0" font-size="19">and</tspan><tspan x="314.46" y="0" font-size="19">claims</tspan><tspan x="367.573" y="0" font-size="19">of</tspan><tspan x="387.527" y="0" font-size="19">masterpiece</tspan><tspan x="0" y="23" font-size="19">as</tspan><tspan x="25.04" y="23" font-size="19">overreacting</tspan><tspan x="128.667" y="23" font-size="19">and</tspan><tspan x="165.707" y="23" font-size="19">overblown</tspan><tspan x="253.073" y="23" font-size="19">excitement</tspan><tspan x="343.927" y="23" font-size="19">for</tspan><tspan x="373.24" y="23" font-size="19">another</tspan><tspan x="441.287" y="23" font-size="19">Joker</tspan><tspan x="0" y="45" font-size="19">based</tspan><tspan x="49.42" y="45" font-size="19">film</tspan>.<tspan x="87.507" y="45" font-size="19">I</tspan><tspan x="96.427" y="45" font-size="19">thought</tspan><tspan x="161.333" y="45" font-size="19">this</tspan><tspan x="193.26" y="45" font-size="19">looked</tspan><tspan x="247.233" y="45" font-size="19">solid</tspan><tspan x="286.66" y="45" font-size="19">at</tspan><tspan x="306.92" y="45" font-size="19">best</tspan><tspan x="343.14" y="45" font-size="19">and</tspan><tspan x="376.4" y="45" font-size="19">even</tspan><tspan x="416.207" y="45" font-size="19">a</tspan><tspan x="430.133" y="45" font-size="19">bit</tspan><tspan x="454.727" y="45" font-size="19">too</tspan><tspan x="0" y="68" font-size="19">pretentious</tspan><tspan x="93.86" y="68" font-size="19">in</tspan><tspan x="115.367" y="68" font-size="19">the</tspan><tspan x="147.707" y="68" font-size="19">trailer,</tspan><tspan x="204.64" y="68" font-size="19">but</tspan><tspan x="237.813" y="68" font-size="19">in</tspan><tspan x="259.327" y="68" font-size="19">here</tspan><tspan x="300.507" y="68" font-size="19">to</tspan><tspan x="323.627" y="68" font-size="19">say</tspan><tspan x="356.473" y="68" font-size="19">I</tspan><tspan x="368.653" y="68" font-size="19">was</tspan><tspan x="406.5" y="68" font-size="19">incredibly</tspan><tspan x="0" y="90" font-size="19">wrong</tspan><tspan x="48.5" y="90" font-size="19">.</tspan><tspan x="66.1" y="90" font-size="19">This</tspan><tspan x="109.533" y="90" font-size="19">is</tspan><tspan x="134.133" y="90" font-size="19">a</tspan><tspan x="156.733" y="90" font-size="19">massive</tspan><tspan x="230.333" y="90" font-size="19">achievement</tspan><tspan x="340.133" y="90" font-size="19">of</tspan><tspan x="368.233" y="90" font-size="19">cinema</tspan><tspan x="436.333" y="90" font-size="19">that&apos;s</tspan><tspan x="0" y="112" font-size="19">extremely</tspan><tspan x="80.573" y="112" font-size="19">rare</tspan><tspan x="117.807" y="112" font-size="19">in</tspan><tspan x="137.873" y="112" font-size="19">a</tspan><tspan x="153.607" y="112" font-size="19">day</tspan><tspan x="187.347" y="112" font-size="19">and</tspan><tspan x="222.42" y="112" font-size="19">age</tspan><tspan x="256.66" y="112" font-size="19">of</tspan><tspan x="277.9" y="112" font-size="19">cgi</tspan><tspan x="305.687" y="112" font-size="19">nonsense</tspan><tspan x="382.593" y="112" font-size="19">and</tspan><tspan x="417.667" y="112" font-size="19">reboots</tspan><tspan x="475.167" y="112" font-size="19">.</tspan><tspan x="0" y="135" font-size="19">While</tspan><tspan x="51.487" y="135" font-size="19">this</tspan><tspan x="86.807" y="135" font-size="19">is</tspan><tspan x="106.127" y="135" font-size="19">somewhat</tspan><tspan x="193.173" y="135" font-size="19">of</tspan><tspan x="215.993" y="135" font-size="19">a</tspan><tspan x="233.32" y="135" font-size="19">reboot</tspan><tspan x="291.147" y="135" font-size="19">of</tspan><tspan x="313.973" y="135" font-size="19">sorts,</tspan><tspan x="363.133" y="135" font-size="19">the</tspan><tspan x="395.627" y="135" font-size="19">standalone</tspan><tspan x="0" y="157" font-size="19">origin</tspan><tspan x="54.993" y="157" font-size="19">tale</tspan><tspan x="95.067" y="157" font-size="19">is</tspan><tspan x="117.887" y="157" font-size="19">impeccable</tspan><tspan x="214.587" y="157" font-size="19">from</tspan><tspan x="262.073" y="157" font-size="19">start</tspan><tspan x="308.767" y="157" font-size="19">to</tspan><tspan x="335.527" y="157" font-size="19">finish</tspan><tspan x="387.68" y="157" font-size="19">and</tspan><tspan x="427.833" y="157" font-size="19">echoes</tspan><tspan x="0" y="180" font-size="19">resemblance</tspan><tspan x="104.973" y="180" font-size="19">to</tspan><tspan x="129.507" y="180" font-size="19">the</tspan><tspan x="163.267" y="180" font-size="19">best</tspan><tspan x="204.153" y="180" font-size="19">joker</tspan><tspan x="250.127" y="180" font-size="19">origin</tspan><tspan x="302.893" y="180" font-size="19">comics</tspan><tspan x="363.34" y="180" font-size="19">from</tspan><tspan x="408.607" y="180" font-size="19">the</tspan><tspan x="442.373" y="180" font-size="19">past</tspan><tspan x="475.167" y="180" font-size="19">.</tspan><tspan x="0" y="202" font-size="19">Joaquin</tspan><tspan x="68.8" y="202" font-size="19">bleeds,</tspan><tspan x="132.433" y="202" font-size="19">sweats,</tspan><tspan x="200.127" y="202" font-size="19">and</tspan><tspan x="239.427" y="202" font-size="19">cries</tspan><tspan x="284.393" y="202" font-size="19">his</tspan><tspan x="316.027" y="202" font-size="19">every</tspan><tspan x="366.973" y="202" font-size="19">drop</tspan><tspan x="412.44" y="202" font-size="19">into</tspan><tspan x="452.167" y="202" font-size="19">this</tspan><tspan x="0" y="224" font-size="19">magnificently</tspan><tspan x="109.58" y="224" font-size="19">dedicated</tspan><tspan x="190.473" y="224" font-size="19">performance</tspan>.<tspan x="298.34" y="224" font-size="19">Heath</tspan><tspan x="350.893" y="224" font-size="19">Ledger</tspan><tspan x="408.447" y="224" font-size="19">would</tspan><tspan x="461.333" y="224" font-size="19">be</tspan><tspan x="0" y="247" font-size="19">proud</tspan><tspan x="44.833" y="247" font-size="19">.</tspan><tspan x="58.213" y="247" font-size="19">This</tspan><tspan x="97.433" y="247" font-size="19">is</tspan><tspan x="117.82" y="247" font-size="19">undoubtedly</tspan><tspan x="221.593" y="247" font-size="19">the</tspan><tspan x="255.147" y="247" font-size="19">greatest</tspan><tspan x="326.793" y="247" font-size="19">acting</tspan><tspan x="383.013" y="247" font-size="19">performance</tspan><tspan x="0" y="269" font-size="19">since</tspan><tspan x="43.54" y="269" font-size="19">Heath&apos;s</tspan><tspan x="106.867" y="269" font-size="19">joker</tspan>.<tspan x="152.707" y="269" font-size="19">The</tspan><tspan x="186.033" y="269" font-size="19">directing</tspan><tspan x="258.693" y="269" font-size="19">and</tspan><tspan x="293.353" y="269" font-size="19">writing</tspan><tspan x="353.013" y="269" font-size="19">is</tspan><tspan x="370.347" y="269" font-size="19">slickly</tspan><tspan x="421.013" y="269" font-size="19">brilliant</tspan><tspan x="0" y="292" font-size="19">and</tspan><tspan x="38.16" y="292" font-size="19">the</tspan><tspan x="72.153" y="292" font-size="19">bleak</tspan><tspan x="122.313" y="292" font-size="19">settings</tspan><tspan x="191.06" y="292" font-size="19">and</tspan><tspan x="229.227" y="292" font-size="19">tones</tspan><tspan x="279.833" y="292" font-size="19">are</tspan><tspan x="313.833" y="292" font-size="19">palpable</tspan><tspan x="388.833" y="292" font-size="19">throughout</tspan><tspan x="475.167" y="292" font-size="19">.</tspan><tspan x="0" y="314" font-size="19">When</tspan><tspan x="50.513" y="314" font-size="19">this</tspan><tspan x="83.86" y="314" font-size="19">film</tspan><tspan x="118.707" y="314" font-size="19">was</tspan><tspan x="154.72" y="314" font-size="19">over</tspan><tspan x="193.32" y="314" font-size="19">the</tspan><tspan x="223.833" y="314" font-size="19">place</tspan><tspan x="269.727" y="314" font-size="19">was</tspan><tspan x="305.74" y="314" font-size="19">blown</tspan><tspan x="357.827" y="314" font-size="19">away</tspan><tspan x="404.507" y="314" font-size="19">and</tspan><tspan x="439.187" y="314" font-size="19">every</tspan><tspan x="0" y="336" font-size="19">audience</tspan><tspan x="75.953" y="336" font-size="19">member</tspan><tspan x="146.86" y="336" font-size="19">was</tspan><tspan x="184.767" y="336" font-size="19">awestruck</tspan><tspan x="269.967" y="336" font-size="19">that</tspan><tspan x="309.547" y="336" font-size="19">they</tspan><tspan x="350.173" y="336" font-size="19">witnessed</tspan><tspan x="433.42" y="336" font-size="19">a</tspan><tspan x="450.667" y="336" font-size="19">film</tspan><tspan x="0" y="359" font-size="19">that</tspan><tspan x="36.267" y="359" font-size="19">could</tspan><tspan x="81.38" y="359" font-size="19">still</tspan><tspan x="112.107" y="359" font-size="19">transport</tspan><tspan x="187.54" y="359" font-size="19">them</tspan><tspan x="231.473" y="359" font-size="19">into</tspan><tspan x="265.173" y="359" font-size="19">a</tspan><tspan x="279.113" y="359" font-size="19">character&apos;s</tspan><tspan x="367.187" y="359" font-size="19">world</tspan><tspan x="414.627" y="359" font-size="19">and</tspan><tspan x="447.9" y="359" font-size="19">very</tspan><tspan x="0" y="381" font-size="19">existence</tspan><tspan x="69.26" y="381" font-size="19">.</tspan><tspan x="81.547" y="381" font-size="19">Believe</tspan><tspan x="142.713" y="381" font-size="19">the</tspan><tspan x="175.173" y="381" font-size="19">hype</tspan>.<tspan x="223.627" y="381" font-size="19">This</tspan><tspan x="261.753" y="381" font-size="19">is</tspan><tspan x="281.047" y="381" font-size="19">going</tspan><tspan x="331.507" y="381" font-size="19">to</tspan><tspan x="354.74" y="381" font-size="19">be</tspan><tspan x="380.867" y="381" font-size="19">revered</tspan><tspan x="445.54" y="381" font-size="19">as</tspan><tspan x="470.167" y="381" font-size="19">a</tspan><tspan x="0" y="404" font-size="19">transcending</tspan><tspan x="103.047" y="404" font-size="19">masterpiece</tspan><tspan x="199.52" y="404" font-size="19">of</tspan><tspan x="218.853" y="404" font-size="19">cinema</tspan>.</text><path fill="#3C3" fill-rule="evenodd" stroke="#00B050" stroke-miterlimit="8" stroke-width=".333" d="M593.5 359.25 703 359.25 703 353.5 714.5 365 703 376.5 703 370.75 593.5 370.75Z"/><text fill="#000005" font-family="Arial,Arial_MSFontService,sans-serif" font-size="27" font-weight="400" transform="translate(754.204 373)">positive</text><rect width="514" height="455" x="26.5" y="133.5" fill="none" stroke="#00B050" stroke-linejoin="round" stroke-miterlimit="10" stroke-width="3"/></g></svg>