<svg width="838" height="459" xmlns="http://www.w3.org/2000/svg" xmlns:xlink="http://www.w3.org/1999/xlink" overflow="hidden"><defs><clipPath id="clip0"><rect x="24" y="131" width="838" height="459"/></clipPath></defs><g clip-path="url(#clip0)" transform="translate(-24 -131)"><text fill="#000005" font-family="Calibri,Calibri_MSFontService,sans-serif" font-style="italic" font-weight="400" font-size="19" transform="translate(43.4604 163)">I<tspan font-size="19" x="9.44667" y="0">was</tspan><tspan font-size="19" x="44.56" y="0">a</tspan><tspan font-size="19" x="59.0067" y="0">person</tspan><tspan font-size="19" x="115.12" y="0">that</tspan><tspan font-size="19" x="151.9" y="0">saw</tspan><tspan font-size="19" x="187.013" y="0">all</tspan><tspan font-size="19" x="210.127" y="0">the</tspan><tspan font-size="19" x="239.74" y="0">hype</tspan><tspan font-size="19" x="280.68" y="0">and</tspan><tspan font-size="19" x="314.46" y="0">claims</tspan><tspan font-size="19" x="367.573" y="0">of</tspan><tspan font-size="19" x="387.527" y="0">masterpiece</tspan><tspan font-size="19" x="0" y="23">as</tspan><tspan font-size="19" x="25.04" y="23">overreacting</tspan><tspan font-size="19" x="128.667" y="23">and</tspan><tspan font-size="19" x="165.707" y="23">overblown</tspan><tspan font-size="19" x="253.073" y="23">excitement</tspan><tspan font-size="19" x="343.927" y="23">for</tspan><tspan font-size="19" x="373.24" y="23">another</tspan><tspan font-size="19" x="441.287" y="23">Joker</tspan><tspan font-size="19" x="0" y="45">based</tspan><tspan font-size="19" x="49.42" y="45">film</tspan>.<tspan font-size="19" x="87.5067" y="45">I</tspan><tspan font-size="19" x="96.4267" y="45">thought</tspan><tspan font-size="19" x="161.333" y="45">this</tspan><tspan font-size="19" x="193.26" y="45">looked</tspan><tspan font-size="19" x="247.233" y="45">solid</tspan><tspan font-size="19" x="286.66" y="45">at</tspan><tspan font-size="19" x="306.92" y="45">best</tspan><tspan font-size="19" x="343.14" y="45">and</tspan><tspan font-size="19" x="376.4" y="45">even</tspan><tspan font-size="19" x="416.207" y="45">a</tspan><tspan font-size="19" x="430.133" y="45">bit</tspan><tspan font-size="19" x="454.727" y="45">too</tspan><tspan font-size="19" x="0" y="68">pretentious</tspan><tspan font-size="19" x="93.86" y="68">in</tspan><tspan font-size="19" x="115.367" y="68">the</tspan><tspan font-size="19" x="147.707" y="68">trailer,</tspan><tspan font-size="19" x="204.64" y="68">but</tspan><tspan font-size="19" x="237.813" y="68">in</tspan><tspan font-size="19" x="259.327" y="68">here</tspan><tspan font-size="19" x="300.507" y="68">to</tspan><tspan font-size="19" x="323.627" y="68">say</tspan><tspan font-size="19" x="356.473" y="68">I</tspan><tspan font-size="19" x="368.653" y="68">was</tspan><tspan font-size="19" x="406.5" y="68">incredibly</tspan><tspan font-size="19" x="0" y="90">wrong</tspan><tspan font-size="19" x="48.5" y="90">.</tspan><tspan font-size="19" x="66.1" y="90">This</tspan><tspan font-size="19" x="109.533" y="90">is</tspan><tspan font-size="19" x="134.133" y="90">a</tspan><tspan font-size="19" x="156.733" y="90">massive</tspan><tspan font-size="19" x="230.333" y="90">achievement</tspan><tspan font-size="19" x="340.133" y="90">of</tspan><tspan font-size="19" x="368.233" y="90">cinema</tspan><tspan font-size="19" x="436.333" y="90">that's</tspan><tspan font-size="19" x="0" y="112">extremely</tspan><tspan font-size="19" x="80.5733" y="112">rare</tspan><tspan font-size="19" x="117.807" y="112">in</tspan><tspan font-size="19" x="137.873" y="112">a</tspan><tspan font-size="19" x="153.607" y="112">day</tspan><tspan font-size="19" x="187.347" y="112">and</tspan><tspan font-size="19" x="222.42" y="112">age</tspan><tspan font-size="19" x="256.66" y="112">of</tspan><tspan font-size="19" x="277.9" y="112">cgi</tspan><tspan font-size="19" x="305.687" y="112">nonsense</tspan><tspan font-size="19" x="382.593" y="112">and</tspan><tspan font-size="19" x="417.667" y="112">reboots</tspan><tspan font-size="19" x="475.167" y="112">.</tspan><tspan font-size="19" x="0" y="135">While</tspan><tspan font-size="19" x="51.4867" y="135">this</tspan><tspan font-size="19" x="86.8067" y="135">is</tspan><tspan font-size="19" x="106.127" y="135">somewhat</tspan><tspan font-size="19" x="193.173" y="135">of</tspan><tspan font-size="19" x="215.993" y="135">a</tspan><tspan font-size="19" x="233.32" y="135">reboot</tspan><tspan font-size="19" x="291.147" y="135">of</tspan><tspan font-size="19" x="313.973" y="135">sorts,</tspan><tspan font-size="19" x="363.133" y="135">the</tspan><tspan font-size="19" x="395.627" y="135">standalone</tspan><tspan font-size="19" x="0" y="157">origin</tspan><tspan font-size="19" x="54.9933" y="157">tale</tspan><tspan font-size="19" x="95.0667" y="157">is</tspan><tspan font-size="19" x="117.887" y="157">impeccable</tspan><tspan font-size="19" x="214.587" y="157">from</tspan><tspan font-size="19" x="262.073" y="157">start</tspan><tspan font-size="19" x="308.767" y="157">to</tspan><tspan font-size="19" x="335.527" y="157">finish</tspan><tspan font-size="19" x="387.68" y="157">and</tspan><tspan font-size="19" x="427.833" y="157">echoes</tspan><tspan font-size="19" x="0" y="180">resemblance</tspan><tspan font-size="19" x="104.973" y="180">to</tspan><tspan font-size="19" x="129.507" y="180">the</tspan><tspan font-size="19" x="163.267" y="180">best</tspan><tspan font-size="19" x="204.153" y="180">joker</tspan><tspan font-size="19" x="250.127" y="180">origin</tspan><tspan font-size="19" x="302.893" y="180">comics</tspan><tspan font-size="19" x="363.34" y="180">from</tspan><tspan font-size="19" x="408.607" y="180">the</tspan><tspan font-size="19" x="442.373" y="180">past</tspan><tspan font-size="19" x="475.167" y="180">.</tspan><tspan font-size="19" x="0" y="202">Joaquin</tspan><tspan font-size="19" x="68.8" y="202">bleeds,</tspan><tspan font-size="19" x="132.433" y="202">sweats,</tspan><tspan font-size="19" x="200.127" y="202">and</tspan><tspan font-size="19" x="239.427" y="202">cries</tspan><tspan font-size="19" x="284.393" y="202">his</tspan><tspan font-size="19" x="316.027" y="202">every</tspan><tspan font-size="19" x="366.973" y="202">drop</tspan><tspan font-size="19" x="412.44" y="202">into</tspan><tspan font-size="19" x="452.167" y="202">this</tspan><tspan font-size="19" x="0" y="224">magnificently</tspan><tspan font-size="19" x="109.58" y="224">dedicated</tspan><tspan font-size="19" x="190.473" y="224">performance</tspan>.<tspan font-size="19" x="298.34" y="224">Heath</tspan><tspan font-size="19" x="350.893" y="224">Ledger</tspan><tspan font-size="19" x="408.447" y="224">would</tspan><tspan font-size="19" x="461.333" y="224">be</tspan><tspan font-size="19" x="0" y="247">proud</tspan><tspan font-size="19" x="44.8333" y="247">.</tspan><tspan font-size="19" x="58.2133" y="247">This</tspan><tspan font-size="19" x="97.4333" y="247">is</tspan><tspan font-size="19" x="117.82" y="247">undoubtedly</tspan><tspan font-size="19" x="221.593" y="247">the</tspan><tspan font-size="19" x="255.147" y="247">greatest</tspan><tspan font-size="19" x="326.793" y="247">acting</tspan><tspan font-size="19" x="383.013" y="247">performance</tspan><tspan font-size="19" x="0" y="269">since</tspan><tspan font-size="19" x="43.54" y="269">Heath's</tspan><tspan font-size="19" x="106.867" y="269">joker</tspan>.<tspan font-size="19" x="152.707" y="269">The</tspan><tspan font-size="19" x="186.033" y="269">directing</tspan><tspan font-size="19" x="258.693" y="269">and</tspan><tspan font-size="19" x="293.353" y="269">writing</tspan><tspan font-size="19" x="353.013" y="269">is</tspan><tspan font-size="19" x="370.347" y="269">slickly</tspan><tspan font-size="19" x="421.013" y="269">brilliant</tspan><tspan font-size="19" x="0" y="292">and</tspan><tspan font-size="19" x="38.16" y="292">the</tspan><tspan font-size="19" x="72.1533" y="292">bleak</tspan><tspan font-size="19" x="122.313" y="292">settings</tspan><tspan font-size="19" x="191.06" y="292">and</tspan><tspan font-size="19" x="229.227" y="292">tones</tspan><tspan font-size="19" x="279.833" y="292">are</tspan><tspan font-size="19" x="313.833" y="292">palpable</tspan><tspan font-size="19" x="388.833" y="292">throughout</tspan><tspan font-size="19" x="475.167" y="292">.</tspan><tspan font-size="19" x="0" y="314">When</tspan><tspan font-size="19" x="50.5133" y="314">this</tspan><tspan font-size="19" x="83.86" y="314">film</tspan><tspan font-size="19" x="118.707" y="314">was</tspan><tspan font-size="19" x="154.72" y="314">over</tspan><tspan font-size="19" x="193.32" y="314">the</tspan><tspan font-size="19" x="223.833" y="314">place</tspan><tspan font-size="19" x="269.727" y="314">was</tspan><tspan font-size="19" x="305.74" y="314">blown</tspan><tspan font-size="19" x="357.827" y="314">away</tspan><tspan font-size="19" x="404.507" y="314">and</tspan><tspan font-size="19" x="439.187" y="314">every</tspan><tspan font-size="19" x="0" y="336">audience</tspan><tspan font-size="19" x="75.9533" y="336">member</tspan><tspan font-size="19" x="146.86" y="336">was</tspan><tspan font-size="19" x="184.767" y="336">awestruck</tspan><tspan font-size="19" x="269.967" y="336">that</tspan><tspan font-size="19" x="309.547" y="336">they</tspan><tspan font-size="19" x="350.173" y="336">witnessed</tspan><tspan font-size="19" x="433.42" y="336">a</tspan><tspan font-size="19" x="450.667" y="336">film</tspan><tspan font-size="19" x="0" y="359">that</tspan><tspan font-size="19" x="36.2667" y="359">could</tspan><tspan font-size="19" x="81.38" y="359">still</tspan><tspan font-size="19" x="112.107" y="359">transport</tspan><tspan font-size="19" x="187.54" y="359">them</tspan><tspan font-size="19" x="231.473" y="359">into</tspan><tspan font-size="19" x="265.173" y="359">a</tspan><tspan font-size="19" x="279.113" y="359">character's</tspan><tspan font-size="19" x="367.187" y="359">world</tspan><tspan font-size="19" x="414.627" y="359">and</tspan><tspan font-size="19" x="447.9" y="359">very</tspan><tspan font-size="19" x="0" y="381">existence</tspan><tspan font-size="19" x="69.26" y="381">.</tspan><tspan font-size="19" x="81.5467" y="381">Believe</tspan><tspan font-size="19" x="142.713" y="381">the</tspan><tspan font-size="19" x="175.173" y="381">hype</tspan>.<tspan font-size="19" x="223.627" y="381">This</tspan><tspan font-size="19" x="261.753" y="381">is</tspan><tspan font-size="19" x="281.047" y="381">going</tspan><tspan font-size="19" x="331.507" y="381">to</tspan><tspan font-size="19" x="354.74" y="381">be</tspan><tspan font-size="19" x="380.867" y="381">revered</tspan><tspan font-size="19" x="445.54" y="381">as</tspan><tspan font-size="19" x="470.167" y="381">a</tspan><tspan font-size="19" x="0" y="404">transcending</tspan><tspan font-size="19" x="103.047" y="404">masterpiece</tspan><tspan font-size="19" x="199.52" y="404">of</tspan><tspan font-size="19" x="218.853" y="404">cinema</tspan>.</text><path d="M593.5 359.25 703 359.25 703 353.5 714.5 365 703 376.5 703 370.75 593.5 370.75Z" stroke="#00B050" stroke-width="0.333333" stroke-miterlimit="8" fill="#33CC33" fill-rule="evenodd"/><text fill="#000005" font-family="Arial,Arial_MSFontService,sans-serif" font-weight="400" font-size="27" transform="translate(754.204 373)">positive</text><rect x="26.5001" y="133.5" width="514" height="455" stroke="#00B050" stroke-width="3" stroke-linejoin="round" stroke-miterlimit="10" fill="none"/></g></svg>