<svg width="730" height="700" xmlns="http://www.w3.org/2000/svg" xmlns:xlink="http://www.w3.org/1999/xlink" overflow="hidden"><defs><clipPath id="clip0"><rect x="139" y="17" width="730" height="700"/></clipPath></defs><g clip-path="url(#clip0)" transform="translate(-139 -17)"><rect x="268.5" y="452.5" width="241" height="43" stroke="#000005" stroke-width="2.66667" stroke-linejoin="round" stroke-miterlimit="10" fill="#FFFFFF"/><text fill="#000005" font-family="Arial,Arial_MSFontService,sans-serif" font-weight="400" font-size="19" transform="translate(306.802 480)">multi<tspan font-size="19" x="39.3333" y="0">-</tspan><tspan font-size="19" x="45.5" y="0">head a</tspan><tspan font-size="19" x="102.333" y="0">ttention</tspan></text><path d="M0.5-5.02163e-07 0.500098 97.868-0.499902 97.868-0.5 5.02163e-07ZM4.0001 96.5347 0.000104987 104.535-3.9999 96.5347Z" fill="#000005" transform="matrix(1 0 0 -1 388.5 600.035)"/><rect x="268.5" y="600.5" width="241" height="39" stroke="#000005" stroke-width="2.66667" stroke-linejoin="round" stroke-miterlimit="10" fill="#FFFFFF"/><text fill="#000005" font-family="Arial,Arial_MSFontService,sans-serif" font-weight="400" font-size="19" transform="translate(342.468 626)">e<tspan font-size="19" x="10.3333" y="0">mbedding</tspan></text><rect x="268.5" y="344.5" width="241" height="34" stroke="#000005" stroke-width="2.66667" stroke-linejoin="round" stroke-miterlimit="10" fill="#FFFFFF"/><text fill="#000005" font-family="Arial,Arial_MSFontService,sans-serif" font-weight="400" font-size="19" transform="translate(333.135 368)">normalisation</text><path d="M0.5-7.11762e-07 0.500095 67.0847-0.499904 67.0847-0.5 7.11762e-07ZM4.00009 65.7514 0.000104987 73.7514-3.99991 65.7514Z" fill="#000003" transform="matrix(1 0 0 -1 388.5 452.251)"/><path d="M0.166667-5.23729e-07 0.166751 26.7434-0.166583 26.7434-0.166667 5.23729e-07ZM4.00008 25.4101 0.000104987 33.4101-3.99992 25.4101Z" fill="#000005" transform="matrix(1 0 0 -1 388.5 672.91)"/><text fill="#000005" font-family="Arial,Arial_MSFontService,sans-serif" font-weight="400" font-size="21" transform="translate(260.263 699)">input token sequence (e.g. characters, word fragments, words)<tspan fill="#FF0000" font-family="Cambria Math,Cambria Math_MSFontService,sans-serif" font-size="21" x="152.363" y="-113">ğ‘ ğ‘’ğ‘ğ‘™ğ‘’ğ‘›</tspan><tspan fill="#FF0000" font-family="Cambria Math,Cambria Math_MSFontService,sans-serif" font-size="21" x="218.97" y="-113">Ã—</tspan><tspan fill="#FF0000" font-family="Cambria Math,Cambria Math_MSFontService,sans-serif" font-size="21" x="238.877" y="-113">ğ‘‘</tspan><tspan fill="#FF0000" font-family="Cambria Math,Cambria Math_MSFontService,sans-serif" font-size="21" x="152.363" y="-260">ğ‘ ğ‘’ğ‘ğ‘™ğ‘’ğ‘›</tspan><tspan fill="#FF0000" font-family="Cambria Math,Cambria Math_MSFontService,sans-serif" font-size="21" x="218.97" y="-260">Ã—</tspan><tspan fill="#FF0000" font-family="Cambria Math,Cambria Math_MSFontService,sans-serif" font-size="21" x="238.877" y="-260">ğ‘‘</tspan><tspan fill="#FF0000" font-family="Cambria Math,Cambria Math_MSFontService,sans-serif" font-size="21" x="152.363" y="-369">ğ‘ ğ‘’ğ‘ğ‘™ğ‘’ğ‘›</tspan><tspan fill="#FF0000" font-family="Cambria Math,Cambria Math_MSFontService,sans-serif" font-size="21" x="218.97" y="-369">Ã—</tspan><tspan fill="#FF0000" font-family="Cambria Math,Cambria Math_MSFontService,sans-serif" font-size="21" x="238.877" y="-369">ğ‘‘</tspan></text><rect x="268.5" y="261.5" width="242" height="36" stroke="#000005" stroke-width="2.66667" stroke-linejoin="round" stroke-miterlimit="10" fill="#FFFFFF"/><text fill="#000005" font-family="Arial,Arial_MSFontService,sans-serif" font-weight="400" font-size="19" transform="translate(279.197 285)">f<tspan font-size="19" x="5.16666" y="0">ully connected layer, d, </tspan><tspan font-size="19" x="199.64" y="0">dff</tspan></text><rect x="269.5" y="188.5" width="242" height="34" stroke="#000005" stroke-width="2.66667" stroke-linejoin="round" stroke-miterlimit="10" fill="#FFFFFF"/><text fill="#000005" font-family="Arial,Arial_MSFontService,sans-serif" font-weight="400" font-size="19" transform="translate(280.326 212)">f<tspan font-size="19" x="5.16666" y="0">ully connected layer, </tspan>dff<tspan font-size="19" x="199.3" y="0">, d</tspan></text><path d="M0.166648-0.00247986 0.77916 41.1588 0.445864 41.1637-0.166648 0.00247986ZM4.59223 39.7686 0.711706 47.8272-3.40688 39.8876Z" fill="#000005" transform="matrix(1 0 0 -1 388.5 345.327)"/><text fill="#FF0000" font-family="Cambria Math,Cambria Math_MSFontService,sans-serif" font-weight="400" font-size="21" transform="translate(412.733 247)">ğ‘ ğ‘’ğ‘ğ‘™ğ‘’ğ‘›<tspan font-size="21" x="66.6067" y="0">Ã—</tspan><tspan font-size="21" x="86.5133" y="0">ğ‘‘ğ‘“ğ‘“</tspan><tspan font-size="21" x="-0.106689" y="-85">ğ‘ ğ‘’ğ‘ğ‘™ğ‘’ğ‘›</tspan><tspan font-size="21" x="66.5" y="-85">Ã—</tspan><tspan font-size="21" x="86.4066" y="-85">ğ‘‘</tspan></text><path d="M0.166651-0.00231591 1.20336 74.5981 0.870057 74.6028-0.166651 0.00231591ZM5.01779 73.2116 1.12934 81.2665-2.98143 73.3228Z" fill="#000005" transform="matrix(1 0 0 -1 390.5 187.767)"/><path d="M0.166595-0.00490197 1.09986 31.7123 0.766671 31.7221-0.166595 0.00490197ZM4.89232 30.2668 1.12934 38.381-3.10422 30.5021Z" fill="#000005" transform="matrix(1 0 0 -1 389.5 260.881)"/><path d="M376.5 148.5C376.5 140.216 383.216 133.5 391.5 133.5 399.784 133.5 406.5 140.216 406.5 148.5 406.5 156.784 399.784 163.5 391.5 163.5 383.216 163.5 376.5 156.784 376.5 148.5Z" stroke="#000005" stroke-width="2.66667" stroke-linejoin="round" stroke-miterlimit="10" fill="#FFC000" fill-rule="evenodd"/><text fill="#000005" font-family="Arial,Arial_MSFontService,sans-serif" font-weight="400" font-size="37" transform="translate(380.089 161)">+</text><path d="M0-0.166667 0.801432-0.166667C0.893479-0.166667 0.968099-0.0920475 0.968099 0L0.968099 150.423 0.801432 150.256 173.451 150.256 173.284 150.423 173.284 20.7257 173.617 20.7257 173.617 150.423C173.617 150.515 173.543 150.589 173.451 150.589L0.801432 150.589C0.709384 150.589 0.634765 150.515 0.634765 150.423L0.634765 0 0.801432 0.166667 0 0.166667ZM169.451 22.059 173.451 14.059 177.451 22.059Z" fill="#000005" transform="matrix(-1.83697e-16 -1 -1 1.83697e-16 390.559 321.951)"/><rect x="270.5" y="72.5001" width="242" height="34" stroke="#000005" stroke-width="2.66667" stroke-linejoin="round" stroke-miterlimit="10" fill="#FFFFFF"/><text fill="#000005" font-family="Arial,Arial_MSFontService,sans-serif" font-weight="400" font-size="19" transform="translate(336.105 96)">normalisation</text><path d="M391.898 73.1074 391.414 33.1683 391.747 33.1642 392.231 73.1034ZM387.597 34.5479 391.5 26.5001 395.597 34.451Z" fill="#000005"/><text fill="#000005" font-family="Cambria Math,Cambria Math_MSFontService,sans-serif" font-weight="400" font-size="27" transform="translate(143.669 306)">ğ‘<tspan font-size="27" x="26.08" y="0">Ã—</tspan><tspan fill="#FF0000" font-size="21" x="268.958" y="-258">ğ‘ ğ‘’ğ‘ğ‘™ğ‘’ğ‘›</tspan><tspan fill="#FF0000" font-size="21" x="335.565" y="-258">Ã—</tspan><tspan fill="#FF0000" font-size="21" x="355.471" y="-258">ğ‘‘</tspan></text><path d="M370.833 419.667 244.409 419.667 244.576 419.5 244.576 525.7 244.409 525.534 388.699 525.534C388.791 525.534 388.865 525.608 388.865 525.7L388.865 526.546 388.532 526.546 388.532 525.7 388.699 525.867 244.409 525.867C244.317 525.867 244.243 525.792 244.243 525.7L244.243 419.5C244.243 419.408 244.317 419.333 244.409 419.333L370.833 419.333ZM369.5 415.5 377.5 419.5 369.5 423.5Z" fill="#000005"/><path d="M336.5 511.5 434.781 511.5" stroke="#000005" stroke-width="0.333333" stroke-linejoin="round" stroke-miterlimit="10" fill="#902D06" fill-rule="evenodd"/><path d="M0.166667-1.06265e-06 0.166729 9.79947-0.166604 9.79948-0.166667 1.06265e-06ZM4.00005 8.46612 0.000104987 16.4661-3.99995 8.46617Z" fill="#000005" transform="matrix(1 0 0 -1 336.5 510.966)"/><path d="M0.166667-1.06265e-06 0.166729 9.79947-0.166604 9.79948-0.166667 1.06265e-06ZM4.00005 8.46612 0.000104987 16.4661-3.99995 8.46617Z" fill="#000005" transform="matrix(1 0 0 -1 434.5 510.966)"/><path d="M377.5 419C377.5 411.544 383.32 405.5 390.5 405.5 397.68 405.5 403.5 411.544 403.5 419 403.5 426.456 397.68 432.5 390.5 432.5 383.32 432.5 377.5 426.456 377.5 419Z" stroke="#000005" stroke-width="2.66667" stroke-linejoin="round" stroke-miterlimit="10" fill="#FFC000" fill-rule="evenodd"/><text fill="#000005" font-family="Arial,Arial_MSFontService,sans-serif" font-weight="400" font-size="37" transform="translate(379.392 432)">+</text><path d="M374.5 566.5C374.5 558.216 380.992 551.5 389 551.5 397.008 551.5 403.5 558.216 403.5 566.5 403.5 574.784 397.008 581.5 389 581.5 380.992 581.5 374.5 574.784 374.5 566.5Z" stroke="#000005" stroke-width="2.66667" stroke-linejoin="round" stroke-miterlimit="10" fill="#FFC000" fill-rule="evenodd"/><text fill="#000005" font-family="Arial,Arial_MSFontService,sans-serif" font-weight="400" font-size="37" transform="translate(377.551 579)">+</text><rect x="162.5" y="547.5" width="171" height="39" stroke="#000005" stroke-width="2.66667" stroke-linejoin="round" stroke-miterlimit="10" fill="#FFFFFF"/><text fill="#000005" font-family="Arial,Arial_MSFontService,sans-serif" font-weight="400" font-size="19" transform="translate(168.112 573)">positional encoding</text><path d="M0.00280909-0.166643 33.8696 0.404248 33.864 0.737534-0.00280909 0.166643ZM32.601-3.45101 40.5325 0.683255 32.4662 4.54785Z" fill="#000005" transform="matrix(1 0 0 -1 333.5 567.183)"/><path d="M203.5 115.335C203.5 82.8412 229.841 56.5001 262.335 56.5001L497.665 56.5001C530.159 56.5001 556.5 82.8412 556.5 115.335L556.5 474.665C556.5 507.159 530.159 533.5 497.665 533.5L262.335 533.5C229.841 533.5 203.5 507.159 203.5 474.665Z" stroke="#000005" stroke-width="0.333333" stroke-linejoin="round" stroke-miterlimit="10" fill="#99FF33" fill-rule="evenodd" fill-opacity="0.0392157"/><text fill="#FF0000" font-family="Cambria Math,Cambria Math_MSFontService,sans-serif" font-weight="400" font-size="21" transform="translate(412.453 668)">ğ‘ ğ‘’ğ‘ğ‘™ğ‘’ğ‘›</text></g></svg>