<svg width="579" height="502" xmlns="http://www.w3.org/2000/svg" xmlns:xlink="http://www.w3.org/1999/xlink" overflow="hidden"><defs><clipPath id="clip0"><rect x="162" y="132" width="579" height="502"/></clipPath></defs><g clip-path="url(#clip0)" transform="translate(-162 -132)"><rect x="510.5" y="417.5" width="227" height="46" stroke="#000005" stroke-width="0.333333" stroke-linejoin="round" stroke-miterlimit="10" fill="none"/><text fill="#000005" font-family="Arial,Arial_MSFontService,sans-serif" font-weight="400" font-size="27" transform="translate(551.142 450)">fcl<tspan font-size="27" x="26.6666" y="0">, </tspan><tspan font-size="27" x="41.3333" y="0">784, 300 </tspan></text><rect x="510.5" y="259.5" width="227" height="45" stroke="#000005" stroke-width="0.333333" stroke-linejoin="round" stroke-miterlimit="10" fill="none"/><text fill="#000005" font-family="Arial,Arial_MSFontService,sans-serif" font-weight="400" font-size="27" transform="translate(558.559 291)">fcl<tspan font-size="27" x="26.6666" y="0">, </tspan><tspan font-size="27" x="41.3333" y="0">300, 10</tspan></text><rect x="510.5" y="495.5" width="227" height="45" stroke="#000005" stroke-width="0.333333" stroke-linejoin="round" stroke-miterlimit="10" fill="none"/><text fill="#000005" font-family="Arial,Arial_MSFontService,sans-serif" font-weight="400" font-size="27" transform="translate(587.392 527)">flatten</text><path d="M0.166667-5.17679e-07 0.166751 27.1339-0.166582 27.1339-0.166667 5.17679e-07ZM4.00008 25.8005 0.000104987 33.8005-3.99992 25.8005Z" fill="#000005" transform="matrix(1 0 0 -1 624.5 418.301)"/><path d="M0.166667-5.47435e-07 0.16675 25.2966-0.166584 25.2966-0.166667 5.47435e-07ZM4.00008 23.9632 0.000104987 31.9633-3.99992 23.9633Z" fill="#000005" transform="matrix(1 0 0 -1 624.5 495.463)"/><path d="M0.166667-5.47435e-07 0.16675 25.2966-0.166584 25.2966-0.166667 5.47435e-07ZM4.00008 23.9632 0.000104987 31.9633-3.99992 23.9633Z" fill="#000005" transform="matrix(1 0 0 -1 624.5 572.463)"/><rect x="510.5" y="179.5" width="227" height="45" stroke="#000005" stroke-width="0.333333" stroke-linejoin="round" stroke-miterlimit="10" fill="none"/><text fill="#000005" font-family="Arial,Arial_MSFontService,sans-serif" font-weight="400" font-size="27" transform="translate(577.059 212)">softmax</text><path d="M0.166667-5.10175e-07 0.166751 27.631-0.166582 27.631-0.166667 5.10175e-07ZM4.00008 26.2976 0.000104987 34.2976-3.99992 26.2976Z" fill="#000005" transform="matrix(1 0 0 -1 624.5 258.798)"/><rect x="510.5" y="338.5" width="227" height="46" stroke="#000005" stroke-width="0.333333" stroke-linejoin="round" stroke-miterlimit="10" fill="none"/><text fill="#000005" font-family="Arial,Arial_MSFontService,sans-serif" font-weight="400" font-size="27" transform="translate(577.642 371)">sigmoid</text><path d="M0.166667-5.10175e-07 0.166751 27.631-0.166582 27.631-0.166667 5.10175e-07ZM4.00008 26.2976 0.000104987 34.2976-3.99992 26.2976Z" fill="#000005" transform="matrix(1 0 0 -1 624.5 338.798)"/><path d="M0.166667-4.58047e-07 0.166753 31.5343-0.16658 31.5343-0.166667 4.58047e-07ZM4.00008 30.2009 0.000104987 38.2009-3.99992 30.201Z" fill="#000005" transform="matrix(1 0 0 -1 624.5 179.701)"/><text fill="#000005" font-family="Arial,Arial_MSFontService,sans-serif" font-weight="400" font-size="27" transform="translate(541.495 611)">MNIST image<tspan fill="#FF0000" font-size="21" x="104.475" y="-43">1x28x28</tspan><tspan fill="#FF0000" font-size="21" x="149.915" y="-123">784</tspan><tspan fill="#FF0000" font-size="21" x="149.915" y="-202">300</tspan><tspan fill="#FF0000" font-size="21" x="149.915" y="-280">300</tspan><tspan fill="#FF0000" font-size="21" x="149.915" y="-361">10</tspan><tspan fill="#FF0000" font-size="21" x="149.915" y="-436">10</tspan></text><rect x="162.5" y="336.5" width="227" height="45" stroke="#000005" stroke-width="0.333333" stroke-linejoin="round" stroke-miterlimit="10" fill="none"/><text fill="#000005" font-family="Arial,Arial_MSFontService,sans-serif" font-weight="400" font-size="27" transform="translate(210.794 368)">fcl<tspan font-size="27" x="26.6667" y="0">, </tspan><tspan font-size="27" x="41.3333" y="0">784, 10 </tspan></text><rect x="162.5" y="413.5" width="227" height="45" stroke="#000005" stroke-width="0.333333" stroke-linejoin="round" stroke-miterlimit="10" fill="none"/><text fill="#000005" font-family="Arial,Arial_MSFontService,sans-serif" font-weight="400" font-size="27" transform="translate(239.627 446)">flatten</text><path d="M0.166667-5.47435e-07 0.16675 25.2966-0.166584 25.2966-0.166667 5.47435e-07ZM4.00008 23.9632 0.000104987 31.9633-3.99992 23.9633Z" fill="#000005" transform="matrix(1 0 0 -1 276.5 413.463)"/><path d="M0.166667-5.47435e-07 0.16675 25.2966-0.166584 25.2966-0.166667 5.47435e-07ZM4.00008 23.9632 0.000104987 31.9633-3.99992 23.9633Z" fill="#000005" transform="matrix(1 0 0 -1 276.5 490.463)"/><rect x="162.5" y="255.5" width="227" height="45" stroke="#000005" stroke-width="0.333333" stroke-linejoin="round" stroke-miterlimit="10" fill="none"/><text fill="#000005" font-family="Arial,Arial_MSFontService,sans-serif" font-weight="400" font-size="27" transform="translate(229.294 287)">softmax</text><path d="M0.166667-4.92807e-07 0.166752 28.8398-0.166581 28.8398-0.166667 4.92807e-07ZM4.00008 27.5064 0.000104987 35.5065-3.99992 27.5065Z" fill="#000005" transform="matrix(1 0 0 -1 276.5 336.007)"/><path d="M0.166667-4.58047e-07 0.166753 31.5343-0.16658 31.5343-0.166667 4.58047e-07ZM4.00008 30.2009 0.000104987 38.2009-3.99992 30.201Z" fill="#000005" transform="matrix(1 0 0 -1 276.5 254.701)"/><text fill="#000005" font-family="Arial,Arial_MSFontService,sans-serif" font-weight="400" font-size="27" transform="translate(193.73 529)">MNIST image<tspan fill="#FF0000" font-size="21" x="104.475" y="-43">1x28x28</tspan><tspan fill="#FF0000" font-size="21" x="149.915" y="-122">784</tspan><tspan fill="#FF0000" font-size="21" x="149.915" y="-203">10</tspan><tspan fill="#FF0000" font-size="21" x="149.915" y="-278">10</tspan></text></g></svg>