<svg xmlns="http://www.w3.org/2000/svg" xmlns:xlink="http://www.w3.org/1999/xlink" width="579" height="502" overflow="hidden"><defs><clipPath id="clip0"><rect width="579" height="502" x="162" y="132"/></clipPath></defs><g clip-path="url(#clip0)" transform="translate(-162 -132)"><rect width="227" height="46" x="510.5" y="417.5" fill="none" stroke="#000005" stroke-linejoin="round" stroke-miterlimit="10" stroke-width=".333"/><text fill="#000005" font-family="Arial,Arial_MSFontService,sans-serif" font-size="27" font-weight="400" transform="translate(551.142 450)">fcl<tspan x="26.667" y="0" font-size="27">, </tspan><tspan x="41.333" y="0" font-size="27">784, 300</tspan></text><rect width="227" height="45" x="510.5" y="259.5" fill="none" stroke="#000005" stroke-linejoin="round" stroke-miterlimit="10" stroke-width=".333"/><text fill="#000005" font-family="Arial,Arial_MSFontService,sans-serif" font-size="27" font-weight="400" transform="translate(558.559 291)">fcl<tspan x="26.667" y="0" font-size="27">, </tspan><tspan x="41.333" y="0" font-size="27">300, 10</tspan></text><rect width="227" height="45" x="510.5" y="495.5" fill="none" stroke="#000005" stroke-linejoin="round" stroke-miterlimit="10" stroke-width=".333"/><text fill="#000005" font-family="Arial,Arial_MSFontService,sans-serif" font-size="27" font-weight="400" transform="translate(587.392 527)">flatten</text><path fill="#000005" d="M0.166667-5.17679e-07 0.166751 27.1339-0.166582 27.1339-0.166667 5.17679e-07ZM4.00008 25.8005 0.000104987 33.8005-3.99992 25.8005Z" transform="matrix(1 0 0 -1 624.5 418.301)"/><path fill="#000005" d="M0.166667-5.47435e-07 0.16675 25.2966-0.166584 25.2966-0.166667 5.47435e-07ZM4.00008 23.9632 0.000104987 31.9633-3.99992 23.9633Z" transform="matrix(1 0 0 -1 624.5 495.463)"/><path fill="#000005" d="M0.166667-5.47435e-07 0.16675 25.2966-0.166584 25.2966-0.166667 5.47435e-07ZM4.00008 23.9632 0.000104987 31.9633-3.99992 23.9633Z" transform="matrix(1 0 0 -1 624.5 572.463)"/><rect width="227" height="45" x="510.5" y="179.5" fill="none" stroke="#000005" stroke-linejoin="round" stroke-miterlimit="10" stroke-width=".333"/><text fill="#000005" font-family="Arial,Arial_MSFontService,sans-serif" font-size="27" font-weight="400" transform="translate(577.059 212)">softmax</text><path fill="#000005" d="M0.166667-5.10175e-07 0.166751 27.631-0.166582 27.631-0.166667 5.10175e-07ZM4.00008 26.2976 0.000104987 34.2976-3.99992 26.2976Z" transform="matrix(1 0 0 -1 624.5 258.798)"/><rect width="227" height="46" x="510.5" y="338.5" fill="none" stroke="#000005" stroke-linejoin="round" stroke-miterlimit="10" stroke-width=".333"/><text fill="#000005" font-family="Arial,Arial_MSFontService,sans-serif" font-size="27" font-weight="400" transform="translate(577.642 371)">sigmoid</text><path fill="#000005" d="M0.166667-5.10175e-07 0.166751 27.631-0.166582 27.631-0.166667 5.10175e-07ZM4.00008 26.2976 0.000104987 34.2976-3.99992 26.2976Z" transform="matrix(1 0 0 -1 624.5 338.798)"/><path fill="#000005" d="M0.166667-4.58047e-07 0.166753 31.5343-0.16658 31.5343-0.166667 4.58047e-07ZM4.00008 30.2009 0.000104987 38.2009-3.99992 30.201Z" transform="matrix(1 0 0 -1 624.5 179.701)"/><text fill="#000005" font-family="Arial,Arial_MSFontService,sans-serif" font-size="27" font-weight="400" transform="translate(541.495 611)">MNIST image<tspan x="104.475" y="-43" fill="red" font-size="21">1x28x28</tspan><tspan x="149.915" y="-123" fill="red" font-size="21">784</tspan><tspan x="149.915" y="-202" fill="red" font-size="21">300</tspan><tspan x="149.915" y="-280" fill="red" font-size="21">300</tspan><tspan x="149.915" y="-361" fill="red" font-size="21">10</tspan><tspan x="149.915" y="-436" fill="red" font-size="21">10</tspan></text><rect width="227" height="45" x="162.5" y="336.5" fill="none" stroke="#000005" stroke-linejoin="round" stroke-miterlimit="10" stroke-width=".333"/><text fill="#000005" font-family="Arial,Arial_MSFontService,sans-serif" font-size="27" font-weight="400" transform="translate(210.794 368)">fcl<tspan x="26.667" y="0" font-size="27">, </tspan><tspan x="41.333" y="0" font-size="27">784, 10</tspan></text><rect width="227" height="45" x="162.5" y="413.5" fill="none" stroke="#000005" stroke-linejoin="round" stroke-miterlimit="10" stroke-width=".333"/><text fill="#000005" font-family="Arial,Arial_MSFontService,sans-serif" font-size="27" font-weight="400" transform="translate(239.627 446)">flatten</text><path fill="#000005" d="M0.166667-5.47435e-07 0.16675 25.2966-0.166584 25.2966-0.166667 5.47435e-07ZM4.00008 23.9632 0.000104987 31.9633-3.99992 23.9633Z" transform="matrix(1 0 0 -1 276.5 413.463)"/><path fill="#000005" d="M0.166667-5.47435e-07 0.16675 25.2966-0.166584 25.2966-0.166667 5.47435e-07ZM4.00008 23.9632 0.000104987 31.9633-3.99992 23.9633Z" transform="matrix(1 0 0 -1 276.5 490.463)"/><rect width="227" height="45" x="162.5" y="255.5" fill="none" stroke="#000005" stroke-linejoin="round" stroke-miterlimit="10" stroke-width=".333"/><text fill="#000005" font-family="Arial,Arial_MSFontService,sans-serif" font-size="27" font-weight="400" transform="translate(229.294 287)">softmax</text><path fill="#000005" d="M0.166667-4.92807e-07 0.166752 28.8398-0.166581 28.8398-0.166667 4.92807e-07ZM4.00008 27.5064 0.000104987 35.5065-3.99992 27.5065Z" transform="matrix(1 0 0 -1 276.5 336.007)"/><path fill="#000005" d="M0.166667-4.58047e-07 0.166753 31.5343-0.16658 31.5343-0.166667 4.58047e-07ZM4.00008 30.2009 0.000104987 38.2009-3.99992 30.201Z" transform="matrix(1 0 0 -1 276.5 254.701)"/><text fill="#000005" font-family="Arial,Arial_MSFontService,sans-serif" font-size="27" font-weight="400" transform="translate(193.73 529)">MNIST image<tspan x="104.475" y="-43" fill="red" font-size="21">1x28x28</tspan><tspan x="149.915" y="-122" fill="red" font-size="21">784</tspan><tspan x="149.915" y="-203" fill="red" font-size="21">10</tspan><tspan x="149.915" y="-278" fill="red" font-size="21">10</tspan></text></g></svg>