<svg xmlns="http://www.w3.org/2000/svg" xmlns:xlink="http://www.w3.org/1999/xlink" width="576" height="384" version="1.1" viewBox="0 0 432 288"><metadata><rdf:RDF xmlns:cc="http://creativecommons.org/ns#" xmlns:dc="http://purl.org/dc/elements/1.1/" xmlns:rdf="http://www.w3.org/1999/02/22-rdf-syntax-ns#"><cc:Work><dc:type rdf:resource="http://purl.org/dc/dcmitype/StillImage"/><dc:date>2021-07-30T17:10:48.634756</dc:date><dc:format>image/svg+xml</dc:format><dc:creator><cc:Agent><dc:title>Matplotlib v3.3.2, https://matplotlib.org/</dc:title></cc:Agent></dc:creator></cc:Work></rdf:RDF></metadata><defs><style type="text/css">*{stroke-linecap:butt;stroke-linejoin:round}</style></defs><g id="figure_1"><g id="patch_1"><path d="M 0 288 L 432 288 L 432 0 L 0 0 z" style="fill:none"/></g><g id="axes_1"><g id="patch_2"><path d="M 54 252 L 388.8 252 L 388.8 34.56 L 54 34.56 z" style="fill:#fff"/></g><g id="matplotlib.axis_1"><g id="xtick_1"><g id="line2d_1"><defs><path id="m849290e6ee" d="M 0 0 L 0 3.5" style="stroke:#000;stroke-width:.8"/></defs><g><use style="stroke:#000;stroke-width:.8" x="101.486" y="103.129" xlink:href="#m849290e6ee"/></g></g><g id="text_1"><g transform="translate(98.30471 117.727764)scale(0.1 -0.1)"><defs><path id="DejaVuSans-49" d="M 12.40625 8.296875 L 28.515625 8.296875 L 28.515625 63.921875 L 10.984375 60.40625 L 10.984375 69.390625 L 28.421875 72.90625 L 38.28125 72.90625 L 38.28125 8.296875 L 54.390625 8.296875 L 54.390625 0 L 12.40625 0 z"/></defs><use xlink:href="#DejaVuSans-49"/></g></g></g><g id="xtick_2"><g id="line2d_2"><g><use style="stroke:#000;stroke-width:.8" x="149.452" y="103.129" xlink:href="#m849290e6ee"/></g></g><g id="text_2"><g transform="translate(146.270326 117.727764)scale(0.1 -0.1)"><defs><path id="DejaVuSans-50" d="M 19.1875 8.296875 L 53.609375 8.296875 L 53.609375 0 L 7.328125 0 L 7.328125 8.296875 Q 12.9375 14.109375 22.625 23.890625 Q 32.328125 33.6875 34.8125 36.53125 Q 39.546875 41.84375 41.421875 45.53125 Q 43.3125 49.21875 43.3125 52.78125 Q 43.3125 58.59375 39.234375 62.25 Q 35.15625 65.921875 28.609375 65.921875 Q 23.96875 65.921875 18.8125 64.3125 Q 13.671875 62.703125 7.8125 59.421875 L 7.8125 69.390625 Q 13.765625 71.78125 18.9375 73 Q 24.125 74.21875 28.421875 74.21875 Q 39.75 74.21875 46.484375 68.546875 Q 53.21875 62.890625 53.21875 53.421875 Q 53.21875 48.921875 51.53125 44.890625 Q 49.859375 40.875 45.40625 35.40625 Q 44.1875 33.984375 37.640625 27.21875 Q 31.109375 20.453125 19.1875 8.296875 z"/></defs><use xlink:href="#DejaVuSans-50"/></g></g></g><g id="xtick_3"><g id="line2d_3"><g><use style="stroke:#000;stroke-width:.8" x="197.417" y="103.129" xlink:href="#m849290e6ee"/></g></g><g id="text_3"><g transform="translate(194.235942 117.727764)scale(0.1 -0.1)"><defs><path id="DejaVuSans-51" d="M 40.578125 39.3125 Q 47.65625 37.796875 51.625 33 Q 55.609375 28.21875 55.609375 21.1875 Q 55.609375 10.40625 48.1875 4.484375 Q 40.765625 -1.421875 27.09375 -1.421875 Q 22.515625 -1.421875 17.65625 -0.515625 Q 12.796875 0.390625 7.625 2.203125 L 7.625 11.71875 Q 11.71875 9.328125 16.59375 8.109375 Q 21.484375 6.890625 26.8125 6.890625 Q 36.078125 6.890625 40.9375 10.546875 Q 45.796875 14.203125 45.796875 21.1875 Q 45.796875 27.640625 41.28125 31.265625 Q 36.765625 34.90625 28.71875 34.90625 L 20.21875 34.90625 L 20.21875 43.015625 L 29.109375 43.015625 Q 36.375 43.015625 40.234375 45.921875 Q 44.09375 48.828125 44.09375 54.296875 Q 44.09375 59.90625 40.109375 62.90625 Q 36.140625 65.921875 28.71875 65.921875 Q 24.65625 65.921875 20.015625 65.03125 Q 15.375 64.15625 9.8125 62.3125 L 9.8125 71.09375 Q 15.4375 72.65625 20.34375 73.4375 Q 25.25 74.21875 29.59375 74.21875 Q 40.828125 74.21875 47.359375 69.109375 Q 53.90625 64.015625 53.90625 55.328125 Q 53.90625 49.265625 50.4375 45.09375 Q 46.96875 40.921875 40.578125 39.3125 z"/></defs><use xlink:href="#DejaVuSans-51"/></g></g></g><g id="xtick_4"><g id="line2d_4"><g><use style="stroke:#000;stroke-width:.8" x="245.383" y="103.129" xlink:href="#m849290e6ee"/></g></g><g id="text_4"><g transform="translate(242.201558 117.727764)scale(0.1 -0.1)"><defs><path id="DejaVuSans-52" d="M 37.796875 64.3125 L 12.890625 25.390625 L 37.796875 25.390625 z M 35.203125 72.90625 L 47.609375 72.90625 L 47.609375 25.390625 L 58.015625 25.390625 L 58.015625 17.1875 L 47.609375 17.1875 L 47.609375 0 L 37.796875 0 L 37.796875 17.1875 L 4.890625 17.1875 L 4.890625 26.703125 z"/></defs><use xlink:href="#DejaVuSans-52"/></g></g></g><g id="xtick_5"><g id="line2d_5"><g><use style="stroke:#000;stroke-width:.8" x="293.348" y="103.129" xlink:href="#m849290e6ee"/></g></g><g id="text_5"><g transform="translate(290.167174 117.727764)scale(0.1 -0.1)"><defs><path id="DejaVuSans-53" d="M 10.796875 72.90625 L 49.515625 72.90625 L 49.515625 64.59375 L 19.828125 64.59375 L 19.828125 46.734375 Q 21.96875 47.46875 24.109375 47.828125 Q 26.265625 48.1875 28.421875 48.1875 Q 40.625 48.1875 47.75 41.5 Q 54.890625 34.8125 54.890625 23.390625 Q 54.890625 11.625 47.5625 5.09375 Q 40.234375 -1.421875 26.90625 -1.421875 Q 22.3125 -1.421875 17.546875 -0.640625 Q 12.796875 0.140625 7.71875 1.703125 L 7.71875 11.625 Q 12.109375 9.234375 16.796875 8.0625 Q 21.484375 6.890625 26.703125 6.890625 Q 35.15625 6.890625 40.078125 11.328125 Q 45.015625 15.765625 45.015625 23.390625 Q 45.015625 31 40.078125 35.4375 Q 35.15625 39.890625 26.703125 39.890625 Q 22.75 39.890625 18.8125 39.015625 Q 14.890625 38.140625 10.796875 36.28125 z"/></defs><use xlink:href="#DejaVuSans-53"/></g></g></g><g id="xtick_6"><g id="line2d_6"><g><use style="stroke:#000;stroke-width:.8" x="341.314" y="103.129" xlink:href="#m849290e6ee"/></g></g><g id="text_6"><g transform="translate(338.13279 117.727764)scale(0.1 -0.1)"><defs><path id="DejaVuSans-54" d="M 33.015625 40.375 Q 26.375 40.375 22.484375 35.828125 Q 18.609375 31.296875 18.609375 23.390625 Q 18.609375 15.53125 22.484375 10.953125 Q 26.375 6.390625 33.015625 6.390625 Q 39.65625 6.390625 43.53125 10.953125 Q 47.40625 15.53125 47.40625 23.390625 Q 47.40625 31.296875 43.53125 35.828125 Q 39.65625 40.375 33.015625 40.375 z M 52.59375 71.296875 L 52.59375 62.3125 Q 48.875 64.0625 45.09375 64.984375 Q 41.3125 65.921875 37.59375 65.921875 Q 27.828125 65.921875 22.671875 59.328125 Q 17.53125 52.734375 16.796875 39.40625 Q 19.671875 43.65625 24.015625 45.921875 Q 28.375 48.1875 33.59375 48.1875 Q 44.578125 48.1875 50.953125 41.515625 Q 57.328125 34.859375 57.328125 23.390625 Q 57.328125 12.15625 50.6875 5.359375 Q 44.046875 -1.421875 33.015625 -1.421875 Q 20.359375 -1.421875 13.671875 8.265625 Q 6.984375 17.96875 6.984375 36.375 Q 6.984375 53.65625 15.1875 63.9375 Q 23.390625 74.21875 37.203125 74.21875 Q 40.921875 74.21875 44.703125 73.484375 Q 48.484375 72.75 52.59375 71.296875 z"/></defs><use xlink:href="#DejaVuSans-54"/></g></g></g><g id="text_7"><g transform="translate(380.4 134.445264)scale(0.14 -0.14)"><defs><path id="DejaVuSans-Oblique-120" d="M 60.015625 54.6875 L 34.90625 27.875 L 50.296875 0 L 39.984375 0 L 28.421875 21.6875 L 8.296875 0 L -2.59375 0 L 24.3125 28.8125 L 10.015625 54.6875 L 20.3125 54.6875 L 30.8125 34.90625 L 49.125 54.6875 z"/></defs><use transform="translate(0 0.3125)" xlink:href="#DejaVuSans-Oblique-120"/></g></g></g><g id="matplotlib.axis_2"><g id="ytick_1"><g id="line2d_7"><defs><path id="mfa591d5a04" d="M 0 0 L -3.5 0" style="stroke:#000;stroke-width:.8"/></defs><g><use style="stroke:#000;stroke-width:.8" x="54" y="223.852" xlink:href="#mfa591d5a04"/></g></g><g id="text_8"><g transform="translate(32.257812 227.651152)scale(0.1 -0.1)"><defs><path id="DejaVuSans-8722" d="M 10.59375 35.5 L 73.1875 35.5 L 73.1875 27.203125 L 10.59375 27.203125 z"/></defs><use xlink:href="#DejaVuSans-8722"/><use x="83.789" xlink:href="#DejaVuSans-52"/></g></g></g><g id="ytick_2"><g id="line2d_8"><g><use style="stroke:#000;stroke-width:.8" x="54" y="193.671" xlink:href="#mfa591d5a04"/></g></g><g id="text_9"><g transform="translate(32.257812 197.4705)scale(0.1 -0.1)"><use xlink:href="#DejaVuSans-8722"/><use x="83.789" xlink:href="#DejaVuSans-51"/></g></g></g><g id="ytick_3"><g id="line2d_9"><g><use style="stroke:#000;stroke-width:.8" x="54" y="163.491" xlink:href="#mfa591d5a04"/></g></g><g id="text_10"><g transform="translate(32.257812 167.289849)scale(0.1 -0.1)"><use xlink:href="#DejaVuSans-8722"/><use x="83.789" xlink:href="#DejaVuSans-50"/></g></g></g><g id="ytick_4"><g id="line2d_10"><g><use style="stroke:#000;stroke-width:.8" x="54" y="133.31" xlink:href="#mfa591d5a04"/></g></g><g id="text_11"><g transform="translate(32.257812 137.109197)scale(0.1 -0.1)"><use xlink:href="#DejaVuSans-8722"/><use x="83.789" xlink:href="#DejaVuSans-49"/></g></g></g><g id="ytick_5"><g id="line2d_11"><g><use style="stroke:#000;stroke-width:.8" x="54" y="103.129" xlink:href="#mfa591d5a04"/></g></g><g id="text_12"><g transform="translate(40.6375 106.928545)scale(0.1 -0.1)"><defs><path id="DejaVuSans-48" d="M 31.78125 66.40625 Q 24.171875 66.40625 20.328125 58.90625 Q 16.5 51.421875 16.5 36.375 Q 16.5 21.390625 20.328125 13.890625 Q 24.171875 6.390625 31.78125 6.390625 Q 39.453125 6.390625 43.28125 13.890625 Q 47.125 21.390625 47.125 36.375 Q 47.125 51.421875 43.28125 58.90625 Q 39.453125 66.40625 31.78125 66.40625 z M 31.78125 74.21875 Q 44.046875 74.21875 50.515625 64.515625 Q 56.984375 54.828125 56.984375 36.375 Q 56.984375 17.96875 50.515625 8.265625 Q 44.046875 -1.421875 31.78125 -1.421875 Q 19.53125 -1.421875 13.0625 8.265625 Q 6.59375 17.96875 6.59375 36.375 Q 6.59375 54.828125 13.0625 64.515625 Q 19.53125 74.21875 31.78125 74.21875 z"/></defs><use xlink:href="#DejaVuSans-48"/></g></g></g><g id="ytick_6"><g id="line2d_12"><g><use style="stroke:#000;stroke-width:.8" x="54" y="72.949" xlink:href="#mfa591d5a04"/></g></g><g id="text_13"><g transform="translate(40.6375 76.747894)scale(0.1 -0.1)"><use xlink:href="#DejaVuSans-49"/></g></g></g><g id="ytick_7"><g id="line2d_13"><g><use style="stroke:#000;stroke-width:.8" x="54" y="42.768" xlink:href="#mfa591d5a04"/></g></g><g id="text_14"><g transform="translate(40.6375 46.567242)scale(0.1 -0.1)"><use xlink:href="#DejaVuSans-50"/></g></g></g><g id="text_15"><g transform="translate(25.317812 75.16)rotate(-90)scale(0.14 -0.14)"><defs><path id="DejaVuSans-Oblique-108" d="M 18.3125 75.984375 L 27.296875 75.984375 L 12.5 0 L 3.515625 0 z"/><path id="DejaVuSans-Oblique-111" d="M 25.390625 -1.421875 Q 15.765625 -1.421875 10.171875 4.515625 Q 4.59375 10.453125 4.59375 20.703125 Q 4.59375 26.65625 6.515625 32.828125 Q 8.453125 39.015625 11.53125 43.21875 Q 16.359375 49.75 22.3125 52.875 Q 28.265625 56 35.796875 56 Q 45.125 56 50.859375 50.1875 Q 56.59375 44.390625 56.59375 35.015625 Q 56.59375 28.515625 54.6875 22.0625 Q 52.78125 15.625 49.703125 11.375 Q 44.921875 4.828125 38.96875 1.703125 Q 33.015625 -1.421875 25.390625 -1.421875 z M 13.921875 21 Q 13.921875 13.578125 17.015625 9.890625 Q 20.125 6.203125 26.421875 6.203125 Q 35.453125 6.203125 41.375 14.078125 Q 47.3125 21.96875 47.3125 34.078125 Q 47.3125 41.15625 44.140625 44.765625 Q 40.96875 48.390625 34.8125 48.390625 Q 29.734375 48.390625 25.78125 46.015625 Q 21.828125 43.65625 18.703125 38.8125 Q 16.40625 35.203125 15.15625 30.5625 Q 13.921875 25.921875 13.921875 21 z"/><path id="DejaVuSans-Oblique-103" d="M 59.625 54.6875 L 50.296875 6.78125 Q 47.609375 -7.125 40.015625 -13.953125 Q 32.421875 -20.796875 19.578125 -20.796875 Q 14.84375 -20.796875 10.78125 -20.09375 Q 6.734375 -19.390625 3.21875 -17.921875 L 4.890625 -9.1875 Q 8.203125 -11.328125 11.90625 -12.34375 Q 15.625 -13.375 19.828125 -13.375 Q 28.375 -13.375 33.859375 -8.703125 Q 39.359375 -4.046875 41.109375 4.6875 L 41.890625 8.796875 Q 38.140625 4.5 33.15625 2.25 Q 28.171875 0 22.40625 0 Q 14.109375 0 9.34375 5.484375 Q 4.59375 10.984375 4.59375 20.609375 Q 4.59375 28.171875 7.46875 35.421875 Q 10.359375 42.671875 15.578125 48.296875 Q 19.046875 52 23.65625 54 Q 28.265625 56 33.296875 56 Q 38.8125 56 42.90625 53.4375 Q 47.015625 50.875 49.03125 46.1875 L 50.59375 54.6875 z M 46.09375 34.625 Q 46.09375 41.265625 42.96875 44.875 Q 39.84375 48.484375 34.078125 48.484375 Q 30.515625 48.484375 27.296875 47.0625 Q 24.078125 45.65625 21.78125 43.109375 Q 18.0625 38.921875 15.984375 33.234375 Q 13.921875 27.546875 13.921875 21.484375 Q 13.921875 14.75 17.0625 11.125 Q 20.21875 7.515625 26.125 7.515625 Q 34.671875 7.515625 40.375 15.25 Q 46.09375 23 46.09375 34.625 z"/><path id="DejaVuSans-40" d="M 31 75.875 Q 24.46875 64.65625 21.28125 53.65625 Q 18.109375 42.671875 18.109375 31.390625 Q 18.109375 20.125 21.3125 9.0625 Q 24.515625 -2 31 -13.1875 L 23.1875 -13.1875 Q 15.875 -1.703125 12.234375 9.375 Q 8.59375 20.453125 8.59375 31.390625 Q 8.59375 42.28125 12.203125 53.3125 Q 15.828125 64.359375 23.1875 75.875 z"/><path id="DejaVuSans-41" d="M 8.015625 75.875 L 15.828125 75.875 Q 23.140625 64.359375 26.78125 53.3125 Q 30.421875 42.28125 30.421875 31.390625 Q 30.421875 20.453125 26.78125 9.375 Q 23.140625 -1.703125 15.828125 -13.1875 L 8.015625 -13.1875 Q 14.5 -2 17.703125 9.0625 Q 20.90625 20.125 20.90625 31.390625 Q 20.90625 42.671875 17.703125 53.65625 Q 14.5 64.65625 8.015625 75.875 z"/></defs><use transform="translate(0 0.015625)" xlink:href="#DejaVuSans-Oblique-108"/><use transform="translate(27.783203 0.015625)" xlink:href="#DejaVuSans-Oblique-111"/><use transform="translate(88.964844 0.015625)" xlink:href="#DejaVuSans-Oblique-103"/><use transform="translate(152.441406 0.015625)" xlink:href="#DejaVuSans-40"/><use transform="translate(191.455078 0.015625)" xlink:href="#DejaVuSans-Oblique-120"/><use transform="translate(250.634766 0.015625)" xlink:href="#DejaVuSans-41"/></g></g></g><g id="line2d_14"><path d="M 54 242.116364 L 54.479656 221.19673 L 54.959312 208.959529 L 55.918625 193.542479 L 56.877937 183.387527 L 57.837249 175.802694 L 58.796562 169.746322 L 60.23553 162.467894 L 61.674499 156.608139 L 63.113467 151.703212 L 64.552436 147.485105 L 66.47106 142.645859 L 68.389685 138.476392 L 70.308309 134.813642 L 72.70659 130.783578 L 75.104871 127.228809 L 77.503152 124.04896 L 80.381089 120.628627 L 83.259026 117.556759 L 86.616619 114.32827 L 89.974212 111.412009 L 93.811461 108.391425 L 97.648711 105.645838 L 101.965616 102.829019 L 106.762178 99.979673 L 112.038395 97.127878 L 117.314613 94.52244 L 123.070487 91.915296 L 129.306017 89.323947 L 136.50086 86.586665 L 144.175358 83.917023 L 152.329513 81.317589 L 161.44298 78.654924 L 171.036103 76.084806 L 181.588539 73.489558 L 193.100287 70.891771 L 205.571347 68.308955 L 219.001719 65.754385 L 233.87106 63.157499 L 249.699713 60.618522 L 266.967335 58.072508 L 286.153582 55.47472 L 306.778797 52.910953 L 329.322636 50.337335 L 353.7851 47.772573 L 380.166189 45.231002 L 388.8 44.443636 L 388.8 44.443636" clip-path="url(#pb3f45a81d7)" style="fill:none;stroke:#1f77b4;stroke-linecap:square;stroke-width:1.5"/></g><g id="patch_3"><path d="M 54 252 L 54 34.56" style="fill:none;stroke:#000;stroke-linecap:square;stroke-linejoin:miter;stroke-width:.8"/></g><g id="patch_4"><path d="M 54 103.129327 L 388.8 103.129327" style="fill:none;stroke:#000;stroke-linecap:square;stroke-linejoin:miter;stroke-width:.8"/></g></g></g><defs><clipPath id="pb3f45a81d7"><rect width="334.8" height="217.44" x="54" y="34.56"/></clipPath></defs></svg>