<svg width="476" height="347" xmlns="http://www.w3.org/2000/svg" xmlns:xlink="http://www.w3.org/1999/xlink" overflow="hidden"><defs><clipPath id="clip0"><rect x="194" y="109" width="476" height="347"/></clipPath></defs><g clip-path="url(#clip0)" transform="translate(-194 -109)"><path d="M202.5 447.333 654.793 447.333 654.793 447.667 202.5 447.667ZM653.46 443.5 661.46 447.5 653.46 451.5Z" fill="#000005"/><path d="M566.889 336.45C565.679 328.068 571.91 320.349 580.807 319.209 584.412 318.747 588.077 319.437 591.216 321.17 594.542 315.263 602.315 313.018 608.577 316.156 609.672 316.704 610.677 317.4 611.561 318.22 614.151 313.323 620.462 311.334 625.655 313.777 627.092 314.453 628.346 315.431 629.32 316.635 633.496 312.004 640.874 311.432 645.8 315.357 647.871 317.007 649.266 319.282 649.747 321.793 656.589 323.552 660.625 330.214 658.762 336.674 658.605 337.217 658.409 337.749 658.174 338.266 663.661 344.997 662.318 354.644 655.174 359.813 652.95 361.423 650.323 362.465 647.548 362.838 647.486 370.08 641.201 375.903 633.509 375.845 630.94 375.825 628.426 375.137 626.246 373.856 623.645 381.974 614.57 386.562 605.978 384.104 602.377 383.074 599.266 380.896 597.175 377.94 588.378 382.94 576.96 380.251 571.671 371.933 571.605 371.828 571.539 371.723 571.475 371.617 565.717 372.252 560.502 368.381 559.827 362.97 559.466 360.087 560.477 357.2 562.588 355.08 557.603 352.315 555.929 346.245 558.848 341.523 560.532 338.799 563.486 336.998 566.801 336.674Z" stroke="#000005" stroke-width="0.333333" stroke-linejoin="round" stroke-miterlimit="10" fill="#7030A0" fill-rule="evenodd"/><path d="M568.798 356.128C566.67 356.285 564.542 355.822 562.7 354.8M574.179 370.665C573.323 370.986 572.426 371.2 571.51 371.301M597.169 377.65C596.526 376.74 595.987 375.768 595.562 374.75M626.898 370.418C626.804 371.497 626.589 372.564 626.256 373.6M639.662 350.757C644.488 352.97 647.533 357.596 647.49 362.649M658.125 338.09C657.343 339.811 656.15 341.337 654.639 342.55M649.762 321.543C649.895 322.238 649.956 322.944 649.946 323.649M627.503 319.087C627.957 318.115 628.558 317.21 629.288 316.401M610.802 320.367C610.988 319.564 611.278 318.786 611.667 318.05M591.204 321.153C592.34 321.78 593.39 322.535 594.333 323.401M567.435 338.815C567.188 338.042 567.005 337.251 566.889 336.451" stroke="#000005" stroke-width="0.333333" stroke-linejoin="round" stroke-miterlimit="10" fill="none" fill-rule="evenodd"/><path d="M0.166667-5.31811e-08 0.16677 322.357-0.166564 322.357-0.166667 5.31811e-08ZM4.0001 321.023 0.000104987 329.023-3.9999 321.023Z" fill="#000005" transform="matrix(1 0 0 -1 202.5 447.523)"/><path d="M232.979 172.45C231.757 164.068 238.048 156.349 247.031 155.209 250.67 154.747 254.371 155.437 257.54 157.17 260.899 151.263 268.746 149.018 275.068 152.156 276.174 152.704 277.189 153.4 278.081 154.22 280.696 149.323 287.067 147.334 292.31 149.777 293.761 150.453 295.027 151.43 296.011 152.635 300.226 148.004 307.676 147.432 312.649 151.357 314.74 153.007 316.148 155.282 316.634 157.793 323.542 159.552 327.616 166.214 325.736 172.674 325.578 173.217 325.379 173.749 325.142 174.266 330.682 180.997 329.326 190.644 322.113 195.813 319.868 197.423 317.216 198.464 314.413 198.838 314.351 206.08 308.006 211.903 300.24 211.845 297.646 211.825 295.108 211.137 292.907 209.856 290.281 217.974 281.119 222.562 272.444 220.104 268.809 219.074 265.668 216.896 263.557 213.94 254.675 218.94 243.147 216.251 237.808 207.933 237.74 207.828 237.674 207.723 237.609 207.617 231.796 208.252 226.531 204.381 225.849 198.97 225.485 196.087 226.505 193.2 228.637 191.08 223.604 188.315 221.913 182.245 224.861 177.523 226.561 174.799 229.544 172.998 232.891 172.674Z" stroke="#000005" stroke-width="0.333333" stroke-linejoin="round" stroke-miterlimit="10" fill="#F05C75" fill-rule="evenodd"/><path d="M234.907 192.128C232.758 192.285 230.61 191.822 228.75 190.8M240.339 206.665C239.475 206.986 238.569 207.2 237.645 207.301M263.551 213.65C262.901 212.74 262.357 211.768 261.928 210.75M293.566 206.418C293.47 207.497 293.253 208.564 292.918 209.6M306.452 186.757C311.324 188.97 314.399 193.596 314.355 198.649M325.092 174.09C324.303 175.811 323.099 177.337 321.573 178.55M316.649 157.543C316.783 158.238 316.845 158.944 316.834 159.649M294.176 155.087C294.634 154.115 295.241 153.21 295.978 152.401M277.315 156.367C277.502 155.564 277.795 154.786 278.188 154.05M257.528 157.153C258.675 157.78 259.735 158.535 260.687 159.401M233.531 174.815C233.281 174.042 233.096 173.251 232.98 172.451" stroke="#000005" stroke-width="0.333333" stroke-linejoin="round" stroke-miterlimit="10" fill="none" fill-rule="evenodd"/><path d="M337.889 376.45C336.679 368.068 342.91 360.349 351.807 359.209 355.412 358.747 359.077 359.437 362.216 361.17 365.542 355.263 373.315 353.018 379.577 356.156 380.672 356.704 381.677 357.4 382.561 358.22 385.151 353.323 391.462 351.334 396.655 353.777 398.092 354.453 399.346 355.431 400.32 356.635 404.496 352.004 411.874 351.432 416.8 355.357 418.871 357.007 420.266 359.282 420.747 361.793 427.589 363.552 431.625 370.214 429.762 376.674 429.605 377.217 429.409 377.749 429.174 378.266 434.661 384.997 433.318 394.644 426.174 399.813 423.95 401.423 421.323 402.465 418.548 402.838 418.486 410.08 412.201 415.903 404.509 415.845 401.94 415.825 399.426 415.137 397.246 413.856 394.645 421.974 385.57 426.562 376.978 424.104 373.377 423.074 370.266 420.896 368.175 417.94 359.378 422.94 347.96 420.251 342.671 411.933 342.605 411.828 342.539 411.723 342.475 411.617 336.717 412.252 331.502 408.381 330.827 402.97 330.466 400.087 331.477 397.2 333.588 395.08 328.603 392.315 326.929 386.245 329.848 381.523 331.532 378.799 334.486 376.998 337.801 376.674Z" stroke="#000005" stroke-width="0.333333" stroke-linejoin="round" stroke-miterlimit="10" fill="#606060" fill-rule="evenodd"/><path d="M339.798 396.128C337.67 396.285 335.542 395.822 333.7 394.8M345.179 410.665C344.323 410.986 343.426 411.2 342.51 411.301M368.169 417.65C367.526 416.74 366.987 415.768 366.562 414.75M397.898 410.418C397.804 411.497 397.589 412.564 397.256 413.6M410.662 390.757C415.488 392.97 418.533 397.596 418.49 402.649M429.125 378.09C428.343 379.811 427.15 381.337 425.639 382.55M420.762 361.543C420.895 362.238 420.956 362.944 420.946 363.649M398.503 359.087C398.957 358.115 399.558 357.21 400.288 356.401M381.802 360.367C381.988 359.564 382.278 358.786 382.667 358.05M362.204 361.153C363.34 361.78 364.39 362.535 365.333 363.401M338.435 378.815C338.188 378.042 338.005 377.251 337.889 376.451" stroke="#000005" stroke-width="0.333333" stroke-linejoin="round" stroke-miterlimit="10" fill="none" fill-rule="evenodd"/><path d="M515.889 142.45C514.679 134.068 520.91 126.349 529.807 125.209 533.412 124.747 537.077 125.437 540.216 127.17 543.542 121.263 551.315 119.018 557.577 122.156 558.672 122.704 559.677 123.4 560.561 124.22 563.151 119.323 569.462 117.334 574.655 119.777 576.092 120.453 577.346 121.43 578.32 122.635 582.496 118.004 589.874 117.432 594.8 121.357 596.871 123.007 598.266 125.282 598.747 127.793 605.589 129.552 609.625 136.214 607.762 142.674 607.605 143.217 607.409 143.749 607.174 144.266 612.661 150.997 611.318 160.644 604.174 165.813 601.95 167.423 599.323 168.465 596.548 168.838 596.486 176.08 590.201 181.903 582.509 181.845 579.94 181.825 577.426 181.137 575.246 179.856 572.645 187.974 563.57 192.562 554.978 190.104 551.377 189.074 548.266 186.896 546.175 183.94 537.378 188.94 525.96 186.251 520.671 177.933 520.605 177.828 520.539 177.723 520.475 177.617 514.717 178.252 509.502 174.381 508.827 168.97 508.466 166.087 509.477 163.2 511.588 161.08 506.603 158.315 504.929 152.245 507.848 147.523 509.532 144.799 512.486 142.998 515.801 142.674Z" stroke="#000005" stroke-width="0.333333" stroke-linejoin="round" stroke-miterlimit="10" fill="#0303FF" fill-rule="evenodd"/><path d="M517.798 162.128C515.67 162.285 513.542 161.822 511.7 160.8M523.179 176.665C522.323 176.986 521.426 177.2 520.51 177.301M546.169 183.65C545.526 182.74 544.987 181.768 544.562 180.75M575.898 176.418C575.804 177.497 575.589 178.564 575.256 179.6M588.662 156.757C593.488 158.97 596.533 163.596 596.49 168.649M607.125 144.09C606.343 145.811 605.15 147.337 603.639 148.55M598.762 127.543C598.895 128.238 598.956 128.944 598.946 129.649M576.503 125.087C576.957 124.115 577.558 123.21 578.288 122.401M559.802 126.367C559.988 125.564 560.278 124.786 560.667 124.05M540.204 127.153C541.34 127.78 542.39 128.535 543.333 129.401M516.435 144.815C516.188 144.042 516.005 143.251 515.889 142.451" stroke="#000005" stroke-width="0.333333" stroke-linejoin="round" stroke-miterlimit="10" fill="none" fill-rule="evenodd"/><path d="M319 135 618.357 274.974" stroke="#0303FF" stroke-width="2" stroke-linejoin="round" stroke-miterlimit="10" fill="#902D06" fill-rule="evenodd"/><path d="M0 0 180.475 183.635" stroke="#7030A0" stroke-width="2" stroke-linejoin="round" stroke-miterlimit="10" fill="#902D06" fill-rule="evenodd" transform="matrix(-1 -8.74228e-08 -8.74228e-08 1 635.475 207)"/><path d="M558.01 411.072 223 219" stroke="#606060" stroke-width="2" stroke-linejoin="round" stroke-miterlimit="10" fill="#902D06" fill-rule="evenodd"/><path d="M0 0 156.516 277.898" stroke="#F05C75" stroke-width="2" stroke-linejoin="round" stroke-miterlimit="10" fill="#902D06" fill-rule="evenodd" transform="matrix(-1 -8.74228e-08 -8.74228e-08 1 455.516 131)"/></g></svg>