<svg width="482" height="290" xmlns="http://www.w3.org/2000/svg" xmlns:xlink="http://www.w3.org/1999/xlink" overflow="hidden"><defs><clipPath id="clip0"><rect x="399" y="215" width="482" height="290"/></clipPath><clipPath id="clip1"><rect x="400" y="216" width="480" height="288"/></clipPath><clipPath id="clip2"><rect x="400" y="216" width="480" height="288"/></clipPath><clipPath id="clip3"><rect x="400" y="216" width="480" height="288"/></clipPath><clipPath id="clip4"><rect x="400" y="216" width="480" height="288"/></clipPath><clipPath id="clip5"><rect x="469" y="230" width="386" height="215"/></clipPath><clipPath id="clip6"><rect x="400" y="216" width="480" height="288"/></clipPath><clipPath id="clip7"><rect x="400" y="216" width="480" height="288"/></clipPath><clipPath id="clip8"><rect x="400" y="216" width="480" height="288"/></clipPath><clipPath id="clip9"><rect x="400" y="216" width="480" height="288"/></clipPath><clipPath id="clip10"><rect x="400" y="216" width="480" height="288"/></clipPath><clipPath id="clip11"><rect x="400" y="216" width="480" height="288"/></clipPath><clipPath id="clip12"><rect x="400" y="216" width="480" height="288"/></clipPath><clipPath id="clip13"><rect x="400" y="216" width="480" height="288"/></clipPath><clipPath id="clip14"><rect x="400" y="216" width="480" height="288"/></clipPath><clipPath id="clip15"><rect x="400" y="216" width="480" height="288"/></clipPath><clipPath id="clip16"><rect x="400" y="216" width="480" height="288"/></clipPath><clipPath id="clip17"><rect x="400" y="216" width="480" height="288"/></clipPath><clipPath id="clip18"><rect x="400" y="216" width="480" height="288"/></clipPath><clipPath id="clip19"><rect x="400" y="216" width="480" height="288"/></clipPath><clipPath id="clip20"><rect x="400" y="216" width="480" height="288"/></clipPath><clipPath id="clip21"><rect x="400" y="216" width="480" height="288"/></clipPath><clipPath id="clip22"><rect x="400" y="216" width="480" height="288"/></clipPath></defs><g clip-path="url(#clip0)" transform="translate(-399 -215)"><g clip-path="url(#clip1)"><path d="M469.5 409.5 854.5 409.5M469.5 373.5 854.5 373.5M469.5 337.5 854.5 337.5M469.5 302.5 854.5 302.5M469.5 266.5 854.5 266.5M469.5 230.5 854.5 230.5" stroke="#D9D9D9" stroke-linejoin="round" stroke-miterlimit="10" fill="none"/></g><g clip-path="url(#clip2)"><path d="M533.5 230.5 533.5 444.5M597.5 230.5 597.5 444.5M662.5 230.5 662.5 444.5M726.5 230.5 726.5 444.5M790.5 230.5 790.5 444.5M854.5 230.5 854.5 444.5" stroke="#D9D9D9" stroke-linejoin="round" stroke-miterlimit="10" fill="none"/></g><g clip-path="url(#clip3)"><path d="M0 0 0.000104987 214" stroke="#BFBFBF" stroke-linejoin="round" stroke-miterlimit="10" fill="none" fill-rule="evenodd" transform="matrix(1 0 0 -1 469.5 444.5)"/></g><g clip-path="url(#clip4)"><path d="M469.5 444.5 854.5 444.5" stroke="#BFBFBF" stroke-linejoin="round" stroke-miterlimit="10" fill="none" fill-rule="evenodd"/></g><g clip-path="url(#clip5)"><path d="M469 266 550 266 630 266 630 326 710 311 710 338 710 356 790 343 790 356" stroke="#4472C4" stroke-width="2" stroke-linecap="round" stroke-linejoin="round" stroke-miterlimit="10" fill="none"/></g><g clip-path="url(#clip6)"><path d="M472.667 266.333C472.667 268.174 471.174 269.667 469.333 269.667 467.492 269.667 466 268.174 466 266.333 466 264.492 467.492 263 469.333 263 471.174 263 472.667 264.492 472.667 266.333Z" stroke="#4472C4" stroke-linejoin="round" stroke-miterlimit="10" fill="#4472C4"/><path d="M553 266.333C553 268.174 551.508 269.667 549.667 269.667 547.826 269.667 546.333 268.174 546.333 266.333 546.333 264.492 547.826 263 549.667 263 551.508 263 553 264.492 553 266.333Z" stroke="#4472C4" stroke-linejoin="round" stroke-miterlimit="10" fill="#4472C4"/><path d="M633.167 266.333C633.167 268.174 631.674 269.667 629.833 269.667 627.992 269.667 626.5 268.174 626.5 266.333 626.5 264.492 627.992 263 629.833 263 631.674 263 633.167 264.492 633.167 266.333Z" stroke="#4472C4" stroke-linejoin="round" stroke-miterlimit="10" fill="#4472C4"/><path d="M633.167 325.833C633.167 327.674 631.674 329.167 629.833 329.167 627.992 329.167 626.5 327.674 626.5 325.833 626.5 323.992 627.992 322.5 629.833 322.5 631.674 322.5 633.167 323.992 633.167 325.833Z" stroke="#4472C4" stroke-linejoin="round" stroke-miterlimit="10" fill="#4472C4"/><path d="M713.5 311C713.5 312.841 712.008 314.333 710.167 314.333 708.326 314.333 706.833 312.841 706.833 311 706.833 309.159 708.326 307.667 710.167 307.667 712.008 307.667 713.5 309.159 713.5 311Z" stroke="#4472C4" stroke-linejoin="round" stroke-miterlimit="10" fill="#4472C4"/><path d="M713.5 337.667C713.5 339.508 712.008 341 710.167 341 708.326 341 706.833 339.508 706.833 337.667 706.833 335.826 708.326 334.333 710.167 334.333 712.008 334.333 713.5 335.826 713.5 337.667Z" stroke="#4472C4" stroke-linejoin="round" stroke-miterlimit="10" fill="#4472C4"/><path d="M713.5 355.5C713.5 357.341 712.008 358.833 710.167 358.833 708.326 358.833 706.833 357.341 706.833 355.5 706.833 353.659 708.326 352.167 710.167 352.167 712.008 352.167 713.5 353.659 713.5 355.5Z" stroke="#4472C4" stroke-linejoin="round" stroke-miterlimit="10" fill="#4472C4"/><path d="M793.833 342.833C793.833 344.674 792.341 346.167 790.5 346.167 788.659 346.167 787.167 344.674 787.167 342.833 787.167 340.992 788.659 339.5 790.5 339.5 792.341 339.5 793.833 340.992 793.833 342.833Z" stroke="#4472C4" stroke-linejoin="round" stroke-miterlimit="10" fill="#4472C4"/><path d="M793.833 355.5C793.833 357.341 792.341 358.833 790.5 358.833 788.659 358.833 787.167 357.341 787.167 355.5 787.167 353.659 788.659 352.167 790.5 352.167 792.341 352.167 793.833 353.659 793.833 355.5Z" stroke="#4472C4" stroke-linejoin="round" stroke-miterlimit="10" fill="#4472C4"/></g><g clip-path="url(#clip7)"><text fill="#595959" font-family="Calibri,Calibri_MSFontService,sans-serif" font-weight="400" transform="translate(436.94 448)">0.00</text></g><g clip-path="url(#clip8)"><text fill="#595959" font-family="Calibri,Calibri_MSFontService,sans-serif" font-weight="400" transform="translate(436.94 412)">0.20</text></g><g clip-path="url(#clip9)"><text fill="#595959" font-family="Calibri,Calibri_MSFontService,sans-serif" font-weight="400" transform="translate(436.94 376)">0.40</text></g><g clip-path="url(#clip10)"><text fill="#595959" font-family="Calibri,Calibri_MSFontService,sans-serif" font-weight="400" transform="translate(436.94 341)">0.60</text></g><g clip-path="url(#clip11)"><text fill="#595959" font-family="Calibri,Calibri_MSFontService,sans-serif" font-weight="400" transform="translate(436.94 305)">0.80</text></g><g clip-path="url(#clip12)"><text fill="#595959" font-family="Calibri,Calibri_MSFontService,sans-serif" font-weight="400" transform="translate(436.94 269)">1.00</text></g><g clip-path="url(#clip13)"><text fill="#595959" font-family="Calibri,Calibri_MSFontService,sans-serif" font-weight="400" transform="translate(436.94 234)">1.20</text></g><g clip-path="url(#clip14)"><text fill="#595959" font-family="Calibri,Calibri_MSFontService,sans-serif" font-weight="400" transform="translate(458.706 463)">0.00</text></g><g clip-path="url(#clip15)"><text fill="#595959" font-family="Calibri,Calibri_MSFontService,sans-serif" font-weight="400" transform="translate(522.932 463)">0.20</text></g><g clip-path="url(#clip16)"><text fill="#595959" font-family="Calibri,Calibri_MSFontService,sans-serif" font-weight="400" transform="translate(587.159 463)">0.40</text></g><g clip-path="url(#clip17)"><text fill="#595959" font-family="Calibri,Calibri_MSFontService,sans-serif" font-weight="400" transform="translate(651.386 463)">0.60</text></g><g clip-path="url(#clip18)"><text fill="#595959" font-family="Calibri,Calibri_MSFontService,sans-serif" font-weight="400" transform="translate(715.613 463)">0.80</text></g><g clip-path="url(#clip19)"><text fill="#595959" font-family="Calibri,Calibri_MSFontService,sans-serif" font-weight="400" transform="translate(779.84 463)">1.00</text></g><g clip-path="url(#clip20)"><text fill="#595959" font-family="Calibri,Calibri_MSFontService,sans-serif" font-weight="400" transform="translate(844.067 463)">1.20</text></g><g clip-path="url(#clip21)"><text fill="#595959" font-family="Calibri,Calibri_MSFontService,sans-serif" font-weight="400" font-size="13" transform="matrix(6.12323e-17 -1 1 6.12323e-17 429.667 362)">Precision</text></g><g clip-path="url(#clip22)"><text fill="#595959" font-family="Calibri,Calibri_MSFontService,sans-serif" font-weight="400" font-size="13" transform="translate(646.01 484)">Recall</text></g></g></svg>