<svg xmlns="http://www.w3.org/2000/svg" xmlns:xlink="http://www.w3.org/1999/xlink" width="876" height="371" overflow="hidden"><defs><clipPath id="clip0"><rect width="876" height="371" x="56" y="239"/></clipPath></defs><g clip-path="url(#clip0)" transform="translate(-56 -239)"><text fill="#930E24" font-family="Arial,Arial_MSFontService,sans-serif" font-size="24" font-weight="400" transform="translate(632.241 482)">Area Under the Curve <tspan x="0" y="29" font-size="24">(AUC) summarises </tspan><tspan x="0" y="58" font-size="24">performance</tspan></text><path fill="#FFF" fill-rule="evenodd" d="M114.963 559.983 600.963 559.983 600.963 244.982 114.963 244.982Z"/><path fill="#FFE4E1" fill-rule="evenodd" d="M114.963 558.983 163.563 467.056 212.163 389.511 260.763 332.947 309.363 295.914 357.963 273.353 406.563 260.208 455.163 252.746 503.763 248.573 552.363 246.259 600.963 244.982 600.963 558.983 114.963 558.983"/><path fill="none" fill-rule="evenodd" stroke="#000" stroke-linejoin="round" stroke-miterlimit="10" stroke-width="1.159" d="M115.466 560.483 115.466 565.483"/><path fill-rule="evenodd" d="M3.50523 9.90038C2.8005 9.90038 2.27017 9.53682 1.91424 8.80971 1.55971 8.08407 1.3824 6.99192 1.3824 5.53306 1.3824 4.08041 1.55971 2.99048 1.91424 2.26336 2.27017 1.53625 2.8005 1.17269 3.50523 1.17269 4.21569 1.17269 4.74823 1.53625 5.10276 2.26336 5.45869 2.99048 5.63671 4.08041 5.63671 5.53306 5.63671 6.99192 5.45869 8.08407 5.10276 8.80971 4.74823 9.53682 4.21569 9.90038 3.50523 9.90038ZM3.50523 11.0365C4.64112 11.0365 5.50868 10.5662 6.1077 9.62547 6.70682 8.68621 7.00634 7.3221 7.00634 5.53306 7.00634 3.74865 6.70682 2.38602 6.1077 1.44528 5.50868 0.506116 4.64112 0.0365347 3.50523 0.0365347 2.37075 0.0365347 1.50399 0.506116 0.904871 1.44528 0.305848 2.38602 0.00623563 3.74865 0.00623563 5.53306 0.00623563 7.3221 0.305848 8.68621 0.904871 9.62547 1.50399 10.5662 2.37075 11.0365 3.50523 11.0365Z" transform="matrix(1 0 0 -1 105 581)"/><path fill-rule="evenodd" d="M0.00498491 2.04155 1.00506 2.04155 1.00506 0.0414357 0.00498491 0.0414357Z" transform="matrix(1 0 0 -1 115 581)"/><path fill-rule="evenodd" d="M3.50654 9.90038C2.80181 9.90038 2.27148 9.53682 1.91545 8.80971 1.56092 8.08407 1.38371 6.99192 1.38371 5.53306 1.38371 4.08041 1.56092 2.99048 1.91545 2.26336 2.27148 1.53625 2.80181 1.17269 3.50654 1.17269 4.217 1.17269 4.74954 1.53625 5.10407 2.26336 5.46 2.99048 5.63802 4.08041 5.63802 5.53306 5.63802 6.99192 5.46 8.08407 5.10407 8.80971 4.74954 9.53682 4.217 9.90038 3.50654 9.90038ZM3.50654 11.0365C4.64243 11.0365 5.50988 10.5662 6.10901 9.62547 6.70803 8.68621 7.00764 7.3221 7.00764 5.53306 7.00764 3.74865 6.70803 2.38602 6.10901 1.44528 5.50988 0.506116 4.64243 0.0365347 3.50654 0.0365347 2.37205 0.0365347 1.5052 0.506116 0.906178 1.44528 0.307055 2.38602 0.0075431 3.74865 0.0075431 5.53306 0.0075431 7.3221 0.307055 8.68621 0.906178 9.62547 1.5052 10.5662 2.37205 11.0365 3.50654 11.0365Z" transform="matrix(1 0 0 -1 119 581)"/><path fill="none" fill-rule="evenodd" stroke="#000" stroke-linejoin="round" stroke-miterlimit="10" stroke-width="1.159" d="M212.466 560.483 212.466 565.483"/><path fill-rule="evenodd" d="M3.51418 9.90038C2.80945 9.90038 2.27912 9.53682 1.92319 8.80971 1.56866 8.08407 1.39135 6.99192 1.39135 5.53306 1.39135 4.08041 1.56866 2.99048 1.92319 2.26336 2.27912 1.53625 2.80945 1.17269 3.51418 1.17269 4.22464 1.17269 4.75718 1.53625 5.11171 2.26336 5.46764 2.99048 5.64566 4.08041 5.64566 5.53306 5.64566 6.99192 5.46764 8.08407 5.11171 8.80971 4.75718 9.53682 4.22464 9.90038 3.51418 9.90038ZM3.51418 11.0365C4.65007 11.0365 5.51763 10.5662 6.11665 9.62547 6.71578 8.68621 7.01529 7.3221 7.01529 5.53306 7.01529 3.74865 6.71578 2.38602 6.11665 1.44528 5.51763 0.506116 4.65007 0.0365347 3.51418 0.0365347 2.3797 0.0365347 1.51295 0.506116 0.913822 1.44528 0.314799 2.38602 0.0152874 3.74865 0.0152874 5.53306 0.0152874 7.3221 0.314799 8.68621 0.913822 9.62547 1.51295 10.5662 2.3797 11.0365 3.51418 11.0365Z" transform="matrix(1 0 0 -1 202 581)"/><path fill-rule="evenodd" d="M0.0112336 2.04155 1.0113 2.04155 1.0113 0.0414357 0.0112336 0.0414357Z" transform="matrix(1 0 0 -1 212 581)"/><path fill-rule="evenodd" d="M1.55294 1.26684 6.01549 1.26684 6.01549 0.0372347 0.0153933 0.0372347 0.0153933 1.26684C0.500282 1.84124 1.16125 2.61158 1.99859 3.57807 2.83724 4.54606 3.3639 5.17057 3.57856 5.4515 3.9878 5.97643 4.27342 6.4211 4.43542 6.7854 4.59884 7.14981 4.68059 7.50799 4.68059 7.85995 4.68059 8.43424 4.50432 8.90209 4.15187 9.26328 3.79942 9.62607 3.34025 9.80752 2.77436 9.80752 2.37329 9.80752 1.94997 9.72801 1.50432 9.56899 1.05998 9.40996 0.584663 9.16831 0.0781866 8.84414L0.0781866 10.3216C0.592735 10.5578 1.07349 10.7361 1.52046 10.8565 1.96884 10.977 2.37873 11.0372 2.75005 11.0372 3.72921 11.0372 4.50976 10.757 5.0918 10.1966 5.67383 9.63766 5.9648 8.8905 5.9648 7.95491 5.9648 7.51024 5.89187 7.08875 5.7461 6.69044 5.60156 6.29373 5.33687 5.82513 4.95204 5.28475 4.84663 5.14429 4.51108 4.73975 3.94528 4.07135 3.3807 3.40284 2.58335 2.468 1.55294 1.26684Z" transform="matrix(1 0 0 -1 216 581)"/><path fill="none" fill-rule="evenodd" stroke="#000" stroke-linejoin="round" stroke-miterlimit="10" stroke-width="1.159" d="M309.432 560.483 309.432 565.483"/><path fill-rule="evenodd" d="M3.52313 9.90038C2.81851 9.90038 2.28807 9.53682 1.93214 8.80971 1.57761 8.08407 1.4004 6.99192 1.4004 5.53306 1.4004 4.08041 1.57761 2.99048 1.93214 2.26336 2.28807 1.53625 2.81851 1.17269 3.52313 1.17269 4.23369 1.17269 4.76614 1.53625 5.12066 2.26336 5.4767 2.99048 5.65461 4.08041 5.65461 5.53306 5.65461 6.99192 5.4767 8.08407 5.12066 8.80971 4.76614 9.53682 4.23369 9.90038 3.52313 9.90038ZM3.52313 11.0365C4.65912 11.0365 5.52658 10.5662 6.1257 9.62547 6.72473 8.68621 7.02424 7.3221 7.02424 5.53306 7.02424 3.74865 6.72473 2.38602 6.1257 1.44528 5.52658 0.506116 4.65912 0.0365347 3.52313 0.0365347 2.38865 0.0365347 1.5219 0.506116 0.922874 1.44528 0.32375 2.38602 0.0242385 3.74865 0.0242385 5.53306 0.0242385 7.3221 0.32375 8.68621 0.922874 9.62547 1.5219 10.5662 2.38865 11.0365 3.52313 11.0365Z" transform="matrix(1 0 0 -1 299 581)"/><path fill-rule="evenodd" d="M0.0174823 2.04155 1.01755 2.04155 1.01755 0.0414357 0.0174823 0.0414357Z" transform="matrix(1 0 0 -1 309 581)"/><path fill-rule="evenodd" d="M4.36006 9.74127 1.07828 3.86883 4.36006 3.86883ZM4.01834 11.0379 5.65308 11.0379 5.65308 3.86883 7.02423 3.86883 7.02423 2.63107 5.65308 2.63107 5.65308 0.037905 4.36006 0.037905 4.36006 2.63107 0.024231 2.63107 0.024231 4.06687Z" transform="matrix(1 0 0 -1 313 581)"/><path fill="none" fill-rule="evenodd" stroke="#000" stroke-linejoin="round" stroke-miterlimit="10" stroke-width="1.159" d="M407.466 560.483 407.466 565.483"/><path fill-rule="evenodd" d="M3.53218 9.90038C2.82746 9.90038 2.29713 9.53682 1.94109 8.80971 1.58657 8.08407 1.40935 6.99192 1.40935 5.53306 1.40935 4.08041 1.58657 2.99048 1.94109 2.26336 2.29713 1.53625 2.82746 1.17269 3.53218 1.17269 4.24264 1.17269 4.77519 1.53625 5.12971 2.26336 5.48565 2.99048 5.66366 4.08041 5.66366 5.53306 5.66366 6.99192 5.48565 8.08407 5.12971 8.80971 4.77519 9.53682 4.24264 9.90038 3.53218 9.90038ZM3.53218 11.0365C4.66807 11.0365 5.53553 10.5662 6.13465 9.62547 6.73368 8.68621 7.03329 7.3221 7.03329 5.53306 7.03329 3.74865 6.73368 2.38602 6.13465 1.44528 5.53553 0.506116 4.66807 0.0365347 3.53218 0.0365347 2.3977 0.0365347 1.53095 0.506116 0.931825 1.44528 0.332802 2.38602 0.0331897 3.74865 0.0331897 5.53306 0.0331897 7.3221 0.332802 8.68621 0.931825 9.62547 1.53095 10.5662 2.3977 11.0365 3.53218 11.0365Z" transform="matrix(1 0 0 -1 396 581)"/><path fill-rule="evenodd" d="M0.0238012 2.04155 1.02387 2.04155 1.02387 0.0414357 0.0238012 0.0414357Z" transform="matrix(1 0 0 -1 406 581)"/><path fill-rule="evenodd" d="M3.65407 6.11477C3.03848 6.11477 2.55034 5.89441 2.18975 5.45357 1.83056 5.01431 1.65097 4.41133 1.65097 3.64484 1.65097 2.88287 1.83056 2.28 2.18975 1.83611 2.55034 1.39379 3.03848 1.17269 3.65407 1.17269 4.26966 1.17269 4.757 1.39379 5.11619 1.83611 5.47537 2.28 5.65496 2.88287 5.65496 3.64484 5.65496 4.41133 5.47537 5.01431 5.11619 5.45357 4.757 5.89441 4.26966 6.11477 3.65407 6.11477ZM6.37626 10.6116 6.37626 9.30508C6.03157 9.4747 5.68396 9.60421 5.33343 9.69359 4.9829 9.78456 4.63529 9.82994 4.2906 9.82994 3.38539 9.82994 2.69379 9.51029 2.21582 8.87109 1.73925 8.23179 1.46694 7.26609 1.39889 5.9739 1.66546 6.38599 1.99999 6.70185 2.40266 6.92148 2.80674 7.14111 3.25069 7.25093 3.73441 7.25093 4.75267 7.25093 5.55722 6.92749 6.14814 6.28071 6.73917 5.6354 7.03463 4.75678 7.03463 3.64484 7.03463 2.55564 6.72679 1.68165 6.1112 1.02266 5.49571 0.365242 4.67657 0.0365347 3.65407 0.0365347 2.48088 0.0365347 1.58432 0.506116 0.964406 1.44528 0.344488 2.38602 0.0345294 3.74865 0.0345294 5.53306 0.0345294 7.2085 0.414755 8.54459 1.17511 9.54135 1.93556 10.5381 2.95594 11.0365 4.23634 11.0365 4.58103 11.0365 4.92864 11.0009 5.27917 10.9298 5.6297 10.8585 5.99533 10.7525 6.37626 10.6116Z" transform="matrix(1 0 0 -1 410 581)"/><path fill="none" fill-rule="evenodd" stroke="#000" stroke-linejoin="round" stroke-miterlimit="10" stroke-width="1.159" d="M504.466 560.483 504.466 565.483"/><path fill-rule="evenodd" d="M3.54114 9.90038C2.83641 9.90038 2.30608 9.53682 1.95014 8.80971 1.59562 8.08407 1.4183 6.99192 1.4183 5.53306 1.4183 4.08041 1.59562 2.99048 1.95014 2.26336 2.30608 1.53625 2.83641 1.17269 3.54114 1.17269 4.25159 1.17269 4.78414 1.53625 5.13866 2.26336 5.4946 2.99048 5.67261 4.08041 5.67261 5.53306 5.67261 6.99192 5.4946 8.08407 5.13866 8.80971 4.78414 9.53682 4.25159 9.90038 3.54114 9.90038ZM3.54114 11.0365C4.67703 11.0365 5.54458 10.5662 6.14361 9.62547 6.74273 8.68621 7.04224 7.3221 7.04224 5.53306 7.04224 3.74865 6.74273 2.38602 6.14361 1.44528 5.54458 0.506116 4.67703 0.0365347 3.54114 0.0365347 2.40665 0.0365347 1.5399 0.506116 0.940776 1.44528 0.341753 2.38602 0.0422414 3.74865 0.0422414 5.53306 0.0422414 7.3221 0.341753 8.68621 0.940776 9.62547 1.5399 10.5662 2.40665 11.0365 3.54114 11.0365Z" transform="matrix(1 0 0 -1 493 581)"/><path fill-rule="evenodd" d="M0.0300498 2.04155 1.03012 2.04155 1.03012 0.0414357 0.0300498 0.0414357Z" transform="matrix(1 0 0 -1 503 581)"/><path fill-rule="evenodd" d="M3.54389 5.27858C2.88758 5.27858 2.37134 5.09612 1.99509 4.73098 1.62026 4.36595 1.43284 3.86447 1.43284 3.22674 1.43284 2.58754 1.62026 2.08532 1.99509 1.72029 2.37134 1.35515 2.88758 1.17269 3.54389 1.17269 4.2001 1.17269 4.71714 1.35589 5.09482 1.7225 5.47401 2.09059 5.66355 2.59207 5.66355 3.22674 5.66355 3.86447 5.47543 4.36595 5.09917 4.73098 4.72444 5.09612 4.20598 5.27858 3.54389 5.27858ZM2.16355 5.88756C1.5714 6.03907 1.1099 6.32535 0.778859 6.7465 0.449233 7.16912 0.284419 7.68345 0.284419 8.28938 0.284419 9.1362 0.574616 9.80573 1.15511 10.298 1.73692 10.7904 2.53322 11.0365 3.54389 11.0365 4.56034 11.0365 5.35805 10.7904 5.93703 10.298 6.516 9.80573 6.80549 9.1362 6.80549 8.28938 6.80549 7.68345 6.63997 7.16912 6.30892 6.7465 5.97929 6.32535 5.52063 6.03907 4.93294 5.88756 5.59797 5.727 6.11562 5.41187 6.4861 4.94229 6.85799 4.47429 7.04389 3.90237 7.04389 3.22674 7.04389 2.19819 6.74204 1.40896 6.13823 0.859039 5.53452 0.310703 4.66971 0.0365347 3.54389 0.0365347 2.41949 0.0365347 1.55468 0.310703 0.94945 0.859039 0.345743 1.40896 0.043788 2.19819 0.043788 3.22674 0.043788 3.90237 0.230495 4.47429 0.603808 4.94229 0.978642 5.41187 1.49852 5.727 2.16355 5.88756ZM1.65817 8.15303C1.65817 7.60469 1.82298 7.1767 2.15261 6.86916 2.48365 6.56172 2.94738 6.40789 3.54389 6.40789 4.13736 6.40789 4.60119 6.56172 4.93517 6.86916 5.27058 7.1767 5.43823 7.60469 5.43823 8.15303 5.43823 8.70295 5.27058 9.13157 4.93517 9.43911 4.60119 9.74666 4.13736 9.90038 3.54389 9.90038 2.94738 9.90038 2.48365 9.74666 2.15261 9.43911 1.82298 9.13157 1.65817 8.70295 1.65817 8.15303Z" transform="matrix(1 0 0 -1 507 581)"/><path fill="none" fill-rule="evenodd" stroke="#000" stroke-linejoin="round" stroke-miterlimit="10" stroke-width="1.159" d="M601.466 560.483 601.466 565.483"/><path fill-rule="evenodd" d="M0.247494 1.28975 2.47424 1.28975 2.47424 9.68239 0.0509399 9.15194 0.0509399 10.5075 2.46133 11.0379 3.8242 11.0379 3.8242 1.28975 6.05094 1.28975 6.05094 0.037905 0.247494 0.037905Z" transform="matrix(1 0 0 -1 591 581)"/><path fill-rule="evenodd" d="M0.0725971 2.04155 2.07274 2.04155 2.07274 0.0414357 0.0725971 0.0414357Z" transform="matrix(1 0 0 -1 600 581)"/><path fill-rule="evenodd" d="M3.55139 9.90038C2.84667 9.90038 2.31634 9.53682 1.9604 8.80971 1.60588 8.08407 1.42856 6.99192 1.42856 5.53306 1.42856 4.08041 1.60588 2.99048 1.9604 2.26336 2.31634 1.53625 2.84667 1.17269 3.55139 1.17269 4.26185 1.17269 4.7944 1.53625 5.14892 2.26336 5.50486 2.99048 5.68287 4.08041 5.68287 5.53306 5.68287 6.99192 5.50486 8.08407 5.14892 8.80971 4.7944 9.53682 4.26185 9.90038 3.55139 9.90038ZM3.55139 11.0365C4.68728 11.0365 5.55484 10.5662 6.15386 9.62547 6.75299 8.68621 7.0525 7.3221 7.0525 5.53306 7.0525 3.74865 6.75299 2.38602 6.15386 1.44528 5.55484 0.506116 4.68728 0.0365347 3.55139 0.0365347 2.41691 0.0365347 1.55016 0.506116 0.951034 1.44528 0.352011 2.38602 0.0525 3.74865 0.0525 5.53306 0.0525 7.3221 0.352011 8.68621 0.951034 9.62547 1.55016 10.5662 2.41691 11.0365 3.55139 11.0365Z" transform="matrix(1 0 0 -1 604 581)"/><path fill-rule="evenodd" d="M8.02531 15.0373 8.02531 13.5598 6.05042 13.5598C5.31075 13.5598 4.79605 13.4312 4.50644 13.1742 4.2192 12.9171 4.07552 12.4544 4.07552 11.7861L4.07552 10.833 7.47591 10.833 7.47591 9.45423 4.07552 9.45423 4.07552 0.0372624 2.00009 0.0372624 2.00009 9.45423 0.0251942 9.45423 0.0251942 10.833 2.00009 10.833 2.00009 11.5856C2.00009 12.7866 2.32571 13.6615 2.97684 14.2106 3.62785 14.7617 4.65963 15.0373 6.07193 15.0373Z" transform="matrix(1 0 0 -1 267 605)"/><path fill-rule="evenodd" d="M6.14564 6.08073C4.57417 6.08073 3.48522 5.9076 2.87879 5.56155 2.27225 5.21539 1.96904 4.62326 1.96904 3.78515 1.96904 3.1191 2.19681 2.59008 2.65214 2.19821 3.10757 1.8086 3.72531 1.61375 4.50545 1.61375 5.58533 1.61375 6.45109 1.98271 7.10263 2.72063 7.75427 3.45866 8.07998 4.43932 8.07998 5.6627L8.07998 6.08073ZM10.0245 6.85788 10.0245 0.336972 8.07998 0.336972 8.07998 2.0709C7.63585 1.37858 7.08237 0.86707 6.41953 0.53615 5.75669 0.205231 4.94622 0.039879 3.988 0.039879 2.77727 0.039879 1.81346 0.368529 1.09656 1.02594 0.381899 1.68335 0.0245123 2.56284 0.0245123 3.66432 0.0245123 4.94877 0.469763 5.91743 1.36038 6.57052 2.25311 7.2236 3.58327 7.55009 5.35084 7.55009L8.07998 7.55009 8.07998 7.73619C8.07998 8.60045 7.78584 9.26878 7.19732 9.74116 6.60891 10.2136 5.78266 10.4497 4.71844 10.4497 4.04206 10.4497 3.38269 10.3713 2.74011 10.2146 2.09977 10.0579 1.48439 9.82276 0.893635 9.50935L0.893635 11.2464C1.60382 11.5121 2.29374 11.71 2.9633 11.8407 3.63296 11.9735 4.2845 12.0399 4.91801 12.0399 6.63141 12.0399 7.91086 11.6112 8.75637 10.7534 9.60187 9.89787 10.0245 8.59937 10.0245 6.85788Z" transform="matrix(1 0 0 -1 275 606)"/><path fill-rule="evenodd" d="M0.0132965 15.0373 1.0133 15.0373 1.0133 0.0372624 0.0132965 0.0372624Z" transform="matrix(1 0 0 -1 289 605)"/><path fill-rule="evenodd" d="M8.39378 11.4294 8.39378 9.65298C7.8488 9.92511 7.28122 10.1286 6.69137 10.2636 6.10375 10.4007 5.49363 10.4694 4.86102 10.4694 3.90102 10.4694 3.18099 10.3267 2.70105 10.0415 2.22099 9.7564 1.98102 9.32757 1.98102 8.755 1.98102 8.31968 2.15262 7.97785 2.49582 7.72971 2.83902 7.48157 3.52987 7.24533 4.56837 7.02107L5.23116 6.87744C6.60385 6.59224 7.57954 6.18956 8.15826 5.6693 8.73698 5.14903 9.02639 4.423 9.02639 3.4913 9.02639 2.42894 8.59344 1.58759 7.72765 0.967146 6.86186 0.348968 5.67191 0.039879 4.15792 0.039879 3.52764 0.039879 2.87042 0.0997514 2.18625 0.219388 1.50219 0.339133 0.782163 0.51767 0.02628 0.75489L0.02628 2.69459C0.741741 2.33319 1.44607 2.06214 2.13915 1.88144 2.83222 1.70302 3.51973 1.61375 4.20168 1.61375 5.11223 1.61375 5.81211 1.76505 6.30107 2.06765 6.79226 2.37015 7.03791 2.79682 7.03791 3.34767 7.03791 3.85702 6.86074 4.2477 6.5063 4.51983 6.15419 4.79196 5.37804 5.05425 4.17807 5.30682L3.50515 5.46028C2.3074 5.7041 1.44161 6.07965 0.907773 6.58684 0.37616 7.09402 0.110354 7.78958 0.110354 8.6734 0.110354 9.74873 0.502883 10.5782 1.28794 11.1616 2.073 11.7471 3.18778 12.0399 4.63229 12.0399 5.34552 12.0399 6.01733 11.9888 6.64761 11.8864 7.28011 11.7863 7.86217 11.634 8.39378 11.4294Z" transform="matrix(1 0 0 -1 293 606)"/><path fill-rule="evenodd" d="M10.0251 6.52156 10.0251 5.60391 1.87461 5.60391C1.95266 4.31093 2.32056 3.32584 2.97822 2.64887 3.63577 1.97179 4.55236 1.63331 5.7279 1.63331 6.4081 1.63331 7.0678 1.7215 7.70688 1.89776 8.34597 2.07414 8.98107 2.33967 9.6119 2.69459L9.6119 0.918189C8.97485 0.632984 8.3224 0.415325 7.65444 0.265103 6.98658 0.114882 6.30944 0.039879 5.62302 0.039879 3.90093 0.039879 2.53737 0.569869 1.53242 1.63007 0.52747 2.69242 0.0249962 4.12915 0.0249962 5.94034 0.0249962 7.81022 0.501862 9.29374 1.45539 10.3909 2.40892 11.4902 3.69535 12.0399 5.3148 12.0399 6.7657 12.0399 7.91338 11.5447 8.75805 10.5542 9.60271 9.56587 10.0251 8.22166 10.0251 6.52156ZM8.25251 7.07338C8.24017 8.09867 7.96888 8.91722 7.43866 9.52891 6.90853 10.1428 6.2067 10.4497 5.33327 10.4497 4.34484 10.4497 3.55364 10.1537 2.95965 9.56155 2.36576 8.96941 2.02357 8.13563 1.93317 7.06031Z" transform="matrix(1 0 0 -1 304 606)"/><path fill-rule="evenodd" d="M1.8733 5.70194 1.8733 0.0375752 0.0277925 0.0375752 0.0277925 14.7812 1.8733 14.7812 1.8733 13.1607C2.2607 13.7955 2.74807 14.2666 3.33562 14.5737 3.92518 14.883 4.62866 15.0376 5.44605 15.0376 6.80408 15.0376 7.90669 14.5229 8.75388 13.4934 9.60319 12.4639 10.0279 11.1098 10.0279 9.43129 10.0279 7.75272 9.60319 6.39769 8.75388 5.36619 7.90669 4.33671 6.80408 3.82197 5.44605 3.82197 4.62866 3.82197 3.92518 3.97661 3.33562 4.2858 2.74807 4.59509 2.2607 5.0671 1.8733 5.70194ZM8.12174 9.43129C8.12174 10.7213 7.84392 11.7335 7.28839 12.4679 6.73285 13.2024 5.96967 13.5697 4.99905 13.5697 4.02631 13.5697 3.26218 13.2024 2.70665 12.4679 2.15101 11.7335 1.8733 10.7213 1.8733 9.43129 1.8733 8.14141 2.15101 7.1292 2.70665 6.39466 3.26218 5.66023 4.02631 5.29296 4.99905 5.29296 5.96967 5.29296 6.73285 5.66023 7.28839 6.39466 7.84392 7.1292 8.12174 8.14141 8.12174 9.43129Z" transform="matrix(1 0 0 -1 324 609)"/><path fill-rule="evenodd" d="M5.02683 10.4497C4.06821 10.4497 3.30974 10.0567 2.75163 9.27094 2.19352 8.48503 1.91436 7.40862 1.91436 6.0415 1.91436 4.67448 2.19146 3.59797 2.74545 2.81206 3.3015 2.02626 4.06193 1.63331 5.02683 1.63331 5.98123 1.63331 6.73651 2.02734 7.29256 2.81541 7.85078 3.60553 8.12984 4.68097 8.12984 6.0415 8.12984 7.39555 7.85078 8.46871 7.29256 9.2611 6.73651 10.0535 5.98123 10.4497 5.02683 10.4497ZM5.02683 12.0399C6.58302 12.0399 7.80514 11.5088 8.6932 10.4465 9.58332 9.38636 10.0283 7.91797 10.0283 6.0415 10.0283 4.17162 9.58332 2.70323 8.6932 1.63655 7.80514 0.572031 6.58302 0.039879 5.02683 0.039879 3.46436 0.039879 2.24018 0.572031 1.35418 1.63655 0.470245 2.70323 0.028328 4.17162 0.028328 6.0415 0.028328 7.91797 0.470245 9.38636 1.35418 10.4465 2.24018 11.5088 3.46436 12.0399 5.02683 12.0399Z" transform="matrix(1 0 0 -1 336 606)"/><path fill-rule="evenodd" d="M8.39946 11.4294 8.39946 9.65298C7.85437 9.92511 7.2869 10.1286 6.69694 10.2636 6.10931 10.4007 5.4992 10.4694 4.86669 10.4694 3.9067 10.4694 3.18667 10.3267 2.70661 10.0415 2.22667 9.7564 1.9867 9.32757 1.9867 8.755 1.9867 8.31968 2.1583 7.97785 2.50139 7.72971 2.84458 7.48157 3.53544 7.24533 4.57394 7.02107L5.23673 6.87744C6.60952 6.59224 7.58522 6.18956 8.16394 5.6693 8.74266 5.14903 9.03196 4.423 9.03196 3.4913 9.03196 2.42894 8.59901 1.58759 7.73322 0.967146 6.86742 0.348968 5.67748 0.039879 4.16348 0.039879 3.53321 0.039879 2.87599 0.0997514 2.19193 0.219388 1.50776 0.339133 0.787731 0.51767 0.0318478 0.75489L0.0318478 2.69459C0.74742 2.33319 1.45175 2.06214 2.14482 1.88144 2.8379 1.70302 3.52541 1.61375 4.20725 1.61375 5.11791 1.61375 5.81767 1.76505 6.30675 2.06765 6.79794 2.37015 7.04348 2.79682 7.04348 3.34767 7.04348 3.85702 6.86631 4.2477 6.51198 4.51983 6.15976 4.79196 5.38372 5.05425 4.18364 5.30682L3.51083 5.46028C2.31297 5.7041 1.44718 6.07965 0.91334 6.58684 0.381728 7.09402 0.115921 7.78958 0.115921 8.6734 0.115921 9.74873 0.508451 10.5782 1.29351 11.1616 2.07857 11.7471 3.19335 12.0399 4.63786 12.0399 5.3512 12.0399 6.0229 11.9888 6.65329 11.8864 7.28579 11.7863 7.86785 11.634 8.39946 11.4294Z" transform="matrix(1 0 0 -1 348 606)"/><path fill-rule="evenodd" d="M0.0170379 10.833 1.01704 10.833 1.01704 0.0372624 0.0170379 0.0372624ZM0.0170379 15.0373 1.01704 15.0373 1.01704 12.7887 0.0170379 12.7887Z" transform="matrix(1 0 0 -1 360 605)"/><path fill-rule="evenodd" d="M3.23708 14.0377 3.23708 10.9411 7.03204 10.9411 7.03204 9.54858 3.23708 9.54858 3.23708 3.62966C3.23708 2.74067 3.36204 2.16957 3.61208 1.91623 3.86211 1.6628 4.37172 1.53618 5.14092 1.53618L7.03204 1.53618 7.03204 0.037737 5.14092 0.037737C3.71784 0.037737 2.73605 0.295194 2.19546 0.810314 1.65477 1.32739 1.38447 2.26721 1.38447 3.62966L1.38447 9.54858 0.0319305 9.54858 0.0319305 10.9411 1.38447 10.9411 1.38447 14.0377Z" transform="matrix(1 0 0 -1 364 605)"/><path fill-rule="evenodd" d="M0.0354573 10.833 2.03546 10.833 2.03546 0.0372624 0.0354573 0.0372624ZM0.0354573 15.0373 2.03546 15.0373 2.03546 12.7887 0.0354573 12.7887Z" transform="matrix(1 0 0 -1 373 605)"/><path fill-rule="evenodd" d="M0.0335636 11.0384 2.00035 11.0384 5.53351 1.80776 9.06667 11.0384 11.0336 11.0384 6.79311 0.0383833 4.27071 0.0383833Z" transform="matrix(1 0 0 -1 377 605)"/><path fill-rule="evenodd" d="M10.0332 6.52156 10.0332 5.60391 1.88267 5.60391C1.96072 4.31093 2.32862 3.32584 2.98628 2.64887 3.64383 1.97179 4.56042 1.63331 5.73596 1.63331 6.41616 1.63331 7.07586 1.7215 7.71494 1.89776 8.35413 2.07414 8.98913 2.33967 9.61996 2.69459L9.61996 0.918189C8.98291 0.632984 8.33046 0.415325 7.6626 0.265103 6.99464 0.114882 6.3175 0.039879 5.63108 0.039879 3.90899 0.039879 2.54543 0.569869 1.54048 1.63007 0.535632 2.69242 0.0331582 4.12915 0.0331582 5.94034 0.0331582 7.81022 0.509922 9.29374 1.46345 10.3909 2.41698 11.4902 3.70351 12.0399 5.32286 12.0399 6.77376 12.0399 7.92154 11.5447 8.76611 10.5542 9.61077 9.56587 10.0332 8.22166 10.0332 6.52156ZM8.26057 7.07338C8.24823 8.09867 7.97694 8.91722 7.44682 9.52891 6.91659 10.1428 6.21476 10.4497 5.34133 10.4497 4.35291 10.4497 3.5617 10.1537 2.96771 9.56155 2.37382 8.96941 2.03163 8.13563 1.94123 7.06031Z" transform="matrix(1 0 0 -1 390 606)"/><path fill-rule="evenodd" d="M6.03313 9.1315C5.84385 9.24609 5.638 9.32999 5.41559 9.38312 5.19317 9.43838 4.94829 9.46601 4.68093 9.46601 3.7287 9.46601 2.99801 9.14166 2.48877 8.49306 1.97943 7.84446 1.72486 6.91245 1.72486 5.69702L1.72486 0.0373821 0.0331294 0.0373821 0.0331294 10.7796 1.72486 10.7796 1.72486 9.10997C2.07998 9.76273 2.5404 10.2467 3.10631 10.5618 3.67407 10.8788 4.36387 11.0374 5.17554 11.0374 5.29072 11.0374 5.41849 11.0294 5.55895 11.0129 5.69951 10.9986 5.8546 10.975 6.02431 10.9423Z" transform="matrix(1 0 0 -1 410 605)"/><path fill-rule="evenodd" d="M6.16019 6.08073C4.58883 6.08073 3.49988 5.9076 2.89334 5.56155 2.28692 5.21539 1.9837 4.62326 1.9837 3.78515 1.9837 3.1191 2.21137 2.59008 2.6668 2.19821 3.12224 1.8086 3.73997 1.61375 4.52 1.61375 5.59999 1.61375 6.46575 1.98271 7.11729 2.72063 7.76882 3.45866 8.09465 4.43932 8.09465 5.6627L8.09465 6.08073ZM10.0392 6.85788 10.0392 0.336972 8.09465 0.336972 8.09465 2.0709C7.65052 1.37858 7.09703 0.86707 6.43419 0.53615 5.77135 0.205231 4.96077 0.039879 4.00266 0.039879 2.79194 0.039879 1.82812 0.368529 1.11122 1.02594 0.39645 1.68335 0.0391749 2.56284 0.0391749 3.66432 0.0391749 4.94877 0.484425 5.91743 1.37493 6.57052 2.26778 7.2236 3.59793 7.55009 5.3655 7.55009L8.09465 7.55009 8.09465 7.73619C8.09465 8.60045 7.80039 9.26878 7.21198 9.74116 6.62357 10.2136 5.79721 10.4497 4.73311 10.4497 4.05673 10.4497 3.39724 10.3713 2.75478 10.2146 2.11444 10.0579 1.49894 9.82276 0.908297 9.50935L0.908297 11.2464C1.61848 11.5121 2.3083 11.71 2.97796 11.8407 3.64752 11.9735 4.29905 12.0399 4.93267 12.0399 6.64607 12.0399 7.92552 11.6112 8.77103 10.7534 9.61642 9.89787 10.0392 8.59937 10.0392 6.85788Z" transform="matrix(1 0 0 -1 417 606)"/><path fill-rule="evenodd" d="M3.24344 14.0377 3.24344 10.9411 7.0384 10.9411 7.0384 9.54858 3.24344 9.54858 3.24344 3.62966C3.24344 2.74067 3.36851 2.16957 3.61844 1.91623 3.86847 1.6628 4.37809 1.53618 5.14729 1.53618L7.0384 1.53618 7.0384 0.037737 5.14729 0.037737C3.7242 0.037737 2.74242 0.295194 2.20183 0.810314 1.66113 1.32739 1.39083 2.26721 1.39083 3.62966L1.39083 9.54858 0.0382954 9.54858 0.0382954 10.9411 1.39083 10.9411 1.39083 14.0377Z" transform="matrix(1 0 0 -1 429 605)"/><path fill-rule="evenodd" d="M10.0376 6.52156 10.0376 5.60391 1.88716 5.60391C1.96521 4.31093 2.33311 3.32584 2.99077 2.64887 3.64832 1.97179 4.56491 1.63331 5.74045 1.63331 6.42065 1.63331 7.08034 1.7215 7.71943 1.89776 8.35852 2.07414 8.99362 2.33967 9.62444 2.69459L9.62444 0.918189C8.9874 0.632984 8.33495 0.415325 7.66699 0.265103 6.99913 0.114882 6.32199 0.039879 5.63557 0.039879 3.91348 0.039879 2.54992 0.569869 1.54497 1.63007 0.540019 2.69242 0.0375453 4.12915 0.0375453 5.94034 0.0375453 7.81022 0.514411 9.29374 1.46794 10.3909 2.42147 11.4902 3.7079 12.0399 5.32735 12.0399 6.77825 12.0399 7.92593 11.5447 8.7706 10.5542 9.61526 9.56587 10.0376 8.22166 10.0376 6.52156ZM8.26506 7.07338C8.25272 8.09867 7.98143 8.91722 7.45121 9.52891 6.92108 10.1428 6.21925 10.4497 5.34581 10.4497 4.35739 10.4497 3.56619 10.1537 2.9722 9.56155 2.37831 8.96941 2.03612 8.13563 1.94572 7.06031Z" transform="matrix(1 0 0 -1 438 606)"/><path fill="none" fill-rule="evenodd" stroke="#000" stroke-linejoin="round" stroke-miterlimit="10" stroke-width="1.159" d="M115.464 560.484 110.464 560.484"/><path fill-rule="evenodd" d="M3.50322 9.8989C2.79849 9.8989 2.26816 9.53535 1.91223 8.80823 1.5577 8.08259 1.38039 6.99034 1.38039 5.53159 1.38039 4.07883 1.5577 2.9889 1.91223 2.26178 2.26816 1.53467 2.79849 1.17111 3.50322 1.17111 4.21368 1.17111 4.74622 1.53467 5.10075 2.26178 5.45668 2.9889 5.6347 4.07883 5.6347 5.53159 5.6347 6.99034 5.45668 8.08259 5.10075 8.80823 4.74622 9.53535 4.21368 9.8989 3.50322 9.8989ZM3.50322 11.035C4.63911 11.035 5.50667 10.5646 6.10569 9.62389 6.70481 8.68473 7.00432 7.32063 7.00432 5.53159 7.00432 3.74707 6.70481 2.38455 6.10569 1.44381 5.50667 0.504642 4.63911 0.0349554 3.50322 0.0349554 2.36874 0.0349554 1.50198 0.504642 0.902859 1.44381 0.303836 2.38455 0.00422414 3.74707 0.00422414 5.53159 0.00422414 7.32063 0.303836 8.68473 0.902859 9.62389 1.50198 10.5646 2.36874 11.035 3.50322 11.035Z" transform="matrix(1 0 0 -1 83 566)"/><path fill-rule="evenodd" d="M0.00358071 1.0199 1.00365 1.0199 1.00365 0.0198424 0.00358071 0.0198424Z" transform="matrix(1 0 0 -1 93 565)"/><path fill-rule="evenodd" d="M3.50453 9.8989C2.7998 9.8989 2.26947 9.53535 1.91343 8.80823 1.55891 8.08259 1.3817 6.99034 1.3817 5.53159 1.3817 4.07883 1.55891 2.9889 1.91343 2.26178 2.26947 1.53467 2.7998 1.17111 3.50453 1.17111 4.21499 1.17111 4.74753 1.53467 5.10205 2.26178 5.45799 2.9889 5.63601 4.07883 5.63601 5.53159 5.63601 6.99034 5.45799 8.08259 5.10205 8.80823 4.74753 9.53535 4.21499 9.8989 3.50453 9.8989ZM3.50453 11.035C4.64042 11.035 5.50787 10.5646 6.107 9.62389 6.70602 8.68473 7.00563 7.32063 7.00563 5.53159 7.00563 3.74707 6.70602 2.38455 6.107 1.44381 5.50787 0.504642 4.64042 0.0349554 3.50453 0.0349554 2.37004 0.0349554 1.50319 0.504642 0.904167 1.44381 0.305043 2.38455 0.00553161 3.74707 0.00553161 5.53159 0.00553161 7.32063 0.305043 8.68473 0.904167 9.62389 1.50319 10.5646 2.37004 11.035 3.50453 11.035Z" transform="matrix(1 0 0 -1 97 566)"/><path fill="none" fill-rule="evenodd" stroke="#000" stroke-linejoin="round" stroke-miterlimit="10" stroke-width="1.159" d="M115.464 497.484 110.464 497.484"/><path fill-rule="evenodd" d="M3.50322 9.8928C2.79849 9.8928 2.26816 9.52924 1.91223 8.80213 1.5577 8.07649 1.38039 6.98424 1.38039 5.52548 1.38039 4.07272 1.5577 2.98279 1.91223 2.25568 2.26816 1.52856 2.79849 1.165 3.50322 1.165 4.21368 1.165 4.74622 1.52856 5.10075 2.25568 5.45668 2.98279 5.6347 4.07272 5.6347 5.52548 5.6347 6.98424 5.45668 8.07649 5.10075 8.80213 4.74622 9.52924 4.21368 9.8928 3.50322 9.8928ZM3.50322 11.029C4.63911 11.029 5.50667 10.5585 6.10569 9.61779 6.70481 8.67862 7.00432 7.31452 7.00432 5.52548 7.00432 3.74096 6.70481 2.37844 6.10569 1.4377 5.50667 0.498536 4.63911 0.0288487 3.50322 0.0288487 2.36874 0.0288487 1.50198 0.498536 0.902859 1.4377 0.303836 2.37844 0.00422414 3.74096 0.00422414 5.52548 0.00422414 7.31452 0.303836 8.67862 0.902859 9.61779 1.50198 10.5585 2.36874 11.029 3.50322 11.029Z" transform="matrix(1 0 0 -1 83 503)"/><path fill-rule="evenodd" d="M0.00358071 2.03303 1.00365 2.03303 1.00365 0.0329151 0.00358071 0.0329151Z" transform="matrix(1 0 0 -1 93 502)"/><path fill-rule="evenodd" d="M1.79982 1.14465 7.00613 1.14465 7.00613 0.0267286 0.00602278 0.0267286 0.00602278 1.14465C0.571616 1.66673 1.34286 2.36714 2.31975 3.24567 3.29807 4.12566 3.91251 4.6934 4.16305 4.94888 4.64049 5.4261 4.97372 5.83024 5.16272 6.16152 5.35337 6.4927 5.44864 6.81832 5.44864 7.13838 5.44864 7.66047 5.2431 8.08569 4.83191 8.41414 4.42061 8.74395 3.88502 8.90891 3.22481 8.90891 2.7569 8.90891 2.26303 8.83662 1.7431 8.69205 1.2247 8.54749 0.670171 8.3278 0.0792817 8.03311L0.0792817 9.37627C0.679588 9.59097 1.24047 9.7531 1.76194 9.86255 2.28504 9.972 2.76325 10.0267 3.19645 10.0267 4.3387 10.0267 5.24934 9.77203 5.92849 9.26253 6.60753 8.75449 6.947 8.07515 6.947 7.22462 6.947 6.82047 6.86191 6.43729 6.69174 6.07519 6.52321 5.71445 6.21441 5.28855 5.76533 4.79729 5.64247 4.6696 5.25099 4.30184 4.59078 3.6941 3.93222 3.08637 3.00186 2.23662 1.79982 1.14465Z" transform="matrix(1 0 0 -1 97 502)"/><path fill="none" fill-rule="evenodd" stroke="#000" stroke-linejoin="round" stroke-miterlimit="10" stroke-width="1.159" d="M115.464 434.484 110.464 434.484"/><path fill-rule="evenodd" d="M3.50322 9.88669C2.79849 9.88669 2.26816 9.52313 1.91223 8.79602 1.5577 8.07038 1.38039 6.97813 1.38039 5.51937 1.38039 4.06662 1.5577 2.97668 1.91223 2.24957 2.26816 1.52245 2.79849 1.1589 3.50322 1.1589 4.21368 1.1589 4.74622 1.52245 5.10075 2.24957 5.45668 2.97668 5.6347 4.06662 5.6347 5.51937 5.6347 6.97813 5.45668 8.07038 5.10075 8.79602 4.74622 9.52313 4.21368 9.88669 3.50322 9.88669ZM3.50322 11.0228C4.63911 11.0228 5.50667 10.5524 6.10569 9.61168 6.70481 8.67252 7.00432 7.30841 7.00432 5.51937 7.00432 3.73486 6.70481 2.37233 6.10569 1.43159 5.50667 0.492429 4.63911 0.0227421 3.50322 0.0227421 2.36874 0.0227421 1.50198 0.492429 0.902859 1.43159 0.303836 2.37233 0.00422414 3.73486 0.00422414 5.51937 0.00422414 7.30841 0.303836 8.67252 0.902859 9.61168 1.50198 10.5524 2.36874 11.0228 3.50322 11.0228Z" transform="matrix(1 0 0 -1 83 439)"/><path fill-rule="evenodd" d="M0.00358071 2.02626 1.00365 2.02626 1.00365 0.0261453 0.00358071 0.0261453Z" transform="matrix(1 0 0 -1 93 439)"/><path fill-rule="evenodd" d="M4.34117 8.84279 1.05939 3.50411 4.34117 3.50411ZM3.99936 10.0215 5.6341 10.0215 5.6341 3.50411 7.00525 3.50411 7.00525 2.37897 5.6341 2.37897 5.6341 0.0214501 4.34117 0.0214501 4.34117 2.37897 0.00524688 2.37897 0.00524688 3.68415Z" transform="matrix(1 0 0 -1 97 439)"/><path fill="none" fill-rule="evenodd" stroke="#000" stroke-linejoin="round" stroke-miterlimit="10" stroke-width="1.159" d="M115.464 371.484 110.464 371.484"/><path fill-rule="evenodd" d="M3.50322 9.88058C2.79849 9.88058 2.26816 9.51703 1.91223 8.78991 1.5577 8.06427 1.38039 6.97202 1.38039 5.51327 1.38039 4.06051 1.5577 2.97058 1.91223 2.24346 2.26816 1.51635 2.79849 1.15279 3.50322 1.15279 4.21368 1.15279 4.74622 1.51635 5.10075 2.24346 5.45668 2.97058 5.6347 4.06051 5.6347 5.51327 5.6347 6.97202 5.45668 8.06427 5.10075 8.78991 4.74622 9.51703 4.21368 9.88058 3.50322 9.88058ZM3.50322 11.0167C4.63911 11.0167 5.50667 10.5463 6.10569 9.60557 6.70481 8.66641 7.00432 7.30231 7.00432 5.51327 7.00432 3.72875 6.70481 2.36623 6.10569 1.42549 5.50667 0.486322 4.63911 0.0166354 3.50322 0.0166354 2.36874 0.0166354 1.50198 0.486322 0.902859 1.42549 0.303836 2.36623 0.00422414 3.72875 0.00422414 5.51327 0.00422414 7.30231 0.303836 8.66641 0.902859 9.60557 1.50198 10.5463 2.36874 11.0167 3.50322 11.0167Z" transform="matrix(1 0 0 -1 83 376)"/><path fill-rule="evenodd" d="M0.00358071 2.01949 1.00365 2.01949 1.00365 0.0193755 0.00358071 0.0193755Z" transform="matrix(1 0 0 -1 93 376)"/><path fill-rule="evenodd" d="M3.62508 6.09498C3.00949 6.09498 2.52145 5.87461 2.16075 5.43377 1.80157 4.99441 1.62197 4.39153 1.62197 3.62504 1.62197 2.86308 1.80157 2.2602 2.16075 1.81631 2.52145 1.374 3.00949 1.15279 3.62508 1.15279 4.24067 1.15279 4.72801 1.374 5.08719 1.81631 5.44648 2.2602 5.62607 2.86308 5.62607 3.62504 5.62607 4.39153 5.44648 4.99441 5.08719 5.43377 4.72801 5.87461 4.24067 6.09498 3.62508 6.09498ZM6.34736 10.5918 6.34736 9.28518C6.00257 9.45491 5.65496 9.58441 5.30454 9.6738 4.95401 9.76466 4.6064 9.81015 4.26161 9.81015 3.3564 9.81015 2.6648 9.49049 2.18683 8.85119 1.71026 8.21199 1.43805 7.2463 1.3699 5.9541 1.63647 6.36609 1.97099 6.68196 2.37367 6.90158 2.77775 7.12132 3.2217 7.23113 3.70551 7.23113 4.72368 7.23113 5.52822 6.90769 6.11925 6.26081 6.71017 5.6155 7.00564 4.73688 7.00564 3.62504 7.00564 2.53585 6.69779 1.66175 6.0823 1.00286 5.46671 0.345448 4.64767 0.0166354 3.62508 0.0166354 2.45189 0.0166354 1.55533 0.486322 0.935414 1.42549 0.315496 2.36623 0.00553678 3.72875 0.00553678 5.51327 0.00553678 7.1887 0.385763 8.5248 1.14611 9.52155 1.90656 10.5183 2.92694 11.0167 4.20735 11.0167 4.55204 11.0167 4.89965 10.9812 5.25018 10.9099 5.6007 10.8387 5.96643 10.7327 6.34736 10.5918Z" transform="matrix(1 0 0 -1 97 376)"/><path fill="none" fill-rule="evenodd" stroke="#000" stroke-linejoin="round" stroke-miterlimit="10" stroke-width="1.159" d="M115.464 308.484 110.464 308.484"/><path fill-rule="evenodd" d="M3.50322 9.87448C2.79849 9.87448 2.26816 9.51092 1.91223 8.78381 1.5577 8.05817 1.38039 6.96592 1.38039 5.50716 1.38039 4.0544 1.5577 2.96447 1.91223 2.23736 2.26816 1.51024 2.79849 1.14668 3.50322 1.14668 4.21368 1.14668 4.74622 1.51024 5.10075 2.23736 5.45668 2.96447 5.6347 4.0544 5.6347 5.50716 5.6347 6.96592 5.45668 8.05817 5.10075 8.78381 4.74622 9.51092 4.21368 9.87448 3.50322 9.87448ZM3.50322 11.0106C4.63911 11.0106 5.50667 10.5402 6.10569 9.59947 6.70481 8.66031 7.00432 7.2962 7.00432 5.50716 7.00432 3.72264 6.70481 2.36012 6.10569 1.41938 5.50667 0.480216 4.63911 0.0105287 3.50322 0.0105287 2.36874 0.0105287 1.50198 0.480216 0.902859 1.41938 0.303836 2.36012 0.00422414 3.72264 0.00422414 5.50716 0.00422414 7.2962 0.303836 8.66031 0.902859 9.59947 1.50198 10.5402 2.36874 11.0106 3.50322 11.0106Z" transform="matrix(1 0 0 -1 83 313)"/><path fill-rule="evenodd" d="M0.00358071 2.01272 1.00365 2.01272 1.00365 0.0126058 0.00358071 0.0126058Z" transform="matrix(1 0 0 -1 93 313)"/><path fill-rule="evenodd" d="M3.50568 5.25268C2.84936 5.25268 2.33313 5.07011 1.95688 4.70508 1.58204 4.33994 1.39463 3.83857 1.39463 3.20084 1.39463 2.56154 1.58204 2.05942 1.95688 1.69428 2.33313 1.32925 2.84936 1.14668 3.50568 1.14668 4.16189 1.14668 4.67893 1.32999 5.0566 1.6966 5.43579 2.06468 5.62534 2.56606 5.62534 3.20084 5.62534 3.83857 5.43721 4.33994 5.06096 4.70508 4.68623 5.07011 4.16777 5.25268 3.50568 5.25268ZM2.12534 5.86166C1.53319 6.01317 1.07169 6.29945 0.740646 6.7206 0.411019 7.14322 0.246206 7.65744 0.246206 8.26337 0.246206 9.1102 0.536403 9.77983 1.1169 10.2721 1.69871 10.7645 2.495 11.0106 3.50568 11.0106 4.52213 11.0106 5.31984 10.7645 5.89881 10.2721 6.47779 9.77983 6.76727 9.1102 6.76727 8.26337 6.76727 7.65744 6.60175 7.14322 6.27071 6.7206 5.94108 6.29945 5.48242 6.01317 4.89473 5.86166 5.55976 5.7011 6.07741 5.38597 6.44789 4.91639 6.81978 4.44828 7.00568 3.87647 7.00568 3.20084 7.00568 2.17229 6.70382 1.38305 6.10001 0.833139 5.49631 0.284802 4.63149 0.0105287 3.50568 0.0105287 2.38128 0.0105287 1.51646 0.284802 0.911237 0.833139 0.307428 1.38305 0.00557486 2.17229 0.00557486 3.20084 0.00557486 3.87647 0.192282 4.44828 0.565595 4.91639 0.940429 5.38597 1.46031 5.7011 2.12534 5.86166ZM1.61995 8.12713C1.61995 7.57869 1.78477 7.1508 2.11439 6.84326 2.44544 6.53571 2.90917 6.38199 3.50568 6.38199 4.09915 6.38199 4.56297 6.53571 4.89686 6.84326 5.23236 7.1508 5.40001 7.57869 5.40001 8.12713 5.40001 8.67694 5.23236 9.10567 4.89686 9.41321 4.56297 9.72065 4.09915 9.87448 3.50568 9.87448 2.90917 9.87448 2.44544 9.72065 2.11439 9.41321 1.78477 9.10567 1.61995 8.67694 1.61995 8.12713Z" transform="matrix(1 0 0 -1 97 313)"/><path fill="none" fill-rule="evenodd" stroke="#000" stroke-linejoin="round" stroke-miterlimit="10" stroke-width="1.159" d="M115.464 245.484 110.464 245.484"/><path fill-rule="evenodd" d="M0.200757 1.25644 2.4276 1.25644 2.4276 9.64907 0.00420329 9.11873 0.00420329 10.4742 2.41459 11.0047 3.77746 11.0047 3.77746 1.25644 6.0043 1.25644 6.0043 0.00458793 0.200757 0.00458793Z" transform="matrix(1 0 0 -1 84 250)"/><path fill-rule="evenodd" d="M0.00358071 2.00595 1.00365 2.00595 1.00365 0.00583601 0.00358071 0.00583601Z" transform="matrix(1 0 0 -1 93 250)"/><path fill-rule="evenodd" d="M3.50453 9.86837C2.7998 9.86837 2.26947 9.50481 1.91343 8.7777 1.55891 8.05206 1.3817 6.95981 1.3817 5.50105 1.3817 4.0483 1.55891 2.95836 1.91343 2.23125 2.26947 1.50413 2.7998 1.14058 3.50453 1.14058 4.21499 1.14058 4.74753 1.50413 5.10205 2.23125 5.45799 2.95836 5.63601 4.0483 5.63601 5.50105 5.63601 6.95981 5.45799 8.05206 5.10205 8.7777 4.74753 9.50481 4.21499 9.86837 3.50453 9.86837ZM3.50453 11.0045C4.64042 11.0045 5.50787 10.5341 6.107 9.59336 6.70602 8.6542 7.00563 7.29009 7.00563 5.50105 7.00563 3.71654 6.70602 2.35401 6.107 1.41327 5.50787 0.474109 4.64042 0.00442207 3.50453 0.00442207 2.37004 0.00442207 1.50319 0.474109 0.904167 1.41327 0.305043 2.35401 0.00553161 3.71654 0.00553161 5.50105 0.00553161 7.29009 0.305043 8.6542 0.904167 9.59336 1.50319 10.5341 2.37004 11.0045 3.50453 11.0045Z" transform="matrix(1 0 0 -1 97 250)"/><path fill-rule="evenodd" d="M3.20759 14.0271 3.20759 10.9305 7.00255 10.9305 7.00255 9.53796 3.20759 9.53796 3.20759 3.61893C3.20759 2.73005 3.33255 2.15895 3.58258 1.90561 3.83262 1.65218 4.34223 1.52546 5.11143 1.52546L7.00255 1.52546 7.00255 0.0270139 5.11143 0.0270139C3.68835 0.0270139 2.70656 0.284574 2.16597 0.799694 1.62527 1.31677 1.35498 2.25659 1.35498 3.61893L1.35498 9.53796 0.00243987 9.53796 0.00243987 10.9305 1.35498 10.9305 1.35498 14.0271Z" transform="matrix(-1.83697e-16 -1 -1 1.83697e-16 71.9999 489)"/><path fill-rule="evenodd" d="M6.00223 9.12002C5.81304 9.23461 5.6071 9.31851 5.38469 9.37174 5.16227 9.4269 4.91739 9.45453 4.65003 9.45453 3.6979 9.45453 2.96711 9.13028 2.45787 8.48158 1.94863 7.83298 1.69396 6.90097 1.69396 5.68554L1.69396 0.0259034 0.002228 0.0259034 0.002228 10.7682 1.69396 10.7682 1.69396 9.09849C2.04908 9.75125 2.5096 10.2352 3.07541 10.5503 3.64326 10.8673 4.33297 11.026 5.14474 11.026 5.25982 11.026 5.38759 11.0179 5.52815 11.0014 5.66861 10.9871 5.8237 10.9635 5.99351 10.9308Z" transform="matrix(-1.83697e-16 -1 -1 1.83697e-16 71.9999 480)"/><path fill-rule="evenodd" d="M0.00223585 4.53411 0.00223585 11.025 1.76795 11.025 1.76795 4.60153C1.76795 3.58657 1.96541 2.82487 2.36055 2.31633 2.75772 1.80991 3.35337 1.55666 4.1477 1.55666 5.09956 1.55666 5.85182 1.8599 6.40459 2.46648 6.95938 3.07296 7.23673 3.90005 7.23673 4.94766L7.23673 11.025 9.00234 11.025 9.00234 0.303748 7.23673 0.303748 7.23673 1.95185C6.80887 1.30036 6.31139 0.816347 5.7444 0.499825 5.17934 0.183303 4.52231 0.0250419 3.77299 0.0250419 2.5386 0.0250419 1.60107 0.407971 0.960297 1.17373 0.321657 1.93958 0.00223585 3.05968 0.00223585 4.53411Z" transform="matrix(-1.83697e-16 -1 -1 1.83697e-16 72 472)"/><path fill-rule="evenodd" d="M11.0026 5.96482 11.0026 5.12374 2.03705 5.12374C2.1229 3.93841 2.52759 3.03541 3.25101 2.41486 3.97432 1.7943 4.98257 1.48402 6.27566 1.48402 7.02388 1.48402 7.74955 1.56476 8.45254 1.72644 9.15554 1.88802 9.85415 2.13152 10.5481 2.45676L10.5481 0.828497C9.84731 0.567059 9.12961 0.367538 8.39486 0.229835 7.66021 0.0921323 6.91536 0.0232807 6.16029 0.0232807 4.266 0.0232807 2.76608 0.509204 1.66063 1.48095 0.555191 2.45478 0.00246901 3.77178 0.00246901 5.43204 0.00246901 7.1462 0.527021 8.50609 1.5759 9.51182 2.62478 10.5195 4.03986 11.0234 5.82125 11.0234 7.41724 11.0234 8.67969 10.5695 9.60882 9.66151 10.538 8.75554 11.0026 7.52334 11.0026 5.96482ZM9.05274 6.47066C9.03916 7.4106 8.74074 8.16084 8.1575 8.72156 7.57436 9.28436 6.80235 9.56571 5.84156 9.56571 4.7543 9.56571 3.88386 9.29426 3.23059 8.75148 2.57731 8.20879 2.2009 7.44449 2.10146 6.45867Z" transform="matrix(-1.83697e-16 -1 -1 1.83697e-16 72 460)"/><path fill-rule="evenodd" d="M1.84804 5.68639 1.84804 0.0221209 0.00253619 0.0221209 0.00253619 14.7658 1.84804 14.7658 1.84804 13.1453C2.23544 13.78 2.72282 14.251 3.31037 14.5583 3.89993 14.8676 4.6034 15.0221 5.4208 15.0221 6.77882 15.0221 7.88143 14.5074 8.72863 13.4779 9.57793 12.4484 10.0026 11.0944 10.0026 9.41583 10.0026 7.73727 9.57793 6.38224 8.72863 5.35074 7.88143 4.32125 6.77882 3.80641 5.4208 3.80641 4.6034 3.80641 3.89993 3.96106 3.31037 4.27035 2.72282 4.57964 2.23544 5.05165 1.84804 5.68639ZM8.09648 9.41583C8.09648 10.7057 7.81866 11.718 7.26313 12.4525 6.70749 13.187 5.94442 13.5542 4.97379 13.5542 4.00106 13.5542 3.23692 13.187 2.68128 12.4525 2.12575 11.718 1.84804 10.7057 1.84804 9.41583 1.84804 8.12585 2.12575 7.11364 2.68128 6.37921 3.23692 5.64467 4.00106 5.2775 4.97379 5.2775 5.94442 5.2775 6.70749 5.64467 7.26313 6.37921 7.81866 7.11364 8.09648 8.12585 8.09648 9.41583Z" transform="matrix(-1.83697e-16 -1 -1 1.83697e-16 75.9999 440)"/><path fill-rule="evenodd" d="M5.00077 9.56274C4.04215 9.56274 3.28378 9.20263 2.72567 8.48221 2.16745 7.7619 1.8884 6.77509 1.8884 5.52189 1.8884 4.2688 2.16539 3.28199 2.71939 2.56167 3.27554 1.84126 4.03597 1.48105 5.00077 1.48105 5.95527 1.48105 6.71055 1.84225 7.2666 2.56465 7.82482 3.28902 8.10388 4.27474 8.10388 5.52189 8.10388 6.7631 7.82482 7.74694 7.2666 8.4733 6.71055 9.19966 5.95527 9.56274 5.00077 9.56274ZM5.00077 11.0204C6.55696 11.0204 7.77919 10.5336 8.66724 9.55976 9.55736 8.58802 10.0024 7.24199 10.0024 5.52189 10.0024 3.80784 9.55736 2.46181 8.66724 1.48402 7.77919 0.508313 6.55696 0.0204078 5.00077 0.0204078 3.4384 0.0204078 2.21422 0.508313 1.32822 1.48402 0.444286 2.46181 0.00226624 3.80784 0.00226624 5.52189 0.00226624 7.24199 0.444286 8.58802 1.32822 9.55976 2.21422 10.5336 3.4384 11.0204 5.00077 11.0204Z" transform="matrix(-1.83697e-16 -1 -1 1.83697e-16 71.9999 428)"/><path fill-rule="evenodd" d="M7.44015 10.4597 7.44015 8.83142C6.95563 9.08078 6.45121 9.26742 5.9268 9.39115 5.40447 9.51687 4.86214 9.57968 4.29992 9.57968 3.44659 9.57968 2.80656 9.44901 2.37985 9.18757 1.95323 8.92613 1.73992 8.53303 1.73992 8.00828 1.73992 7.60914 1.89245 7.29589 2.19742 7.06833 2.50249 6.84087 3.11658 6.62441 4.03969 6.41885L4.62894 6.28719C5.8491 6.02575 6.71639 5.65653 7.2308 5.17962 7.74522 4.70271 8.00237 4.03728 8.00237 3.18322 8.00237 2.20939 7.61763 1.43816 6.84794 0.869412 6.07834 0.30265 5.02071 0.0193181 3.67484 0.0193181 3.1146 0.0193181 2.5304 0.0742012 1.92235 0.183967 1.3142 0.293734 0.674173 0.457392 0.00227661 0.674844L0.00227661 2.4528C0.638341 2.12162 1.26441 1.87316 1.88048 1.70752 2.49655 1.54386 3.10767 1.46203 3.71374 1.46203 4.52322 1.46203 5.14533 1.60072 5.57997 1.87811 6.01658 2.1555 6.23494 2.54662 6.23494 3.05146 6.23494 3.51846 6.07735 3.87659 5.76239 4.12604 5.44931 4.37549 4.7595 4.61593 3.69286 4.84745L3.0947 4.98812C2.02994 5.21162 1.26035 5.55577 0.785826 6.02079 0.31338 6.48572 0.0771077 7.12321 0.0771077 7.93338 0.0771077 8.9192 0.426023 9.67944 1.12385 10.2143 1.82168 10.751 2.8126 11.0194 4.09651 11.0194 4.73059 11.0194 5.32776 10.9725 5.888 10.8787 6.45022 10.7869 6.96761 10.6473 7.44015 10.4597Z" transform="matrix(-1.83697e-16 -1 -1 1.83697e-16 71.9999 415)"/><path fill-rule="evenodd" d="M0.00276291 10.8148 2.00276 10.8148 2.00276 0.0189885 0.00276291 0.0189885ZM0.00276291 15.0191 2.00276 15.0191 2.00276 12.7704 0.00276291 12.7704Z" transform="matrix(-1.83697e-16 -1 -1 1.83697e-16 71.9999 404)"/><path fill-rule="evenodd" d="M3.20759 14.0186 3.20759 10.922 7.00255 10.922 7.00255 9.52951 3.20759 9.52951 3.20759 3.61048C3.20759 2.7216 3.33255 2.15049 3.58258 1.89706 3.83262 1.64372 4.34223 1.51701 5.11143 1.51701L7.00255 1.51701 7.00255 0.0185592 5.11143 0.0185592C3.68835 0.0185592 2.70656 0.276119 2.16597 0.791136 1.62527 1.30832 1.35498 2.24803 1.35498 3.61048L1.35498 9.52951 0.00243987 9.52951 0.00243987 10.922 1.35498 10.922 1.35498 14.0186Z" transform="matrix(-1.83697e-16 -1 -1 1.83697e-16 71.9999 400)"/><path fill-rule="evenodd" d="M0.00138145 10.8134 1.00138 10.8134 1.00138 0.0176613 0.00138145 0.0176613ZM0.00138145 15.0178 1.00138 15.0178 1.00138 12.7692 0.00138145 12.7692Z" transform="matrix(-1.83697e-16 -1 -1 1.83697e-16 72 390)"/><path fill-rule="evenodd" d="M0.00245848 11.0174 1.96924 11.0174 5.5024 1.78685 9.03567 11.0174 11.0025 11.0174 6.762 0.0173713 4.23971 0.0173713Z" transform="matrix(-1.83697e-16 -1 -1 1.83697e-16 72 386)"/><path fill-rule="evenodd" d="M11.0026 5.957 11.0026 5.11592 2.03705 5.11592C2.1229 3.93058 2.52759 3.02759 3.25101 2.40703 3.97432 1.78647 4.98257 1.4761 6.27566 1.4761 7.02388 1.4761 7.74955 1.55694 8.45254 1.71861 9.15554 1.88019 9.85415 2.1237 10.5481 2.44894L10.5481 0.820572C9.84731 0.559233 9.12961 0.359613 8.39486 0.222009 7.66021 0.084306 6.91536 0.0154544 6.16029 0.0154544 4.266 0.0154544 2.76608 0.501378 1.66063 1.47313 0.555191 2.44695 0.00246901 3.76395 0.00246901 5.42421 0.00246901 7.13827 0.527021 8.49826 1.5759 9.50399 2.62478 10.5117 4.03986 11.0155 5.82125 11.0155 7.41724 11.0155 8.67969 10.5616 9.60882 9.65358 10.538 8.74771 11.0026 7.51542 11.0026 5.957ZM9.05274 6.46283C9.03916 7.40268 8.74074 8.15301 8.1575 8.71373 7.57436 9.27643 6.80235 9.55788 5.84156 9.55788 4.7543 9.55788 3.88386 9.28644 3.23059 8.74365 2.57731 8.20086 2.2009 7.43666 2.10146 6.45084Z" transform="matrix(-1.83697e-16 -1 -1 1.83697e-16 72 374)"/><path fill-rule="evenodd" d="M7.0026 9.10824C6.78188 9.22282 6.54161 9.30673 6.28213 9.35986 6.02265 9.41512 5.73695 9.44275 5.42503 9.44275 4.31421 9.44275 3.46163 9.1185 2.86751 8.4698 2.2734 7.8212 1.97628 6.88918 1.97628 5.67376L1.97628 0.0141199 0.00259933 0.0141199 0.00259933 10.7564 1.97628 10.7564 1.97628 9.0867C2.39059 9.73947 2.92786 10.2234 3.58798 10.5385 4.25047 10.8555 5.05513 11.0142 6.0022 11.0142 6.13646 11.0142 6.28552 11.0061 6.44951 10.9896 6.61338 10.9753 6.79431 10.9517 6.99243 10.919Z" transform="matrix(-1.83697e-16 -1 -1 1.83697e-16 72 354)"/><path fill-rule="evenodd" d="M5.51123 5.55043C4.09701 5.55043 3.11695 5.39182 2.57107 5.07451 2.02528 4.75729 1.75239 4.21451 1.75239 3.44624 1.75239 2.83559 1.95729 2.35066 2.36718 1.99154 2.77707 1.63431 3.33303 1.45569 4.03506 1.45569 5.00705 1.45569 5.78624 1.794 6.37262 2.47043 6.959 3.14686 7.25224 4.04589 7.25224 5.16733L7.25224 5.55043ZM9.00232 6.26282 9.00232 0.285412 7.25224 0.285412 7.25224 1.87474C6.85252 1.24022 6.35439 0.771236 5.75783 0.467992 5.16128 0.164649 4.43175 0.0129778 3.56946 0.0129778 2.4798 0.0129778 1.61237 0.314339 0.96716 0.916964 0.323864 1.51959 0.00231691 2.3258 0.00231691 3.33549 0.00231691 4.5128 0.403042 5.40083 1.20449 5.9994 2.00806 6.59806 3.2052 6.89744 4.79601 6.89744L7.25224 6.89744 7.25224 7.06803C7.25224 7.86017 6.98741 8.4728 6.45784 8.90582 5.92828 9.33885 5.18455 9.5554 4.22686 9.5554 3.61811 9.5554 3.02458 9.48358 2.44636 9.33984 1.87005 9.19619 1.31611 8.98072 0.784527 8.69332L0.784527 10.2857C1.42369 10.5291 2.04453 10.7107 2.64722 10.8305 3.24982 10.9522 3.8362 11.0131 4.40647 11.0131 5.94852 11.0131 7.10003 10.62 7.86098 9.83378 8.62184 9.04957 9.00232 7.85918 9.00232 6.26282Z" transform="matrix(-1.83697e-16 -1 -1 1.83697e-16 72 346)"/><path fill-rule="evenodd" d="M3.20759 14.0124 3.20759 10.9158 7.00255 10.9158 7.00255 9.52332 3.20759 9.52332 3.20759 3.60429C3.20759 2.71541 3.33255 2.1442 3.58258 1.89087 3.83262 1.63754 4.34223 1.51082 5.11143 1.51082L7.00255 1.51082 7.00255 0.0123728 5.11143 0.0123728C3.68835 0.0123728 2.70656 0.269933 2.16597 0.784949 1.62527 1.30213 1.35498 2.24184 1.35498 3.60429L1.35498 9.52332 0.00243987 9.52332 0.00243987 10.9158 1.35498 10.9158 1.35498 14.0124Z" transform="matrix(-1.83697e-16 -1 -1 1.83697e-16 71.9999 334)"/><path fill-rule="evenodd" d="M10.0023 5.95264 10.0023 5.11156 1.85186 5.11156C1.92991 3.92622 2.29781 3.02323 2.95547 2.40267 3.61302 1.78212 4.52961 1.47184 5.70515 1.47184 6.38535 1.47184 7.04504 1.55258 7.68413 1.71425 8.32322 1.87583 8.95832 2.11934 9.58914 2.44458L9.58914 0.816312C8.9521 0.554874 8.29965 0.355353 7.63169 0.21765 6.96383 0.079947 6.28669 0.0110955 5.60027 0.0110955 3.87818 0.0110955 2.51462 0.497019 1.50967 1.46877 0.504719 2.4426 0.00224455 3.75959 0.00224455 5.41985 0.00224455 7.13401 0.47911 8.4939 1.43264 9.49963 2.38617 10.5073 3.6726 11.0112 5.29205 11.0112 6.74295 11.0112 7.89063 10.5573 8.7353 9.64932 9.57996 8.74335 10.0023 7.51116 10.0023 5.95264ZM8.22976 6.45847C8.21741 7.39842 7.94613 8.14865 7.41591 8.70937 6.88578 9.27217 6.18395 9.55352 5.31051 9.55352 4.32209 9.55352 3.53079 9.28208 2.9369 8.73929 2.34301 8.1966 2.00082 7.4323 1.91042 6.44649Z" transform="matrix(-1.83697e-16 -1 -1 1.83697e-16 71.9999 326)"/><path fill="none" fill-rule="evenodd" stroke="red" stroke-linecap="square" stroke-linejoin="round" stroke-miterlimit="10" stroke-width="2.897" d="M115.463 560.483 164.063 468.556 212.663 391.011 261.263 334.447 309.863 297.414 358.463 274.853 407.063 261.708 455.663 254.246 504.263 250.073 552.863 247.759 601.463 246.482"/><path fill="none" fill-rule="evenodd" stroke="green" stroke-dasharray="12.06 5.215" stroke-linejoin="round" stroke-miterlimit="10" stroke-width="2.173" d="M114.963 559.983 600.963 244.982"/><path fill="none" fill-rule="evenodd" stroke="#000" stroke-linecap="square" stroke-miterlimit="8" stroke-width="1.159" d="M115.466 560.483 115.466 245.483"/><path fill="none" fill-rule="evenodd" stroke="#000" stroke-linecap="square" stroke-miterlimit="8" stroke-width="1.159" d="M601.466 560.483 601.466 245.483"/><path fill="none" fill-rule="evenodd" stroke="#000" stroke-linecap="square" stroke-miterlimit="8" stroke-width="1.159" d="M115.463 560.484 601.463 560.484"/><path fill="none" fill-rule="evenodd" stroke="#000" stroke-linecap="square" stroke-miterlimit="8" stroke-width="1.159" d="M115.463 245.484 601.463 245.484"/><text fill="red" font-family="Calibri,Calibri_MSFontService,sans-serif" font-size="26" font-weight="400" transform="translate(153.629 323)">ROC curve<tspan x="485.712" y="-7" fill="#007B48" font-family="Arial,Arial_MSFontService,sans-serif" font-size="24">ROC curve for a </tspan><tspan x="485.712" y="22" fill="#007B48" font-family="Arial,Arial_MSFontService,sans-serif" font-size="24">classifier that outputs </tspan><tspan x="485.712" y="51" fill="#007B48" font-family="Arial,Arial_MSFontService,sans-serif" font-size="24">random confidence </tspan><tspan x="485.712" y="80" fill="#007B48" font-family="Arial,Arial_MSFontService,sans-serif" font-size="24">values (AUC=0.5)</tspan></text><path fill="#007B48" d="M630.319 352.747 472.954 348.215 473.04 345.217 630.405 349.748ZM474.367 351.257 465.5 346.5 474.626 342.261Z"/><path fill="#930E24" d="M622.821 505.028 487.509 475.562 488.147 472.63 623.46 502.097ZM488.336 478.812 480.5 472.5 490.251 470.018Z"/></g></svg>