<svg xmlns="http://www.w3.org/2000/svg" xmlns:xlink="http://www.w3.org/1999/xlink" width="576" height="384" version="1.1" viewBox="0 0 432 288"><metadata><rdf:RDF xmlns:cc="http://creativecommons.org/ns#" xmlns:dc="http://purl.org/dc/elements/1.1/" xmlns:rdf="http://www.w3.org/1999/02/22-rdf-syntax-ns#"><cc:Work><dc:type rdf:resource="http://purl.org/dc/dcmitype/StillImage"/><dc:date>2021-08-16T14:14:00.327767</dc:date><dc:format>image/svg+xml</dc:format><dc:creator><cc:Agent><dc:title>Matplotlib v3.3.2, https://matplotlib.org/</dc:title></cc:Agent></dc:creator></cc:Work></rdf:RDF></metadata><defs><style type="text/css">*{stroke-linecap:butt;stroke-linejoin:round}</style></defs><g id="figure_1"><g id="patch_1"><path d="M 0 288 L 432 288 L 432 0 L 0 0 z" style="fill:none"/></g><g id="axes_1"><g id="patch_2"><path d="M 54 252 L 388.8 252 L 388.8 34.56 L 54 34.56 z" style="fill:#fff"/></g><g id="matplotlib.axis_1"><g id="xtick_1"><g id="line2d_1"><defs><path id="m6645904764" d="M 0 0 L 0 3.5" style="stroke:#000;stroke-width:.8"/></defs><g><use style="stroke:#000;stroke-width:.8" x="69.218" y="252" xlink:href="#m6645904764"/></g></g><g id="text_1"><g transform="translate(66.036932 266.598437)scale(0.1 -0.1)"><defs><path id="DejaVuSans-48" d="M 31.78125 66.40625 Q 24.171875 66.40625 20.328125 58.90625 Q 16.5 51.421875 16.5 36.375 Q 16.5 21.390625 20.328125 13.890625 Q 24.171875 6.390625 31.78125 6.390625 Q 39.453125 6.390625 43.28125 13.890625 Q 47.125 21.390625 47.125 36.375 Q 47.125 51.421875 43.28125 58.90625 Q 39.453125 66.40625 31.78125 66.40625 z M 31.78125 74.21875 Q 44.046875 74.21875 50.515625 64.515625 Q 56.984375 54.828125 56.984375 36.375 Q 56.984375 17.96875 50.515625 8.265625 Q 44.046875 -1.421875 31.78125 -1.421875 Q 19.53125 -1.421875 13.0625 8.265625 Q 6.59375 17.96875 6.59375 36.375 Q 6.59375 54.828125 13.0625 64.515625 Q 19.53125 74.21875 31.78125 74.21875 z"/></defs><use xlink:href="#DejaVuSans-48"/></g></g></g><g id="xtick_2"><g id="line2d_2"><g><use style="stroke:#000;stroke-width:.8" x="107.455" y="252" xlink:href="#m6645904764"/></g></g><g id="text_2"><g transform="translate(101.09232 266.598437)scale(0.1 -0.1)"><defs><path id="DejaVuSans-50" d="M 19.1875 8.296875 L 53.609375 8.296875 L 53.609375 0 L 7.328125 0 L 7.328125 8.296875 Q 12.9375 14.109375 22.625 23.890625 Q 32.328125 33.6875 34.8125 36.53125 Q 39.546875 41.84375 41.421875 45.53125 Q 43.3125 49.21875 43.3125 52.78125 Q 43.3125 58.59375 39.234375 62.25 Q 35.15625 65.921875 28.609375 65.921875 Q 23.96875 65.921875 18.8125 64.3125 Q 13.671875 62.703125 7.8125 59.421875 L 7.8125 69.390625 Q 13.765625 71.78125 18.9375 73 Q 24.125 74.21875 28.421875 74.21875 Q 39.75 74.21875 46.484375 68.546875 Q 53.21875 62.890625 53.21875 53.421875 Q 53.21875 48.921875 51.53125 44.890625 Q 49.859375 40.875 45.40625 35.40625 Q 44.1875 33.984375 37.640625 27.21875 Q 31.109375 20.453125 19.1875 8.296875 z"/><path id="DejaVuSans-53" d="M 10.796875 72.90625 L 49.515625 72.90625 L 49.515625 64.59375 L 19.828125 64.59375 L 19.828125 46.734375 Q 21.96875 47.46875 24.109375 47.828125 Q 26.265625 48.1875 28.421875 48.1875 Q 40.625 48.1875 47.75 41.5 Q 54.890625 34.8125 54.890625 23.390625 Q 54.890625 11.625 47.5625 5.09375 Q 40.234375 -1.421875 26.90625 -1.421875 Q 22.3125 -1.421875 17.546875 -0.640625 Q 12.796875 0.140625 7.71875 1.703125 L 7.71875 11.625 Q 12.109375 9.234375 16.796875 8.0625 Q 21.484375 6.890625 26.703125 6.890625 Q 35.15625 6.890625 40.078125 11.328125 Q 45.015625 15.765625 45.015625 23.390625 Q 45.015625 31 40.078125 35.4375 Q 35.15625 39.890625 26.703125 39.890625 Q 22.75 39.890625 18.8125 39.015625 Q 14.890625 38.140625 10.796875 36.28125 z"/></defs><use xlink:href="#DejaVuSans-50"/><use x="63.623" xlink:href="#DejaVuSans-53"/></g></g></g><g id="xtick_3"><g id="line2d_3"><g><use style="stroke:#000;stroke-width:.8" x="145.691" y="252" xlink:href="#m6645904764"/></g></g><g id="text_3"><g transform="translate(139.328957 266.598437)scale(0.1 -0.1)"><use xlink:href="#DejaVuSans-53"/><use x="63.623" xlink:href="#DejaVuSans-48"/></g></g></g><g id="xtick_4"><g id="line2d_4"><g><use style="stroke:#000;stroke-width:.8" x="183.928" y="252" xlink:href="#m6645904764"/></g></g><g id="text_4"><g transform="translate(177.565595 266.598437)scale(0.1 -0.1)"><defs><path id="DejaVuSans-55" d="M 8.203125 72.90625 L 55.078125 72.90625 L 55.078125 68.703125 L 28.609375 0 L 18.3125 0 L 43.21875 64.59375 L 8.203125 64.59375 z"/></defs><use xlink:href="#DejaVuSans-55"/><use x="63.623" xlink:href="#DejaVuSans-53"/></g></g></g><g id="xtick_5"><g id="line2d_5"><g><use style="stroke:#000;stroke-width:.8" x="222.165" y="252" xlink:href="#m6645904764"/></g></g><g id="text_5"><g transform="translate(212.620983 266.598437)scale(0.1 -0.1)"><defs><path id="DejaVuSans-49" d="M 12.40625 8.296875 L 28.515625 8.296875 L 28.515625 63.921875 L 10.984375 60.40625 L 10.984375 69.390625 L 28.421875 72.90625 L 38.28125 72.90625 L 38.28125 8.296875 L 54.390625 8.296875 L 54.390625 0 L 12.40625 0 z"/></defs><use xlink:href="#DejaVuSans-49"/><use x="63.623" xlink:href="#DejaVuSans-48"/><use x="127.246" xlink:href="#DejaVuSans-48"/></g></g></g><g id="xtick_6"><g id="line2d_6"><g><use style="stroke:#000;stroke-width:.8" x="260.401" y="252" xlink:href="#m6645904764"/></g></g><g id="text_6"><g transform="translate(250.85762 266.598437)scale(0.1 -0.1)"><use xlink:href="#DejaVuSans-49"/><use x="63.623" xlink:href="#DejaVuSans-50"/><use x="127.246" xlink:href="#DejaVuSans-53"/></g></g></g><g id="xtick_7"><g id="line2d_7"><g><use style="stroke:#000;stroke-width:.8" x="298.638" y="252" xlink:href="#m6645904764"/></g></g><g id="text_7"><g transform="translate(289.094258 266.598437)scale(0.1 -0.1)"><use xlink:href="#DejaVuSans-49"/><use x="63.623" xlink:href="#DejaVuSans-53"/><use x="127.246" xlink:href="#DejaVuSans-48"/></g></g></g><g id="xtick_8"><g id="line2d_8"><g><use style="stroke:#000;stroke-width:.8" x="336.875" y="252" xlink:href="#m6645904764"/></g></g><g id="text_8"><g transform="translate(327.330896 266.598437)scale(0.1 -0.1)"><use xlink:href="#DejaVuSans-49"/><use x="63.623" xlink:href="#DejaVuSans-55"/><use x="127.246" xlink:href="#DejaVuSans-53"/></g></g></g><g id="xtick_9"><g id="line2d_9"><g><use style="stroke:#000;stroke-width:.8" x="375.111" y="252" xlink:href="#m6645904764"/></g></g><g id="text_9"><g transform="translate(365.567534 266.598437)scale(0.1 -0.1)"><use xlink:href="#DejaVuSans-50"/><use x="63.623" xlink:href="#DejaVuSans-48"/><use x="127.246" xlink:href="#DejaVuSans-48"/></g></g></g><g id="text_10"><g transform="translate(206.171875 280.276563)scale(0.1 -0.1)"><defs><path id="DejaVuSans-101" d="M 56.203125 29.59375 L 56.203125 25.203125 L 14.890625 25.203125 Q 15.484375 15.921875 20.484375 11.0625 Q 25.484375 6.203125 34.421875 6.203125 Q 39.59375 6.203125 44.453125 7.46875 Q 49.3125 8.734375 54.109375 11.28125 L 54.109375 2.78125 Q 49.265625 0.734375 44.1875 -0.34375 Q 39.109375 -1.421875 33.890625 -1.421875 Q 20.796875 -1.421875 13.15625 6.1875 Q 5.515625 13.8125 5.515625 26.8125 Q 5.515625 40.234375 12.765625 48.109375 Q 20.015625 56 32.328125 56 Q 43.359375 56 49.78125 48.890625 Q 56.203125 41.796875 56.203125 29.59375 z M 47.21875 32.234375 Q 47.125 39.59375 43.09375 43.984375 Q 39.0625 48.390625 32.421875 48.390625 Q 24.90625 48.390625 20.390625 44.140625 Q 15.875 39.890625 15.1875 32.171875 z"/><path id="DejaVuSans-112" d="M 18.109375 8.203125 L 18.109375 -20.796875 L 9.078125 -20.796875 L 9.078125 54.6875 L 18.109375 54.6875 L 18.109375 46.390625 Q 20.953125 51.265625 25.265625 53.625 Q 29.59375 56 35.59375 56 Q 45.5625 56 51.78125 48.09375 Q 58.015625 40.1875 58.015625 27.296875 Q 58.015625 14.40625 51.78125 6.484375 Q 45.5625 -1.421875 35.59375 -1.421875 Q 29.59375 -1.421875 25.265625 0.953125 Q 20.953125 3.328125 18.109375 8.203125 z M 48.6875 27.296875 Q 48.6875 37.203125 44.609375 42.84375 Q 40.53125 48.484375 33.40625 48.484375 Q 26.265625 48.484375 22.1875 42.84375 Q 18.109375 37.203125 18.109375 27.296875 Q 18.109375 17.390625 22.1875 11.75 Q 26.265625 6.109375 33.40625 6.109375 Q 40.53125 6.109375 44.609375 11.75 Q 48.6875 17.390625 48.6875 27.296875 z"/><path id="DejaVuSans-111" d="M 30.609375 48.390625 Q 23.390625 48.390625 19.1875 42.75 Q 14.984375 37.109375 14.984375 27.296875 Q 14.984375 17.484375 19.15625 11.84375 Q 23.34375 6.203125 30.609375 6.203125 Q 37.796875 6.203125 41.984375 11.859375 Q 46.1875 17.53125 46.1875 27.296875 Q 46.1875 37.015625 41.984375 42.703125 Q 37.796875 48.390625 30.609375 48.390625 z M 30.609375 56 Q 42.328125 56 49.015625 48.375 Q 55.71875 40.765625 55.71875 27.296875 Q 55.71875 13.875 49.015625 6.21875 Q 42.328125 -1.421875 30.609375 -1.421875 Q 18.84375 -1.421875 12.171875 6.21875 Q 5.515625 13.875 5.515625 27.296875 Q 5.515625 40.765625 12.171875 48.375 Q 18.84375 56 30.609375 56 z"/><path id="DejaVuSans-99" d="M 48.78125 52.59375 L 48.78125 44.1875 Q 44.96875 46.296875 41.140625 47.34375 Q 37.3125 48.390625 33.40625 48.390625 Q 24.65625 48.390625 19.8125 42.84375 Q 14.984375 37.3125 14.984375 27.296875 Q 14.984375 17.28125 19.8125 11.734375 Q 24.65625 6.203125 33.40625 6.203125 Q 37.3125 6.203125 41.140625 7.25 Q 44.96875 8.296875 48.78125 10.40625 L 48.78125 2.09375 Q 45.015625 0.34375 40.984375 -0.53125 Q 36.96875 -1.421875 32.421875 -1.421875 Q 20.0625 -1.421875 12.78125 6.34375 Q 5.515625 14.109375 5.515625 27.296875 Q 5.515625 40.671875 12.859375 48.328125 Q 20.21875 56 33.015625 56 Q 37.15625 56 41.109375 55.140625 Q 45.0625 54.296875 48.78125 52.59375 z"/><path id="DejaVuSans-104" d="M 54.890625 33.015625 L 54.890625 0 L 45.90625 0 L 45.90625 32.71875 Q 45.90625 40.484375 42.875 44.328125 Q 39.84375 48.1875 33.796875 48.1875 Q 26.515625 48.1875 22.3125 43.546875 Q 18.109375 38.921875 18.109375 30.90625 L 18.109375 0 L 9.078125 0 L 9.078125 75.984375 L 18.109375 75.984375 L 18.109375 46.1875 Q 21.34375 51.125 25.703125 53.5625 Q 30.078125 56 35.796875 56 Q 45.21875 56 50.046875 50.171875 Q 54.890625 44.34375 54.890625 33.015625 z"/></defs><use xlink:href="#DejaVuSans-101"/><use x="61.523" xlink:href="#DejaVuSans-112"/><use x="125" xlink:href="#DejaVuSans-111"/><use x="186.182" xlink:href="#DejaVuSans-99"/><use x="241.162" xlink:href="#DejaVuSans-104"/></g></g></g><g id="matplotlib.axis_2"><g id="ytick_1"><g id="line2d_10"><defs><path id="m110eeaac37" d="M 0 0 L -3.5 0" style="stroke:#000;stroke-width:.8"/></defs><g><use style="stroke:#000;stroke-width:.8" x="54" y="246.882" xlink:href="#m110eeaac37"/></g></g><g id="text_11"><g transform="translate(31.096875 250.681602)scale(0.1 -0.1)"><defs><path id="DejaVuSans-46" d="M 10.6875 12.40625 L 21 12.40625 L 21 0 L 10.6875 0 z"/></defs><use xlink:href="#DejaVuSans-48"/><use x="63.623" xlink:href="#DejaVuSans-46"/><use x="95.41" xlink:href="#DejaVuSans-48"/></g></g></g><g id="ytick_2"><g id="line2d_11"><g><use style="stroke:#000;stroke-width:.8" x="54" y="217.259" xlink:href="#m110eeaac37"/></g></g><g id="text_12"><g transform="translate(31.096875 221.058103)scale(0.1 -0.1)"><use xlink:href="#DejaVuSans-48"/><use x="63.623" xlink:href="#DejaVuSans-46"/><use x="95.41" xlink:href="#DejaVuSans-50"/></g></g></g><g id="ytick_3"><g id="line2d_12"><g><use style="stroke:#000;stroke-width:.8" x="54" y="187.635" xlink:href="#m110eeaac37"/></g></g><g id="text_13"><g transform="translate(31.096875 191.434604)scale(0.1 -0.1)"><defs><path id="DejaVuSans-52" d="M 37.796875 64.3125 L 12.890625 25.390625 L 37.796875 25.390625 z M 35.203125 72.90625 L 47.609375 72.90625 L 47.609375 25.390625 L 58.015625 25.390625 L 58.015625 17.1875 L 47.609375 17.1875 L 47.609375 0 L 37.796875 0 L 37.796875 17.1875 L 4.890625 17.1875 L 4.890625 26.703125 z"/></defs><use xlink:href="#DejaVuSans-48"/><use x="63.623" xlink:href="#DejaVuSans-46"/><use x="95.41" xlink:href="#DejaVuSans-52"/></g></g></g><g id="ytick_4"><g id="line2d_13"><g><use style="stroke:#000;stroke-width:.8" x="54" y="158.012" xlink:href="#m110eeaac37"/></g></g><g id="text_14"><g transform="translate(31.096875 161.811106)scale(0.1 -0.1)"><defs><path id="DejaVuSans-54" d="M 33.015625 40.375 Q 26.375 40.375 22.484375 35.828125 Q 18.609375 31.296875 18.609375 23.390625 Q 18.609375 15.53125 22.484375 10.953125 Q 26.375 6.390625 33.015625 6.390625 Q 39.65625 6.390625 43.53125 10.953125 Q 47.40625 15.53125 47.40625 23.390625 Q 47.40625 31.296875 43.53125 35.828125 Q 39.65625 40.375 33.015625 40.375 z M 52.59375 71.296875 L 52.59375 62.3125 Q 48.875 64.0625 45.09375 64.984375 Q 41.3125 65.921875 37.59375 65.921875 Q 27.828125 65.921875 22.671875 59.328125 Q 17.53125 52.734375 16.796875 39.40625 Q 19.671875 43.65625 24.015625 45.921875 Q 28.375 48.1875 33.59375 48.1875 Q 44.578125 48.1875 50.953125 41.515625 Q 57.328125 34.859375 57.328125 23.390625 Q 57.328125 12.15625 50.6875 5.359375 Q 44.046875 -1.421875 33.015625 -1.421875 Q 20.359375 -1.421875 13.671875 8.265625 Q 6.984375 17.96875 6.984375 36.375 Q 6.984375 53.65625 15.1875 63.9375 Q 23.390625 74.21875 37.203125 74.21875 Q 40.921875 74.21875 44.703125 73.484375 Q 48.484375 72.75 52.59375 71.296875 z"/></defs><use xlink:href="#DejaVuSans-48"/><use x="63.623" xlink:href="#DejaVuSans-46"/><use x="95.41" xlink:href="#DejaVuSans-54"/></g></g></g><g id="ytick_5"><g id="line2d_14"><g><use style="stroke:#000;stroke-width:.8" x="54" y="128.388" xlink:href="#m110eeaac37"/></g></g><g id="text_15"><g transform="translate(31.096875 132.187607)scale(0.1 -0.1)"><defs><path id="DejaVuSans-56" d="M 31.78125 34.625 Q 24.75 34.625 20.71875 30.859375 Q 16.703125 27.09375 16.703125 20.515625 Q 16.703125 13.921875 20.71875 10.15625 Q 24.75 6.390625 31.78125 6.390625 Q 38.8125 6.390625 42.859375 10.171875 Q 46.921875 13.96875 46.921875 20.515625 Q 46.921875 27.09375 42.890625 30.859375 Q 38.875 34.625 31.78125 34.625 z M 21.921875 38.8125 Q 15.578125 40.375 12.03125 44.71875 Q 8.5 49.078125 8.5 55.328125 Q 8.5 64.0625 14.71875 69.140625 Q 20.953125 74.21875 31.78125 74.21875 Q 42.671875 74.21875 48.875 69.140625 Q 55.078125 64.0625 55.078125 55.328125 Q 55.078125 49.078125 51.53125 44.71875 Q 48 40.375 41.703125 38.8125 Q 48.828125 37.15625 52.796875 32.3125 Q 56.78125 27.484375 56.78125 20.515625 Q 56.78125 9.90625 50.3125 4.234375 Q 43.84375 -1.421875 31.78125 -1.421875 Q 19.734375 -1.421875 13.25 4.234375 Q 6.78125 9.90625 6.78125 20.515625 Q 6.78125 27.484375 10.78125 32.3125 Q 14.796875 37.15625 21.921875 38.8125 z M 18.3125 54.390625 Q 18.3125 48.734375 21.84375 45.5625 Q 25.390625 42.390625 31.78125 42.390625 Q 38.140625 42.390625 41.71875 45.5625 Q 45.3125 48.734375 45.3125 54.390625 Q 45.3125 60.0625 41.71875 63.234375 Q 38.140625 66.40625 31.78125 66.40625 Q 25.390625 66.40625 21.84375 63.234375 Q 18.3125 60.0625 18.3125 54.390625 z"/></defs><use xlink:href="#DejaVuSans-48"/><use x="63.623" xlink:href="#DejaVuSans-46"/><use x="95.41" xlink:href="#DejaVuSans-56"/></g></g></g><g id="ytick_6"><g id="line2d_15"><g><use style="stroke:#000;stroke-width:.8" x="54" y="98.765" xlink:href="#m110eeaac37"/></g></g><g id="text_16"><g transform="translate(31.096875 102.564109)scale(0.1 -0.1)"><use xlink:href="#DejaVuSans-49"/><use x="63.623" xlink:href="#DejaVuSans-46"/><use x="95.41" xlink:href="#DejaVuSans-48"/></g></g></g><g id="ytick_7"><g id="line2d_16"><g><use style="stroke:#000;stroke-width:.8" x="54" y="69.141" xlink:href="#m110eeaac37"/></g></g><g id="text_17"><g transform="translate(31.096875 72.94061)scale(0.1 -0.1)"><use xlink:href="#DejaVuSans-49"/><use x="63.623" xlink:href="#DejaVuSans-46"/><use x="95.41" xlink:href="#DejaVuSans-50"/></g></g></g><g id="ytick_8"><g id="line2d_17"><g><use style="stroke:#000;stroke-width:.8" x="54" y="39.518" xlink:href="#m110eeaac37"/></g></g><g id="text_18"><g transform="translate(31.096875 43.317111)scale(0.1 -0.1)"><use xlink:href="#DejaVuSans-49"/><use x="63.623" xlink:href="#DejaVuSans-46"/><use x="95.41" xlink:href="#DejaVuSans-52"/></g></g></g><g id="text_19"><g transform="translate(25.017187 152.937813)rotate(-90)scale(0.1 -0.1)"><defs><path id="DejaVuSans-108" d="M 9.421875 75.984375 L 18.40625 75.984375 L 18.40625 0 L 9.421875 0 z"/><path id="DejaVuSans-115" d="M 44.28125 53.078125 L 44.28125 44.578125 Q 40.484375 46.53125 36.375 47.5 Q 32.28125 48.484375 27.875 48.484375 Q 21.1875 48.484375 17.84375 46.4375 Q 14.5 44.390625 14.5 40.28125 Q 14.5 37.15625 16.890625 35.375 Q 19.28125 33.59375 26.515625 31.984375 L 29.59375 31.296875 Q 39.15625 29.25 43.1875 25.515625 Q 47.21875 21.78125 47.21875 15.09375 Q 47.21875 7.46875 41.1875 3.015625 Q 35.15625 -1.421875 24.609375 -1.421875 Q 20.21875 -1.421875 15.453125 -0.5625 Q 10.6875 0.296875 5.421875 2 L 5.421875 11.28125 Q 10.40625 8.6875 15.234375 7.390625 Q 20.0625 6.109375 24.8125 6.109375 Q 31.15625 6.109375 34.5625 8.28125 Q 37.984375 10.453125 37.984375 14.40625 Q 37.984375 18.0625 35.515625 20.015625 Q 33.0625 21.96875 24.703125 23.78125 L 21.578125 24.515625 Q 13.234375 26.265625 9.515625 29.90625 Q 5.8125 33.546875 5.8125 39.890625 Q 5.8125 47.609375 11.28125 51.796875 Q 16.75 56 26.8125 56 Q 31.78125 56 36.171875 55.265625 Q 40.578125 54.546875 44.28125 53.078125 z"/></defs><use xlink:href="#DejaVuSans-108"/><use x="27.783" xlink:href="#DejaVuSans-111"/><use x="88.965" xlink:href="#DejaVuSans-115"/><use x="141.064" xlink:href="#DejaVuSans-115"/></g></g></g><g id="line2d_18"><path d="M 69.218182 199.181349 L 70.747647 200.370153 L 72.277113 201.259284 L 73.806578 202.002298 L 76.865509 203.085543 L 79.92444 203.899571 L 82.983371 204.563107 L 87.571768 205.290587 L 93.68963 206.074392 L 110.513751 207.380764 L 121.220009 207.934795 L 142.632526 208.727642 L 171.692371 209.476875 L 182.39863 209.646469 L 193.104888 209.854551 L 200.752216 209.963544 L 206.870078 210.061514 L 223.694198 210.297511 L 252.754043 210.621165 L 257.342439 210.692455 L 261.930836 210.721586 L 272.637095 210.834268 L 280.284422 210.878301 L 289.461215 210.978159 L 321.579991 211.21996 L 361.346094 211.481011 L 370.522887 211.534235 L 373.581818 211.571606 L 373.581818 211.571606" clip-path="url(#p4ebf216a6a)" style="fill:none;stroke:red;stroke-linecap:square;stroke-width:1.5"/></g><g id="line2d_19"><path d="M 69.218182 44.443636 L 70.747647 167.030061 L 72.277113 185.55966 L 73.806578 192.413737 L 75.336044 196.103438 L 76.865509 198.500341 L 78.394975 200.257462 L 79.92444 201.619775 L 81.453906 202.773426 L 84.512837 204.650572 L 87.571768 206.330685 L 96.748561 210.721288 L 104.395889 214.096533 L 108.984285 215.958877 L 116.631613 218.700124 L 124.27894 221.106297 L 136.514664 224.300673 L 142.632526 225.715606 L 150.279854 227.222025 L 157.927181 228.608689 L 171.692371 230.701909 L 180.869164 231.894562 L 188.516492 232.820115 L 196.163819 233.586466 L 202.281681 234.193644 L 225.223664 236.086714 L 252.754043 237.842914 L 289.461215 239.564908 L 330.756784 240.998209 L 361.346094 241.833755 L 373.581818 242.116364 L 373.581818 242.116364" clip-path="url(#p4ebf216a6a)" style="fill:none;stroke:green;stroke-linecap:square;stroke-width:1.5"/></g><g id="patch_3"><path d="M 54 252 L 54 34.56" style="fill:none;stroke:#000;stroke-linecap:square;stroke-linejoin:miter;stroke-width:.8"/></g><g id="patch_4"><path d="M 388.8 252 L 388.8 34.56" style="fill:none;stroke:#000;stroke-linecap:square;stroke-linejoin:miter;stroke-width:.8"/></g><g id="patch_5"><path d="M 54 252 L 388.8 252" style="fill:none;stroke:#000;stroke-linecap:square;stroke-linejoin:miter;stroke-width:.8"/></g><g id="patch_6"><path d="M 54 34.56 L 388.8 34.56" style="fill:none;stroke:#000;stroke-linecap:square;stroke-linejoin:miter;stroke-width:.8"/></g><g id="text_20"><g transform="translate(100.940625 28.56)scale(0.12 -0.12)"><defs><path id="DejaVuSans-84" d="M -0.296875 72.90625 L 61.375 72.90625 L 61.375 64.59375 L 35.5 64.59375 L 35.5 0 L 25.59375 0 L 25.59375 64.59375 L -0.296875 64.59375 z"/><path id="DejaVuSans-114" d="M 41.109375 46.296875 Q 39.59375 47.171875 37.8125 47.578125 Q 36.03125 48 33.890625 48 Q 26.265625 48 22.1875 43.046875 Q 18.109375 38.09375 18.109375 28.8125 L 18.109375 0 L 9.078125 0 L 9.078125 54.6875 L 18.109375 54.6875 L 18.109375 46.1875 Q 20.953125 51.171875 25.484375 53.578125 Q 30.03125 56 36.53125 56 Q 37.453125 56 38.578125 55.875 Q 39.703125 55.765625 41.0625 55.515625 z"/><path id="DejaVuSans-97" d="M 34.28125 27.484375 Q 23.390625 27.484375 19.1875 25 Q 14.984375 22.515625 14.984375 16.5 Q 14.984375 11.71875 18.140625 8.90625 Q 21.296875 6.109375 26.703125 6.109375 Q 34.1875 6.109375 38.703125 11.40625 Q 43.21875 16.703125 43.21875 25.484375 L 43.21875 27.484375 z M 52.203125 31.203125 L 52.203125 0 L 43.21875 0 L 43.21875 8.296875 Q 40.140625 3.328125 35.546875 0.953125 Q 30.953125 -1.421875 24.3125 -1.421875 Q 15.921875 -1.421875 10.953125 3.296875 Q 6 8.015625 6 15.921875 Q 6 25.140625 12.171875 29.828125 Q 18.359375 34.515625 30.609375 34.515625 L 43.21875 34.515625 L 43.21875 35.40625 Q 43.21875 41.609375 39.140625 45 Q 35.0625 48.390625 27.6875 48.390625 Q 23 48.390625 18.546875 47.265625 Q 14.109375 46.140625 10.015625 43.890625 L 10.015625 52.203125 Q 14.9375 54.109375 19.578125 55.046875 Q 24.21875 56 28.609375 56 Q 40.484375 56 46.34375 49.84375 Q 52.203125 43.703125 52.203125 31.203125 z"/><path id="DejaVuSans-105" d="M 9.421875 54.6875 L 18.40625 54.6875 L 18.40625 0 L 9.421875 0 z M 9.421875 75.984375 L 18.40625 75.984375 L 18.40625 64.59375 L 9.421875 64.59375 z"/><path id="DejaVuSans-110" d="M 54.890625 33.015625 L 54.890625 0 L 45.90625 0 L 45.90625 32.71875 Q 45.90625 40.484375 42.875 44.328125 Q 39.84375 48.1875 33.796875 48.1875 Q 26.515625 48.1875 22.3125 43.546875 Q 18.109375 38.921875 18.109375 30.90625 L 18.109375 0 L 9.078125 0 L 9.078125 54.6875 L 18.109375 54.6875 L 18.109375 46.1875 Q 21.34375 51.125 25.703125 53.5625 Q 30.078125 56 35.796875 56 Q 45.21875 56 50.046875 50.171875 Q 54.890625 44.34375 54.890625 33.015625 z"/><path id="DejaVuSans-103" d="M 45.40625 27.984375 Q 45.40625 37.75 41.375 43.109375 Q 37.359375 48.484375 30.078125 48.484375 Q 22.859375 48.484375 18.828125 43.109375 Q 14.796875 37.75 14.796875 27.984375 Q 14.796875 18.265625 18.828125 12.890625 Q 22.859375 7.515625 30.078125 7.515625 Q 37.359375 7.515625 41.375 12.890625 Q 45.40625 18.265625 45.40625 27.984375 z M 54.390625 6.78125 Q 54.390625 -7.171875 48.1875 -13.984375 Q 42 -20.796875 29.203125 -20.796875 Q 24.46875 -20.796875 20.265625 -20.09375 Q 16.0625 -19.390625 12.109375 -17.921875 L 12.109375 -9.1875 Q 16.0625 -11.328125 19.921875 -12.34375 Q 23.78125 -13.375 27.78125 -13.375 Q 36.625 -13.375 41.015625 -8.765625 Q 45.40625 -4.15625 45.40625 5.171875 L 45.40625 9.625 Q 42.625 4.78125 38.28125 2.390625 Q 33.9375 0 27.875 0 Q 17.828125 0 11.671875 7.65625 Q 5.515625 15.328125 5.515625 27.984375 Q 5.515625 40.671875 11.671875 48.328125 Q 17.828125 56 27.875 56 Q 33.9375 56 38.28125 53.609375 Q 42.625 51.21875 45.40625 46.390625 L 45.40625 54.6875 L 54.390625 54.6875 z"/><path id="DejaVuSans-32"/><path id="DejaVuSans-102" d="M 37.109375 75.984375 L 37.109375 68.5 L 28.515625 68.5 Q 23.6875 68.5 21.796875 66.546875 Q 19.921875 64.59375 19.921875 59.515625 L 19.921875 54.6875 L 34.71875 54.6875 L 34.71875 47.703125 L 19.921875 47.703125 L 19.921875 0 L 10.890625 0 L 10.890625 47.703125 L 2.296875 47.703125 L 2.296875 54.6875 L 10.890625 54.6875 L 10.890625 58.5 Q 10.890625 67.625 15.140625 71.796875 Q 19.390625 75.984375 28.609375 75.984375 z"/><path id="DejaVuSans-100" d="M 45.40625 46.390625 L 45.40625 75.984375 L 54.390625 75.984375 L 54.390625 0 L 45.40625 0 L 45.40625 8.203125 Q 42.578125 3.328125 38.25 0.953125 Q 33.9375 -1.421875 27.875 -1.421875 Q 17.96875 -1.421875 11.734375 6.484375 Q 5.515625 14.40625 5.515625 27.296875 Q 5.515625 40.1875 11.734375 48.09375 Q 17.96875 56 27.875 56 Q 33.9375 56 38.25 53.625 Q 42.578125 51.265625 45.40625 46.390625 z M 14.796875 27.296875 Q 14.796875 17.390625 18.875 11.75 Q 22.953125 6.109375 30.078125 6.109375 Q 37.203125 6.109375 41.296875 11.75 Q 45.40625 17.390625 45.40625 27.296875 Q 45.40625 37.203125 41.296875 42.84375 Q 37.203125 48.484375 30.078125 48.484375 Q 22.953125 48.484375 18.875 42.84375 Q 14.796875 37.203125 14.796875 27.296875 z"/><path id="DejaVuSans-121" d="M 32.171875 -5.078125 Q 28.375 -14.84375 24.75 -17.8125 Q 21.140625 -20.796875 15.09375 -20.796875 L 7.90625 -20.796875 L 7.90625 -13.28125 L 13.1875 -13.28125 Q 16.890625 -13.28125 18.9375 -11.515625 Q 21 -9.765625 23.484375 -3.21875 L 25.09375 0.875 L 2.984375 54.6875 L 12.5 54.6875 L 29.59375 11.921875 L 46.6875 54.6875 L 56.203125 54.6875 z"/></defs><use xlink:href="#DejaVuSans-84"/><use x="46.334" xlink:href="#DejaVuSans-114"/><use x="87.447" xlink:href="#DejaVuSans-97"/><use x="148.727" xlink:href="#DejaVuSans-105"/><use x="176.51" xlink:href="#DejaVuSans-110"/><use x="239.889" xlink:href="#DejaVuSans-105"/><use x="267.672" xlink:href="#DejaVuSans-110"/><use x="331.051" xlink:href="#DejaVuSans-103"/><use x="394.527" xlink:href="#DejaVuSans-32"/><use x="426.314" xlink:href="#DejaVuSans-108"/><use x="454.098" xlink:href="#DejaVuSans-111"/><use x="515.279" xlink:href="#DejaVuSans-115"/><use x="567.379" xlink:href="#DejaVuSans-115"/><use x="619.479" xlink:href="#DejaVuSans-32"/><use x="651.266" xlink:href="#DejaVuSans-102"/><use x="686.471" xlink:href="#DejaVuSans-111"/><use x="747.652" xlink:href="#DejaVuSans-114"/><use x="788.766" xlink:href="#DejaVuSans-32"/><use x="820.553" xlink:href="#DejaVuSans-49"/><use x="884.176" xlink:href="#DejaVuSans-32"/><use x="915.963" xlink:href="#DejaVuSans-97"/><use x="977.242" xlink:href="#DejaVuSans-110"/><use x="1040.621" xlink:href="#DejaVuSans-100"/><use x="1104.098" xlink:href="#DejaVuSans-32"/><use x="1135.885" xlink:href="#DejaVuSans-50"/><use x="1199.508" xlink:href="#DejaVuSans-32"/><use x="1231.295" xlink:href="#DejaVuSans-108"/><use x="1259.078" xlink:href="#DejaVuSans-97"/><use x="1320.357" xlink:href="#DejaVuSans-121"/><use x="1379.537" xlink:href="#DejaVuSans-101"/><use x="1441.061" xlink:href="#DejaVuSans-114"/><use x="1482.174" xlink:href="#DejaVuSans-32"/><use x="1513.961" xlink:href="#DejaVuSans-99"/><use x="1568.941" xlink:href="#DejaVuSans-108"/><use x="1596.725" xlink:href="#DejaVuSans-97"/><use x="1658.004" xlink:href="#DejaVuSans-115"/><use x="1710.104" xlink:href="#DejaVuSans-115"/><use x="1762.203" xlink:href="#DejaVuSans-105"/><use x="1789.986" xlink:href="#DejaVuSans-102"/><use x="1825.191" xlink:href="#DejaVuSans-105"/><use x="1852.975" xlink:href="#DejaVuSans-101"/><use x="1914.498" xlink:href="#DejaVuSans-114"/><use x="1955.611" xlink:href="#DejaVuSans-115"/></g></g><g id="legend_1"><g id="patch_7"><path d="M 309.960938 71.91625 L 381.8 71.91625 Q 383.8 71.91625 383.8 69.91625 L 383.8 41.56 Q 383.8 39.56 381.8 39.56 L 309.960938 39.56 Q 307.960938 39.56 307.960938 41.56 L 307.960938 69.91625 Q 307.960938 71.91625 309.960938 71.91625 z" style="fill:#fff;opacity:.8;stroke:#ccc;stroke-linejoin:miter"/></g><g id="line2d_20"><path d="M 311.960938 47.658437 L 331.960938 47.658437" style="fill:none;stroke:red;stroke-linecap:square;stroke-width:1.5"/></g><g id="text_21"><g transform="translate(339.960938 51.158437)scale(0.1 -0.1)"><use xlink:href="#DejaVuSans-49"/><use x="63.623" xlink:href="#DejaVuSans-32"/><use x="95.41" xlink:href="#DejaVuSans-108"/><use x="123.193" xlink:href="#DejaVuSans-97"/><use x="184.473" xlink:href="#DejaVuSans-121"/><use x="243.652" xlink:href="#DejaVuSans-101"/><use x="305.176" xlink:href="#DejaVuSans-114"/></g></g><g id="line2d_22"><path d="M 311.960938 62.336562 L 331.960938 62.336562" style="fill:none;stroke:green;stroke-linecap:square;stroke-width:1.5"/></g><g id="text_22"><g transform="translate(339.960938 65.836562)scale(0.1 -0.1)"><use xlink:href="#DejaVuSans-50"/><use x="63.623" xlink:href="#DejaVuSans-32"/><use x="95.41" xlink:href="#DejaVuSans-108"/><use x="123.193" xlink:href="#DejaVuSans-97"/><use x="184.473" xlink:href="#DejaVuSans-121"/><use x="243.652" xlink:href="#DejaVuSans-101"/><use x="305.176" xlink:href="#DejaVuSans-114"/><use x="346.289" xlink:href="#DejaVuSans-115"/></g></g></g></g></g><defs><clipPath id="p4ebf216a6a"><rect width="334.8" height="217.44" x="54" y="34.56"/></clipPath></defs></svg>