<svg xmlns="http://www.w3.org/2000/svg" xmlns:xlink="http://www.w3.org/1999/xlink" width="500" height="420" overflow="hidden"><defs><clipPath id="clip0"><rect width="500" height="420" x="187" y="150"/></clipPath></defs><g clip-path="url(#clip0)" transform="translate(-187 -150)"><path fill="#000005" d="M219.5 561.333 671.793 561.333 671.793 561.667 219.5 561.667ZM670.46 557.5 678.46 561.5 670.46 565.5Z"/><path fill="#F05C75" fill-rule="evenodd" stroke="#000005" stroke-linejoin="round" stroke-miterlimit="10" stroke-width=".333" d="M565.889 442.45C564.679 434.068 570.91 426.349 579.807 425.209 583.412 424.747 587.077 425.437 590.216 427.17 593.542 421.263 601.315 419.018 607.577 422.156 608.672 422.704 609.677 423.4 610.561 424.22 613.151 419.323 619.462 417.334 624.655 419.777 626.092 420.453 627.346 421.431 628.32 422.635 632.496 418.004 639.874 417.432 644.8 421.357 646.871 423.007 648.266 425.282 648.747 427.793 655.589 429.552 659.625 436.214 657.762 442.674 657.605 443.217 657.409 443.749 657.174 444.266 662.661 450.997 661.318 460.644 654.174 465.813 651.95 467.423 649.323 468.465 646.548 468.838 646.486 476.08 640.201 481.903 632.509 481.845 629.94 481.825 627.426 481.137 625.246 479.856 622.645 487.974 613.57 492.562 604.978 490.104 601.377 489.074 598.266 486.896 596.175 483.94 587.378 488.94 575.96 486.251 570.671 477.933 570.605 477.828 570.539 477.723 570.475 477.617 564.717 478.252 559.502 474.381 558.827 468.97 558.466 466.087 559.477 463.2 561.588 461.08 556.603 458.315 554.929 452.245 557.848 447.523 559.532 444.799 562.486 442.998 565.801 442.674Z"/><path fill="none" fill-rule="evenodd" stroke="#000005" stroke-linejoin="round" stroke-miterlimit="10" stroke-width=".333" d="M567.798 462.128C565.67 462.285 563.542 461.822 561.7 460.8M573.179 476.665C572.323 476.986 571.426 477.2 570.51 477.301M596.169 483.65C595.526 482.74 594.987 481.768 594.562 480.75M625.898 476.418C625.804 477.497 625.589 478.564 625.256 479.6M638.662 456.757C643.488 458.97 646.533 463.596 646.49 468.649M657.125 444.09C656.343 445.811 655.15 447.337 653.639 448.55M648.762 427.543C648.895 428.238 648.956 428.944 648.946 429.649M626.503 425.087C626.957 424.115 627.558 423.21 628.288 422.401M609.802 426.367C609.988 425.564 610.278 424.786 610.667 424.05M590.204 427.153C591.34 427.78 592.39 428.535 593.333 429.401M566.435 444.815C566.188 444.042 566.005 443.251 565.889 442.451"/><path fill="#000005" d="M0.166667-5.31811e-08 0.16677 322.357-0.166564 322.357-0.166667 5.31811e-08ZM4.0001 321.023 0.000104987 329.023-3.9999 321.023Z" transform="matrix(1 0 0 -1 219.5 560.523)"/><path fill="#F05C75" fill-rule="evenodd" stroke="#000005" stroke-linejoin="round" stroke-miterlimit="10" stroke-width=".333" d="M249.889 286.45C248.679 278.068 254.91 270.349 263.807 269.209 267.412 268.747 271.077 269.437 274.216 271.17 277.542 265.263 285.315 263.018 291.577 266.156 292.672 266.704 293.677 267.4 294.561 268.22 297.151 263.323 303.462 261.334 308.655 263.777 310.092 264.453 311.346 265.431 312.32 266.635 316.496 262.004 323.874 261.432 328.8 265.357 330.871 267.007 332.266 269.282 332.747 271.793 339.589 273.552 343.625 280.214 341.762 286.674 341.605 287.217 341.409 287.749 341.174 288.266 346.661 294.997 345.318 304.644 338.174 309.813 335.95 311.423 333.323 312.465 330.548 312.838 330.486 320.08 324.201 325.903 316.509 325.845 313.94 325.825 311.426 325.137 309.246 323.856 306.645 331.974 297.57 336.562 288.978 334.104 285.377 333.074 282.266 330.896 280.175 327.94 271.378 332.94 259.96 330.251 254.671 321.933 254.605 321.828 254.539 321.723 254.475 321.617 248.717 322.252 243.502 318.381 242.827 312.97 242.466 310.087 243.477 307.2 245.588 305.08 240.603 302.315 238.929 296.245 241.848 291.523 243.532 288.799 246.486 286.998 249.801 286.674Z"/><path fill="none" fill-rule="evenodd" stroke="#000005" stroke-linejoin="round" stroke-miterlimit="10" stroke-width=".333" d="M251.798 306.128C249.67 306.285 247.542 305.822 245.7 304.8M257.179 320.665C256.323 320.986 255.426 321.2 254.51 321.301M280.169 327.65C279.526 326.74 278.987 325.768 278.562 324.75M309.898 320.418C309.804 321.497 309.589 322.564 309.256 323.6M322.662 300.757C327.488 302.97 330.533 307.596 330.49 312.649M341.125 288.09C340.343 289.811 339.15 291.337 337.639 292.55M332.762 271.543C332.895 272.238 332.956 272.944 332.946 273.649M310.503 269.087C310.957 268.115 311.558 267.21 312.288 266.401M293.802 270.367C293.988 269.564 294.278 268.786 294.667 268.05M274.204 271.153C275.34 271.78 276.39 272.535 277.333 273.401M250.435 288.815C250.187 288.042 250.005 287.251 249.889 286.451"/><path fill="#0070C0" fill-rule="evenodd" stroke="#000005" stroke-linejoin="round" stroke-miterlimit="10" stroke-width=".333" d="M315.979 460.45C314.757 452.068 321.048 444.349 330.031 443.209 333.67 442.747 337.371 443.437 340.54 445.17 343.899 439.263 351.746 437.018 358.068 440.156 359.174 440.704 360.189 441.4 361.081 442.22 363.696 437.323 370.067 435.334 375.31 437.777 376.761 438.453 378.027 439.431 379.011 440.635 383.226 436.004 390.676 435.432 395.649 439.357 397.74 441.007 399.148 443.282 399.634 445.793 406.542 447.552 410.616 454.214 408.736 460.674 408.578 461.217 408.379 461.749 408.142 462.266 413.682 468.997 412.326 478.644 405.113 483.813 402.868 485.423 400.216 486.465 397.413 486.838 397.351 494.08 391.006 499.903 383.24 499.845 380.646 499.825 378.108 499.137 375.907 497.856 373.281 505.974 364.119 510.562 355.444 508.104 351.809 507.074 348.668 504.896 346.557 501.94 337.675 506.94 326.147 504.251 320.808 495.933 320.74 495.828 320.674 495.723 320.609 495.617 314.797 496.252 309.531 492.381 308.849 486.97 308.485 484.087 309.505 481.2 311.637 479.08 306.604 476.315 304.913 470.245 307.861 465.523 309.561 462.799 312.544 460.998 315.891 460.674Z"/><path fill="none" fill-rule="evenodd" stroke="#000005" stroke-linejoin="round" stroke-miterlimit="10" stroke-width=".333" d="M317.907 480.128C315.758 480.285 313.61 479.822 311.75 478.8M323.339 494.665C322.475 494.986 321.569 495.2 320.645 495.301M346.551 501.65C345.901 500.74 345.357 499.768 344.928 498.75M376.566 494.418C376.47 495.497 376.253 496.564 375.918 497.6M389.452 474.757C394.324 476.97 397.399 481.596 397.355 486.649M408.092 462.09C407.303 463.811 406.099 465.337 404.574 466.55M399.649 445.543C399.783 446.238 399.845 446.944 399.834 447.649M377.176 443.087C377.634 442.115 378.241 441.21 378.978 440.401M360.315 444.367C360.502 443.564 360.795 442.786 361.188 442.05M340.528 445.153C341.675 445.78 342.736 446.535 343.687 447.401M316.531 462.815C316.281 462.042 316.096 461.251 315.98 460.451"/><path fill="#0070C0" fill-rule="evenodd" stroke="#000005" stroke-linejoin="round" stroke-miterlimit="10" stroke-width=".333" d="M518.889 255.45C517.679 247.068 523.91 239.349 532.807 238.209 536.412 237.747 540.077 238.437 543.216 240.17 546.542 234.263 554.315 232.018 560.577 235.156 561.672 235.704 562.677 236.4 563.561 237.22 566.151 232.323 572.462 230.334 577.655 232.777 579.092 233.453 580.346 234.43 581.32 235.635 585.496 231.004 592.874 230.432 597.8 234.357 599.871 236.007 601.266 238.282 601.747 240.793 608.589 242.552 612.625 249.214 610.762 255.674 610.605 256.217 610.409 256.749 610.174 257.266 615.661 263.997 614.318 273.644 607.174 278.813 604.95 280.423 602.323 281.465 599.548 281.838 599.486 289.08 593.201 294.903 585.509 294.845 582.94 294.825 580.426 294.137 578.246 292.856 575.645 300.974 566.57 305.562 557.978 303.104 554.377 302.074 551.266 299.896 549.175 296.94 540.378 301.94 528.96 299.251 523.671 290.933 523.605 290.828 523.539 290.723 523.475 290.617 517.717 291.252 512.502 287.381 511.827 281.97 511.466 279.087 512.477 276.2 514.588 274.08 509.603 271.315 507.929 265.245 510.848 260.523 512.532 257.799 515.486 255.998 518.801 255.674Z"/><path fill="none" fill-rule="evenodd" stroke="#000005" stroke-linejoin="round" stroke-miterlimit="10" stroke-width=".333" d="M520.798 275.128C518.67 275.285 516.542 274.822 514.7 273.8M526.179 289.665C525.323 289.986 524.426 290.2 523.51 290.301M549.169 296.65C548.526 295.74 547.987 294.768 547.562 293.75M578.898 289.418C578.804 290.497 578.589 291.564 578.256 292.6M591.662 269.757C596.488 271.97 599.533 276.596 599.49 281.649M610.125 257.09C609.343 258.811 608.15 260.337 606.639 261.55M601.762 240.543C601.895 241.238 601.956 241.944 601.946 242.649M579.503 238.087C579.957 237.115 580.558 236.21 581.288 235.401M562.802 239.367C562.988 238.564 563.278 237.786 563.667 237.05M543.204 240.153C544.34 240.78 545.39 241.535 546.333 242.401M519.435 257.815C519.188 257.042 519.005 256.251 518.889 255.451"/><path fill="#902D06" fill-rule="evenodd" stroke="#000005" stroke-linejoin="round" stroke-miterlimit="10" stroke-width="1.333" d="M0 0 367.601 378.801" transform="matrix(1 0 0 -1 188.5 537.301)"/><text fill="#000005" font-family="Arial,Arial_MSFontService,sans-serif" font-size="43" font-weight="400" transform="translate(482.04 204)">?</text></g></svg>