<svg width="1021" height="172" xmlns="http://www.w3.org/2000/svg" xmlns:xlink="http://www.w3.org/1999/xlink" overflow="hidden"><defs><clipPath id="clip0"><rect x="179" y="509" width="1021" height="172"/></clipPath></defs><g clip-path="url(#clip0)" transform="translate(-179 -509)"><path d="M467.5 606.5 339.5 582.5 339.5 534.5 467.5 510.5Z" stroke="#2F528F" stroke-width="1.33333" stroke-miterlimit="8" fill="#4472C4" fill-rule="evenodd"/><path d="M467.5 560.167 509.757 560.167 509.757 560.833 467.5 560.833ZM508.424 556.5 516.424 560.5 508.424 564.5Z" fill="#4472C4"/><path d="M290.5 559.167 332.657 559.167 332.657 559.833 290.5 559.833ZM331.324 555.5 339.324 559.5 331.324 563.5Z" fill="#4472C4"/><text font-family="Calibri,Calibri_MSFontService,sans-serif" font-weight="400" font-size="24" transform="translate(194.321 552)">Random<tspan font-size="24" x="0" y="29">vector</tspan></text><path d="M606.5 562.167 648.657 562.167 648.657 562.833 606.5 562.833ZM647.324 558.5 655.324 562.5 647.324 566.5Z" fill="#4472C4"/><text font-family="Calibri,Calibri_MSFontService,sans-serif" font-weight="400" font-size="24" transform="translate(530.919 569)">Image</text><path d="M655.5 515.5 783.5 539.5 783.5 587.5 655.5 611.5Z" stroke="#2F528F" stroke-width="1.33333" stroke-miterlimit="8" fill="#4472C4" fill-rule="evenodd"/><path d="M783.5 563.167 825.757 563.167 825.757 563.833 783.5 563.833ZM824.424 559.5 832.424 563.5 824.424 567.5Z" fill="#4472C4"/><text font-family="Calibri,Calibri_MSFontService,sans-serif" font-weight="400" font-size="24" transform="translate(842.269 556)">Probability<tspan font-size="24" x="0" y="29">real</tspan></text><path d="M948.5 565.167 990.757 565.167 990.757 565.833 948.5 565.833ZM989.424 561.5 997.424 565.5 989.424 569.5Z" fill="#4472C4"/><text font-family="Calibri,Calibri_MSFontService,sans-serif" font-weight="400" font-size="24" transform="translate(1006.31 570)">Cross<tspan font-size="24" x="52.1134" y="0">-</tspan><tspan font-size="24" x="59.4467" y="0">entropy loss</tspan><tspan font-size="24" x="-658.126" y="89">Generator</tspan><tspan font-size="24" x="-353.944" y="89">Discriminator</tspan></text></g></svg>