<svg width="1095" height="724" xmlns="http://www.w3.org/2000/svg" xmlns:xlink="http://www.w3.org/1999/xlink" overflow="hidden"><defs><clipPath id="clip0"><rect x="32" y="-2" width="1095" height="724"/></clipPath></defs><g clip-path="url(#clip0)" transform="translate(-32 2)"><text font-family="Cambria Math,Cambria Math_MSFontService,sans-serif" font-weight="400" font-size="24" transform="translate(809.734 189)">𝑧<tspan font-size="18" x="12.84" y="-9">′′</tspan><tspan font-size="24" x="32.8333" y="0">=</tspan><tspan font-size="24" x="57.5" y="0">𝑧</tspan><tspan font-size="18" x="68.58" y="5">2</tspan><tspan font-size="18" x="78.7466" y="5">,</tspan><tspan font-size="18" x="82.4133" y="5">3</tspan><tspan font-size="24" x="98.9067" y="0">+</tspan><tspan font-size="24" x="122.24" y="0"> </tspan><tspan font-size="24" x="127.573" y="0">𝛼</tspan><tspan font-size="24" x="142.633" y="0">(</tspan>𝑧<tspan font-size="18" x="163.713" y="5">3</tspan><tspan font-size="18" x="173.88" y="5">,</tspan><tspan font-size="18" x="177.547" y="5">3</tspan><tspan font-size="24" x="194.04" y="0">−</tspan><tspan font-size="24" x="217.373" y="0">𝑧</tspan><tspan font-size="18" x="228.453" y="5">2</tspan><tspan font-size="18" x="238.62" y="5">,</tspan><tspan font-size="18" x="242.287" y="5">3</tspan><tspan font-size="24" x="253.447" y="0">)</tspan><tspan font-size="24" x="3.08002" y="-54">𝑧</tspan><tspan font-size="18" x="15.92" y="-63">′</tspan><tspan font-size="24" x="29.7466" y="-54">=</tspan><tspan font-size="24" x="54.4133" y="-54">𝑧</tspan><tspan font-size="18" x="65.4933" y="-49">2</tspan><tspan font-size="18" x="75.66" y="-49">,</tspan><tspan font-size="18" x="79.3267" y="-49">2</tspan><tspan font-size="24" x="95.82" y="-54">+</tspan><tspan font-size="24" x="119.153" y="-54">𝛼</tspan><tspan font-size="24" x="134.213" y="-54"> </tspan><tspan font-size="24" x="139.547" y="-54">(</tspan>𝑧<tspan font-size="18" x="160.627" y="-49">3</tspan><tspan font-size="18" x="170.793" y="-49">,</tspan><tspan font-size="18" x="174.46" y="-49">2</tspan><tspan font-size="24" x="190.953" y="-54">−</tspan><tspan font-size="24" x="214.287" y="-54">𝑧</tspan><tspan font-size="18" x="225.367" y="-49">2</tspan><tspan font-size="18" x="235.533" y="-49">,</tspan><tspan font-size="18" x="239.2" y="-49">2</tspan><tspan font-size="24" x="250.36" y="-54">)</tspan><tspan font-size="24" x="1.68652" y="-124">𝛼</tspan><tspan font-size="24" x="23.4131" y="-124">=</tspan><tspan font-size="24" x="48.0798" y="-142">(</tspan>𝑥<tspan font-size="24" x="76.9731" y="-142">−</tspan><tspan font-size="24" x="100.307" y="-142">𝑥</tspan><tspan font-size="18" x="112.906" y="-137">2</tspan><tspan font-size="24" x="124.067" y="-142">)</tspan><tspan font-size="24" x="48.3132" y="-108">(</tspan>𝑥<tspan font-size="18" x="70.9131" y="-103">3</tspan><tspan font-size="24" x="82.0732" y="-108">−</tspan>𝑥<tspan font-size="18" x="112.673" y="-103">2</tspan><tspan font-size="24" x="123.833" y="-108">)</tspan></text><path d="M858.194 56.8163 901.194 56.8163 944.194 56.8163 944.194 58.8163 901.194 58.8163 858.194 58.8163Z" fill-rule="evenodd"/><text font-family="Cambria Math,Cambria Math_MSFontService,sans-serif" font-weight="400" font-size="24" transform="translate(980.083 64)">𝛽<tspan font-size="24" x="21.8934" y="0">=</tspan><tspan font-size="24" x="51.5667" y="-18">(</tspan>𝑦<tspan font-size="24" x="80.8134" y="-18">−</tspan><tspan font-size="24" x="104.147" y="-18">𝑦</tspan><tspan font-size="18" x="116.92" y="-13">2</tspan><tspan font-size="24" x="128.08" y="-18">)</tspan><tspan font-size="24" x="46.56" y="16">(</tspan>𝑦<tspan font-size="18" x="69.3333" y="21">3</tspan><tspan font-size="24" x="85.8267" y="16">−</tspan><tspan font-size="24" x="109.16" y="16">𝑦</tspan><tspan font-size="18" x="121.933" y="21">2</tspan><tspan font-size="24" x="133.093" y="16">)</tspan></text><path d="M1026.63 56.2169 1058.96 56.2169 1091.3 56.2169 1123.63 56.2169 1123.63 58.2169 1091.3 58.2169 1058.96 58.2169 1026.63 58.2169Z" fill-rule="evenodd"/><text font-family="Cambria Math,Cambria Math_MSFontService,sans-serif" font-weight="400" font-size="24" transform="translate(812.72 244)">𝑧<tspan font-size="24" x="18.7467" y="0">=</tspan><tspan font-size="24" x="43.4133" y="0">𝑧</tspan><tspan font-size="18" x="56.2534" y="-9">′</tspan><tspan font-size="24" x="68.7467" y="0">+</tspan><tspan font-size="24" x="92.08" y="0">𝛽</tspan><tspan font-size="24" x="107.307" y="0">(</tspan>𝑧<tspan font-size="18" x="130.147" y="-9">′′</tspan><tspan font-size="24" x="148.807" y="0">−</tspan><tspan font-size="24" x="172.14" y="0">𝑧</tspan><tspan font-size="18" x="184.98" y="-9">′</tspan><tspan font-size="24" x="192.14" y="0">)</tspan></text><rect x="71.5001" y="15.5001" width="224" height="224" stroke="#2F528F" stroke-width="1.33333" stroke-miterlimit="8" fill="none"/><rect x="295.5" y="15.5001" width="224" height="224" stroke="#2F528F" stroke-width="1.33333" stroke-miterlimit="8" fill="none"/><rect x="519.5" y="15.5001" width="224" height="224" stroke="#2F528F" stroke-width="1.33333" stroke-miterlimit="8" fill="none"/><rect x="71.5001" y="238.5" width="224" height="224" stroke="#2F528F" stroke-width="1.33333" stroke-miterlimit="8" fill="none"/><rect x="295.5" y="238.5" width="224" height="224" stroke="#2F528F" stroke-width="1.33333" stroke-miterlimit="8" fill="none"/><rect x="519.5" y="238.5" width="224" height="224" stroke="#2F528F" stroke-width="1.33333" stroke-miterlimit="8" fill="none"/><rect x="71.5001" y="463.5" width="224" height="224" stroke="#2F528F" stroke-width="1.33333" stroke-miterlimit="8" fill="none"/><rect x="295.5" y="463.5" width="224" height="224" stroke="#2F528F" stroke-width="1.33333" stroke-miterlimit="8" fill="none"/><rect x="519.5" y="463.5" width="224" height="224" stroke="#2F528F" stroke-width="1.33333" stroke-miterlimit="8" fill="none"/><path d="M63.5001 14.5001C63.5001 10.0818 67.0818 6.50005 71.5001 6.50005 75.9183 6.50005 79.5001 10.0818 79.5001 14.5001 79.5001 18.9183 75.9183 22.5001 71.5001 22.5001 67.0818 22.5001 63.5001 18.9183 63.5001 14.5001Z" stroke="#2F528F" stroke-width="1.33333" stroke-miterlimit="8" fill="#4472C4" fill-rule="evenodd"/><path d="M288.5 14.5001C288.5 10.0818 292.082 6.50005 296.5 6.50005 300.918 6.50005 304.5 10.0818 304.5 14.5001 304.5 18.9183 300.918 22.5001 296.5 22.5001 292.082 22.5001 288.5 18.9183 288.5 14.5001Z" stroke="#2F528F" stroke-width="1.33333" stroke-miterlimit="8" fill="#4472C4" fill-rule="evenodd"/><path d="M511.5 15.5001C511.5 11.0818 515.082 7.50005 519.5 7.50005 523.918 7.50005 527.5 11.0818 527.5 15.5001 527.5 19.9183 523.918 23.5001 519.5 23.5001 515.082 23.5001 511.5 19.9183 511.5 15.5001Z" stroke="#2F528F" stroke-width="1.33333" stroke-miterlimit="8" fill="#4472C4" fill-rule="evenodd"/><path d="M735.5 15.5001C735.5 11.0818 739.082 7.50005 743.5 7.50005 747.918 7.50005 751.5 11.0818 751.5 15.5001 751.5 19.9183 747.918 23.5001 743.5 23.5001 739.082 23.5001 735.5 19.9183 735.5 15.5001Z" stroke="#2F528F" stroke-width="1.33333" stroke-miterlimit="8" fill="#4472C4" fill-rule="evenodd"/><path d="M63.5001 237.5C63.5001 233.082 67.0818 229.5 71.5001 229.5 75.9183 229.5 79.5001 233.082 79.5001 237.5 79.5001 241.918 75.9183 245.5 71.5001 245.5 67.0818 245.5 63.5001 241.918 63.5001 237.5Z" stroke="#2F528F" stroke-width="1.33333" stroke-miterlimit="8" fill="#4472C4" fill-rule="evenodd"/><path d="M288.5 237.5C288.5 233.082 292.082 229.5 296.5 229.5 300.918 229.5 304.5 233.082 304.5 237.5 304.5 241.918 300.918 245.5 296.5 245.5 292.082 245.5 288.5 241.918 288.5 237.5Z" stroke="#2F528F" stroke-width="1.33333" stroke-miterlimit="8" fill="#4472C4" fill-rule="evenodd"/><path d="M511.5 238.5C511.5 234.082 515.082 230.5 519.5 230.5 523.918 230.5 527.5 234.082 527.5 238.5 527.5 242.918 523.918 246.5 519.5 246.5 515.082 246.5 511.5 242.918 511.5 238.5Z" stroke="#2F528F" stroke-width="1.33333" stroke-miterlimit="8" fill="#4472C4" fill-rule="evenodd"/><path d="M735.5 238.5C735.5 234.082 739.082 230.5 743.5 230.5 747.918 230.5 751.5 234.082 751.5 238.5 751.5 242.918 747.918 246.5 743.5 246.5 739.082 246.5 735.5 242.918 735.5 238.5Z" stroke="#2F528F" stroke-width="1.33333" stroke-miterlimit="8" fill="#4472C4" fill-rule="evenodd"/><path d="M63.5001 462.5C63.5001 458.082 67.0818 454.5 71.5001 454.5 75.9183 454.5 79.5001 458.082 79.5001 462.5 79.5001 466.918 75.9183 470.5 71.5001 470.5 67.0818 470.5 63.5001 466.918 63.5001 462.5Z" stroke="#2F528F" stroke-width="1.33333" stroke-miterlimit="8" fill="#4472C4" fill-rule="evenodd"/><path d="M288.5 462.5C288.5 458.082 292.082 454.5 296.5 454.5 300.918 454.5 304.5 458.082 304.5 462.5 304.5 466.918 300.918 470.5 296.5 470.5 292.082 470.5 288.5 466.918 288.5 462.5Z" stroke="#2F528F" stroke-width="1.33333" stroke-miterlimit="8" fill="#4472C4" fill-rule="evenodd"/><path d="M511.5 463.5C511.5 459.082 515.082 455.5 519.5 455.5 523.918 455.5 527.5 459.082 527.5 463.5 527.5 467.918 523.918 471.5 519.5 471.5 515.082 471.5 511.5 467.918 511.5 463.5Z" stroke="#2F528F" stroke-width="1.33333" stroke-miterlimit="8" fill="#4472C4" fill-rule="evenodd"/><path d="M735.5 463.5C735.5 459.082 739.082 455.5 743.5 455.5 747.918 455.5 751.5 459.082 751.5 463.5 751.5 467.918 747.918 471.5 743.5 471.5 739.082 471.5 735.5 467.918 735.5 463.5Z" stroke="#2F528F" stroke-width="1.33333" stroke-miterlimit="8" fill="#4472C4" fill-rule="evenodd"/><path d="M63.5001 685.5C63.5001 681.082 67.0818 677.5 71.5001 677.5 75.9183 677.5 79.5001 681.082 79.5001 685.5 79.5001 689.918 75.9183 693.5 71.5001 693.5 67.0818 693.5 63.5001 689.918 63.5001 685.5Z" stroke="#2F528F" stroke-width="1.33333" stroke-miterlimit="8" fill="#4472C4" fill-rule="evenodd"/><path d="M288.5 685.5C288.5 681.082 292.082 677.5 296.5 677.5 300.918 677.5 304.5 681.082 304.5 685.5 304.5 689.918 300.918 693.5 296.5 693.5 292.082 693.5 288.5 689.918 288.5 685.5Z" stroke="#2F528F" stroke-width="1.33333" stroke-miterlimit="8" fill="#4472C4" fill-rule="evenodd"/><path d="M511.5 686.5C511.5 682.082 515.082 678.5 519.5 678.5 523.918 678.5 527.5 682.082 527.5 686.5 527.5 690.918 523.918 694.5 519.5 694.5 515.082 694.5 511.5 690.918 511.5 686.5Z" stroke="#2F528F" stroke-width="1.33333" stroke-miterlimit="8" fill="#4472C4" fill-rule="evenodd"/><path d="M735.5 686.5C735.5 682.082 739.082 678.5 743.5 678.5 747.918 678.5 751.5 682.082 751.5 686.5 751.5 690.918 747.918 694.5 743.5 694.5 739.082 694.5 735.5 690.918 735.5 686.5Z" stroke="#2F528F" stroke-width="1.33333" stroke-miterlimit="8" fill="#4472C4" fill-rule="evenodd"/><path d="M0 0 1.04399 672.977" stroke="#FF0000" stroke-width="0.666667" stroke-miterlimit="8" stroke-dasharray="2.66667 2" fill="none" fill-rule="evenodd" transform="matrix(-1 0 0 1 369.544 16.5001)"/><path d="M71.5001 314.5 743.5 315.889" stroke="#FF0000" stroke-width="0.666667" stroke-miterlimit="8" stroke-dasharray="2.66667 2" fill="none" fill-rule="evenodd"/><path d="M361.5 313.5C361.5 309.082 365.082 305.5 369.5 305.5 373.918 305.5 377.5 309.082 377.5 313.5 377.5 317.918 373.918 321.5 369.5 321.5 365.082 321.5 361.5 317.918 361.5 313.5Z" stroke="#2F528F" stroke-width="1.33333" stroke-miterlimit="8" fill="#C00000" fill-rule="evenodd"/><text fill="#203864" font-family="Cambria Math,Cambria Math_MSFontService,sans-serif" font-weight="400" font-size="24" transform="translate(523.348 224)">𝑧<tspan font-size="18" x="11.08" y="5">3</tspan><tspan font-size="18" x="21.2466" y="5">,</tspan><tspan font-size="18" x="24.9133" y="5">3</tspan><tspan font-size="24" x="-461.695" y="491">𝑥</tspan><tspan font-size="18" x="-449.648" y="496">1</tspan><tspan font-size="24" x="-237.641" y="488">𝑥</tspan><tspan font-size="18" x="-225.041" y="493">2</tspan><tspan font-size="24" x="-16.9474" y="489">𝑥</tspan><tspan font-size="18" x="-4.34741" y="494">3</tspan><tspan font-size="24" x="207.692" y="491">𝑥</tspan><tspan font-size="18" x="220.292" y="496">4</tspan><tspan font-size="24" x="-487.722" y="466">𝑦</tspan><tspan font-size="18" x="-475.502" y="471">1</tspan><tspan font-size="24" x="-488.221" y="243">𝑦</tspan><tspan font-size="18" x="-475.448" y="247">2</tspan><tspan font-size="24" x="-488.221" y="17">𝑦</tspan><tspan font-size="18" x="-475.448" y="22">3</tspan><tspan font-size="24" x="-487.171" y="-203">𝑦</tspan><tspan font-size="18" x="-475.424" y="-198">4</tspan><tspan font-size="24" x="-224.081" y="-1">𝑧</tspan><tspan font-size="18" x="-213.001" y="4">2</tspan><tspan font-size="18" x="-202.834" y="4">,</tspan><tspan font-size="18" x="-199.168" y="4">3</tspan><tspan font-size="24" x="0" y="224">𝑧</tspan><tspan font-size="18" x="11.08" y="229">3</tspan><tspan font-size="18" x="21.2466" y="229">,</tspan><tspan font-size="18" x="24.9133" y="229">2</tspan><tspan font-size="24" x="-221.333" y="222">𝑧</tspan><tspan font-size="18" x="-210.253" y="226">2</tspan><tspan font-size="18" x="-200.087" y="226">,</tspan><tspan font-size="18" x="-196.42" y="226">2</tspan><tspan fill="#FF0000" font-size="24" x="-162.638" y="488">𝑥</tspan><tspan fill="#FF0000" font-size="24" x="-147.636" y="9">𝑧′′</tspan><tspan fill="#FF0000" font-size="24" x="-147.511" y="229">𝑧′</tspan><tspan fill="#FF0000" font-size="24" x="-478.176" y="98">𝑦</tspan></text><path d="M364.5 239.5C364.5 236.739 366.739 234.5 369.5 234.5 372.261 234.5 374.5 236.739 374.5 239.5 374.5 242.261 372.261 244.5 369.5 244.5 366.739 244.5 364.5 242.261 364.5 239.5Z" stroke="#2F528F" stroke-width="1.33333" stroke-miterlimit="8" fill="#FF0000" fill-rule="evenodd"/><path d="M364.5 462.5C364.5 459.739 366.739 457.5 369.5 457.5 372.261 457.5 374.5 459.739 374.5 462.5 374.5 465.261 372.261 467.5 369.5 467.5 366.739 467.5 364.5 465.261 364.5 462.5Z" stroke="#2F528F" stroke-width="1.33333" stroke-miterlimit="8" fill="#FF0000" fill-rule="evenodd"/><text fill="#FF0000" font-family="Cambria Math,Cambria Math_MSFontService,sans-serif" font-weight="400" font-size="24" transform="translate(379.796 308)">𝑧</text></g></svg>