<svg xmlns="http://www.w3.org/2000/svg" xmlns:xlink="http://www.w3.org/1999/xlink" width="1095" height="724" overflow="hidden"><defs><clipPath id="clip0"><rect width="1095" height="724" x="32" y="-2"/></clipPath></defs><g clip-path="url(#clip0)" transform="translate(-32 2)"><text font-family="Cambria Math,Cambria Math_MSFontService,sans-serif" font-size="24" font-weight="400" transform="translate(809.734 189)">𝑧<tspan x="12.84" y="-9" font-size="18">′′</tspan><tspan x="32.833" y="0" font-size="24">=</tspan><tspan x="57.5" y="0" font-size="24">𝑧</tspan><tspan x="68.58" y="5" font-size="18">2</tspan><tspan x="78.747" y="5" font-size="18">,</tspan><tspan x="82.413" y="5" font-size="18">3</tspan><tspan x="98.907" y="0" font-size="24">+</tspan><tspan x="122.24" y="0" font-size="24"> </tspan><tspan x="127.573" y="0" font-size="24">𝛼</tspan><tspan x="142.633" y="0" font-size="24">(</tspan>𝑧<tspan x="163.713" y="5" font-size="18">3</tspan><tspan x="173.88" y="5" font-size="18">,</tspan><tspan x="177.547" y="5" font-size="18">3</tspan><tspan x="194.04" y="0" font-size="24">−</tspan><tspan x="217.373" y="0" font-size="24">𝑧</tspan><tspan x="228.453" y="5" font-size="18">2</tspan><tspan x="238.62" y="5" font-size="18">,</tspan><tspan x="242.287" y="5" font-size="18">3</tspan><tspan x="253.447" y="0" font-size="24">)</tspan><tspan x="3.08" y="-54" font-size="24">𝑧</tspan><tspan x="15.92" y="-63" font-size="18">′</tspan><tspan x="29.747" y="-54" font-size="24">=</tspan><tspan x="54.413" y="-54" font-size="24">𝑧</tspan><tspan x="65.493" y="-49" font-size="18">2</tspan><tspan x="75.66" y="-49" font-size="18">,</tspan><tspan x="79.327" y="-49" font-size="18">2</tspan><tspan x="95.82" y="-54" font-size="24">+</tspan><tspan x="119.153" y="-54" font-size="24">𝛼</tspan><tspan x="134.213" y="-54" font-size="24"> </tspan><tspan x="139.547" y="-54" font-size="24">(</tspan>𝑧<tspan x="160.627" y="-49" font-size="18">3</tspan><tspan x="170.793" y="-49" font-size="18">,</tspan><tspan x="174.46" y="-49" font-size="18">2</tspan><tspan x="190.953" y="-54" font-size="24">−</tspan><tspan x="214.287" y="-54" font-size="24">𝑧</tspan><tspan x="225.367" y="-49" font-size="18">2</tspan><tspan x="235.533" y="-49" font-size="18">,</tspan><tspan x="239.2" y="-49" font-size="18">2</tspan><tspan x="250.36" y="-54" font-size="24">)</tspan><tspan x="1.687" y="-124" font-size="24">𝛼</tspan><tspan x="23.413" y="-124" font-size="24">=</tspan><tspan x="48.08" y="-142" font-size="24">(</tspan>𝑥<tspan x="76.973" y="-142" font-size="24">−</tspan><tspan x="100.307" y="-142" font-size="24">𝑥</tspan><tspan x="112.906" y="-137" font-size="18">2</tspan><tspan x="124.067" y="-142" font-size="24">)</tspan><tspan x="48.313" y="-108" font-size="24">(</tspan>𝑥<tspan x="70.913" y="-103" font-size="18">3</tspan><tspan x="82.073" y="-108" font-size="24">−</tspan>𝑥<tspan x="112.673" y="-103" font-size="18">2</tspan><tspan x="123.833" y="-108" font-size="24">)</tspan></text><path fill-rule="evenodd" d="M858.194 56.8163 901.194 56.8163 944.194 56.8163 944.194 58.8163 901.194 58.8163 858.194 58.8163Z"/><text font-family="Cambria Math,Cambria Math_MSFontService,sans-serif" font-size="24" font-weight="400" transform="translate(980.083 64)">𝛽<tspan x="21.893" y="0" font-size="24">=</tspan><tspan x="51.567" y="-18" font-size="24">(</tspan>𝑦<tspan x="80.813" y="-18" font-size="24">−</tspan><tspan x="104.147" y="-18" font-size="24">𝑦</tspan><tspan x="116.92" y="-13" font-size="18">2</tspan><tspan x="128.08" y="-18" font-size="24">)</tspan><tspan x="46.56" y="16" font-size="24">(</tspan>𝑦<tspan x="69.333" y="21" font-size="18">3</tspan><tspan x="85.827" y="16" font-size="24">−</tspan><tspan x="109.16" y="16" font-size="24">𝑦</tspan><tspan x="121.933" y="21" font-size="18">2</tspan><tspan x="133.093" y="16" font-size="24">)</tspan></text><path fill-rule="evenodd" d="M1026.63 56.2169 1058.96 56.2169 1091.3 56.2169 1123.63 56.2169 1123.63 58.2169 1091.3 58.2169 1058.96 58.2169 1026.63 58.2169Z"/><text font-family="Cambria Math,Cambria Math_MSFontService,sans-serif" font-size="24" font-weight="400" transform="translate(812.72 244)">𝑧<tspan x="18.747" y="0" font-size="24">=</tspan><tspan x="43.413" y="0" font-size="24">𝑧</tspan><tspan x="56.253" y="-9" font-size="18">′</tspan><tspan x="68.747" y="0" font-size="24">+</tspan><tspan x="92.08" y="0" font-size="24">𝛽</tspan><tspan x="107.307" y="0" font-size="24">(</tspan>𝑧<tspan x="130.147" y="-9" font-size="18">′′</tspan><tspan x="148.807" y="0" font-size="24">−</tspan><tspan x="172.14" y="0" font-size="24">𝑧</tspan><tspan x="184.98" y="-9" font-size="18">′</tspan><tspan x="192.14" y="0" font-size="24">)</tspan></text><rect width="224" height="224" x="71.5" y="15.5" fill="none" stroke="#2F528F" stroke-miterlimit="8" stroke-width="1.333"/><rect width="224" height="224" x="295.5" y="15.5" fill="none" stroke="#2F528F" stroke-miterlimit="8" stroke-width="1.333"/><rect width="224" height="224" x="519.5" y="15.5" fill="none" stroke="#2F528F" stroke-miterlimit="8" stroke-width="1.333"/><rect width="224" height="224" x="71.5" y="238.5" fill="none" stroke="#2F528F" stroke-miterlimit="8" stroke-width="1.333"/><rect width="224" height="224" x="295.5" y="238.5" fill="none" stroke="#2F528F" stroke-miterlimit="8" stroke-width="1.333"/><rect width="224" height="224" x="519.5" y="238.5" fill="none" stroke="#2F528F" stroke-miterlimit="8" stroke-width="1.333"/><rect width="224" height="224" x="71.5" y="463.5" fill="none" stroke="#2F528F" stroke-miterlimit="8" stroke-width="1.333"/><rect width="224" height="224" x="295.5" y="463.5" fill="none" stroke="#2F528F" stroke-miterlimit="8" stroke-width="1.333"/><rect width="224" height="224" x="519.5" y="463.5" fill="none" stroke="#2F528F" stroke-miterlimit="8" stroke-width="1.333"/><path fill="#4472C4" fill-rule="evenodd" stroke="#2F528F" stroke-miterlimit="8" stroke-width="1.333" d="M63.5001 14.5001C63.5001 10.0818 67.0818 6.50005 71.5001 6.50005 75.9183 6.50005 79.5001 10.0818 79.5001 14.5001 79.5001 18.9183 75.9183 22.5001 71.5001 22.5001 67.0818 22.5001 63.5001 18.9183 63.5001 14.5001Z"/><path fill="#4472C4" fill-rule="evenodd" stroke="#2F528F" stroke-miterlimit="8" stroke-width="1.333" d="M288.5 14.5001C288.5 10.0818 292.082 6.50005 296.5 6.50005 300.918 6.50005 304.5 10.0818 304.5 14.5001 304.5 18.9183 300.918 22.5001 296.5 22.5001 292.082 22.5001 288.5 18.9183 288.5 14.5001Z"/><path fill="#4472C4" fill-rule="evenodd" stroke="#2F528F" stroke-miterlimit="8" stroke-width="1.333" d="M511.5 15.5001C511.5 11.0818 515.082 7.50005 519.5 7.50005 523.918 7.50005 527.5 11.0818 527.5 15.5001 527.5 19.9183 523.918 23.5001 519.5 23.5001 515.082 23.5001 511.5 19.9183 511.5 15.5001Z"/><path fill="#4472C4" fill-rule="evenodd" stroke="#2F528F" stroke-miterlimit="8" stroke-width="1.333" d="M735.5 15.5001C735.5 11.0818 739.082 7.50005 743.5 7.50005 747.918 7.50005 751.5 11.0818 751.5 15.5001 751.5 19.9183 747.918 23.5001 743.5 23.5001 739.082 23.5001 735.5 19.9183 735.5 15.5001Z"/><path fill="#4472C4" fill-rule="evenodd" stroke="#2F528F" stroke-miterlimit="8" stroke-width="1.333" d="M63.5001 237.5C63.5001 233.082 67.0818 229.5 71.5001 229.5 75.9183 229.5 79.5001 233.082 79.5001 237.5 79.5001 241.918 75.9183 245.5 71.5001 245.5 67.0818 245.5 63.5001 241.918 63.5001 237.5Z"/><path fill="#4472C4" fill-rule="evenodd" stroke="#2F528F" stroke-miterlimit="8" stroke-width="1.333" d="M288.5 237.5C288.5 233.082 292.082 229.5 296.5 229.5 300.918 229.5 304.5 233.082 304.5 237.5 304.5 241.918 300.918 245.5 296.5 245.5 292.082 245.5 288.5 241.918 288.5 237.5Z"/><path fill="#4472C4" fill-rule="evenodd" stroke="#2F528F" stroke-miterlimit="8" stroke-width="1.333" d="M511.5 238.5C511.5 234.082 515.082 230.5 519.5 230.5 523.918 230.5 527.5 234.082 527.5 238.5 527.5 242.918 523.918 246.5 519.5 246.5 515.082 246.5 511.5 242.918 511.5 238.5Z"/><path fill="#4472C4" fill-rule="evenodd" stroke="#2F528F" stroke-miterlimit="8" stroke-width="1.333" d="M735.5 238.5C735.5 234.082 739.082 230.5 743.5 230.5 747.918 230.5 751.5 234.082 751.5 238.5 751.5 242.918 747.918 246.5 743.5 246.5 739.082 246.5 735.5 242.918 735.5 238.5Z"/><path fill="#4472C4" fill-rule="evenodd" stroke="#2F528F" stroke-miterlimit="8" stroke-width="1.333" d="M63.5001 462.5C63.5001 458.082 67.0818 454.5 71.5001 454.5 75.9183 454.5 79.5001 458.082 79.5001 462.5 79.5001 466.918 75.9183 470.5 71.5001 470.5 67.0818 470.5 63.5001 466.918 63.5001 462.5Z"/><path fill="#4472C4" fill-rule="evenodd" stroke="#2F528F" stroke-miterlimit="8" stroke-width="1.333" d="M288.5 462.5C288.5 458.082 292.082 454.5 296.5 454.5 300.918 454.5 304.5 458.082 304.5 462.5 304.5 466.918 300.918 470.5 296.5 470.5 292.082 470.5 288.5 466.918 288.5 462.5Z"/><path fill="#4472C4" fill-rule="evenodd" stroke="#2F528F" stroke-miterlimit="8" stroke-width="1.333" d="M511.5 463.5C511.5 459.082 515.082 455.5 519.5 455.5 523.918 455.5 527.5 459.082 527.5 463.5 527.5 467.918 523.918 471.5 519.5 471.5 515.082 471.5 511.5 467.918 511.5 463.5Z"/><path fill="#4472C4" fill-rule="evenodd" stroke="#2F528F" stroke-miterlimit="8" stroke-width="1.333" d="M735.5 463.5C735.5 459.082 739.082 455.5 743.5 455.5 747.918 455.5 751.5 459.082 751.5 463.5 751.5 467.918 747.918 471.5 743.5 471.5 739.082 471.5 735.5 467.918 735.5 463.5Z"/><path fill="#4472C4" fill-rule="evenodd" stroke="#2F528F" stroke-miterlimit="8" stroke-width="1.333" d="M63.5001 685.5C63.5001 681.082 67.0818 677.5 71.5001 677.5 75.9183 677.5 79.5001 681.082 79.5001 685.5 79.5001 689.918 75.9183 693.5 71.5001 693.5 67.0818 693.5 63.5001 689.918 63.5001 685.5Z"/><path fill="#4472C4" fill-rule="evenodd" stroke="#2F528F" stroke-miterlimit="8" stroke-width="1.333" d="M288.5 685.5C288.5 681.082 292.082 677.5 296.5 677.5 300.918 677.5 304.5 681.082 304.5 685.5 304.5 689.918 300.918 693.5 296.5 693.5 292.082 693.5 288.5 689.918 288.5 685.5Z"/><path fill="#4472C4" fill-rule="evenodd" stroke="#2F528F" stroke-miterlimit="8" stroke-width="1.333" d="M511.5 686.5C511.5 682.082 515.082 678.5 519.5 678.5 523.918 678.5 527.5 682.082 527.5 686.5 527.5 690.918 523.918 694.5 519.5 694.5 515.082 694.5 511.5 690.918 511.5 686.5Z"/><path fill="#4472C4" fill-rule="evenodd" stroke="#2F528F" stroke-miterlimit="8" stroke-width="1.333" d="M735.5 686.5C735.5 682.082 739.082 678.5 743.5 678.5 747.918 678.5 751.5 682.082 751.5 686.5 751.5 690.918 747.918 694.5 743.5 694.5 739.082 694.5 735.5 690.918 735.5 686.5Z"/><path fill="none" fill-rule="evenodd" stroke="red" stroke-dasharray="2.667 2" stroke-miterlimit="8" stroke-width=".667" d="M0 0 1.04399 672.977" transform="matrix(-1 0 0 1 369.544 16.5001)"/><path fill="none" fill-rule="evenodd" stroke="red" stroke-dasharray="2.667 2" stroke-miterlimit="8" stroke-width=".667" d="M71.5001 314.5 743.5 315.889"/><path fill="#C00000" fill-rule="evenodd" stroke="#2F528F" stroke-miterlimit="8" stroke-width="1.333" d="M361.5 313.5C361.5 309.082 365.082 305.5 369.5 305.5 373.918 305.5 377.5 309.082 377.5 313.5 377.5 317.918 373.918 321.5 369.5 321.5 365.082 321.5 361.5 317.918 361.5 313.5Z"/><text fill="#203864" font-family="Cambria Math,Cambria Math_MSFontService,sans-serif" font-size="24" font-weight="400" transform="translate(523.348 224)">𝑧<tspan x="11.08" y="5" font-size="18">3</tspan><tspan x="21.247" y="5" font-size="18">,</tspan><tspan x="24.913" y="5" font-size="18">3</tspan><tspan x="-461.695" y="491" font-size="24">𝑥</tspan><tspan x="-449.648" y="496" font-size="18">1</tspan><tspan x="-237.641" y="488" font-size="24">𝑥</tspan><tspan x="-225.041" y="493" font-size="18">2</tspan><tspan x="-16.947" y="489" font-size="24">𝑥</tspan><tspan x="-4.347" y="494" font-size="18">3</tspan><tspan x="207.692" y="491" font-size="24">𝑥</tspan><tspan x="220.292" y="496" font-size="18">4</tspan><tspan x="-487.722" y="466" font-size="24">𝑦</tspan><tspan x="-475.502" y="471" font-size="18">1</tspan><tspan x="-488.221" y="243" font-size="24">𝑦</tspan><tspan x="-475.448" y="247" font-size="18">2</tspan><tspan x="-488.221" y="17" font-size="24">𝑦</tspan><tspan x="-475.448" y="22" font-size="18">3</tspan><tspan x="-487.171" y="-203" font-size="24">𝑦</tspan><tspan x="-475.424" y="-198" font-size="18">4</tspan><tspan x="-224.081" y="-1" font-size="24">𝑧</tspan><tspan x="-213.001" y="4" font-size="18">2</tspan><tspan x="-202.834" y="4" font-size="18">,</tspan><tspan x="-199.168" y="4" font-size="18">3</tspan><tspan x="0" y="224" font-size="24">𝑧</tspan><tspan x="11.08" y="229" font-size="18">3</tspan><tspan x="21.247" y="229" font-size="18">,</tspan><tspan x="24.913" y="229" font-size="18">2</tspan><tspan x="-221.333" y="222" font-size="24">𝑧</tspan><tspan x="-210.253" y="226" font-size="18">2</tspan><tspan x="-200.087" y="226" font-size="18">,</tspan><tspan x="-196.42" y="226" font-size="18">2</tspan><tspan x="-162.638" y="488" fill="red" font-size="24">𝑥</tspan><tspan x="-147.636" y="9" fill="red" font-size="24">𝑧′′</tspan><tspan x="-147.511" y="229" fill="red" font-size="24">𝑧′</tspan><tspan x="-478.176" y="98" fill="red" font-size="24">𝑦</tspan></text><path fill="red" fill-rule="evenodd" stroke="#2F528F" stroke-miterlimit="8" stroke-width="1.333" d="M364.5 239.5C364.5 236.739 366.739 234.5 369.5 234.5 372.261 234.5 374.5 236.739 374.5 239.5 374.5 242.261 372.261 244.5 369.5 244.5 366.739 244.5 364.5 242.261 364.5 239.5Z"/><path fill="red" fill-rule="evenodd" stroke="#2F528F" stroke-miterlimit="8" stroke-width="1.333" d="M364.5 462.5C364.5 459.739 366.739 457.5 369.5 457.5 372.261 457.5 374.5 459.739 374.5 462.5 374.5 465.261 372.261 467.5 369.5 467.5 366.739 467.5 364.5 465.261 364.5 462.5Z"/><text fill="red" font-family="Cambria Math,Cambria Math_MSFontService,sans-serif" font-size="24" font-weight="400" transform="translate(379.796 308)">𝑧</text></g></svg>