<svg width="79" height="155" xmlns="http://www.w3.org/2000/svg" xmlns:xlink="http://www.w3.org/1999/xlink" overflow="hidden"><defs><clipPath id="clip0"><rect x="561" y="223" width="79" height="155"/></clipPath></defs><g clip-path="url(#clip0)" transform="translate(-561 -223)"><path d="M563.5 263.743 602.743 224.5 614.5 224.5 614.5 337.257 575.257 376.5 563.5 376.5ZM563.5 263.743 575.257 263.743 614.5 224.5M575.257 263.743 575.257 376.5" stroke="#002060" stroke-width="1.33333" stroke-miterlimit="8" fill="none" fill-rule="evenodd"/><path d="M575.5 264.082 614.082 225.5 626.5 225.5 626.5 338.919 587.919 377.5 575.5 377.5ZM575.5 264.082 587.919 264.082 626.5 225.5M587.919 264.082 587.919 377.5" stroke="#548235" stroke-width="1.33333" stroke-miterlimit="8" fill="none" fill-rule="evenodd"/><path d="M587.5 264.163 626.163 225.5 639.5 225.5 639.5 338.837 600.837 377.5 587.5 377.5ZM587.5 264.163 600.837 264.163 639.5 225.5M600.837 264.163 600.837 377.5" stroke="#FF0000" stroke-width="1.33333" stroke-miterlimit="8" fill="none" fill-rule="evenodd"/><path d="M604.5 277.314 613.314 268.5 626.5 268.5 626.5 292.686 617.686 301.5 604.5 301.5ZM604.5 277.314 617.686 277.314 626.5 268.5M617.686 277.314 617.686 301.5" stroke="#000000" stroke-width="1.33333" stroke-miterlimit="8" fill="none" fill-rule="evenodd"/><path d="M616.5 277.714 625.714 268.5 639.5 268.5 639.5 292.286 630.286 301.5 616.5 301.5ZM616.5 277.714 630.286 277.714 639.5 268.5M630.286 277.714 630.286 301.5" stroke="#000000" stroke-width="1.33333" stroke-miterlimit="8" fill="none" fill-rule="evenodd"/><path d="M591.5 277.714 600.714 268.5 614.5 268.5 614.5 292.286 605.286 301.5 591.5 301.5ZM591.5 277.714 605.286 277.714 614.5 268.5M605.286 277.714 605.286 301.5" stroke="#000000" stroke-width="1.33333" stroke-miterlimit="8" fill="none" fill-rule="evenodd"/></g></svg>