<svg width="289" height="519" xmlns="http://www.w3.org/2000/svg" xmlns:xlink="http://www.w3.org/1999/xlink" overflow="hidden"><defs><clipPath id="clip0"><rect x="79" y="115" width="289" height="519"/></clipPath></defs><g clip-path="url(#clip0)" transform="translate(-79 -115)"><rect x="79.5001" y="543.5" width="288" height="31" stroke="#000005" stroke-width="0.333333" stroke-linejoin="round" stroke-miterlimit="10" fill="none"/><text fill="#000005" font-family="Arial,Arial_MSFontService,sans-serif" font-weight="400" font-size="19" transform="translate(94.944 561)">7x7, conv (no padding), 6, tanh<tspan fill="#FF0000" font-size="19" x="76.8485" y="57">40x40 patch</tspan></text><rect x="79.5001" y="475.5" width="288" height="31" stroke="#000005" stroke-width="0.333333" stroke-linejoin="round" stroke-miterlimit="10" fill="none"/><text fill="#000005" font-family="Arial,Arial_MSFontService,sans-serif" font-weight="400" font-size="19" transform="translate(97.2774 493)">2x2<tspan font-size="19" x="30" y="0">, mean</tspan><tspan font-size="19" x="86.8333" y="0">-</tspan><tspan font-size="19" x="93" y="0">pool, stride=2, tanh</tspan></text><rect x="79.5001" y="407.5" width="288" height="31" stroke="#000005" stroke-width="0.333333" stroke-linejoin="round" stroke-miterlimit="10" fill="none"/><text fill="#000005" font-family="Arial,Arial_MSFontService,sans-serif" font-weight="400" font-size="19" transform="translate(145.158 425)">6x6<tspan font-size="19" x="30" y="0">, conv, 16, tanh</tspan></text><rect x="79.5001" y="336.5" width="288" height="30" stroke="#000005" stroke-width="0.333333" stroke-linejoin="round" stroke-miterlimit="10" fill="none"/><text fill="#000005" font-family="Arial,Arial_MSFontService,sans-serif" font-weight="400" font-size="19" transform="translate(97.2145 354)">2x2<tspan font-size="19" x="30" y="0">, mean</tspan><tspan font-size="19" x="86.8333" y="0">-</tspan><tspan font-size="19" x="93" y="0">pool, stride=2, tanh</tspan></text><rect x="79.5001" y="265.5" width="288" height="30" stroke="#000005" stroke-width="0.333333" stroke-linejoin="round" stroke-miterlimit="10" fill="none"/><text fill="#000005" font-family="Arial,Arial_MSFontService,sans-serif" font-weight="400" font-size="19" transform="translate(145.158 283)">6x6<tspan font-size="19" x="30" y="0">, conv, 40, tanh</tspan></text><rect x="79.5001" y="194.5" width="288" height="30" stroke="#000005" stroke-width="0.333333" stroke-linejoin="round" stroke-miterlimit="10" fill="none"/><text fill="#000005" font-family="Arial,Arial_MSFontService,sans-serif" font-weight="400" font-size="19" transform="translate(187.881 212)">f<tspan font-size="19" x="5.16666" y="0">cl</tspan>,<tspan font-size="19" x="29" y="0">40, 5</tspan></text><path d="M0.166666-0.000485079 0.210255 14.976-0.123077 14.977-0.166666 0.000485079ZM4.03969 13.6315 0.0629921 21.6431-3.96027 13.6548Z" fill="#000005" transform="matrix(1 0 0 -1 223.5 596.143)"/><path d="M0.166667-4.62912e-07 0.166753 31.1328-0.16658 31.1328-0.166667 4.62912e-07ZM4.00008 29.7995 0.000104987 37.7995-3.99992 29.7995Z" fill="#000005" transform="matrix(1 0 0 -1 223.5 544.299)"/><path d="M223.396 476.3 223.344 445.167 223.678 445.166 223.73 476.299ZM219.513 446.507 223.5 438.5 227.513 446.493Z" fill="#000005"/><path d="M223.333 407.463 223.333 373.167 223.667 373.167 223.667 407.463ZM219.5 374.5 223.5 366.5 227.5 374.5Z" fill="#000005"/><path d="M0.166667-4.27165e-07 0.166755 34.296-0.166579 34.296-0.166667 4.27165e-07ZM4.00008 32.9626 0.000104987 40.9626-3.99992 32.9626Z" fill="#000005" transform="matrix(1 0 0 -1 223.5 336.463)"/><path d="M223.333 265.463 223.333 231.167 223.667 231.167 223.667 265.463ZM219.5 232.5 223.5 224.5 227.5 232.5Z" fill="#000005"/><path d="M0.166667-4.62912e-07 0.166753 31.1328-0.16658 31.1328-0.166667 4.62912e-07ZM4.00008 29.7995 0.000104987 37.7995-3.99992 29.7995Z" fill="#000005" transform="matrix(1 0 0 -1 223.5 194.3)"/><text fill="#FF0000" font-family="Arial,Arial_MSFontService,sans-serif" font-weight="400" font-size="21" transform="translate(137.864 532)">6x34x34<tspan font-size="21" x="0" y="-68">6x17x17</tspan><tspan font-size="21" x="-9.7476" y="-137">16x12x12</tspan><tspan font-size="21" x="7.99402" y="-208">16x6x6</tspan><tspan font-size="21" x="10.6866" y="-281">40x1x1</tspan><tspan font-size="21" x="0" y="-389">5 class confidences</tspan></text></g></svg>