<svg width="298" height="519" xmlns="http://www.w3.org/2000/svg" xmlns:xlink="http://www.w3.org/1999/xlink" overflow="hidden"><defs><clipPath id="clip0"><rect x="78" y="122" width="298" height="519"/></clipPath></defs><g clip-path="url(#clip0)" transform="translate(-78 -122)"><rect x="79.5001" y="543.5" width="288" height="31" stroke="#000005" stroke-width="0.333333" stroke-linejoin="round" stroke-miterlimit="10" fill="none"/><text fill="#000005" font-family="Arial,Arial_MSFontService,sans-serif" font-weight="400" font-size="19" transform="translate(94.944 561)">7x7, conv (no padding), 6, tanh<tspan fill="#FF0000" x="63.8687" y="63">300x300 image</tspan></text><rect x="79.5001" y="475.5" width="288" height="31" stroke="#000005" stroke-width="0.333333" stroke-linejoin="round" stroke-miterlimit="10" fill="none"/><text fill="#000005" font-family="Arial,Arial_MSFontService,sans-serif" font-weight="400" font-size="19" transform="translate(97.2774 493)">2x2<tspan x="30" y="0">, mean</tspan><tspan x="86.8333" y="0">-</tspan><tspan x="93" y="0">pool, stride=2, tanh</tspan></text><rect x="79.5001" y="407.5" width="288" height="31" stroke="#000005" stroke-width="0.333333" stroke-linejoin="round" stroke-miterlimit="10" fill="none"/><text fill="#000005" font-family="Arial,Arial_MSFontService,sans-serif" font-weight="400" font-size="19" transform="translate(89.7146 425)">6x6<tspan x="30" y="0">, conv (no padding), 16, tanh</tspan></text><rect x="79.5001" y="336.5" width="288" height="30" stroke="#000005" stroke-width="0.333333" stroke-linejoin="round" stroke-miterlimit="10" fill="none"/><text fill="#000005" font-family="Arial,Arial_MSFontService,sans-serif" font-weight="400" font-size="19" transform="translate(97.2145 354)">2x2<tspan x="30" y="0">, mean</tspan><tspan x="86.8333" y="0">-</tspan><tspan x="93" y="0">pool, stride=2, tanh</tspan></text><rect x="79.5001" y="265.5" width="288" height="30" stroke="#000005" stroke-width="0.333333" stroke-linejoin="round" stroke-miterlimit="10" fill="none"/><text fill="#000005" font-family="Arial,Arial_MSFontService,sans-serif" font-weight="400" font-size="19" transform="translate(145.158 283)">6x6<tspan x="30" y="0">, conv, 40, tanh</tspan></text><rect x="79.5001" y="194.5" width="288" height="30" stroke="#000005" stroke-width="0.333333" stroke-linejoin="round" stroke-miterlimit="10" fill="none"/><text fill="#000005" font-family="Arial,Arial_MSFontService,sans-serif" font-weight="400" font-size="19" transform="translate(173.574 212)">1x1, conv, 5</text><path d="M0.166667-6.25605e-07 0.166747 21.3028-0.166587 21.3028-0.166667 6.25605e-07ZM4.00007 19.9694 0.000104987 27.9694-3.99992 19.9695Z" fill="#000005" transform="matrix(1 0 0 -1 223.5 602.469)"/><path d="M0.166667-4.62912e-07 0.166753 31.1328-0.16658 31.1328-0.166667 4.62912e-07ZM4.00008 29.7995 0.000104987 37.7995-3.99992 29.7995Z" fill="#000005" transform="matrix(1 0 0 -1 223.5 544.299)"/><path d="M223.396 476.3 223.344 445.167 223.678 445.166 223.73 476.299ZM219.513 446.507 223.5 438.5 227.513 446.493Z" fill="#000005"/><path d="M223.333 407.463 223.333 373.167 223.667 373.167 223.667 407.463ZM219.5 374.5 223.5 366.5 227.5 374.5Z" fill="#000005"/><path d="M0.166667-4.27165e-07 0.166755 34.296-0.166579 34.296-0.166667 4.27165e-07ZM4.00008 32.9626 0.000104987 40.9626-3.99992 32.9626Z" fill="#000005" transform="matrix(1 0 0 -1 223.5 336.463)"/><path d="M223.333 265.463 223.333 231.167 223.667 231.167 223.667 265.463ZM219.5 232.5 223.5 224.5 227.5 232.5Z" fill="#000005"/><path d="M0.166667-5.15495e-07 0.166751 27.2771-0.166582 27.2771-0.166667 5.15495e-07ZM4.00008 25.9437 0.000104987 33.9437-3.99992 25.9437Z" fill="#000005" transform="matrix(1 0 0 -1 223.5 194.444)"/><text fill="#FF0000" font-family="Arial,Arial_MSFontService,sans-serif" font-weight="400" font-size="21" transform="translate(111.605 530)">6x294x294<tspan x="0" y="-69">6x147x147</tspan><tspan x="-7.55989" y="-135">16x142x142</tspan><tspan x="7.84431" y="-206">16x71x71</tspan><tspan x="16.2931" y="-278">40x66x66</tspan><tspan x="-4.35359" y="-380">5x66x66 class confidences</tspan></text></g></svg>