<svg xmlns="http://www.w3.org/2000/svg" xmlns:xlink="http://www.w3.org/1999/xlink" width="987" height="525" overflow="hidden"><defs><clipPath id="clip0"><rect width="987" height="525" x="896" y="1872"/></clipPath></defs><g clip-path="url(#clip0)" transform="translate(-896 -1872)"><rect width="104" height="104" x="1353.5" y="1874.5" fill="none" stroke="#000005" stroke-miterlimit="8" stroke-width="4.583"/><text font-family="Times New Roman,Times New Roman_MSFontService,sans-serif" font-size="46" font-weight="400" transform="matrix(1 0 0 1 1382.13 1943)">30</text><rect width="104" height="104" x="1457.5" y="1874.5" fill="none" stroke="#000005" stroke-miterlimit="8" stroke-width="4.583"/><text font-family="Times New Roman,Times New Roman_MSFontService,sans-serif" font-size="46" font-weight="400" transform="matrix(1 0 0 1 1474.94 1943)">133</text><rect width="104" height="104" x="1561.5" y="1874.5" fill="none" stroke="#000005" stroke-miterlimit="8" stroke-width="4.583"/><text font-family="Times New Roman,Times New Roman_MSFontService,sans-serif" font-size="46" font-weight="400" transform="matrix(1 0 0 1 1578.64 1943)">219</text><rect width="104" height="104" x="1665.5" y="1874.5" fill="none" stroke="#000005" stroke-miterlimit="8" stroke-width="4.583"/><text font-family="Times New Roman,Times New Roman_MSFontService,sans-serif" font-size="46" font-weight="400" transform="matrix(1 0 0 1 1682.91 1943)">133</text><rect width="104" height="104" x="1769.5" y="1874.5" fill="none" stroke="#000005" stroke-miterlimit="8" stroke-width="4.583"/><text font-family="Times New Roman,Times New Roman_MSFontService,sans-serif" font-size="46" font-weight="400" transform="matrix(1 0 0 1 1798.06 1943)">30</text><rect width="104" height="104" x="1353.5" y="1978.5" fill="none" stroke="#000005" stroke-miterlimit="8" stroke-width="4.583"/><text font-family="Times New Roman,Times New Roman_MSFontService,sans-serif" font-size="46" font-weight="400" transform="matrix(1 0 0 1 1370.67 2046)">133</text><rect width="104" height="104" x="1457.5" y="1978.5" fill="none" stroke="#000005" stroke-miterlimit="8" stroke-width="4.583"/><text font-family="Times New Roman,Times New Roman_MSFontService,sans-serif" font-size="46" font-weight="400" transform="matrix(1 0 0 1 1474.94 2046)">596</text><rect width="104" height="104" x="1561.5" y="1978.5" fill="none" stroke="#000005" stroke-miterlimit="8" stroke-width="4.583"/><text font-family="Times New Roman,Times New Roman_MSFontService,sans-serif" font-size="46" font-weight="400" transform="matrix(1 0 0 1 1578.64 2046)">983</text><rect width="104" height="104" x="1665.5" y="1978.5" fill="none" stroke="#000005" stroke-miterlimit="8" stroke-width="4.583"/><text font-family="Times New Roman,Times New Roman_MSFontService,sans-serif" font-size="46" font-weight="400" transform="matrix(1 0 0 1 1682.91 2046)">596</text><rect width="104" height="104" x="1769.5" y="1978.5" fill="none" stroke="#000005" stroke-miterlimit="8" stroke-width="4.583"/><text font-family="Times New Roman,Times New Roman_MSFontService,sans-serif" font-size="46" font-weight="400" transform="matrix(1 0 0 1 1786.61 2046)">133</text><rect width="104" height="105" x="1353.5" y="2081.5" fill="none" stroke="#000005" stroke-miterlimit="8" stroke-width="4.583"/><text font-family="Times New Roman,Times New Roman_MSFontService,sans-serif" font-size="46" font-weight="400" transform="matrix(1 0 0 1 1370.67 2150)">219</text><rect width="104" height="105" x="1457.5" y="2081.5" fill="none" stroke="#000005" stroke-miterlimit="8" stroke-width="4.583"/><text font-family="Times New Roman,Times New Roman_MSFontService,sans-serif" font-size="46" font-weight="400" transform="matrix(1 0 0 1 1474.94 2150)">983</text><rect width="104" height="105" x="1561.5" y="2081.5" fill="none" stroke="#000005" stroke-miterlimit="8" stroke-width="4.583"/><text font-family="Times New Roman,Times New Roman_MSFontService,sans-serif" font-size="46" font-weight="400" transform="matrix(1 0 0 1 1567.18 2150)">1621</text><rect width="104" height="105" x="1665.5" y="2081.5" fill="none" stroke="#000005" stroke-miterlimit="8" stroke-width="4.583"/><text font-family="Times New Roman,Times New Roman_MSFontService,sans-serif" font-size="46" font-weight="400" transform="matrix(1 0 0 1 1682.91 2150)">983</text><rect width="104" height="105" x="1769.5" y="2081.5" fill="none" stroke="#000005" stroke-miterlimit="8" stroke-width="4.583"/><text font-family="Times New Roman,Times New Roman_MSFontService,sans-serif" font-size="46" font-weight="400" transform="matrix(1 0 0 1 1786.61 2150)">219</text><rect width="104" height="104" x="1353.5" y="2186.5" fill="none" stroke="#000005" stroke-miterlimit="8" stroke-width="4.583"/><text font-family="Times New Roman,Times New Roman_MSFontService,sans-serif" font-size="46" font-weight="400" transform="matrix(1 0 0 1 1370.67 2254)">133</text><rect width="104" height="104" x="1457.5" y="2186.5" fill="none" stroke="#000005" stroke-miterlimit="8" stroke-width="4.583"/><text font-family="Times New Roman,Times New Roman_MSFontService,sans-serif" font-size="46" font-weight="400" transform="matrix(1 0 0 1 1474.94 2254)">596</text><rect width="104" height="104" x="1561.5" y="2186.5" fill="none" stroke="#000005" stroke-miterlimit="8" stroke-width="4.583"/><text font-family="Times New Roman,Times New Roman_MSFontService,sans-serif" font-size="46" font-weight="400" transform="matrix(1 0 0 1 1578.64 2254)">983</text><rect width="104" height="104" x="1665.5" y="2186.5" fill="none" stroke="#000005" stroke-miterlimit="8" stroke-width="4.583"/><text font-family="Times New Roman,Times New Roman_MSFontService,sans-serif" font-size="46" font-weight="400" transform="matrix(1 0 0 1 1682.91 2254)">596</text><rect width="104" height="104" x="1769.5" y="2186.5" fill="none" stroke="#000005" stroke-miterlimit="8" stroke-width="4.583"/><text font-family="Times New Roman,Times New Roman_MSFontService,sans-serif" font-size="46" font-weight="400" transform="matrix(1 0 0 1 1786.61 2254)">133</text><rect width="104" height="105" x="1353.5" y="2289.5" fill="none" stroke="#000005" stroke-miterlimit="8" stroke-width="4.583"/><text font-family="Times New Roman,Times New Roman_MSFontService,sans-serif" font-size="46" font-weight="400" transform="matrix(1 0 0 1 1382.13 2358)">30</text><rect width="104" height="105" x="1457.5" y="2289.5" fill="none" stroke="#000005" stroke-miterlimit="8" stroke-width="4.583"/><text font-family="Times New Roman,Times New Roman_MSFontService,sans-serif" font-size="46" font-weight="400" transform="matrix(1 0 0 1 1474.94 2358)">133</text><rect width="104" height="105" x="1561.5" y="2289.5" fill="none" stroke="#000005" stroke-miterlimit="8" stroke-width="4.583"/><text font-family="Times New Roman,Times New Roman_MSFontService,sans-serif" font-size="46" font-weight="400" transform="matrix(1 0 0 1 1578.64 2358)">219</text><rect width="104" height="105" x="1665.5" y="2289.5" fill="none" stroke="#000005" stroke-miterlimit="8" stroke-width="4.583"/><text font-family="Times New Roman,Times New Roman_MSFontService,sans-serif" font-size="46" font-weight="400" transform="matrix(1 0 0 1 1682.91 2358)">133</text><rect width="104" height="105" x="1769.5" y="2289.5" fill="none" stroke="#000005" stroke-miterlimit="8" stroke-width="4.583"/><text font-family="Times New Roman,Times New Roman_MSFontService,sans-serif" font-size="46" font-weight="400" transform="matrix(1 0 0 1 1798.06 2358)">30</text><path fill="#000005" fill-rule="evenodd" d="M968.412 2102.4C966.346 2102.4 964.616 2103.02 963.224 2104.24 961.831 2105.47 960.708 2107.24 959.855 2109.55 959.001 2111.85 958.395 2114.66 958.035 2117.97 957.676 2121.28 957.496 2125.01 957.496 2129.18 957.496 2138.94 958.402 2146.1 960.214 2150.67 962.026 2155.24 964.833 2157.52 968.637 2157.52 972.261 2157.52 974.948 2155.37 976.7 2151.08 978.452 2146.78 979.328 2140.12 979.328 2131.11 979.328 2124.22 978.879 2118.64 977.981 2114.37 977.082 2110.11 975.832 2107.04 974.23 2105.19 972.627 2103.33 970.688 2102.4 968.412 2102.4ZM968.637 2098.58C975.195 2098.58 980.077 2101.12 983.281 2106.18 986.486 2111.24 988.088 2118.89 988.088 2129.13 988.088 2139.73 986.374 2147.75 982.945 2153.19 979.516 2158.62 974.507 2161.34 967.918 2161.34 961.449 2161.34 956.635 2158.79 953.476 2153.7 950.316 2148.61 948.737 2140.89 948.737 2130.52 948.737 2125.01 949.223 2120.25 950.196 2116.24 951.17 2112.23 952.532 2108.91 954.284 2106.29 956.036 2103.67 958.14 2101.73 960.596 2100.47 963.052 2099.21 965.732 2098.58 968.637 2098.58Z"/><text x="948.737" y="2153.5" fill="#000" fill-opacity="0" font-family="Arial,Arial_MSFontService,sans-serif" font-size="62.756">0</text><path fill="#000005" fill-rule="evenodd" d="M998.828 2150.2 1007.9 2150.2 1007.9 2160.62 998.828 2160.62Z"/><text x="998.828" y="2159.32" fill="#000" fill-opacity="0" font-family="Arial,Arial_MSFontService,sans-serif" font-size="10.422">.</text><path fill="#000005" fill-rule="evenodd" d="M1140.31 2102.4C1138.24 2102.4 1136.51 2103.02 1135.12 2104.24 1133.73 2105.47 1132.6 2107.24 1131.75 2109.55 1130.9 2111.85 1130.29 2114.66 1129.93 2117.97 1129.57 2121.28 1129.39 2125.01 1129.39 2129.18 1129.39 2138.94 1130.3 2146.1 1132.11 2150.67 1133.92 2155.24 1136.73 2157.52 1140.53 2157.52 1144.16 2157.52 1146.84 2155.37 1148.6 2151.08 1150.35 2146.78 1151.22 2140.12 1151.22 2131.11 1151.22 2124.22 1150.77 2118.64 1149.88 2114.37 1148.98 2110.11 1147.73 2107.04 1146.13 2105.19 1144.52 2103.33 1142.58 2102.4 1140.31 2102.4ZM1089.31 2102.4C1087.24 2102.4 1085.51 2103.02 1084.12 2104.24 1082.73 2105.47 1081.6 2107.24 1080.75 2109.55 1079.9 2111.85 1079.29 2114.66 1078.93 2117.97 1078.57 2121.28 1078.39 2125.01 1078.39 2129.18 1078.39 2138.94 1079.3 2146.1 1081.11 2150.67 1082.92 2155.24 1085.73 2157.52 1089.53 2157.52 1093.16 2157.52 1095.84 2155.37 1097.6 2151.08 1099.35 2146.78 1100.22 2140.12 1100.22 2131.11 1100.22 2124.22 1099.77 2118.64 1098.88 2114.37 1097.98 2110.11 1096.73 2107.04 1095.13 2105.19 1093.52 2103.33 1091.58 2102.4 1089.31 2102.4ZM1038.31 2102.4C1036.24 2102.4 1034.51 2103.02 1033.12 2104.24 1031.73 2105.47 1030.6 2107.24 1029.75 2109.55 1028.9 2111.85 1028.29 2114.66 1027.93 2117.97 1027.57 2121.28 1027.39 2125.01 1027.39 2129.18 1027.39 2138.94 1028.3 2146.1 1030.11 2150.67 1031.92 2155.24 1034.73 2157.52 1038.53 2157.52 1042.16 2157.52 1044.84 2155.37 1046.6 2151.08 1048.35 2146.78 1049.22 2140.12 1049.22 2131.11 1049.22 2124.22 1048.77 2118.64 1047.88 2114.37 1046.98 2110.11 1045.73 2107.04 1044.13 2105.19 1042.52 2103.33 1040.58 2102.4 1038.31 2102.4ZM1140.53 2098.58C1147.09 2098.58 1151.97 2101.12 1155.18 2106.18 1158.38 2111.24 1159.98 2118.89 1159.98 2129.13 1159.98 2139.73 1158.27 2147.75 1154.84 2153.19 1151.41 2158.62 1146.4 2161.34 1139.81 2161.34 1133.35 2161.34 1128.53 2158.79 1125.37 2153.7 1122.21 2148.61 1120.63 2140.89 1120.63 2130.52 1120.63 2125.01 1121.12 2120.25 1122.09 2116.24 1123.07 2112.23 1124.43 2108.91 1126.18 2106.29 1127.93 2103.67 1130.04 2101.73 1132.49 2100.47 1134.95 2099.21 1137.63 2098.58 1140.53 2098.58ZM1089.53 2098.58C1096.09 2098.58 1100.97 2101.12 1104.18 2106.18 1107.38 2111.24 1108.98 2118.89 1108.98 2129.13 1108.98 2139.73 1107.27 2147.75 1103.84 2153.19 1100.41 2158.62 1095.4 2161.34 1088.81 2161.34 1082.35 2161.34 1077.53 2158.79 1074.37 2153.7 1071.21 2148.61 1069.63 2140.89 1069.63 2130.52 1069.63 2125.01 1070.12 2120.25 1071.09 2116.24 1072.07 2112.23 1073.43 2108.91 1075.18 2106.29 1076.93 2103.67 1079.04 2101.73 1081.49 2100.47 1083.95 2099.21 1086.63 2098.58 1089.53 2098.58ZM1038.53 2098.58C1045.09 2098.58 1049.97 2101.12 1053.18 2106.18 1056.38 2111.24 1057.98 2118.89 1057.98 2129.13 1057.98 2139.73 1056.27 2147.75 1052.84 2153.19 1049.41 2158.62 1044.4 2161.34 1037.81 2161.34 1031.35 2161.34 1026.53 2158.79 1023.37 2153.7 1020.21 2148.61 1018.63 2140.89 1018.63 2130.52 1018.63 2125.01 1019.12 2120.25 1020.09 2116.24 1021.07 2112.23 1022.43 2108.91 1024.18 2106.29 1025.93 2103.67 1028.04 2101.73 1030.49 2100.47 1032.95 2099.21 1035.63 2098.58 1038.53 2098.58Z"/><text x="1018.63" y="2153.5" fill="#000" fill-opacity="0" font-family="Arial,Arial_MSFontService,sans-serif" font-size="62.756">000</text><path fill="#000005" fill-rule="evenodd" d="M1194.83 2098.58 1197.3 2098.58C1197.12 2101.46 1197.03 2105.44 1197.03 2110.53L1197.03 2148.9C1197.03 2150.63 1197.12 2151.94 1197.32 2152.83 1197.51 2153.71 1197.86 2154.43 1198.35 2154.98 1198.85 2155.54 1199.56 2155.97 1200.49 2156.29 1201.41 2156.6 1202.58 2156.84 1203.99 2157.01 1205.4 2157.17 1207.25 2157.28 1209.56 2157.34L1209.56 2160.62 1176.36 2160.62 1176.36 2157.34C1179.69 2157.19 1182.06 2156.99 1183.48 2156.74 1184.91 2156.48 1185.99 2156.1 1186.74 2155.59 1187.49 2155.08 1188.04 2154.36 1188.38 2153.43 1188.72 2152.51 1188.9 2150.99 1188.9 2148.9L1188.9 2112.47C1188.9 2111.27 1188.69 2110.39 1188.27 2109.84 1187.85 2109.28 1187.23 2109.01 1186.43 2109.01 1185.47 2109.01 1184.1 2109.5 1182.34 2110.49 1180.57 2111.48 1178.38 2112.84 1175.78 2114.58L1173.8 2111.12Z"/><text x="1173.8" y="2152.87" fill="#000" fill-opacity="0" font-family="Arial,Arial_MSFontService,sans-serif" font-size="62.037">1</text><path fill="#000005" fill-rule="evenodd" d="M1249.84 2109.73 1270.19 2130.03 1290.54 2109.73 1294.76 2113.9 1274.63 2134.39 1294.8 2154.78 1290.31 2159.27 1270.19 2138.74 1249.43 2159.09 1245.25 2154.87 1265.78 2134.39 1245.34 2114.22Z"/><text x="1245.25" y="2153.08" fill="#000" fill-opacity="0" font-family="Arial,Arial_MSFontService,sans-serif" font-size="49.549">×</text></g></svg>