<svg xmlns="http://www.w3.org/2000/svg" xmlns:xlink="http://www.w3.org/1999/xlink" width="352" height="588" overflow="hidden"><defs><clipPath id="clip0"><rect width="352" height="588" x="573" y="66"/></clipPath></defs><g clip-path="url(#clip0)" transform="translate(-573 -66)"><rect width="141" height="239" x="658.5" y="68.5" fill="none" stroke="#C41230" stroke-miterlimit="8" stroke-width="3"/><rect width="197" height="212" x="686.5" y="133.5" fill="none" stroke="#03C" stroke-miterlimit="8" stroke-width="3"/><path fill="none" fill-rule="evenodd" stroke="red" stroke-linejoin="round" stroke-miterlimit="10" stroke-width="3" d="M597.9 493.342C605.569 475.892 618.277 444.701 638.653 438.375 659.029 432.049 703.506 442.738 720.158 455.389 736.809 468.04 730.675 498.14 738.562 514.281 746.45 530.422 767.264 536.53 767.483 552.234 767.702 567.939 766.169 592.369 739.877 608.51 713.585 624.651 674.366 618.325 649.17 609.818 623.973 601.312 601.187 563.141 592.642 543.073 584.097 523.006 590.232 510.791 597.9 493.342Z"/><path fill="none" fill-rule="evenodd" stroke="#002060" stroke-linejoin="round" stroke-miterlimit="10" stroke-width="3" d="M635.639 504.452C637.395 491.112 649.251 470.116 664.619 459.837 679.987 449.558 705.453 440.81 727.847 442.779 750.24 444.747 776.366 453.276 798.978 471.647 821.591 490.018 850.351 529.384 863.524 553.004 876.696 576.624 887.234 606.148 878.014 613.366 868.793 620.583 822.469 597.838 808.199 596.307 793.929 594.776 795.685 597.838 792.392 604.18 789.099 610.522 799.198 626.488 788.44 634.361 777.683 642.234 742.995 652.513 727.847 651.42 712.698 650.326 707.649 640.703 697.55 627.8 687.451 614.896 674.498 588.652 667.253 573.999 660.008 559.346 658.911 551.254 654.081 539.882 649.251 528.51 633.883 517.793 635.639 504.452Z"/><text fill="#000005" font-family="Cambria Math,Cambria Math_MSFontService,sans-serif" font-size="27" font-weight="400" transform="translate(629.023 98)">𝐴<tspan x="263.123" y="58">𝐵</tspan><tspan x="78.567" y="130">𝐴</tspan><tspan x="101.587" y="130">∩</tspan><tspan x="125.681" y="130">𝐵</tspan><tspan x="35.574" y="435">𝐴</tspan><tspan x="58.594" y="435">∩</tspan><tspan x="82.687" y="435">𝐵</tspan><tspan x="-42.186" y="368">𝐴</tspan><tspan x="189.294" y="380">𝐵</tspan></text></g></svg>