<svg xmlns="http://www.w3.org/2000/svg" xmlns:xlink="http://www.w3.org/1999/xlink" width="295" height="199" overflow="hidden"><defs><clipPath id="clip0"><rect width="295" height="199" x="498" y="442"/></clipPath></defs><g clip-path="url(#clip0)" transform="translate(-498 -442)"><path fill="none" fill-rule="evenodd" stroke="#000005" stroke-linejoin="round" stroke-miterlimit="10" stroke-width=".333" d="M722.5 443.5C730.784 443.5 737.5 444.619 737.5 446L737.5 539.5C737.5 540.881 744.216 542 752.5 542 744.216 542 737.5 543.119 737.5 544.5L737.5 638C737.5 639.381 730.784 640.5 722.5 640.5"/><text fill="#000005" font-family="Arial,Arial_MSFontService,sans-serif" font-size="27" font-weight="400" transform="translate(761.778 551)">7</text><rect width="27" height="27" x="500.5" y="448.5" fill="none" stroke="red" stroke-linejoin="round" stroke-miterlimit="10" stroke-width="2.667"/><rect width="27" height="27" x="527.5" y="448.5" fill="none" stroke="red" stroke-linejoin="round" stroke-miterlimit="10" stroke-width="2.667"/><rect width="27" height="27" x="554.5" y="448.5" fill="none" stroke="red" stroke-linejoin="round" stroke-miterlimit="10" stroke-width="2.667"/><rect width="27" height="27" x="581.5" y="448.5" fill="none" stroke="red" stroke-linejoin="round" stroke-miterlimit="10" stroke-width="2.667"/><rect width="27" height="27" x="608.5" y="448.5" fill="none" stroke="red" stroke-linejoin="round" stroke-miterlimit="10" stroke-width="2.667"/><rect width="27" height="27" x="635.5" y="448.5" fill="none" stroke="red" stroke-linejoin="round" stroke-miterlimit="10" stroke-width="2.667"/><rect width="27" height="27" x="500.5" y="475.5" fill="none" stroke="red" stroke-linejoin="round" stroke-miterlimit="10" stroke-width="2.667"/><rect width="27" height="27" x="527.5" y="475.5" fill="none" stroke="red" stroke-linejoin="round" stroke-miterlimit="10" stroke-width="2.667"/><rect width="27" height="27" x="554.5" y="475.5" fill="none" stroke="red" stroke-linejoin="round" stroke-miterlimit="10" stroke-width="2.667"/><rect width="27" height="27" x="581.5" y="475.5" fill="none" stroke="red" stroke-linejoin="round" stroke-miterlimit="10" stroke-width="2.667"/><rect width="27" height="27" x="608.5" y="475.5" fill="none" stroke="red" stroke-linejoin="round" stroke-miterlimit="10" stroke-width="2.667"/><rect width="27" height="27" x="635.5" y="475.5" fill="none" stroke="red" stroke-linejoin="round" stroke-miterlimit="10" stroke-width="2.667"/><rect width="27" height="27" x="500.5" y="503.5" fill="none" stroke="red" stroke-linejoin="round" stroke-miterlimit="10" stroke-width="2.667"/><rect width="27" height="27" x="527.5" y="503.5" fill="none" stroke="red" stroke-linejoin="round" stroke-miterlimit="10" stroke-width="2.667"/><rect width="27" height="27" x="554.5" y="503.5" fill="none" stroke="red" stroke-linejoin="round" stroke-miterlimit="10" stroke-width="2.667"/><rect width="27" height="27" x="581.5" y="503.5" fill="none" stroke="red" stroke-linejoin="round" stroke-miterlimit="10" stroke-width="2.667"/><rect width="27" height="27" x="608.5" y="503.5" fill="none" stroke="red" stroke-linejoin="round" stroke-miterlimit="10" stroke-width="2.667"/><rect width="27" height="27" x="635.5" y="503.5" fill="none" stroke="red" stroke-linejoin="round" stroke-miterlimit="10" stroke-width="2.667"/><rect width="27" height="27" x="500.5" y="530.5" fill="none" stroke="red" stroke-linejoin="round" stroke-miterlimit="10" stroke-width="2.667"/><rect width="27" height="27" x="527.5" y="530.5" fill="none" stroke="red" stroke-linejoin="round" stroke-miterlimit="10" stroke-width="2.667"/><rect width="27" height="27" x="554.5" y="530.5" fill="none" stroke="red" stroke-linejoin="round" stroke-miterlimit="10" stroke-width="2.667"/><rect width="27" height="27" x="581.5" y="530.5" fill="none" stroke="red" stroke-linejoin="round" stroke-miterlimit="10" stroke-width="2.667"/><rect width="27" height="27" x="608.5" y="530.5" fill="none" stroke="red" stroke-linejoin="round" stroke-miterlimit="10" stroke-width="2.667"/><rect width="27" height="27" x="635.5" y="530.5" fill="none" stroke="red" stroke-linejoin="round" stroke-miterlimit="10" stroke-width="2.667"/><rect width="27" height="27" x="500.5" y="557.5" fill="none" stroke="red" stroke-linejoin="round" stroke-miterlimit="10" stroke-width="2.667"/><rect width="27" height="27" x="527.5" y="557.5" fill="none" stroke="red" stroke-linejoin="round" stroke-miterlimit="10" stroke-width="2.667"/><rect width="27" height="27" x="554.5" y="557.5" fill="none" stroke="red" stroke-linejoin="round" stroke-miterlimit="10" stroke-width="2.667"/><rect width="27" height="27" x="581.5" y="557.5" fill="none" stroke="red" stroke-linejoin="round" stroke-miterlimit="10" stroke-width="2.667"/><rect width="27" height="27" x="608.5" y="557.5" fill="none" stroke="red" stroke-linejoin="round" stroke-miterlimit="10" stroke-width="2.667"/><rect width="27" height="27" x="635.5" y="557.5" fill="none" stroke="red" stroke-linejoin="round" stroke-miterlimit="10" stroke-width="2.667"/><rect width="27" height="27" x="500.5" y="584.5" fill="none" stroke="red" stroke-linejoin="round" stroke-miterlimit="10" stroke-width="2.667"/><rect width="27" height="27" x="527.5" y="584.5" fill="none" stroke="red" stroke-linejoin="round" stroke-miterlimit="10" stroke-width="2.667"/><rect width="27" height="27" x="554.5" y="584.5" fill="none" stroke="red" stroke-linejoin="round" stroke-miterlimit="10" stroke-width="2.667"/><rect width="27" height="27" x="581.5" y="584.5" fill="none" stroke="red" stroke-linejoin="round" stroke-miterlimit="10" stroke-width="2.667"/><rect width="27" height="27" x="608.5" y="584.5" fill="none" stroke="red" stroke-linejoin="round" stroke-miterlimit="10" stroke-width="2.667"/><rect width="27" height="27" x="635.5" y="584.5" fill="none" stroke="red" stroke-linejoin="round" stroke-miterlimit="10" stroke-width="2.667"/><rect width="27" height="27" x="528.5" y="475.5" fill="none" stroke="#000083" stroke-linejoin="round" stroke-miterlimit="10" stroke-width="2.667"/><rect width="27" height="27" x="555.5" y="475.5" fill="none" stroke="#000083" stroke-linejoin="round" stroke-miterlimit="10" stroke-width="2.667"/><rect width="27" height="27" x="582.5" y="475.5" fill="none" stroke="#000083" stroke-linejoin="round" stroke-miterlimit="10" stroke-width="2.667"/><rect width="27" height="27" x="609.5" y="475.5" fill="none" stroke="#000083" stroke-linejoin="round" stroke-miterlimit="10" stroke-width="2.667"/><rect width="27" height="27" x="636.5" y="475.5" fill="none" stroke="#000083" stroke-linejoin="round" stroke-miterlimit="10" stroke-width="2.667"/><rect width="27" height="27" x="663.5" y="475.5" fill="none" stroke="#000083" stroke-linejoin="round" stroke-miterlimit="10" stroke-width="2.667"/><rect width="27" height="27" x="528.5" y="502.5" fill="none" stroke="#000083" stroke-linejoin="round" stroke-miterlimit="10" stroke-width="2.667"/><rect width="27" height="27" x="555.5" y="502.5" fill="none" stroke="#000083" stroke-linejoin="round" stroke-miterlimit="10" stroke-width="2.667"/><rect width="27" height="27" x="582.5" y="502.5" fill="none" stroke="#000083" stroke-linejoin="round" stroke-miterlimit="10" stroke-width="2.667"/><rect width="27" height="27" x="609.5" y="502.5" fill="none" stroke="#000083" stroke-linejoin="round" stroke-miterlimit="10" stroke-width="2.667"/><rect width="27" height="27" x="636.5" y="502.5" fill="none" stroke="#000083" stroke-linejoin="round" stroke-miterlimit="10" stroke-width="2.667"/><rect width="27" height="27" x="663.5" y="502.5" fill="none" stroke="#000083" stroke-linejoin="round" stroke-miterlimit="10" stroke-width="2.667"/><rect width="27" height="27" x="528.5" y="530.5" fill="none" stroke="#000083" stroke-linejoin="round" stroke-miterlimit="10" stroke-width="2.667"/><rect width="27" height="27" x="555.5" y="530.5" fill="none" stroke="#000083" stroke-linejoin="round" stroke-miterlimit="10" stroke-width="2.667"/><rect width="27" height="27" x="582.5" y="530.5" fill="none" stroke="#000083" stroke-linejoin="round" stroke-miterlimit="10" stroke-width="2.667"/><rect width="27" height="27" x="609.5" y="530.5" fill="none" stroke="#000083" stroke-linejoin="round" stroke-miterlimit="10" stroke-width="2.667"/><rect width="27" height="27" x="636.5" y="530.5" fill="none" stroke="#000083" stroke-linejoin="round" stroke-miterlimit="10" stroke-width="2.667"/><rect width="27" height="27" x="663.5" y="530.5" fill="none" stroke="#000083" stroke-linejoin="round" stroke-miterlimit="10" stroke-width="2.667"/><rect width="27" height="27" x="528.5" y="557.5" fill="none" stroke="#000083" stroke-linejoin="round" stroke-miterlimit="10" stroke-width="2.667"/><rect width="27" height="27" x="555.5" y="557.5" fill="none" stroke="#000083" stroke-linejoin="round" stroke-miterlimit="10" stroke-width="2.667"/><rect width="27" height="27" x="582.5" y="557.5" fill="none" stroke="#000083" stroke-linejoin="round" stroke-miterlimit="10" stroke-width="2.667"/><rect width="27" height="27" x="609.5" y="557.5" fill="none" stroke="#000083" stroke-linejoin="round" stroke-miterlimit="10" stroke-width="2.667"/><rect width="27" height="27" x="636.5" y="557.5" fill="none" stroke="#000083" stroke-linejoin="round" stroke-miterlimit="10" stroke-width="2.667"/><rect width="27" height="27" x="663.5" y="557.5" fill="none" stroke="#000083" stroke-linejoin="round" stroke-miterlimit="10" stroke-width="2.667"/><rect width="27" height="27" x="528.5" y="584.5" fill="none" stroke="#000083" stroke-linejoin="round" stroke-miterlimit="10" stroke-width="2.667"/><rect width="27" height="27" x="555.5" y="584.5" fill="none" stroke="#000083" stroke-linejoin="round" stroke-miterlimit="10" stroke-width="2.667"/><rect width="27" height="27" x="582.5" y="584.5" fill="none" stroke="#000083" stroke-linejoin="round" stroke-miterlimit="10" stroke-width="2.667"/><rect width="27" height="27" x="609.5" y="584.5" fill="none" stroke="#000083" stroke-linejoin="round" stroke-miterlimit="10" stroke-width="2.667"/><rect width="27" height="27" x="636.5" y="584.5" fill="none" stroke="#000083" stroke-linejoin="round" stroke-miterlimit="10" stroke-width="2.667"/><rect width="27" height="27" x="663.5" y="584.5" fill="none" stroke="#000083" stroke-linejoin="round" stroke-miterlimit="10" stroke-width="2.667"/><rect width="27" height="27" x="528.5" y="611.5" fill="none" stroke="#000083" stroke-linejoin="round" stroke-miterlimit="10" stroke-width="2.667"/><rect width="27" height="27" x="555.5" y="611.5" fill="none" stroke="#000083" stroke-linejoin="round" stroke-miterlimit="10" stroke-width="2.667"/><rect width="27" height="27" x="582.5" y="611.5" fill="none" stroke="#000083" stroke-linejoin="round" stroke-miterlimit="10" stroke-width="2.667"/><rect width="27" height="27" x="609.5" y="611.5" fill="none" stroke="#000083" stroke-linejoin="round" stroke-miterlimit="10" stroke-width="2.667"/><rect width="27" height="27" x="636.5" y="611.5" fill="none" stroke="#000083" stroke-linejoin="round" stroke-miterlimit="10" stroke-width="2.667"/><rect width="27" height="27" x="663.5" y="611.5" fill="none" stroke="#000083" stroke-linejoin="round" stroke-miterlimit="10" stroke-width="2.667"/></g></svg>