<svg width="251" height="167" xmlns="http://www.w3.org/2000/svg" xmlns:xlink="http://www.w3.org/1999/xlink" overflow="hidden"><defs><clipPath id="clip0"><rect x="183" y="487" width="251" height="167"/></clipPath></defs><g clip-path="url(#clip0)" transform="translate(-183 -487)"><rect x="184.5" y="489.5" width="27" height="27" stroke="#FF0000" stroke-width="2.66667" stroke-linejoin="round" stroke-miterlimit="10" fill="none"/><rect x="211.5" y="489.5" width="27" height="27" stroke="#FF0000" stroke-width="2.66667" stroke-linejoin="round" stroke-miterlimit="10" fill="none"/><rect x="238.5" y="489.5" width="27" height="27" stroke="#FF0000" stroke-width="2.66667" stroke-linejoin="round" stroke-miterlimit="10" fill="none"/><rect x="184.5" y="516.5" width="27" height="27" stroke="#FF0000" stroke-width="2.66667" stroke-linejoin="round" stroke-miterlimit="10" fill="none"/><rect x="211.5" y="516.5" width="27" height="27" stroke="#FF0000" stroke-width="2.66667" stroke-linejoin="round" stroke-miterlimit="10" fill="none"/><rect x="238.5" y="516.5" width="27" height="27" stroke="#FF0000" stroke-width="2.66667" stroke-linejoin="round" stroke-miterlimit="10" fill="none"/><rect x="184.5" y="543.5" width="27" height="27" stroke="#FF0000" stroke-width="2.66667" stroke-linejoin="round" stroke-miterlimit="10" fill="none"/><rect x="211.5" y="543.5" width="27" height="27" stroke="#FF0000" stroke-width="2.66667" stroke-linejoin="round" stroke-miterlimit="10" fill="none"/><rect x="238.5" y="543.5" width="27" height="27" stroke="#FF0000" stroke-width="2.66667" stroke-linejoin="round" stroke-miterlimit="10" fill="none"/><rect x="211.5" y="516.5" width="27" height="27" stroke="#002060" stroke-width="2.66667" stroke-linejoin="round" stroke-miterlimit="10" fill="none"/><rect x="238.5" y="516.5" width="27" height="27" stroke="#002060" stroke-width="2.66667" stroke-linejoin="round" stroke-miterlimit="10" fill="none"/><rect x="265.5" y="516.5" width="27" height="27" stroke="#002060" stroke-width="2.66667" stroke-linejoin="round" stroke-miterlimit="10" fill="none"/><rect x="211.5" y="543.5" width="27" height="27" stroke="#002060" stroke-width="2.66667" stroke-linejoin="round" stroke-miterlimit="10" fill="none"/><rect x="238.5" y="543.5" width="27" height="27" stroke="#002060" stroke-width="2.66667" stroke-linejoin="round" stroke-miterlimit="10" fill="none"/><rect x="265.5" y="543.5" width="27" height="27" stroke="#002060" stroke-width="2.66667" stroke-linejoin="round" stroke-miterlimit="10" fill="none"/><rect x="211.5" y="570.5" width="27" height="27" stroke="#002060" stroke-width="2.66667" stroke-linejoin="round" stroke-miterlimit="10" fill="none"/><rect x="238.5" y="570.5" width="27" height="27" stroke="#002060" stroke-width="2.66667" stroke-linejoin="round" stroke-miterlimit="10" fill="none"/><rect x="265.5" y="570.5" width="27" height="27" stroke="#002060" stroke-width="2.66667" stroke-linejoin="round" stroke-miterlimit="10" fill="none"/><rect x="238.5" y="543.5" width="27" height="27" stroke="#00B050" stroke-width="2.66667" stroke-linejoin="round" stroke-miterlimit="10" fill="none"/><rect x="265.5" y="543.5" width="27" height="27" stroke="#00B050" stroke-width="2.66667" stroke-linejoin="round" stroke-miterlimit="10" fill="none"/><rect x="292.5" y="543.5" width="27" height="27" stroke="#00B050" stroke-width="2.66667" stroke-linejoin="round" stroke-miterlimit="10" fill="none"/><rect x="238.5" y="570.5" width="27" height="27" stroke="#00B050" stroke-width="2.66667" stroke-linejoin="round" stroke-miterlimit="10" fill="none"/><rect x="265.5" y="570.5" width="27" height="27" stroke="#00B050" stroke-width="2.66667" stroke-linejoin="round" stroke-miterlimit="10" fill="none"/><rect x="292.5" y="570.5" width="27" height="27" stroke="#00B050" stroke-width="2.66667" stroke-linejoin="round" stroke-miterlimit="10" fill="none"/><rect x="238.5" y="597.5" width="27" height="27" stroke="#00B050" stroke-width="2.66667" stroke-linejoin="round" stroke-miterlimit="10" fill="none"/><rect x="265.5" y="597.5" width="27" height="27" stroke="#00B050" stroke-width="2.66667" stroke-linejoin="round" stroke-miterlimit="10" fill="none"/><rect x="292.5" y="597.5" width="27" height="27" stroke="#00B050" stroke-width="2.66667" stroke-linejoin="round" stroke-miterlimit="10" fill="none"/><path d="M357.5 489.5C367.441 489.5 375.5 490.843 375.5 492.5L375.5 568C375.5 569.657 383.559 571 393.5 571 383.559 571 375.5 572.343 375.5 574L375.5 649.5C375.5 651.157 367.441 652.5 357.5 652.5" stroke="#00502E" stroke-linejoin="round" stroke-miterlimit="10" fill="none" fill-rule="evenodd"/><text fill="#000005" font-family="Arial,Arial_MSFontService,sans-serif" font-weight="400" font-size="27" transform="translate(402.313 580)">6</text><rect x="265.5" y="570.5" width="27" height="27" stroke="#7030A0" stroke-width="2.66667" stroke-linejoin="round" stroke-miterlimit="10" fill="none"/><rect x="292.5" y="570.5" width="27" height="27" stroke="#7030A0" stroke-width="2.66667" stroke-linejoin="round" stroke-miterlimit="10" fill="none"/><rect x="319.5" y="570.5" width="27" height="27" stroke="#7030A0" stroke-width="2.66667" stroke-linejoin="round" stroke-miterlimit="10" fill="none"/><rect x="265.5" y="597.5" width="27" height="27" stroke="#7030A0" stroke-width="2.66667" stroke-linejoin="round" stroke-miterlimit="10" fill="none"/><rect x="292.5" y="597.5" width="27" height="27" stroke="#7030A0" stroke-width="2.66667" stroke-linejoin="round" stroke-miterlimit="10" fill="none"/><rect x="319.5" y="597.5" width="27" height="27" stroke="#7030A0" stroke-width="2.66667" stroke-linejoin="round" stroke-miterlimit="10" fill="none"/><rect x="265.5" y="625.5" width="27" height="27" stroke="#7030A0" stroke-width="2.66667" stroke-linejoin="round" stroke-miterlimit="10" fill="none"/><rect x="292.5" y="625.5" width="27" height="27" stroke="#7030A0" stroke-width="2.66667" stroke-linejoin="round" stroke-miterlimit="10" fill="none"/><rect x="319.5" y="625.5" width="27" height="27" stroke="#7030A0" stroke-width="2.66667" stroke-linejoin="round" stroke-miterlimit="10" fill="none"/></g></svg>