<svg width="295" height="199" xmlns="http://www.w3.org/2000/svg" xmlns:xlink="http://www.w3.org/1999/xlink" overflow="hidden"><defs><clipPath id="clip0"><rect x="498" y="442" width="295" height="199"/></clipPath></defs><g clip-path="url(#clip0)" transform="translate(-498 -442)"><path d="M722.5 443.5C730.784 443.5 737.5 444.619 737.5 446L737.5 539.5C737.5 540.881 744.216 542 752.5 542 744.216 542 737.5 543.119 737.5 544.5L737.5 638C737.5 639.381 730.784 640.5 722.5 640.5" stroke="#000005" stroke-width="0.333333" stroke-linejoin="round" stroke-miterlimit="10" fill="none" fill-rule="evenodd"/><text fill="#000005" font-family="Arial,Arial_MSFontService,sans-serif" font-weight="400" font-size="27" transform="translate(761.778 551)">7</text><rect x="500.5" y="448.5" width="27" height="27" stroke="#FF0000" stroke-width="2.66667" stroke-linejoin="round" stroke-miterlimit="10" fill="none"/><rect x="527.5" y="448.5" width="27" height="27" stroke="#FF0000" stroke-width="2.66667" stroke-linejoin="round" stroke-miterlimit="10" fill="none"/><rect x="554.5" y="448.5" width="27" height="27" stroke="#FF0000" stroke-width="2.66667" stroke-linejoin="round" stroke-miterlimit="10" fill="none"/><rect x="581.5" y="448.5" width="27" height="27" stroke="#FF0000" stroke-width="2.66667" stroke-linejoin="round" stroke-miterlimit="10" fill="none"/><rect x="608.5" y="448.5" width="27" height="27" stroke="#FF0000" stroke-width="2.66667" stroke-linejoin="round" stroke-miterlimit="10" fill="none"/><rect x="635.5" y="448.5" width="27" height="27" stroke="#FF0000" stroke-width="2.66667" stroke-linejoin="round" stroke-miterlimit="10" fill="none"/><rect x="500.5" y="475.5" width="27" height="27" stroke="#FF0000" stroke-width="2.66667" stroke-linejoin="round" stroke-miterlimit="10" fill="none"/><rect x="527.5" y="475.5" width="27" height="27" stroke="#FF0000" stroke-width="2.66667" stroke-linejoin="round" stroke-miterlimit="10" fill="none"/><rect x="554.5" y="475.5" width="27" height="27" stroke="#FF0000" stroke-width="2.66667" stroke-linejoin="round" stroke-miterlimit="10" fill="none"/><rect x="581.5" y="475.5" width="27" height="27" stroke="#FF0000" stroke-width="2.66667" stroke-linejoin="round" stroke-miterlimit="10" fill="none"/><rect x="608.5" y="475.5" width="27" height="27" stroke="#FF0000" stroke-width="2.66667" stroke-linejoin="round" stroke-miterlimit="10" fill="none"/><rect x="635.5" y="475.5" width="27" height="27" stroke="#FF0000" stroke-width="2.66667" stroke-linejoin="round" stroke-miterlimit="10" fill="none"/><rect x="500.5" y="503.5" width="27" height="27" stroke="#FF0000" stroke-width="2.66667" stroke-linejoin="round" stroke-miterlimit="10" fill="none"/><rect x="527.5" y="503.5" width="27" height="27" stroke="#FF0000" stroke-width="2.66667" stroke-linejoin="round" stroke-miterlimit="10" fill="none"/><rect x="554.5" y="503.5" width="27" height="27" stroke="#FF0000" stroke-width="2.66667" stroke-linejoin="round" stroke-miterlimit="10" fill="none"/><rect x="581.5" y="503.5" width="27" height="27" stroke="#FF0000" stroke-width="2.66667" stroke-linejoin="round" stroke-miterlimit="10" fill="none"/><rect x="608.5" y="503.5" width="27" height="27" stroke="#FF0000" stroke-width="2.66667" stroke-linejoin="round" stroke-miterlimit="10" fill="none"/><rect x="635.5" y="503.5" width="27" height="27" stroke="#FF0000" stroke-width="2.66667" stroke-linejoin="round" stroke-miterlimit="10" fill="none"/><rect x="500.5" y="530.5" width="27" height="27" stroke="#FF0000" stroke-width="2.66667" stroke-linejoin="round" stroke-miterlimit="10" fill="none"/><rect x="527.5" y="530.5" width="27" height="27" stroke="#FF0000" stroke-width="2.66667" stroke-linejoin="round" stroke-miterlimit="10" fill="none"/><rect x="554.5" y="530.5" width="27" height="27" stroke="#FF0000" stroke-width="2.66667" stroke-linejoin="round" stroke-miterlimit="10" fill="none"/><rect x="581.5" y="530.5" width="27" height="27" stroke="#FF0000" stroke-width="2.66667" stroke-linejoin="round" stroke-miterlimit="10" fill="none"/><rect x="608.5" y="530.5" width="27" height="27" stroke="#FF0000" stroke-width="2.66667" stroke-linejoin="round" stroke-miterlimit="10" fill="none"/><rect x="635.5" y="530.5" width="27" height="27" stroke="#FF0000" stroke-width="2.66667" stroke-linejoin="round" stroke-miterlimit="10" fill="none"/><rect x="500.5" y="557.5" width="27" height="27" stroke="#FF0000" stroke-width="2.66667" stroke-linejoin="round" stroke-miterlimit="10" fill="none"/><rect x="527.5" y="557.5" width="27" height="27" stroke="#FF0000" stroke-width="2.66667" stroke-linejoin="round" stroke-miterlimit="10" fill="none"/><rect x="554.5" y="557.5" width="27" height="27" stroke="#FF0000" stroke-width="2.66667" stroke-linejoin="round" stroke-miterlimit="10" fill="none"/><rect x="581.5" y="557.5" width="27" height="27" stroke="#FF0000" stroke-width="2.66667" stroke-linejoin="round" stroke-miterlimit="10" fill="none"/><rect x="608.5" y="557.5" width="27" height="27" stroke="#FF0000" stroke-width="2.66667" stroke-linejoin="round" stroke-miterlimit="10" fill="none"/><rect x="635.5" y="557.5" width="27" height="27" stroke="#FF0000" stroke-width="2.66667" stroke-linejoin="round" stroke-miterlimit="10" fill="none"/><rect x="500.5" y="584.5" width="27" height="27" stroke="#FF0000" stroke-width="2.66667" stroke-linejoin="round" stroke-miterlimit="10" fill="none"/><rect x="527.5" y="584.5" width="27" height="27" stroke="#FF0000" stroke-width="2.66667" stroke-linejoin="round" stroke-miterlimit="10" fill="none"/><rect x="554.5" y="584.5" width="27" height="27" stroke="#FF0000" stroke-width="2.66667" stroke-linejoin="round" stroke-miterlimit="10" fill="none"/><rect x="581.5" y="584.5" width="27" height="27" stroke="#FF0000" stroke-width="2.66667" stroke-linejoin="round" stroke-miterlimit="10" fill="none"/><rect x="608.5" y="584.5" width="27" height="27" stroke="#FF0000" stroke-width="2.66667" stroke-linejoin="round" stroke-miterlimit="10" fill="none"/><rect x="635.5" y="584.5" width="27" height="27" stroke="#FF0000" stroke-width="2.66667" stroke-linejoin="round" stroke-miterlimit="10" fill="none"/><rect x="528.5" y="475.5" width="27" height="27" stroke="#000083" stroke-width="2.66667" stroke-linejoin="round" stroke-miterlimit="10" fill="none"/><rect x="555.5" y="475.5" width="27" height="27" stroke="#000083" stroke-width="2.66667" stroke-linejoin="round" stroke-miterlimit="10" fill="none"/><rect x="582.5" y="475.5" width="27" height="27" stroke="#000083" stroke-width="2.66667" stroke-linejoin="round" stroke-miterlimit="10" fill="none"/><rect x="609.5" y="475.5" width="27" height="27" stroke="#000083" stroke-width="2.66667" stroke-linejoin="round" stroke-miterlimit="10" fill="none"/><rect x="636.5" y="475.5" width="27" height="27" stroke="#000083" stroke-width="2.66667" stroke-linejoin="round" stroke-miterlimit="10" fill="none"/><rect x="663.5" y="475.5" width="27" height="27" stroke="#000083" stroke-width="2.66667" stroke-linejoin="round" stroke-miterlimit="10" fill="none"/><rect x="528.5" y="502.5" width="27" height="27" stroke="#000083" stroke-width="2.66667" stroke-linejoin="round" stroke-miterlimit="10" fill="none"/><rect x="555.5" y="502.5" width="27" height="27" stroke="#000083" stroke-width="2.66667" stroke-linejoin="round" stroke-miterlimit="10" fill="none"/><rect x="582.5" y="502.5" width="27" height="27" stroke="#000083" stroke-width="2.66667" stroke-linejoin="round" stroke-miterlimit="10" fill="none"/><rect x="609.5" y="502.5" width="27" height="27" stroke="#000083" stroke-width="2.66667" stroke-linejoin="round" stroke-miterlimit="10" fill="none"/><rect x="636.5" y="502.5" width="27" height="27" stroke="#000083" stroke-width="2.66667" stroke-linejoin="round" stroke-miterlimit="10" fill="none"/><rect x="663.5" y="502.5" width="27" height="27" stroke="#000083" stroke-width="2.66667" stroke-linejoin="round" stroke-miterlimit="10" fill="none"/><rect x="528.5" y="530.5" width="27" height="27" stroke="#000083" stroke-width="2.66667" stroke-linejoin="round" stroke-miterlimit="10" fill="none"/><rect x="555.5" y="530.5" width="27" height="27" stroke="#000083" stroke-width="2.66667" stroke-linejoin="round" stroke-miterlimit="10" fill="none"/><rect x="582.5" y="530.5" width="27" height="27" stroke="#000083" stroke-width="2.66667" stroke-linejoin="round" stroke-miterlimit="10" fill="none"/><rect x="609.5" y="530.5" width="27" height="27" stroke="#000083" stroke-width="2.66667" stroke-linejoin="round" stroke-miterlimit="10" fill="none"/><rect x="636.5" y="530.5" width="27" height="27" stroke="#000083" stroke-width="2.66667" stroke-linejoin="round" stroke-miterlimit="10" fill="none"/><rect x="663.5" y="530.5" width="27" height="27" stroke="#000083" stroke-width="2.66667" stroke-linejoin="round" stroke-miterlimit="10" fill="none"/><rect x="528.5" y="557.5" width="27" height="27" stroke="#000083" stroke-width="2.66667" stroke-linejoin="round" stroke-miterlimit="10" fill="none"/><rect x="555.5" y="557.5" width="27" height="27" stroke="#000083" stroke-width="2.66667" stroke-linejoin="round" stroke-miterlimit="10" fill="none"/><rect x="582.5" y="557.5" width="27" height="27" stroke="#000083" stroke-width="2.66667" stroke-linejoin="round" stroke-miterlimit="10" fill="none"/><rect x="609.5" y="557.5" width="27" height="27" stroke="#000083" stroke-width="2.66667" stroke-linejoin="round" stroke-miterlimit="10" fill="none"/><rect x="636.5" y="557.5" width="27" height="27" stroke="#000083" stroke-width="2.66667" stroke-linejoin="round" stroke-miterlimit="10" fill="none"/><rect x="663.5" y="557.5" width="27" height="27" stroke="#000083" stroke-width="2.66667" stroke-linejoin="round" stroke-miterlimit="10" fill="none"/><rect x="528.5" y="584.5" width="27" height="27" stroke="#000083" stroke-width="2.66667" stroke-linejoin="round" stroke-miterlimit="10" fill="none"/><rect x="555.5" y="584.5" width="27" height="27" stroke="#000083" stroke-width="2.66667" stroke-linejoin="round" stroke-miterlimit="10" fill="none"/><rect x="582.5" y="584.5" width="27" height="27" stroke="#000083" stroke-width="2.66667" stroke-linejoin="round" stroke-miterlimit="10" fill="none"/><rect x="609.5" y="584.5" width="27" height="27" stroke="#000083" stroke-width="2.66667" stroke-linejoin="round" stroke-miterlimit="10" fill="none"/><rect x="636.5" y="584.5" width="27" height="27" stroke="#000083" stroke-width="2.66667" stroke-linejoin="round" stroke-miterlimit="10" fill="none"/><rect x="663.5" y="584.5" width="27" height="27" stroke="#000083" stroke-width="2.66667" stroke-linejoin="round" stroke-miterlimit="10" fill="none"/><rect x="528.5" y="611.5" width="27" height="27" stroke="#000083" stroke-width="2.66667" stroke-linejoin="round" stroke-miterlimit="10" fill="none"/><rect x="555.5" y="611.5" width="27" height="27" stroke="#000083" stroke-width="2.66667" stroke-linejoin="round" stroke-miterlimit="10" fill="none"/><rect x="582.5" y="611.5" width="27" height="27" stroke="#000083" stroke-width="2.66667" stroke-linejoin="round" stroke-miterlimit="10" fill="none"/><rect x="609.5" y="611.5" width="27" height="27" stroke="#000083" stroke-width="2.66667" stroke-linejoin="round" stroke-miterlimit="10" fill="none"/><rect x="636.5" y="611.5" width="27" height="27" stroke="#000083" stroke-width="2.66667" stroke-linejoin="round" stroke-miterlimit="10" fill="none"/><rect x="663.5" y="611.5" width="27" height="27" stroke="#000083" stroke-width="2.66667" stroke-linejoin="round" stroke-miterlimit="10" fill="none"/></g></svg>