<svg xmlns="http://www.w3.org/2000/svg" xmlns:xlink="http://www.w3.org/1999/xlink" width="251" height="167" overflow="hidden"><defs><clipPath id="clip0"><rect width="251" height="167" x="183" y="487"/></clipPath></defs><g clip-path="url(#clip0)" transform="translate(-183 -487)"><rect width="27" height="27" x="184.5" y="489.5" fill="none" stroke="red" stroke-linejoin="round" stroke-miterlimit="10" stroke-width="2.667"/><rect width="27" height="27" x="211.5" y="489.5" fill="none" stroke="red" stroke-linejoin="round" stroke-miterlimit="10" stroke-width="2.667"/><rect width="27" height="27" x="238.5" y="489.5" fill="none" stroke="red" stroke-linejoin="round" stroke-miterlimit="10" stroke-width="2.667"/><rect width="27" height="27" x="184.5" y="516.5" fill="none" stroke="red" stroke-linejoin="round" stroke-miterlimit="10" stroke-width="2.667"/><rect width="27" height="27" x="211.5" y="516.5" fill="none" stroke="red" stroke-linejoin="round" stroke-miterlimit="10" stroke-width="2.667"/><rect width="27" height="27" x="238.5" y="516.5" fill="none" stroke="red" stroke-linejoin="round" stroke-miterlimit="10" stroke-width="2.667"/><rect width="27" height="27" x="184.5" y="543.5" fill="none" stroke="red" stroke-linejoin="round" stroke-miterlimit="10" stroke-width="2.667"/><rect width="27" height="27" x="211.5" y="543.5" fill="none" stroke="red" stroke-linejoin="round" stroke-miterlimit="10" stroke-width="2.667"/><rect width="27" height="27" x="238.5" y="543.5" fill="none" stroke="red" stroke-linejoin="round" stroke-miterlimit="10" stroke-width="2.667"/><rect width="27" height="27" x="211.5" y="516.5" fill="none" stroke="#002060" stroke-linejoin="round" stroke-miterlimit="10" stroke-width="2.667"/><rect width="27" height="27" x="238.5" y="516.5" fill="none" stroke="#002060" stroke-linejoin="round" stroke-miterlimit="10" stroke-width="2.667"/><rect width="27" height="27" x="265.5" y="516.5" fill="none" stroke="#002060" stroke-linejoin="round" stroke-miterlimit="10" stroke-width="2.667"/><rect width="27" height="27" x="211.5" y="543.5" fill="none" stroke="#002060" stroke-linejoin="round" stroke-miterlimit="10" stroke-width="2.667"/><rect width="27" height="27" x="238.5" y="543.5" fill="none" stroke="#002060" stroke-linejoin="round" stroke-miterlimit="10" stroke-width="2.667"/><rect width="27" height="27" x="265.5" y="543.5" fill="none" stroke="#002060" stroke-linejoin="round" stroke-miterlimit="10" stroke-width="2.667"/><rect width="27" height="27" x="211.5" y="570.5" fill="none" stroke="#002060" stroke-linejoin="round" stroke-miterlimit="10" stroke-width="2.667"/><rect width="27" height="27" x="238.5" y="570.5" fill="none" stroke="#002060" stroke-linejoin="round" stroke-miterlimit="10" stroke-width="2.667"/><rect width="27" height="27" x="265.5" y="570.5" fill="none" stroke="#002060" stroke-linejoin="round" stroke-miterlimit="10" stroke-width="2.667"/><rect width="27" height="27" x="238.5" y="543.5" fill="none" stroke="#00B050" stroke-linejoin="round" stroke-miterlimit="10" stroke-width="2.667"/><rect width="27" height="27" x="265.5" y="543.5" fill="none" stroke="#00B050" stroke-linejoin="round" stroke-miterlimit="10" stroke-width="2.667"/><rect width="27" height="27" x="292.5" y="543.5" fill="none" stroke="#00B050" stroke-linejoin="round" stroke-miterlimit="10" stroke-width="2.667"/><rect width="27" height="27" x="238.5" y="570.5" fill="none" stroke="#00B050" stroke-linejoin="round" stroke-miterlimit="10" stroke-width="2.667"/><rect width="27" height="27" x="265.5" y="570.5" fill="none" stroke="#00B050" stroke-linejoin="round" stroke-miterlimit="10" stroke-width="2.667"/><rect width="27" height="27" x="292.5" y="570.5" fill="none" stroke="#00B050" stroke-linejoin="round" stroke-miterlimit="10" stroke-width="2.667"/><rect width="27" height="27" x="238.5" y="597.5" fill="none" stroke="#00B050" stroke-linejoin="round" stroke-miterlimit="10" stroke-width="2.667"/><rect width="27" height="27" x="265.5" y="597.5" fill="none" stroke="#00B050" stroke-linejoin="round" stroke-miterlimit="10" stroke-width="2.667"/><rect width="27" height="27" x="292.5" y="597.5" fill="none" stroke="#00B050" stroke-linejoin="round" stroke-miterlimit="10" stroke-width="2.667"/><path fill="none" fill-rule="evenodd" stroke="#00502E" stroke-linejoin="round" stroke-miterlimit="10" d="M357.5 489.5C367.441 489.5 375.5 490.843 375.5 492.5L375.5 568C375.5 569.657 383.559 571 393.5 571 383.559 571 375.5 572.343 375.5 574L375.5 649.5C375.5 651.157 367.441 652.5 357.5 652.5"/><text fill="#000005" font-family="Arial,Arial_MSFontService,sans-serif" font-size="27" font-weight="400" transform="translate(402.313 580)">6</text><rect width="27" height="27" x="265.5" y="570.5" fill="none" stroke="#7030A0" stroke-linejoin="round" stroke-miterlimit="10" stroke-width="2.667"/><rect width="27" height="27" x="292.5" y="570.5" fill="none" stroke="#7030A0" stroke-linejoin="round" stroke-miterlimit="10" stroke-width="2.667"/><rect width="27" height="27" x="319.5" y="570.5" fill="none" stroke="#7030A0" stroke-linejoin="round" stroke-miterlimit="10" stroke-width="2.667"/><rect width="27" height="27" x="265.5" y="597.5" fill="none" stroke="#7030A0" stroke-linejoin="round" stroke-miterlimit="10" stroke-width="2.667"/><rect width="27" height="27" x="292.5" y="597.5" fill="none" stroke="#7030A0" stroke-linejoin="round" stroke-miterlimit="10" stroke-width="2.667"/><rect width="27" height="27" x="319.5" y="597.5" fill="none" stroke="#7030A0" stroke-linejoin="round" stroke-miterlimit="10" stroke-width="2.667"/><rect width="27" height="27" x="265.5" y="625.5" fill="none" stroke="#7030A0" stroke-linejoin="round" stroke-miterlimit="10" stroke-width="2.667"/><rect width="27" height="27" x="292.5" y="625.5" fill="none" stroke="#7030A0" stroke-linejoin="round" stroke-miterlimit="10" stroke-width="2.667"/><rect width="27" height="27" x="319.5" y="625.5" fill="none" stroke="#7030A0" stroke-linejoin="round" stroke-miterlimit="10" stroke-width="2.667"/></g></svg>