<svg xmlns="http://www.w3.org/2000/svg" xmlns:xlink="http://www.w3.org/1999/xlink" width="854" height="660" overflow="hidden"><defs><clipPath id="clip0"><rect width="854" height="660" x="109" y="44"/></clipPath></defs><g clip-path="url(#clip0)" transform="translate(-109 -44)"><rect width="578" height="38" x="110.5" y="179.5" fill="none" stroke="#000005" stroke-linejoin="round" stroke-miterlimit="10" stroke-width=".333"/><text fill="#000005" font-family="Calibri,Calibri_MSFontService,sans-serif" font-size="27" font-weight="400" transform="translate(132.131 204)">c<tspan x="11.113" y="0" font-size="27">onv2d, 3, 4, kernel=3, stride=1, padding=1, </tspan>ReLU</text><rect width="578" height="38" x="110.5" y="334.5" fill="none" stroke="#000005" stroke-linejoin="round" stroke-miterlimit="10" stroke-width=".333"/><text fill="#000005" font-family="Calibri,Calibri_MSFontService,sans-serif" font-size="27" font-weight="400" transform="translate(131.77 359)">c<tspan x="11.113" y="0" font-size="27">onv2d, 4, 8, kernel=3, stride=1, padding=1, </tspan>ReLU</text><rect width="578" height="38" x="110.5" y="258.5" fill="none" stroke="#000005" stroke-linejoin="round" stroke-miterlimit="10" stroke-width=".333"/><text fill="#000005" font-family="Calibri,Calibri_MSFontService,sans-serif" font-size="27" font-weight="400" transform="translate(227.231 283)">max<tspan x="45.42" y="0" font-size="27">-</tspan><tspan x="53.587" y="0" font-size="27">pooling</tspan>, kernel=2, stride=2</text><rect width="578" height="38" x="110.5" y="417.5" fill="none" stroke="#000005" stroke-linejoin="round" stroke-miterlimit="10" stroke-width=".333"/><text fill="#000005" font-family="Calibri,Calibri_MSFontService,sans-serif" font-size="27" font-weight="400" transform="translate(227.06 442)">max<tspan x="45.42" y="0" font-size="27">-</tspan><tspan x="53.587" y="0" font-size="27">pooling</tspan><tspan x="134.72" y="0" font-size="27">, kernel=2, stride=2</tspan></text><rect width="578" height="37" x="110.5" y="493.5" fill="none" stroke="#000005" stroke-linejoin="round" stroke-miterlimit="10" stroke-width=".333"/><text fill="#000005" font-family="Calibri,Calibri_MSFontService,sans-serif" font-size="27" font-weight="400" transform="translate(362.88 518)">flatten</text><rect width="579" height="38" x="110.5" y="568.5" fill="none" stroke="#000005" stroke-linejoin="round" stroke-miterlimit="10" stroke-width=".333"/><text fill="#000005" font-family="Calibri,Calibri_MSFontService,sans-serif" font-size="27" font-weight="400" transform="translate(283.799 593)">fcl<tspan x="25.08" y="0" font-size="27">, </tspan><tspan x="37.747" y="0" font-size="27">2048, 10, </tspan>softmax</text><path fill="#000005" d="M0.166665-0.00077068 0.325759 34.4044-0.00757081 34.406-0.166665 0.00077068ZM4.15289 33.0534 0.189921 41.0718-3.84703 33.0904Z" transform="matrix(-1 0 0 1 399.69 217.5)"/><path fill="#000005" d="M0.166665-0.000753192 0.307561 31.1764-0.025769 31.1779-0.166665 0.000753192ZM4.13483 29.8258 0.171024 37.8438-3.86509 29.8619Z" transform="matrix(-1 0 0 1 399.671 296.5)"/><path fill="#000005" d="M399.667 372.5 399.667 411.281 399.333 411.281 399.333 372.5ZM403.5 409.947 399.5 417.947 395.5 409.947Z"/><path fill="#000005" d="M399.667 455.5 399.667 486.634 399.333 486.634 399.333 455.5ZM403.5 485.301 399.5 493.301 395.5 485.301Z"/><path fill="#000005" d="M399.667 530.497 400.251 561.675 399.918 561.681 399.333 530.503ZM404.059 560.27 400.209 568.344 396.06 560.42Z"/><path fill="#000005" d="M0.166658-0.00167369 0.479763 31.1758 0.146447 31.1791-0.166658 0.00167369ZM4.29951 29.804 0.380052 37.8438-3.70008 29.8843Z" transform="matrix(-1 0 0 1 399.88 606.5)"/><path fill="#000005" d="M0.166659-0.00155911 0.452221 30.5233 0.118903 30.5264-0.166659 0.00155911ZM4.27291 29.1541 0.347926 37.1912-3.72674 29.2289Z" transform="matrix(-1 0 0 1 399.848 142.5)"/><text fill="#000005" font-family="Arial,Arial_MSFontService,sans-serif" font-size="27" font-weight="400" transform="translate(329.026 132)">Input image<tspan x="-30.355" y="549" font-size="27">Class probabilities</tspan><tspan x="383.805" y="78" fill="red" font-size="27">3 * 4 * 9 + 4 = 112</tspan><tspan x="392.086" y="-28" fill="red" font-size="21">weights per kernel</tspan></text><path fill="#C40D2C" d="M0.493257-0.0818397 10.0296 57.3946 9.04306 57.5583-0.493257 0.0818397ZM13.2641 55.5063 10.6275 64.0531 5.37202 56.8157Z" transform="matrix(-1 0 0 1 812.128 114.5)"/><text fill="red" font-family="Arial,Arial_MSFontService,sans-serif" font-size="21" font-weight="400" transform="translate(546.617 110)">in channels</text><path fill="#C40D2C" d="M601.773 120.081 698.35 183.093 697.804 183.931 601.227 120.919ZM699.146 179.433 703.661 187.155 694.775 186.133Z"/><text fill="red" font-family="Arial,Arial_MSFontService,sans-serif" font-size="21" font-weight="400" transform="translate(608.598 73)">out channels</text><path fill="#C40D2C" d="M670.88 82.1752 753.034 178.289 752.273 178.939 670.12 82.8249ZM754.828 175.001 756.985 183.682 748.747 180.199Z"/><text fill="red" font-family="Arial,Arial_MSFontService,sans-serif" font-size="21" font-weight="400" transform="translate(837.698 154)">bias values</text><path fill="#C40D2C" d="M0.242059-0.437501 30.5599 16.3366 30.0757 17.2116-0.242059 0.437501ZM31.0876 12.6286 36.1512 20.0016 27.2147 19.6286Z" transform="matrix(-1 0 0 1 891.651 163.5)"/><text fill="red" font-family="Arial,Arial_MSFontService,sans-serif" font-size="27" font-weight="400" transform="translate(712.83 290)">0<tspan x="-1.999" y="74" font-size="27">4 * 8 * 9 + 8 = 296</tspan><tspan x="5.247" y="154" font-size="27">0</tspan><tspan x="7.505" y="229" font-size="27">0</tspan><tspan x="-15.732" y="308" font-size="24">2048 * 10 + 10 = 20490</tspan><tspan x="-15.732" y="375" font-size="27">Total: 20898</tspan></text></g></svg>