<svg width="769" height="312" xmlns="http://www.w3.org/2000/svg" xmlns:xlink="http://www.w3.org/1999/xlink" overflow="hidden"><defs><clipPath id="clip0"><rect x="148" y="61" width="769" height="312"/></clipPath></defs><g clip-path="url(#clip0)" transform="translate(-148 -61)"><text fill="#FF0000" font-family="Arial,Arial_MSFontService,sans-serif" font-weight="400" font-size="27" transform="translate(624.031 96)">Receptive field size</text><rect x="149.5" y="255.5" width="522" height="39" stroke="#000005" stroke-width="0.333333" stroke-linejoin="round" stroke-miterlimit="10" fill="none"/><text font-family="Calibri,Calibri_MSFontService,sans-serif" font-weight="400" font-size="27" transform="translate(283.564 283)">3x3 convolution + ReLU</text><rect x="149.5" y="130.5" width="522" height="40" stroke="#000005" stroke-width="0.333333" stroke-linejoin="round" stroke-miterlimit="10" fill="none"/><text font-family="Calibri,Calibri_MSFontService,sans-serif" font-weight="400" font-size="27" transform="translate(273.214 159)">2x2 max<tspan x="89.92" y="0">-</tspan><tspan x="98.0867" y="0">pooling, stride </tspan><tspan x="259.92" y="0">2</tspan></text><rect x="149.5" y="193.5" width="522" height="39" stroke="#000005" stroke-width="0.333333" stroke-linejoin="round" stroke-miterlimit="10" fill="none"/><text font-family="Calibri,Calibri_MSFontService,sans-serif" font-weight="400" font-size="27" transform="translate(283.564 221)">4x4 convolution + ReLU</text><path d="M0.166667-7.65857e-07 0.166741 16.1807-0.166592 16.1807-0.166667 7.65857e-07ZM4.00007 14.8473 0.000104987 22.8473-3.99993 14.8474Z" fill="#000005" transform="matrix(1 0 0 -1 410.5 317.347)"/><path d="M0.166667-7.65868e-07 0.166741 16.1804-0.166592 16.1804-0.166667 7.65868e-07ZM4.00007 14.847 0.000104987 22.847-3.99993 14.8471Z" fill="#000005" transform="matrix(1 0 0 -1 410.5 255.347)"/><path d="M0.166667-7.65868e-07 0.166741 16.1804-0.166592 16.1804-0.166667 7.65868e-07ZM4.00007 14.847 0.000104987 22.847-3.99993 14.8471Z" fill="#000005" transform="matrix(1 0 0 -1 410.5 193.347)"/><text fill="#FF0000" font-family="Arial,Arial_MSFontService,sans-serif" font-weight="400" font-size="27" transform="translate(714.069 283)">3x3<tspan x="-0.225891" y="-63">6x6</tspan><tspan x="-0.225891" y="-123">7x7</tspan><tspan fill="#000000" x="-376.661" y="67">Input </tspan><tspan fill="#000000" x="-310.161" y="67">image</tspan></text></g></svg>