<svg xmlns="http://www.w3.org/2000/svg" xmlns:xlink="http://www.w3.org/1999/xlink" width="840" height="607" overflow="hidden"><defs><clipPath id="clip0"><rect width="840" height="607" x="55" y="97"/></clipPath></defs><g clip-path="url(#clip0)" transform="translate(-55 -97)"><rect width="579" height="38" x="315.5" y="179.5" fill="none" stroke="#000005" stroke-linejoin="round" stroke-miterlimit="10" stroke-width=".333"/><text fill="#000005" font-family="Calibri,Calibri_MSFontService,sans-serif" font-size="27" font-weight="400" transform="translate(337.459 204)">c<tspan x="11.113" y="0" font-size="27">onv2d, 3, 4, kernel=3, stride=1, padding=1, </tspan><tspan x="478.68" y="0" font-size="27">ReLU</tspan></text><rect width="578" height="38" x="315.5" y="334.5" fill="none" stroke="#000005" stroke-linejoin="round" stroke-miterlimit="10" stroke-width=".333"/><text fill="#000005" font-family="Calibri,Calibri_MSFontService,sans-serif" font-size="27" font-weight="400" transform="translate(337.098 359)">c<tspan x="11.113" y="0" font-size="27">onv2d, 4, 8, kernel=3, stride=1, padding=1, </tspan>ReLU</text><rect width="578" height="38" x="315.5" y="258.5" fill="none" stroke="#000005" stroke-linejoin="round" stroke-miterlimit="10" stroke-width=".333"/><text fill="#000005" font-family="Calibri,Calibri_MSFontService,sans-serif" font-size="27" font-weight="400" transform="translate(432.559 283)">max<tspan x="45.42" y="0" font-size="27">-</tspan><tspan x="53.587" y="0" font-size="27">pooling</tspan>, kernel=2, stride=2</text><rect width="578" height="38" x="315.5" y="417.5" fill="none" stroke="#000005" stroke-linejoin="round" stroke-miterlimit="10" stroke-width=".333"/><text fill="#000005" font-family="Calibri,Calibri_MSFontService,sans-serif" font-size="27" font-weight="400" transform="translate(432.388 442)">max<tspan x="45.42" y="0" font-size="27">-</tspan><tspan x="53.587" y="0" font-size="27">pooling</tspan>, kernel=2, stride=2</text><rect width="578" height="37" x="315.5" y="493.5" fill="none" stroke="#000005" stroke-linejoin="round" stroke-miterlimit="10" stroke-width=".333"/><text fill="#000005" font-family="Calibri,Calibri_MSFontService,sans-serif" font-size="27" font-weight="400" transform="translate(568.208 518)">flatten</text><rect width="579" height="38" x="315.5" y="568.5" fill="none" stroke="#000005" stroke-linejoin="round" stroke-miterlimit="10" stroke-width=".333"/><text fill="#000005" font-family="Calibri,Calibri_MSFontService,sans-serif" font-size="27" font-weight="400" transform="translate(489.127 593)">fc<tspan x="18.913" y="0" font-size="27">l</tspan><tspan x="25.08" y="0" font-size="27">, </tspan><tspan x="37.747" y="0" font-size="27">2048, 10, </tspan><tspan x="144.08" y="0" font-size="27">softmax</tspan></text><path fill="#000005" d="M0.166665-0.00077068 0.325759 34.4044-0.00757081 34.406-0.166665 0.00077068ZM4.15289 33.0534 0.189921 41.0718-3.84703 33.0904Z" transform="matrix(-1 0 0 1 604.69 217.5)"/><path fill="#000005" d="M0.166665-0.000753192 0.307561 31.1764-0.025769 31.1779-0.166665 0.000753192ZM4.13483 29.8258 0.171024 37.8438-3.86509 29.8619Z" transform="matrix(-1 0 0 1 604.671 296.5)"/><path fill="#000005" d="M604.667 372.5 604.667 411.281 604.333 411.281 604.333 372.5ZM608.5 409.947 604.5 417.947 600.5 409.947Z"/><path fill="#000005" d="M604.667 455.5 604.667 486.634 604.333 486.634 604.333 455.5ZM608.5 485.301 604.5 493.301 600.5 485.301Z"/><path fill="#000005" d="M604.667 530.497 605.251 561.675 604.918 561.681 604.333 530.503ZM609.058 560.27 605.209 568.344 601.06 560.42Z"/><path fill="#000005" d="M0.166658-0.00167369 0.479763 31.1758 0.146447 31.1791-0.166658 0.00167369ZM4.29951 29.804 0.380052 37.8438-3.70008 29.8843Z" transform="matrix(-1 0 0 1 604.88 606.5)"/><text fill="red" font-family="Arial,Arial_MSFontService,sans-serif" font-size="24" font-weight="400" transform="translate(69.7309 271)"># input channels</text><path fill="#C40D2C" d="M0.190147-0.462433 137.666 56.0662 137.286 56.9911-0.190147 0.462433ZM137.764 52.3221 143.642 59.0639 134.722 59.721Z" transform="matrix(1 0 0 -1 282.5 264.564)"/><text fill="red" font-family="Arial,Arial_MSFontService,sans-serif" font-size="24" font-weight="400" transform="translate(93.9185 168)"># output channels</text><path fill="#C40D2C" d="M295.581 160.007 445.128 184.547 444.966 185.534 295.419 160.993ZM444.379 180.878 451.626 186.12 443.084 188.772Z"/><text fill="red" font-family="Arial,Arial_MSFontService,sans-serif" font-size="24" font-weight="400" transform="translate(636.453 172)">3 x 64 x 64<tspan x="0" y="75" font-size="24">4 x 64 x 64</tspan><tspan x="0" y="153" font-size="24">4 x 32 x 32</tspan><tspan x="-2.878" y="231" font-size="24">8 x 32 x 32</tspan><tspan x="-2.273" y="312" font-size="24">8 x16 x 16</tspan><tspan x="29.434" y="386" font-size="24">2048</tspan><tspan x="36.723" y="462" font-size="24">10</tspan></text><path fill="#000005" d="M0.166659-0.00155911 0.452221 30.5233 0.118903 30.5264-0.166659 0.00155911ZM4.27291 29.1541 0.347926 37.1912-3.72674 29.2289Z" transform="matrix(-1 0 0 1 604.848 142.5)"/><text fill="#000005" font-family="Arial,Arial_MSFontService,sans-serif" font-size="27" font-weight="400" transform="translate(534.354 132)">Input image<tspan x="-30.355" y="549" font-size="27">Class probabilities</tspan></text></g></svg>