<svg width="475" height="365" xmlns="http://www.w3.org/2000/svg" xmlns:xlink="http://www.w3.org/1999/xlink" overflow="hidden"><defs><clipPath id="clip0"><rect x="71" y="125" width="475" height="365"/></clipPath></defs><g clip-path="url(#clip0)" transform="translate(-71 -125)"><text fill="#000005" font-family="Cambria Math,Cambria Math_MSFontService,sans-serif" font-weight="400" font-size="27" transform="translate(173.94 171)">𝜕<tspan font-size="27" x="15.5133" y="0">𝑥</tspan><tspan font-size="20" x="29.42" y="6">𝑘</tspan><tspan font-size="27" x="0" y="38">𝜕</tspan><tspan font-size="27" x="15.5133" y="38">𝑥</tspan><tspan font-size="20" x="29.42" y="44">𝑘</tspan></text><path d="M173.52 183.317 195.02 183.317 216.52 183.317 216.52 185.317 195.02 185.317 173.52 185.317Z" fill="#000005" fill-rule="evenodd"/><text fill="#000005" font-family="Cambria Math,Cambria Math_MSFontService,sans-serif" font-weight="400" font-size="27" transform="translate(224.28 191)">=<tspan font-size="27" x="27.4067" y="0">1</tspan><tspan font-size="27" x="-50.34" y="49">𝑠</tspan><tspan font-size="27" x="-30.0533" y="49">=</tspan><tspan font-size="27" x="-2.64667" y="49">𝑘</tspan><tspan font-size="27" x="18.7267" y="49">−</tspan><tspan font-size="27" x="44.6533" y="49">1</tspan><tspan font-size="27" x="16.459" y="157">𝜕</tspan><tspan font-size="27" x="31.9723" y="157">𝑥</tspan><tspan font-size="20" x="45.879" y="162">𝑘</tspan><tspan font-size="27" x="17.7123" y="195">𝜕</tspan><tspan font-size="27" x="33.2256" y="195">𝑥</tspan><tspan font-size="20" x="47.1323" y="201">𝑠</tspan></text><path d="M241.179 360.239 284.179 360.239 284.179 362.239 241.179 362.239Z" fill="#000005" fill-rule="evenodd"/><text fill="#000005" font-family="Cambria Math,Cambria Math_MSFontService,sans-serif" font-weight="400" font-size="27" transform="translate(291.079 368)">=<tspan font-size="27" x="27.4067" y="-20">𝜕</tspan><tspan font-size="27" x="42.92" y="-20">𝑥</tspan><tspan font-size="20" x="56.8267" y="-15">𝑠</tspan><tspan font-size="20" x="66.7267" y="-15">+</tspan><tspan font-size="20" x="80.8933" y="-15">1</tspan><tspan font-size="27" x="40.1534" y="18">𝜕</tspan><tspan font-size="27" x="55.6667" y="18">𝑥</tspan><tspan font-size="20" x="69.5734" y="24">𝑠</tspan></text><path d="M318.179 360.239 351.179 360.239 384.179 360.239 384.179 362.239 351.179 362.239 318.179 362.239Z" fill="#000005" fill-rule="evenodd"/><text fill="#000005" font-family="Cambria Math,Cambria Math_MSFontService,sans-serif" font-weight="400" font-size="27" transform="translate(400.352 348)">𝜕<tspan font-size="27" x="15.5133" y="0">𝑥</tspan><tspan font-size="20" x="29.42" y="5">𝑘</tspan><tspan font-size="27" x="-11.4933" y="38">𝜕</tspan><tspan font-size="27" x="4.02002" y="38">𝑥</tspan><tspan font-size="20" x="17.9267" y="44">𝑠</tspan><tspan font-size="20" x="27.8267" y="44">+</tspan><tspan font-size="20" x="41.9933" y="44">1</tspan></text><path d="M389.179 360.239 422.179 360.239 455.179 360.239 455.179 362.239 422.179 362.239 389.179 362.239Z" fill="#000005" fill-rule="evenodd"/><text fill="#000005" font-family="Cambria Math,Cambria Math_MSFontService,sans-serif" font-weight="400" font-size="27" transform="translate(240.515 444)">𝑠<tspan font-size="27" x="20.2867" y="0">=</tspan><tspan font-size="27" x="47.6933" y="0">𝑠</tspan><tspan font-size="27" x="66.5" y="0">−</tspan><tspan font-size="27" x="92.4267" y="0">1</tspan><tspan font-family="Arial,Arial_MSFontService,sans-serif" font-size="27" x="-61.6109" y="-148">while </tspan><tspan font-size="27" x="6.72241" y="-148">𝑠</tspan><tspan font-size="27" x="27.0091" y="-148">≥</tspan><tspan font-size="27" x="54.4157" y="-148">1</tspan></text><rect x="72.5001" y="126.5" width="473" height="363" stroke="#C41230" stroke-width="0.333333" stroke-linejoin="round" stroke-miterlimit="10" fill="none"/></g></svg>