<svg width="305" height="372" xmlns="http://www.w3.org/2000/svg" xmlns:xlink="http://www.w3.org/1999/xlink" overflow="hidden"><defs><clipPath id="clip0"><path d="M187 306 492 306 492 678 187 678Z" fill-rule="evenodd" clip-rule="evenodd"/></clipPath></defs><g clip-path="url(#clip0)" transform="translate(-187 -306)"><path d="M188.5 319C188.5 312.649 193.425 307.5 199.5 307.5 205.575 307.5 210.5 312.649 210.5 319 210.5 325.351 205.575 330.5 199.5 330.5 193.425 330.5 188.5 325.351 188.5 319Z" stroke="#000005" stroke-linejoin="round" stroke-miterlimit="10" fill="#902D06" fill-rule="evenodd"/><path d="M188.5 351C188.5 344.649 193.425 339.5 199.5 339.5 205.575 339.5 210.5 344.649 210.5 351 210.5 357.351 205.575 362.5 199.5 362.5 193.425 362.5 188.5 357.351 188.5 351Z" stroke="#000005" stroke-linejoin="round" stroke-miterlimit="10" fill="#902D06" fill-rule="evenodd"/><path d="M188.5 384C188.5 377.649 193.425 372.5 199.5 372.5 205.575 372.5 210.5 377.649 210.5 384 210.5 390.351 205.575 395.5 199.5 395.5 193.425 395.5 188.5 390.351 188.5 384Z" stroke="#000005" stroke-linejoin="round" stroke-miterlimit="10" fill="#902D06" fill-rule="evenodd"/><path d="M188.5 416C188.5 409.649 193.425 404.5 199.5 404.5 205.575 404.5 210.5 409.649 210.5 416 210.5 422.351 205.575 427.5 199.5 427.5 193.425 427.5 188.5 422.351 188.5 416Z" stroke="#000005" stroke-linejoin="round" stroke-miterlimit="10" fill="#902D06" fill-rule="evenodd"/><path d="M188.5 448.5C188.5 442.425 193.425 437.5 199.5 437.5 205.575 437.5 210.5 442.425 210.5 448.5 210.5 454.575 205.575 459.5 199.5 459.5 193.425 459.5 188.5 454.575 188.5 448.5Z" stroke="#000005" stroke-linejoin="round" stroke-miterlimit="10" fill="#902D06" fill-rule="evenodd"/><path d="M188.5 481C188.5 474.649 193.425 469.5 199.5 469.5 205.575 469.5 210.5 474.649 210.5 481 210.5 487.351 205.575 492.5 199.5 492.5 193.425 492.5 188.5 487.351 188.5 481Z" stroke="#000005" stroke-linejoin="round" stroke-miterlimit="10" fill="#902D06" fill-rule="evenodd"/><path d="M188.5 513C188.5 506.649 193.425 501.5 199.5 501.5 205.575 501.5 210.5 506.649 210.5 513 210.5 519.351 205.575 524.5 199.5 524.5 193.425 524.5 188.5 519.351 188.5 513Z" stroke="#000005" stroke-linejoin="round" stroke-miterlimit="10" fill="#902D06" fill-rule="evenodd"/><path d="M188.5 546C188.5 539.649 193.425 534.5 199.5 534.5 205.575 534.5 210.5 539.649 210.5 546 210.5 552.351 205.575 557.5 199.5 557.5 193.425 557.5 188.5 552.351 188.5 546Z" stroke="#000005" stroke-linejoin="round" stroke-miterlimit="10" fill="#902D06" fill-rule="evenodd"/><path d="M289.5 338C289.5 331.649 294.649 326.5 301 326.5 307.351 326.5 312.5 331.649 312.5 338 312.5 344.351 307.351 349.5 301 349.5 294.649 349.5 289.5 344.351 289.5 338Z" stroke="#000005" stroke-linejoin="round" stroke-miterlimit="10" fill="#902D06" fill-rule="evenodd"/><path d="M289.5 399.5C289.5 393.425 294.649 388.5 301 388.5 307.351 388.5 312.5 393.425 312.5 399.5 312.5 405.575 307.351 410.5 301 410.5 294.649 410.5 289.5 405.575 289.5 399.5Z" stroke="#000005" stroke-linejoin="round" stroke-miterlimit="10" fill="#902D06" fill-rule="evenodd"/><path d="M289.5 461.5C289.5 455.425 294.649 450.5 301 450.5 307.351 450.5 312.5 455.425 312.5 461.5 312.5 467.575 307.351 472.5 301 472.5 294.649 472.5 289.5 467.575 289.5 461.5Z" stroke="#000005" stroke-linejoin="round" stroke-miterlimit="10" fill="#902D06" fill-rule="evenodd"/><path d="M289.5 523.5C289.5 517.425 294.649 512.5 301 512.5 307.351 512.5 312.5 517.425 312.5 523.5 312.5 529.575 307.351 534.5 301 534.5 294.649 534.5 289.5 529.575 289.5 523.5Z" stroke="#000005" stroke-linejoin="round" stroke-miterlimit="10" fill="#902D06" fill-rule="evenodd"/><path d="M383.5 370C383.5 363.649 388.649 358.5 395 358.5 401.351 358.5 406.5 363.649 406.5 370 406.5 376.351 401.351 381.5 395 381.5 388.649 381.5 383.5 376.351 383.5 370Z" stroke="#000005" stroke-linejoin="round" stroke-miterlimit="10" fill="#902D06" fill-rule="evenodd"/><path d="M387.5 494C387.5 487.649 392.425 482.5 398.5 482.5 404.575 482.5 409.5 487.649 409.5 494 409.5 500.351 404.575 505.5 398.5 505.5 392.425 505.5 387.5 500.351 387.5 494Z" stroke="#000005" stroke-linejoin="round" stroke-miterlimit="10" fill="#902D06" fill-rule="evenodd"/><path d="M469.5 426C469.5 419.649 474.425 414.5 480.5 414.5 486.575 414.5 491.5 419.649 491.5 426 491.5 432.351 486.575 437.5 480.5 437.5 474.425 437.5 469.5 432.351 469.5 426Z" stroke="#000005" stroke-linejoin="round" stroke-miterlimit="10" fill="#902D06" fill-rule="evenodd"/><path d="M210.565 318.004 285.909 327.915 285.778 328.907 210.435 318.996ZM285.043 324.271 292.453 329.28 284 332.203Z" fill="#000005"/><path d="M0.0339814-0.498844 75.3359 4.63075 75.2679 5.62843-0.0339814 0.498844ZM74.2435 1.04822 81.9532 5.58268 73.6998 9.02973Z" fill="#000005" transform="matrix(1 0 0 -1 210.5 351.083)"/><path d="M210.548 383.002 285.865 390.265 285.769 391.26 210.452 383.998ZM284.874 386.653 292.453 391.402 284.106 394.616Z" fill="#FF0000"/><path d="M0.0513461-0.497357 75.3731 7.27871 75.2704 8.27342-0.0513461 0.497357ZM74.4062 3.66029 81.9532 8.46068 73.5847 11.618Z" fill="#000005" transform="matrix(1 0 0 -1 210.5 415.961)"/><path d="M210.531 448.001 285.83 452.617 285.768 453.616 210.469 448.999ZM284.713 449.042 292.453 453.524 284.223 457.027Z" fill="#0070C0"/><path d="M0.0685251-0.495282 75.4179 9.92974 75.2809 10.9203-0.0685251 0.495282ZM74.5769 6.28003 81.9532 11.3387 73.4805 14.2045Z" fill="#000005" transform="matrix(1 0 0 -1 210.5 480.839)"/><path d="M210.513 513 285.802 514.972 285.776 515.972 210.487 514ZM284.561 511.438 292.453 515.646 284.351 519.436Z" fill="#000005"/><path d="M0.0854616-0.492642 75.47 12.5848 75.2991 13.57-0.0854616 0.492642ZM74.7546 8.90838 81.9532 14.2169 73.3872 16.7907Z" fill="#000005" transform="matrix(1 0 0 -1 210.5 545.717)"/><path d="M312.655 337.025 381.32 359.345 381.011 360.296 312.345 337.976ZM381.134 355.605 387.505 361.882 378.661 363.213Z" fill="#000005"/><path d="M0.137797-0.480637 68.7346 19.1858 68.459 20.1471-0.137797 0.480637ZM68.4175 15.4539 75.0053 21.5037 66.2128 23.1441Z" fill="#FF0000" transform="matrix(1 0 0 -1 312.5 400.004)"/><path d="M312.65 461.023 384.471 483.531 384.172 484.485 312.351 461.977ZM384.245 479.792 390.683 486.001 381.853 487.426Z" fill="#0070C0"/><path d="M0.131912-0.482285 71.884 19.1429 71.6202 20.1075-0.131912 0.482285ZM71.5213 15.4152 78.1826 21.384 69.4107 23.1317Z" fill="#000005" transform="matrix(1 0 0 -1 312.5 523.884)"/><path d="M406.793 370.095 467.225 413.887 466.638 414.696 406.207 370.905ZM468.199 410.27 472.33 418.203 463.504 416.748Z" fill="#FF0000"/><path d="M0.346501-0.360468 58.1925 55.2443 57.4995 55.9652-0.346501 0.360468ZM59.6568 51.797 62.6523 60.2248 54.1128 57.5645Z" fill="#0070C0" transform="matrix(1 0 0 -1 409.5 493.725)"/><text fill="#000005" font-family="Arial,Arial_MSFontService,sans-serif" font-weight="400" font-size="27" transform="translate(266.667 624)">Backpropagation <tspan x="30.5" y="32">of gradients</tspan></text><path d="M482.5 590.25 230 590.25 230 595.5 219.5 585 230 574.5 230 579.75 482.5 579.75Z" stroke="#000005" stroke-miterlimit="8" fill="#000005" fill-rule="evenodd"/><path d="M475.153 403.86 472.992 401.78 473.686 401.059 475.847 403.14ZM472.272 401.086 470.11 399.005 470.804 398.285 472.965 400.366ZM469.39 398.312 467.229 396.231 467.922 395.511 470.084 397.591ZM466.508 395.538 465.091 394.173 464.352 393.443 465.054 392.732 465.784 393.452 467.202 394.817ZM463.64 392.741 461.505 390.633 462.208 389.922 464.343 392.029ZM460.793 389.931 458.659 387.823 459.361 387.111 461.496 389.219ZM457.947 387.121 455.812 385.013 456.514 384.301 458.649 386.409ZM455.102 384.316 452.945 382.23 453.641 381.512 455.797 383.598ZM452.227 381.535 450.071 379.449 450.766 378.73 452.922 380.816ZM449.352 378.754 447.196 376.668 447.891 375.949 450.047 378.035ZM446.477 375.972 445.715 375.234 444.287 373.948 444.957 373.206 446.41 374.516 447.173 375.253ZM443.545 373.279 441.316 371.27 441.986 370.527 444.214 372.536ZM440.573 370.601 438.345 368.592 439.015 367.849 441.243 369.858ZM437.602 367.923 436.228 366.684 435.349 365.996 435.966 365.21 436.897 365.941 438.272 367.18ZM434.563 365.379 432.202 363.528 432.819 362.741 435.18 364.592ZM431.415 362.911 429.055 361.059 429.672 360.272 432.032 362.124ZM428.268 360.442 426.691 359.206 425.895 358.666 426.457 357.839 427.309 358.419 428.885 359.655ZM425.067 358.104 422.586 356.418 423.148 355.591 425.629 357.277ZM421.782 355.878 419.198 354.354 419.706 353.493 422.29 355.017ZM418.337 353.847 416.996 353.056 415.733 352.449 416.167 351.548 417.504 352.194 418.845 352.985ZM414.832 352.016 412.129 350.714 412.563 349.813 415.266 351.115ZM411.237 350.35 408.447 349.247 408.814 348.317 411.604 349.42ZM407.517 348.88 406.941 348.653 404.698 348.014 404.973 347.053 407.309 347.723 407.884 347.95ZM403.736 347.739 401.738 347.168 400.882 347.022 401.053 346.037 402.012 346.207 404.011 346.778ZM399.896 346.85 396.941 346.335 397.113 345.349 400.068 345.865ZM396.018 346.234 393.02 346.132 393.054 345.132 396.052 345.234ZM392.021 346.098 390.983 346.062 391.055 346.06 389.104 346.274 388.995 345.28 390.945 345.066C390.969 345.063 390.993 345.062 391.017 345.063L392.055 345.098ZM388.11 346.383 385.367 346.685 385.19 346.728 384.967 345.754 385.258 345.691 388.001 345.389ZM384.215 346.951 381.29 347.619 381.067 346.644 383.992 345.976ZM380.315 347.841 379.674 347.988 377.483 348.689 377.179 347.736 379.451 347.013 380.093 346.866ZM376.531 348.993 373.84 349.851 373.713 349.904 373.337 348.978 373.536 348.899 376.226 348.04ZM372.787 350.281 370.007 351.41 369.631 350.483 372.41 349.354ZM369.081 351.786 367.876 352.276 366.357 352.981 365.936 352.074 367.499 351.349 368.705 350.86ZM365.45 353.402 362.728 354.665 362.307 353.757 365.029 352.495ZM361.846 355.074 359.199 356.486 358.729 355.603 361.376 354.191ZM358.317 356.956 355.67 358.368 355.199 357.486 357.846 356.074ZM354.787 358.838 352.14 360.25 351.67 359.368 354.317 357.956ZM351.258 360.721 349.673 361.566 348.633 362.15 348.143 361.278 349.202 360.684 350.787 359.838ZM347.761 362.639 345.145 364.108 344.655 363.236 347.271 361.767ZM344.273 364.597 341.656 366.065 341.167 365.193 343.783 363.725ZM340.784 366.555 338.168 368.023 337.679 367.151 340.295 365.683ZM337.283 368.515 334.63 369.916 334.163 369.032 336.816 367.631ZM333.746 370.383 331.093 371.784 330.626 370.9 333.279 369.499ZM330.209 372.252 327.556 373.653 327.089 372.768 329.742 371.367ZM326.672 374.12 325.234 374.88 323.982 375.486 323.546 374.586 324.767 373.995 326.205 373.236ZM323.082 375.922 320.382 377.229 319.946 376.329 322.646 375.022ZM319.482 377.665 319.28 377.763 316.684 378.829 316.305 377.904 318.845 376.863 319.046 376.765ZM315.759 379.209 313.315 380.213 312.944 380.337 312.628 379.389 312.935 379.288 315.38 378.284ZM311.995 380.654 309.149 381.602 308.833 380.654 311.679 379.705ZM308.2 381.919 307.471 382.162 305.262 382.698 305.027 381.726 307.154 381.213 307.884 380.97ZM304.29 382.933 301.743 383.549 301.324 383.613 301.176 382.624 301.508 382.577 304.055 381.961ZM300.335 383.762 297.369 384.208 297.22 383.219 300.187 382.773ZM296.38 384.357 293.413 384.802 293.264 383.813 296.231 383.368ZM292.424 384.951 290.887 385.182 289.408 385.292 289.334 384.295 290.738 384.193 292.276 383.962ZM288.41 385.366 285.419 385.586 285.345 384.589 288.337 384.368ZM284.421 385.659 281.429 385.88 281.356 384.882 284.348 384.662ZM280.398 385.939 277.398 385.958 277.392 384.958 280.392 384.939ZM276.398 385.964 273.398 385.983 273.392 384.983 276.392 384.964ZM272.398 385.99 270.753 386 269.368 385.922 269.426 384.923 270.747 385 272.392 384.99ZM268.37 385.864 265.375 385.693 265.432 384.694 268.427 384.866ZM264.377 385.636 261.382 385.464 261.439 384.465 264.434 384.637ZM260.358 385.376 257.377 385.04 257.489 384.046 260.47 384.382ZM256.383 384.928 253.402 384.593 253.514 383.599 256.495 383.935ZM252.409 384.481 250.882 384.309 249.418 384.102 249.559 383.112 250.993 383.316 252.52 383.487ZM248.428 383.961 245.458 383.539 245.599 382.549 248.569 382.971ZM244.468 383.399 241.498 382.977 241.638 381.987 244.609 382.409ZM240.508 382.836 240.305 382.808 237.536 382.336 237.704 381.35 240.445 381.818 240.648 381.846ZM236.55 382.168 233.593 381.664 233.76 380.679 236.718 381.182ZM232.607 381.497 229.649 380.993 229.817 380.007 232.775 380.511ZM228.664 380.825 225.706 380.322 225.874 379.336 228.831 379.839ZM224.72 380.155 222.989 379.86 223.156 378.874 224.888 379.169ZM223.717 383.534 216.5 378.25 225.057 375.647Z" fill="#FF0000"/><path d="M478.911 445.785 477.204 448.252 476.382 447.683 478.089 445.216ZM476.635 449.074 474.928 451.541 474.106 450.972 475.813 448.505ZM474.359 452.363 472.652 454.83 471.83 454.261 473.537 451.794ZM472.083 455.653 470.376 458.12 469.554 457.551 471.261 455.084ZM469.791 458.94 468.046 461.38 467.232 460.799 468.977 458.358ZM467.464 462.194 465.719 464.634 464.906 464.052 466.651 461.612ZM465.138 465.447 463.393 467.888 462.579 467.306 464.324 464.866ZM462.811 468.701 461.719 470.228 461.02 471.131 460.23 470.519 460.906 469.647 461.998 468.12ZM460.408 471.922 458.57 474.293 457.78 473.681 459.617 471.309ZM457.958 475.084 456.121 477.455 455.33 476.843 457.168 474.471ZM455.508 478.246 453.671 480.618 452.88 480.005 454.718 477.634ZM453.059 481.408 452.895 481.619 451.093 483.708 450.336 483.055 452.105 481.006 452.268 480.796ZM450.439 484.466 448.479 486.737 447.722 486.083 449.682 483.812ZM447.826 487.494 445.865 489.765 445.108 489.111 447.069 486.84ZM445.212 490.522 443.816 492.139 443.193 492.78 442.477 492.082 443.059 491.486 444.455 489.868ZM442.496 493.496 440.403 495.646 439.687 494.948 441.779 492.799ZM439.705 496.362 439.171 496.911 437.522 498.453 436.839 497.722 438.454 496.214 438.989 495.665ZM436.791 499.135 434.599 501.183 433.916 500.453 436.108 498.405ZM433.818 501.853 431.511 503.771 430.872 503.002 433.179 501.084ZM430.742 504.41 429.57 505.385 428.338 506.263 427.758 505.449 428.93 504.616 430.103 503.641ZM427.524 506.844 425.081 508.585 424.501 507.77 426.944 506.029ZM424.227 509.165 421.674 510.74 421.148 509.889 423.701 508.314ZM420.823 511.266 419.45 512.113 418.176 512.76 417.724 511.868 418.925 511.262 420.298 510.415ZM417.284 513.211 414.607 514.566 414.155 513.674 416.832 512.319ZM413.637 514.981 410.826 516.027 410.477 515.09 413.289 514.044ZM409.888 516.376 408.799 516.781 406.973 517.261 406.72 516.294 408.451 515.844 409.54 515.439ZM406.006 517.514 403.251 518.234 403.032 518.265 402.914 517.272 402.999 517.266 405.753 516.546ZM402.039 518.383 399.061 518.74 398.942 517.747 401.921 517.391ZM398.068 518.858 397.434 518.934 395.008 518.913 395.018 517.913 397.316 517.941 397.949 517.865ZM394.008 518.903 391.37 518.875 390.951 518.824 391.081 517.832 391.38 517.875 394.018 517.903ZM389.96 518.693 386.985 518.303 387.115 517.311 390.09 517.702ZM385.994 518.173 385.122 518.058 383.008 517.588 383.226 516.612 385.253 517.067 386.124 517.181ZM382.032 517.37 379.104 516.716 379.322 515.741 382.25 516.394ZM378.103 516.452 375.231 515.585 375.52 514.628 378.392 515.495ZM374.273 515.296 371.981 514.604 371.385 514.388 371.728 513.448 372.27 513.646 374.562 514.339ZM370.446 514.045 367.627 513.018 367.97 512.078 370.788 513.106ZM366.688 512.675 365.266 512.157 363.874 511.56 364.268 510.642 365.609 511.218 367.03 511.736ZM362.955 511.166 360.198 509.983 360.593 509.064 363.349 510.247ZM359.279 509.588 356.522 508.405 356.917 507.486 359.674 508.669ZM355.603 508.011 352.847 506.827 353.241 505.908 355.998 507.092ZM351.928 506.433 351.553 506.272 349.199 505.133 349.635 504.233 351.947 505.353 352.322 505.514ZM348.299 504.698 345.599 503.391 346.034 502.491 348.735 503.798ZM344.699 502.955 341.998 501.648 342.434 500.748 345.134 502.055ZM341.098 501.212 338.398 499.905 338.833 499.005 341.534 500.312ZM337.493 499.46 334.815 498.109 335.265 497.216 337.944 498.568ZM333.922 497.658 331.244 496.306 331.694 495.414 334.373 496.765ZM330.351 495.856 327.673 494.504 328.123 493.611 330.802 494.963ZM326.78 494.054 324.462 492.884 324.109 492.718 324.535 491.813 324.913 491.991 327.231 493.161ZM323.205 492.292 320.49 491.014 320.916 490.109 323.631 491.387ZM319.586 490.588 316.872 489.31 317.298 488.405 320.012 489.683ZM315.967 488.884 313.253 487.606 313.679 486.701 316.393 487.979ZM312.348 487.18 311.6 486.827 309.615 485.998 310.001 485.075 312.026 485.923 312.774 486.275ZM308.693 485.612 305.925 484.454 306.311 483.531 309.079 484.689ZM305.013 484.095 302.202 483.048 302.551 482.111 305.362 483.158ZM301.265 482.699 299.638 482.094 298.455 481.706 298.767 480.756 299.987 481.156 301.614 481.762ZM297.505 481.395 294.654 480.46 294.966 479.51 297.817 480.445ZM293.704 480.149 290.853 479.215 291.165 478.264 294.016 479.199ZM289.903 478.903 288.407 478.413 287.052 477.972 287.362 477.021 288.718 477.462 290.215 477.953ZM286.101 477.662 283.249 476.733 283.558 475.783 286.411 476.711ZM282.298 476.424 279.445 475.495 279.755 474.544 282.608 475.473ZM278.495 475.185 277.658 474.913 275.641 474.265 275.947 473.313 277.967 473.962 278.804 474.235ZM274.689 473.959 271.833 473.042 272.139 472.09 274.995 473.007ZM270.881 472.736 268.025 471.819 268.33 470.867 271.187 471.784ZM267.076 471.516 264.212 470.621 264.51 469.667 267.374 470.562ZM263.258 470.323 260.394 469.428 260.692 468.474 263.556 469.369ZM259.44 469.13 257.351 468.477 256.577 468.239 256.872 467.283 257.649 467.523 259.738 468.176ZM255.622 467.944 252.755 467.06 253.05 466.104 255.916 466.988ZM251.799 466.765 248.932 465.881 249.227 464.925 252.094 465.809ZM247.977 465.586 245.11 464.702 245.405 463.746 248.272 464.63ZM244.155 464.407 241.288 463.523 241.583 462.567 244.449 463.451ZM240.332 463.228 238.103 462.54 237.467 462.348 237.757 461.391 238.397 461.585 240.627 462.272ZM236.51 462.057 233.639 461.186 233.929 460.229 236.8 461.1ZM232.682 460.896 229.811 460.025 230.102 459.068 232.972 459.939ZM228.854 459.735 225.984 458.864 226.274 457.907 229.145 458.778ZM225.995 462.525 219.5 456.375 228.317 454.869Z" fill="#0070C0"/></g></svg>