<svg xmlns="http://www.w3.org/2000/svg" xmlns:xlink="http://www.w3.org/1999/xlink" width="475" height="365" overflow="hidden"><defs><clipPath id="clip0"><rect width="475" height="365" x="71" y="125"/></clipPath></defs><g clip-path="url(#clip0)" transform="translate(-71 -125)"><text fill="#000005" font-family="Cambria Math,Cambria Math_MSFontService,sans-serif" font-size="27" font-weight="400" transform="translate(173.94 171)">𝜕<tspan x="15.513" y="0" font-size="27">𝑥</tspan><tspan x="29.42" y="6" font-size="20">𝑘</tspan><tspan x="0" y="38" font-size="27">𝜕</tspan><tspan x="15.513" y="38" font-size="27">𝑥</tspan><tspan x="29.42" y="44" font-size="20">𝑘</tspan></text><path fill="#000005" fill-rule="evenodd" d="M173.52 183.317 195.02 183.317 216.52 183.317 216.52 185.317 195.02 185.317 173.52 185.317Z"/><text fill="#000005" font-family="Cambria Math,Cambria Math_MSFontService,sans-serif" font-size="27" font-weight="400" transform="translate(224.28 191)">=<tspan x="27.407" y="0" font-size="27">1</tspan><tspan x="-50.34" y="49" font-size="27">𝑠</tspan><tspan x="-30.053" y="49" font-size="27">=</tspan><tspan x="-2.647" y="49" font-size="27">𝑘</tspan><tspan x="18.727" y="49" font-size="27">−</tspan><tspan x="44.653" y="49" font-size="27">1</tspan><tspan x="16.459" y="157" font-size="27">𝜕</tspan><tspan x="31.972" y="157" font-size="27">𝑥</tspan><tspan x="45.879" y="162" font-size="20">𝑘</tspan><tspan x="17.712" y="195" font-size="27">𝜕</tspan><tspan x="33.226" y="195" font-size="27">𝑥</tspan><tspan x="47.132" y="201" font-size="20">𝑠</tspan></text><path fill="#000005" fill-rule="evenodd" d="M241.179 360.239 284.179 360.239 284.179 362.239 241.179 362.239Z"/><text fill="#000005" font-family="Cambria Math,Cambria Math_MSFontService,sans-serif" font-size="27" font-weight="400" transform="translate(291.079 368)">=<tspan x="27.407" y="-20" font-size="27">𝜕</tspan><tspan x="42.92" y="-20" font-size="27">𝑥</tspan><tspan x="56.827" y="-15" font-size="20">𝑠</tspan><tspan x="66.727" y="-15" font-size="20">+</tspan><tspan x="80.893" y="-15" font-size="20">1</tspan><tspan x="40.153" y="18" font-size="27">𝜕</tspan><tspan x="55.667" y="18" font-size="27">𝑥</tspan><tspan x="69.573" y="24" font-size="20">𝑠</tspan></text><path fill="#000005" fill-rule="evenodd" d="M318.179 360.239 351.179 360.239 384.179 360.239 384.179 362.239 351.179 362.239 318.179 362.239Z"/><text fill="#000005" font-family="Cambria Math,Cambria Math_MSFontService,sans-serif" font-size="27" font-weight="400" transform="translate(400.352 348)">𝜕<tspan x="15.513" y="0" font-size="27">𝑥</tspan><tspan x="29.42" y="5" font-size="20">𝑘</tspan><tspan x="-11.493" y="38" font-size="27">𝜕</tspan><tspan x="4.02" y="38" font-size="27">𝑥</tspan><tspan x="17.927" y="44" font-size="20">𝑠</tspan><tspan x="27.827" y="44" font-size="20">+</tspan><tspan x="41.993" y="44" font-size="20">1</tspan></text><path fill="#000005" fill-rule="evenodd" d="M389.179 360.239 422.179 360.239 455.179 360.239 455.179 362.239 422.179 362.239 389.179 362.239Z"/><text fill="#000005" font-family="Cambria Math,Cambria Math_MSFontService,sans-serif" font-size="27" font-weight="400" transform="translate(240.515 444)">𝑠<tspan x="20.287" y="0" font-size="27">=</tspan><tspan x="47.693" y="0" font-size="27">𝑠</tspan><tspan x="66.5" y="0" font-size="27">−</tspan><tspan x="92.427" y="0" font-size="27">1</tspan><tspan x="-61.611" y="-148" font-family="Arial,Arial_MSFontService,sans-serif" font-size="27">while </tspan><tspan x="6.722" y="-148" font-size="27">𝑠</tspan><tspan x="27.009" y="-148" font-size="27">≥</tspan><tspan x="54.416" y="-148" font-size="27">1</tspan></text><rect width="473" height="363" x="72.5" y="126.5" fill="none" stroke="#C41230" stroke-linejoin="round" stroke-miterlimit="10" stroke-width=".333"/></g></svg>