<svg width="291" height="210" xmlns="http://www.w3.org/2000/svg" xmlns:xlink="http://www.w3.org/1999/xlink" overflow="hidden"><defs><clipPath id="clip0"><path d="M555 64 846 64 846 274 555 274Z" fill-rule="evenodd" clip-rule="evenodd"/></clipPath></defs><g clip-path="url(#clip0)" transform="translate(-555 -64)"><path d="M556.5 173C556.5 160.021 567.021 149.5 580 149.5 592.979 149.5 603.5 160.021 603.5 173 603.5 185.979 592.979 196.5 580 196.5 567.021 196.5 556.5 185.979 556.5 173Z" stroke="#000005" stroke-linejoin="round" stroke-miterlimit="10" fill="none" fill-rule="evenodd"/><text fill="#000005" font-family="Cambria Math,Cambria Math_MSFontService,sans-serif" font-weight="400" font-size="27" transform="translate(571.647 182)">ℎ</text><path d="M683.5 85.5001C683.5 73.9021 692.902 64.5001 704.5 64.5001 716.098 64.5001 725.5 73.9021 725.5 85.5001 725.5 97.098 716.098 106.5 704.5 106.5 692.902 106.5 683.5 97.098 683.5 85.5001Z" stroke="#000005" stroke-linejoin="round" stroke-miterlimit="10" fill="none" fill-rule="evenodd"/><text fill="#000005" font-family="Cambria Math,Cambria Math_MSFontService,sans-serif" font-weight="400" font-size="27" transform="translate(696.52 96)">𝑥</text><path d="M803.5 175.5C803.5 163.902 812.902 154.5 824.5 154.5 836.098 154.5 845.5 163.902 845.5 175.5 845.5 187.098 836.098 196.5 824.5 196.5 812.902 196.5 803.5 187.098 803.5 175.5Z" stroke="#000005" stroke-linejoin="round" stroke-miterlimit="10" fill="none" fill-rule="evenodd"/><text fill="#000005" font-family="Cambria Math,Cambria Math_MSFontService,sans-serif" font-weight="400" font-size="27" transform="translate(817.242 186)">𝑧</text><path d="M683.5 252.5C683.5 240.902 692.902 231.5 704.5 231.5 716.098 231.5 725.5 240.902 725.5 252.5 725.5 264.098 716.098 273.5 704.5 273.5 692.902 273.5 683.5 264.098 683.5 252.5Z" stroke="#000005" stroke-linejoin="round" stroke-miterlimit="10" fill="none" fill-rule="evenodd"/><text fill="#000005" font-family="Cambria Math,Cambria Math_MSFontService,sans-serif" font-weight="400" font-size="27" transform="translate(696.28 263)">𝑦</text><path d="M0.257043-0.428869 87.6656 51.9595 87.1515 52.8172-0.257043 0.428869ZM88.3212 48.2719 93.1267 55.8155 84.2085 55.1338Z" fill="#000005" transform="matrix(1 0 0 -1 596.5 156.316)"/><path d="M596.727 189.054 683.912 233.422 683.458 234.313 596.273 189.946ZM684.311 229.698 689.627 236.891 680.683 236.828Z" fill="#000005"/><path d="M719.776 100.083 804.393 156.031 803.842 156.865 719.224 100.917ZM805.212 152.376 809.679 160.125 800.799 159.049Z" fill="#000005"/><path d="M0.232576-0.442615 84.5096 43.8415 84.0445 44.7267-0.232576 0.442615ZM84.9573 40.123 90.1786 47.3851 81.2361 47.2048Z" fill="#000005" transform="matrix(1 0 0 -1 719.5 236.885)"/></g></svg>