<svg xmlns="http://www.w3.org/2000/svg" xmlns:xlink="http://www.w3.org/1999/xlink" width="883" height="470" overflow="hidden"><defs><clipPath id="clip0"><rect width="883" height="470" x="51" y="148"/></clipPath></defs><g clip-path="url(#clip0)" transform="translate(-51 -148)"><path fill="none" fill-rule="evenodd" stroke="#000005" stroke-linejoin="round" stroke-miterlimit="10" stroke-width=".333" d="M733.5 403C733.5 380.08 767.303 361.5 809 361.5 850.698 361.5 884.5 380.08 884.5 403 884.5 425.92 850.698 444.5 809 444.5 767.303 444.5 733.5 425.92 733.5 403Z"/><text fill="#000005" font-family="Cambria Math,Cambria Math_MSFontService,sans-serif" font-size="27" font-weight="400" transform="translate(753.976 397)">ğ‘’<tspan x="21.16" y="0" font-size="27">=</tspan><tspan x="48.567" y="0" font-size="27">ğ‘</tspan><tspan x="67.673" y="0" font-size="27">âˆ—</tspan><tspan x="86.433" y="0" font-size="27">ğ‘‘</tspan><tspan x="0" y="32" font-size="27">ğ‘’</tspan><tspan x="21.16" y="32" font-size="27">=</tspan><tspan x="48.567" y="32" font-size="27">20</tspan></text><path fill="none" fill-rule="evenodd" stroke="#000005" stroke-linejoin="round" stroke-miterlimit="10" stroke-width=".333" d="M422.5 500.5C422.5 476.2 459.884 456.5 506 456.5 552.116 456.5 589.5 476.2 589.5 500.5 589.5 524.801 552.116 544.5 506 544.5 459.884 544.5 422.5 524.801 422.5 500.5Z"/><text fill="#000005" font-family="Cambria Math,Cambria Math_MSFontService,sans-serif" font-size="27" font-weight="400" transform="translate(446.193 494)">ğ‘‘<tspan x="23.753" y="0" font-size="27">=</tspan><tspan x="51.16" y="0" font-size="27">ğ‘</tspan><tspan x="72.007" y="0" font-size="27">+</tspan><tspan x="97.933" y="0" font-size="27">1</tspan><tspan x="0" y="32" font-size="27">ğ‘‘</tspan><tspan x="23.753" y="32" font-size="27">=</tspan><tspan x="51.16" y="32" font-size="27">4</tspan></text><path fill="none" fill-rule="evenodd" stroke="#000005" stroke-linejoin="round" stroke-miterlimit="10" stroke-width=".333" d="M418.5 311.5C418.5 286.647 456.78 266.5 504 266.5 551.22 266.5 589.5 286.647 589.5 311.5 589.5 336.353 551.22 356.5 504 356.5 456.78 356.5 418.5 336.353 418.5 311.5Z"/><text fill="#000005" font-family="Cambria Math,Cambria Math_MSFontService,sans-serif" font-size="27" font-weight="400" transform="translate(445.56 305)">ğ‘<tspan x="20.587" y="0" font-size="27">=</tspan><tspan x="47.993" y="0" font-size="27">ğ‘</tspan><tspan x="69.407" y="0" font-size="27">+</tspan><tspan x="95.333" y="0" font-size="27">ğ‘</tspan><tspan x="0" y="32" font-size="27">ğ‘</tspan><tspan x="20.587" y="32" font-size="27">=</tspan><tspan x="47.993" y="32" font-size="27">5</tspan></text><path fill="none" fill-rule="evenodd" stroke="#000005" stroke-linejoin="round" stroke-miterlimit="10" stroke-width=".333" d="M149.5 499.5C149.5 478.513 172.557 461.5 201 461.5 229.443 461.5 252.5 478.513 252.5 499.5 252.5 520.487 229.443 537.5 201 537.5 172.557 537.5 149.5 520.487 149.5 499.5Z"/><text fill="#000005" font-family="Cambria Math,Cambria Math_MSFontService,sans-serif" font-size="27" font-weight="400" transform="translate(164.863 509)">ğ‘<tspan x="22.327" y="0" font-size="27">=</tspan><tspan x="49.733" y="0" font-size="27">3</tspan></text><path fill="none" fill-rule="evenodd" stroke="#000005" stroke-linejoin="round" stroke-miterlimit="10" stroke-width=".333" d="M150.5 309.5C150.5 288.513 173.334 271.5 201.5 271.5 229.667 271.5 252.5 288.513 252.5 309.5 252.5 330.487 229.667 347.5 201.5 347.5 173.334 347.5 150.5 330.487 150.5 309.5Z"/><text fill="#000005" font-family="Cambria Math,Cambria Math_MSFontService,sans-serif" font-size="27" font-weight="400" transform="translate(164.77 319)">ğ‘<tspan x="22.893" y="0" font-size="27">=</tspan><tspan x="50.3" y="0" font-size="27">2</tspan></text><path fill="#000005" d="M0.354366-0.564685 200.789 125.217 200.08 126.347-0.354366 0.564685ZM201.431 121.685 206.081 129.326 197.179 128.461Z" transform="matrix(1 0 0 -1 237.5 472.826)"/><path fill="#000005" d="M252.508 308.833 411.675 310.8 411.659 312.133 252.492 310.167ZM410.384 307.451 418.334 311.549 410.285 315.45Z"/><path fill="#000005" d="M252.504 498.833 415.641 499.751 415.633 501.084 252.496 500.167ZM414.326 496.41 422.304 500.455 414.281 504.41Z"/><path fill="#000005" d="M589.734 310.876 749.325 370.706 748.857 371.955 589.266 312.124ZM749.247 367.117 755.334 373.671 746.438 374.608Z"/><path fill="#000005" d="M0.252154-0.617141 159.914 64.6183 159.41 65.8525-0.252154 0.617141ZM159.941 61.0284 165.833 67.7571 156.915 68.434Z" transform="matrix(1 0 0 -1 589.5 500.257)"/><text fill="#000005" font-family="Cambria Math,Cambria Math_MSFontService,sans-serif" font-size="27" font-weight="400" transform="translate(656.202 287)">ğœ•<tspan x="14.833" y="0" font-size="27">ğ‘’</tspan><tspan x=".287" y="38" font-size="27">ğœ•</tspan><tspan x="15.12" y="38" font-size="27">ğ‘</tspan></text><path fill="#000005" fill-rule="evenodd" d="M655.902 298.925 684.902 298.925 684.902 300.925 655.902 300.925Z"/><text fill="#000005" font-family="Cambria Math,Cambria Math_MSFontService,sans-serif" font-size="27" font-weight="400" transform="translate(692.196 307)">=<tspan x="27.407" y="0" font-size="27">ğ‘‘</tspan><tspan x="51.16" y="0" font-size="27">=</tspan><tspan x="78.567" y="0" font-size="27">4</tspan><tspan x="-17.258" y="185" fill="#000" font-size="27">ğœ•</tspan><tspan x="-2.425" y="185" fill="#000" font-size="27">ğ‘’</tspan><tspan x="-18.551" y="223" fill="#000" font-size="27">ğœ•</tspan><tspan x="-3.718" y="223" fill="#000" font-size="27">ğ‘‘</tspan></text><path fill-rule="evenodd" d="M673.391 504.053 704.391 504.053 704.391 506.053 673.391 506.053Z"/><text font-family="Cambria Math,Cambria Math_MSFontService,sans-serif" font-size="27" font-weight="400" transform="translate(712.231 512)">=<tspan x="27.407" y="0" font-size="27">ğ‘</tspan><tspan x="47.993" y="0" font-size="27">=</tspan><tspan x="75.4" y="0" font-size="27">5</tspan><tspan x="-415.726" y="-250" fill="#000005" font-size="27">ğœ•</tspan><tspan x="-400.892" y="-250" fill="#000005" font-size="27">ğ‘</tspan><tspan x="-416.879" y="-212" fill="#000005" font-size="27">ğœ•</tspan><tspan x="-402.046" y="-212" fill="#000005" font-size="27">ğ‘</tspan></text><path fill="#000005" fill-rule="evenodd" d="M295.339 274.452 310.339 274.452 325.339 274.452 325.339 276.452 310.339 276.452 295.339 276.452Z"/><text fill="#000005" font-family="Cambria Math,Cambria Math_MSFontService,sans-serif" font-size="27" font-weight="400" transform="translate(333.079 282)">=<tspan x="27.407" y="0" font-size="27">1</tspan><tspan x="-64.122" y="91" font-size="27">ğœ•</tspan><tspan x="-49.289" y="91" font-size="27">ğ‘</tspan><tspan x="-64.989" y="129" font-size="27">ğœ•</tspan><tspan x="-50.156" y="129" font-size="27">ğ‘</tspan></text><path fill="#000005" fill-rule="evenodd" d="M267.79 384.748 282.79 384.748 297.79 384.748 297.79 386.748 282.79 386.748 267.79 386.748Z"/><text fill="#000005" font-family="Cambria Math,Cambria Math_MSFontService,sans-serif" font-size="27" font-weight="400" transform="translate(305.25 393)">=<tspan x="27.407" y="0" font-size="27">1</tspan><tspan x="6.703" y="136" font-size="27">ğœ•</tspan><tspan x="21.536" y="136" font-size="27">ğ‘‘</tspan><tspan x="7.416" y="174" font-size="27">ğœ•</tspan><tspan x="22.25" y="174" font-size="27">ğ‘</tspan></text><path fill="#000005" fill-rule="evenodd" d="M311.866 540.895 327.366 540.895 342.866 540.895 342.866 542.895 327.366 542.895 311.866 542.895Z"/><text fill="#000005" font-family="Cambria Math,Cambria Math_MSFontService,sans-serif" font-size="27" font-weight="400" transform="translate(350.539 549)">=<tspan x="27.407" y="0" font-size="27">1</tspan><tspan x="500.712" y="-227" fill="red" font-size="27">ğœ•</tspan><tspan x="515.545" y="-227" fill="red" font-size="27">ğ‘’</tspan><tspan x="500.712" y="-189" fill="red" font-size="27">ğœ•</tspan><tspan x="515.545" y="-189" fill="red" font-size="27">ğ‘’</tspan></text><path fill="red" fill-rule="evenodd" d="M851.204 334.586 865.704 334.586 880.204 334.586 880.204 336.586 865.704 336.586 851.204 336.586Z"/><text fill="red" font-family="Cambria Math,Cambria Math_MSFontService,sans-serif" font-size="27" font-weight="400" transform="translate(887.244 343)">=<tspan x="27.407" y="0" font-size="27">1</tspan><tspan x="-347.244" y="-118" font-size="27">ğœ•</tspan><tspan x="-332.411" y="-118" font-size="27">ğ‘’</tspan><tspan x="-346.957" y="-80" font-size="27">ğœ•</tspan><tspan x="-332.124" y="-80" font-size="27">ğ‘</tspan></text><path fill="red" fill-rule="evenodd" d="M539.953 236.842 554.453 236.842 568.953 236.842 568.953 238.842 554.453 238.842 539.953 238.842Z"/><text fill="red" font-family="Cambria Math,Cambria Math_MSFontService,sans-serif" font-size="27" font-weight="400" transform="translate(575.993 245)">=<tspan x="27.407" y="0" font-size="27">4</tspan><tspan x="-464.996" y="-10" font-size="27">ğœ•</tspan><tspan x="-450.163" y="-10" font-size="27">ğ‘’</tspan><tspan x="-465.863" y="28" font-size="27">ğœ•</tspan>ğ‘</text><path fill="red" fill-rule="evenodd" d="M110.117 247.631 125.117 247.631 140.117 247.631 140.117 249.631 125.117 249.631 110.117 249.631Z"/><text fill="red" font-family="Cambria Math,Cambria Math_MSFontService,sans-serif" font-size="27" font-weight="400" transform="translate(147.857 256)">=<tspan x="27.407" y="0" font-size="27">4</tspan><tspan x="-90.886" y="322" font-size="27">ğœ•</tspan>ğ‘’<tspan x="-91.466" y="360" font-size="27">ğœ•</tspan><tspan x="-76.633" y="360" font-size="27">ğ‘</tspan></text><path fill="red" fill-rule="evenodd" d="M56.391 590.582 86.391 590.582 86.391 592.582 56.391 592.582Z"/><text fill="red" font-family="Cambria Math,Cambria Math_MSFontService,sans-serif" font-size="27" font-weight="400" transform="translate(93.551 599)">=<tspan x="27.407" y="-21" font-size="27">ğœ•ğ‘’</tspan><tspan x="27.693" y="17" font-size="27">ğœ•</tspan><tspan x="42.527" y="17" font-size="27">ğ‘</tspan></text><path fill="red" fill-rule="evenodd" d="M121.391 590.582 150.391 590.582 150.391 592.582 121.391 592.582Z"/><text fill="red" font-family="Cambria Math,Cambria Math_MSFontService,sans-serif" font-size="27" font-weight="400" transform="translate(154.858 578)">ğœ•<tspan x="14.833" y="0" font-size="27">ğ‘</tspan><tspan x="-.867" y="38" font-size="27">ğœ•ğ‘</tspan></text><path fill="red" fill-rule="evenodd" d="M154.391 590.582 184.391 590.582 184.391 592.582 154.391 592.582Z"/><text fill="red" font-family="Cambria Math,Cambria Math_MSFontService,sans-serif" font-size="27" font-weight="400" transform="translate(189.671 599)">+<tspan x="27.22" y="-21" font-size="27">ğœ•ğ‘’</tspan><tspan x="25.927" y="17" font-size="27">ğœ•</tspan><tspan x="40.76" y="17" font-size="27">ğ‘‘</tspan></text><path fill="red" fill-rule="evenodd" d="M215.391 590.582 246.391 590.582 246.391 592.582 215.391 592.582Z"/><text fill="red" font-family="Cambria Math,Cambria Math_MSFontService,sans-serif" font-size="27" font-weight="400" transform="translate(251.224 578)">ğœ•<tspan x="14.833" y="0" font-size="27">ğ‘‘</tspan><tspan x=".713" y="38" font-size="27">ğœ•</tspan><tspan x="15.547" y="38" font-size="27">ğ‘</tspan></text><path fill="red" fill-rule="evenodd" d="M251.391 590.582 282.391 590.582 282.391 592.582 251.391 592.582Z"/><text fill="red" font-family="Cambria Math,Cambria Math_MSFontService,sans-serif" font-size="27" font-weight="400" transform="translate(289.811 599)">=<tspan x="27.407" y="0" font-size="27">9</tspan><tspan x="248.904" y="-33" font-size="27">ğœ•</tspan><tspan x="263.737" y="-33" font-size="27">ğ‘’</tspan><tspan x="247.61" y="5" font-size="27">ğœ•</tspan><tspan x="262.444" y="5" font-size="27">ğ‘‘</tspan></text><path fill="red" fill-rule="evenodd" d="M537.335 578.66 552.835 578.66 568.335 578.66 568.335 580.66 552.835 580.66 537.335 580.66Z"/><text fill="red" font-family="Cambria Math,Cambria Math_MSFontService,sans-serif" font-size="27" font-weight="400" transform="translate(576.008 587)">=<tspan x="27.407" y="0" font-size="27">5</tspan><tspan x="-313.493" y="-405" font-family="Arial,Arial_MSFontService,sans-serif" font-size="27">Gradients in red</tspan></text><path fill="red" d="M464.78 172.895 528.409 202.279 527.85 203.489 464.221 174.105ZM528.596 198.694 534.182 205.679 525.242 205.956Z"/><path fill="red" d="M0.242274-0.621086 96.7531 37.0259 96.2685 38.2681-0.242274 0.621086ZM96.7222 33.4359 102.722 40.0697 93.8149 40.8889Z" transform="matrix(-1 0 0 1 253.222 173.5)"/></g></svg>