<svg width="232" height="125" xmlns="http://www.w3.org/2000/svg" xmlns:xlink="http://www.w3.org/1999/xlink" overflow="hidden"><defs><clipPath id="clip0"><path d="M362 374 594 374 594 499 362 499Z" fill-rule="evenodd" clip-rule="evenodd"/></clipPath></defs><g clip-path="url(#clip0)" transform="translate(-362 -374)"><path d="M363.5 403C363.5 388.365 375.365 376.5 390 376.5 404.636 376.5 416.5 388.365 416.5 403 416.5 417.636 404.636 429.5 390 429.5 375.365 429.5 363.5 417.636 363.5 403Z" stroke="#000005" stroke-linejoin="round" stroke-miterlimit="10" fill="none" fill-rule="evenodd"/><text fill="#000005" font-family="Cambria Math,Cambria Math_MSFontService,sans-serif" font-weight="400" font-size="27" transform="translate(376.571 412)">ЁЭСе<tspan font-size="20" x="13.2867" y="5">1</tspan></text><path d="M363.5 473C363.5 458.365 375.365 446.5 390 446.5 404.636 446.5 416.5 458.365 416.5 473 416.5 487.636 404.636 499.5 390 499.5 375.365 499.5 363.5 487.636 363.5 473Z" stroke="#000005" stroke-linejoin="round" stroke-miterlimit="10" fill="none" fill-rule="evenodd"/><text fill="#000005" font-family="Cambria Math,Cambria Math_MSFontService,sans-serif" font-weight="400" font-size="27" transform="translate(376.264 482)">ЁЭСе<tspan font-size="20" x="13.9067" y="5">2</tspan></text><path d="M538.5 402C538.5 387.365 550.365 375.5 565 375.5 579.636 375.5 591.5 387.365 591.5 402 591.5 416.636 579.636 428.5 565 428.5 550.365 428.5 538.5 416.636 538.5 402Z" stroke="#000005" stroke-linejoin="round" stroke-miterlimit="10" fill="none" fill-rule="evenodd"/><text fill="#000005" font-family="Cambria Math,Cambria Math_MSFontService,sans-serif" font-weight="400" font-size="27" transform="translate(550.821 412)">ЁЭСв<tspan font-size="20" x="14.7133" y="5">1</tspan></text><path d="M540.5 473C540.5 458.365 552.365 446.5 567 446.5 581.636 446.5 593.5 458.365 593.5 473 593.5 487.636 581.636 499.5 567 499.5 552.365 499.5 540.5 487.636 540.5 473Z" stroke="#000005" stroke-linejoin="round" stroke-miterlimit="10" fill="none" fill-rule="evenodd"/><text fill="#000005" font-family="Cambria Math,Cambria Math_MSFontService,sans-serif" font-weight="400" font-size="27" transform="translate(552.408 482)">ЁЭСв<tspan font-size="20" x="15.3334" y="5">2</tspan></text><path d="M0.00175317-0.499997 115.378-0.0954461 115.375 0.904548-0.00175317 0.499997ZM114.057-3.6001 122.043 0.427927 114.029 4.39985Z" fill="#000005" transform="matrix(1 0 0 -1 416.5 402.928)"/><path d="M416.746 402.065 534.877 468.758 534.385 469.629 416.254 402.935ZM535.437 465.055 540.437 472.471 531.504 472.022Z" fill="#000005"/><path d="M0.249835-0.433108 116.518 66.6351 116.018 67.5013-0.249835 0.433108ZM117.112 62.9371 122.043 70.3994 113.115 69.8669Z" fill="#000005" transform="matrix(1 0 0 -1 416.5 472.899)"/><path d="M416.5 472 533.77 472 533.77 473 416.5 473ZM532.437 468.5 540.437 472.5 532.437 476.5Z" fill="#000005"/></g></svg>