<svg width="456" height="124" xmlns="http://www.w3.org/2000/svg" xmlns:xlink="http://www.w3.org/1999/xlink" overflow="hidden"><defs><clipPath id="clip0"><path d="M63 147 519 147 519 271 63 271Z" fill-rule="evenodd" clip-rule="evenodd"/></clipPath></defs><g clip-path="url(#clip0)" transform="translate(-63 -147)"><path d="M64.5001 232.5C64.5001 211.513 81.2894 194.5 102 194.5 122.711 194.5 139.5 211.513 139.5 232.5 139.5 253.487 122.711 270.5 102 270.5 81.2894 270.5 64.5001 253.487 64.5001 232.5Z" stroke="#000005" stroke-linejoin="round" stroke-miterlimit="10" fill="none" fill-rule="evenodd"/><text fill="#000005" font-family="Cambria Math,Cambria Math_MSFontService,sans-serif" font-weight="400" font-size="27" transform="translate(90.4815 242)">𝑥</text><path d="M253.5 232C253.5 211.289 270.513 194.5 291.5 194.5 312.487 194.5 329.5 211.289 329.5 232 329.5 252.711 312.487 269.5 291.5 269.5 270.513 269.5 253.5 252.711 253.5 232Z" stroke="#000005" stroke-linejoin="round" stroke-miterlimit="10" fill="none" fill-rule="evenodd"/><text fill="#000005" font-family="Cambria Math,Cambria Math_MSFontService,sans-serif" font-weight="400" font-size="27" transform="translate(279.424 241)">𝑦</text><path d="M442.5 232C442.5 211.289 459.513 194.5 480.5 194.5 501.487 194.5 518.5 211.289 518.5 232 518.5 252.711 501.487 269.5 480.5 269.5 459.513 269.5 442.5 252.711 442.5 232Z" stroke="#000005" stroke-linejoin="round" stroke-miterlimit="10" fill="none" fill-rule="evenodd"/><text fill="#000005" font-family="Cambria Math,Cambria Math_MSFontService,sans-serif" font-weight="400" font-size="27" transform="translate(469.69 241)">𝑧</text><path d="M0.0014193-0.499998 106.916-0.196507 106.913 0.803489-0.0014193 0.499998ZM105.593-3.70028 113.582 0.322415 105.57 4.29969Z" fill="#000005" transform="matrix(1 0 0 -1 139.5 231.822)"/><path d="M329.5 231 436.415 231 436.415 232 329.5 232ZM435.082 227.5 443.082 231.5 435.082 235.5Z" fill="#000005"/><text fill="#000005" font-family="Cambria Math,Cambria Math_MSFontService,sans-serif" font-weight="400" font-size="27" transform="translate(369.343 170)">𝜕𝑧<tspan x="-1.08002" y="38">𝜕𝑦</tspan></text><path d="M368.49 182.519 375.99 182.519 383.49 182.519 390.99 182.519 398.49 182.519 398.49 184.519 390.99 184.519 383.49 184.519 375.99 184.519 368.49 184.519Z" fill="#000005" fill-rule="evenodd"/><text fill="#000005" font-family="Cambria Math,Cambria Math_MSFontService,sans-serif" font-weight="400" font-size="27" transform="translate(179.081 171)">𝜕𝑦<tspan x="0.240005" y="39">𝜕𝑥</tspan></text><path d="M179.308 183.672 186.808 183.672 194.308 183.672 201.808 183.672 209.308 183.672 209.308 185.672 201.808 185.672 194.308 185.672 186.808 185.672 179.308 185.672Z" fill="#000005" fill-rule="evenodd"/></g></svg>