<svg width="627" height="259" xmlns="http://www.w3.org/2000/svg" xmlns:xlink="http://www.w3.org/1999/xlink" overflow="hidden"><defs><clipPath id="clip0"><path d="M160 452 787 452 787 711 160 711Z" fill-rule="evenodd" clip-rule="evenodd"/></clipPath></defs><g clip-path="url(#clip0)" transform="translate(-160 -452)"><path d="M161.5 529C161.5 508.289 195.75 491.5 238 491.5 280.25 491.5 314.5 508.289 314.5 529 314.5 549.711 280.25 566.5 238 566.5 195.75 566.5 161.5 549.711 161.5 529Z" stroke="#000005" stroke-linejoin="round" stroke-miterlimit="10" fill="none" fill-rule="evenodd"/><text fill="#000005" font-family="Cambria Math,Cambria Math_MSFontService,sans-serif" font-weight="400" font-size="27" transform="translate(195.787 538)">𝐱<tspan x="21.4067" y="0">=</tspan></text><path d="M269.767 508.153 276.043 508.153 276.043 552.45 269.767 552.45 269.767 551.303 273.604 551.303 273.604 509.3 269.767 509.3ZM247.593 508.153 253.869 508.153 253.869 509.3 250.032 509.3 250.032 551.303 253.869 551.303 253.869 552.45 247.593 552.45Z" fill="#000005" fill-rule="evenodd"/><text fill="#000005" font-family="Cambria Math,Cambria Math_MSFontService,sans-serif" font-weight="400" font-size="27" transform="translate(254.341 524)">1<tspan x="0" y="31">2</tspan></text><path d="M378.5 516C378.5 480.93 412.75 452.5 455 452.5 497.25 452.5 531.5 480.93 531.5 516 531.5 551.07 497.25 579.5 455 579.5 412.75 579.5 378.5 551.07 378.5 516Z" stroke="#000005" stroke-linejoin="round" stroke-miterlimit="10" fill="none" fill-rule="evenodd"/><text fill="#000005" font-family="Cambria Math,Cambria Math_MSFontService,sans-serif" font-weight="400" font-size="27" transform="translate(411.967 497)">𝐮<tspan x="23.74" y="0">=</tspan><tspan x="51.1467" y="0">𝐀</tspan><tspan x="69.3133" y="0">𝐱</tspan><tspan x="0" y="42">𝐮</tspan><tspan x="23.74" y="42">=</tspan></text><path d="M488.281 508.994 494.556 508.994 494.556 553.291 488.281 553.291 488.281 552.144 492.117 552.144 492.117 510.141 488.281 510.141ZM466.107 508.994 472.382 508.994 472.382 510.141 468.546 510.141 468.546 552.144 472.382 552.144 472.382 553.291 466.107 553.291Z" fill="#000005" fill-rule="evenodd"/><text fill="#000005" font-family="Cambria Math,Cambria Math_MSFontService,sans-serif" font-weight="400" font-size="27" transform="translate(472.854 524)">3<tspan x="0" y="32">6</tspan></text><path d="M377.5 649.5C377.5 615.811 414.213 588.5 459.5 588.5 504.787 588.5 541.5 615.811 541.5 649.5 541.5 683.189 504.787 710.5 459.5 710.5 414.213 710.5 377.5 683.189 377.5 649.5Z" stroke="#000005" stroke-linejoin="round" stroke-miterlimit="10" fill="none" fill-rule="evenodd"/><text fill="#000005" font-family="Cambria Math,Cambria Math_MSFontService,sans-serif" font-weight="400" font-size="27" transform="translate(403.884 632)">𝐯<tspan x="21.74" y="0">=</tspan><tspan x="49.1467" y="0">𝐱</tspan><tspan x="69.0733" y="0">+</tspan><tspan x="95" y="0">𝐲</tspan><tspan x="0" y="42">𝐯</tspan><tspan x="21.74" y="42">=</tspan></text><path d="M478.197 643.892 484.472 643.892 484.472 688.189 478.197 688.189 478.197 687.042 482.033 687.042 482.033 645.039 478.197 645.039ZM456.023 643.892 462.298 643.892 462.298 645.039 458.462 645.039 458.462 687.042 462.298 687.042 462.298 688.189 456.023 688.189Z" fill="#000005" fill-rule="evenodd"/><text fill="#000005" font-family="Cambria Math,Cambria Math_MSFontService,sans-serif" font-weight="400" font-size="27" transform="translate(462.77 659)">4<tspan x="0" y="32">7</tspan></text><path d="M161.5 655C161.5 634.289 195.75 617.5 238 617.5 280.25 617.5 314.5 634.289 314.5 655 314.5 675.711 280.25 692.5 238 692.5 195.75 692.5 161.5 675.711 161.5 655Z" stroke="#000005" stroke-linejoin="round" stroke-miterlimit="10" fill="none" fill-rule="evenodd"/><text fill="#000005" font-family="Cambria Math,Cambria Math_MSFontService,sans-serif" font-weight="400" font-size="27" transform="translate(195.621 664)">𝐲<tspan x="21.74" y="0">=</tspan></text><path d="M269.934 634.499 276.209 634.499 276.209 678.795 269.934 678.795 269.934 677.648 273.77 677.648 273.77 635.646 269.934 635.646ZM247.76 634.499 254.035 634.499 254.035 635.646 250.199 635.646 250.199 677.648 254.035 677.648 254.035 678.795 247.76 678.795Z" fill="#000005" fill-rule="evenodd"/><text fill="#000005" font-family="Cambria Math,Cambria Math_MSFontService,sans-serif" font-weight="400" font-size="27" transform="translate(254.507 650)">3<tspan x="0" y="31">5</tspan></text><path d="M622.5 599C622.5 574.976 659.213 555.5 704.5 555.5 749.787 555.5 786.5 574.976 786.5 599 786.5 623.024 749.787 642.5 704.5 642.5 659.213 642.5 622.5 623.024 622.5 599Z" stroke="#000005" stroke-linejoin="round" stroke-miterlimit="10" fill="none" fill-rule="evenodd"/><text fill="#000005" font-family="Cambria Math,Cambria Math_MSFontService,sans-serif" font-weight="400" font-size="27" transform="translate(657.583 594)">𝑒<tspan x="21.16" y="0">=</tspan><tspan x="48.5667" y="0">𝐮</tspan><tspan font-size="20" x="64.9" y="-10">𝑇</tspan><tspan x="78.5934" y="0">𝐯</tspan><tspan x="0" y="32">𝑒</tspan><tspan x="21.16" y="32">=</tspan><tspan x="48.5667" y="32">54</tspan></text><path d="M0.0987658-0.490148 58.0285 11.1828 57.8309 12.1631-0.0987658 0.490148ZM57.4127 7.48838 64.465 12.9898 55.8325 15.3308Z" fill="#000005" transform="matrix(1 0 0 -1 314.5 529.49)"/><path d="M531.707 516.045 640.575 565.578 640.161 566.488 531.293 516.955ZM640.811 561.84 646.436 568.794 637.498 569.122Z" fill="#000005"/><path d="M0.0486457-0.497628 56.2059 4.99203 56.1086 5.98729-0.0486457 0.497628ZM55.2193 1.37891 62.7922 6.13827 54.441 9.34096Z" fill="#000005" transform="matrix(1 0 0 -1 314.5 655.638)"/><path d="M0.0917878-0.491503 99.1603 18.0095 98.9767 18.9925-0.0917878 0.491503ZM98.4922 14.3242 105.622 19.7248 97.0236 22.1882Z" fill="#000005" transform="matrix(1 0 0 -1 541.5 649.225)"/><path d="M291.71 555.046 394.842 602.874 394.421 603.781 291.29 555.954ZM395.105 599.138 400.679 606.132 391.739 606.395Z" fill="#000005"/></g></svg>