<svg width="772" height="128" xmlns="http://www.w3.org/2000/svg" xmlns:xlink="http://www.w3.org/1999/xlink" overflow="hidden"><defs><clipPath id="clip0"><rect x="26" y="144" width="772" height="128"/></clipPath></defs><g clip-path="url(#clip0)" transform="translate(-26 -144)"><path d="M26.5001 244C26.5001 229.365 38.3645 217.5 53.0001 217.5 67.6356 217.5 79.5 229.365 79.5 244 79.5 258.636 67.6356 270.5 53.0001 270.5 38.3645 270.5 26.5001 258.636 26.5001 244Z" stroke="#000005" stroke-width="0.333333" stroke-linejoin="round" stroke-miterlimit="10" fill="none" fill-rule="evenodd"/><text fill="#000005" font-family="Cambria Math,Cambria Math_MSFontService,sans-serif" font-weight="400" font-size="21" transform="translate(39.6337 251)">𝑥<tspan font-size="15" x="10.6333" y="5">1</tspan></text><path d="M140.5 243C140.5 228.365 152.365 216.5 167 216.5 181.636 216.5 193.5 228.365 193.5 243 193.5 257.636 181.636 269.5 167 269.5 152.365 269.5 140.5 257.636 140.5 243Z" stroke="#000005" stroke-width="0.333333" stroke-linejoin="round" stroke-miterlimit="10" fill="none" fill-rule="evenodd"/><text fill="#000005" font-family="Cambria Math,Cambria Math_MSFontService,sans-serif" font-weight="400" font-size="21" transform="translate(153.149 251)">𝑥<tspan font-size="15" x="11.1267" y="4">2</tspan></text><path d="M254.5 243C254.5 228.365 266.365 216.5 281 216.5 295.636 216.5 307.5 228.365 307.5 243 307.5 257.636 295.636 269.5 281 269.5 266.365 269.5 254.5 257.636 254.5 243Z" stroke="#000005" stroke-width="0.333333" stroke-linejoin="round" stroke-miterlimit="10" fill="none" fill-rule="evenodd"/><text fill="#000005" font-family="Cambria Math,Cambria Math_MSFontService,sans-serif" font-weight="400" font-size="21" transform="translate(266.91 251)">𝑥<tspan font-size="15" x="11.1266" y="4">3</tspan></text><path d="M0.000884362-0.166664 54.0957 0.120376 54.0939 0.453705-0.000884362 0.166664ZM52.7827-3.71998 60.7614 0.322415 52.7402 4.27991Z" fill="#000005" transform="matrix(1 0 0 -1 79.5001 243.822)"/><path d="M193.5 243.333 247.595 243.333 247.595 243.667 193.5 243.667ZM246.261 239.5 254.261 243.5 246.261 247.5Z" fill="#000005"/><path d="M402.5 243C402.5 228.365 414.365 216.5 429 216.5 443.636 216.5 455.5 228.365 455.5 243 455.5 257.636 443.636 269.5 429 269.5 414.365 269.5 402.5 257.636 402.5 243Z" stroke="#000005" stroke-width="0.333333" stroke-linejoin="round" stroke-miterlimit="10" fill="none" fill-rule="evenodd"/><text fill="#000005" font-family="Cambria Math,Cambria Math_MSFontService,sans-serif" font-weight="400" font-size="21" transform="translate(404.124 251)">𝑥<tspan font-size="15" x="11.1266" y="4">𝑘</tspan><tspan font-size="15" x="21.08" y="4">−</tspan><tspan font-size="15" x="32.4133" y="4">3</tspan></text><path d="M0.00182832-0.166657 53.6258 0.421628 53.6221 0.754941-0.00182832 0.166657ZM52.3345-3.4261 60.2902 0.661417 52.2468 4.57342Z" fill="#000005" transform="matrix(1 0 0 -1 456.5 244.161)"/><path d="M516.5 244C516.5 229.365 528.365 217.5 543 217.5 557.636 217.5 569.5 229.365 569.5 244 569.5 258.636 557.636 270.5 543 270.5 528.365 270.5 516.5 258.636 516.5 244Z" stroke="#000005" stroke-width="0.333333" stroke-linejoin="round" stroke-miterlimit="10" fill="none" fill-rule="evenodd"/><text fill="#000005" font-family="Cambria Math,Cambria Math_MSFontService,sans-serif" font-weight="400" font-size="21" transform="translate(518.414 252)">𝑥<tspan font-size="15" x="11.1266" y="4">𝑘</tspan><tspan font-size="15" x="21.08" y="4">−</tspan><tspan font-size="15" x="32.4133" y="4">2</tspan></text><path d="M630.5 244C630.5 229.365 642.365 217.5 657 217.5 671.636 217.5 683.5 229.365 683.5 244 683.5 258.636 671.636 270.5 657 270.5 642.365 270.5 630.5 258.636 630.5 244Z" stroke="#000005" stroke-width="0.333333" stroke-linejoin="round" stroke-miterlimit="10" fill="none" fill-rule="evenodd"/><text fill="#000005" font-family="Cambria Math,Cambria Math_MSFontService,sans-serif" font-weight="400" font-size="21" transform="translate(632.176 251)">𝑥<tspan font-size="15" x="11.1266" y="5">𝑘</tspan><tspan font-size="15" x="21.08" y="5">−</tspan><tspan font-size="15" x="32.4133" y="5">1</tspan></text><path d="M744.5 244C744.5 229.365 756.365 217.5 771 217.5 785.636 217.5 797.5 229.365 797.5 244 797.5 258.636 785.636 270.5 771 270.5 756.365 270.5 744.5 258.636 744.5 244Z" stroke="#000005" stroke-width="0.333333" stroke-linejoin="round" stroke-miterlimit="10" fill="none" fill-rule="evenodd"/><text fill="#000005" font-family="Cambria Math,Cambria Math_MSFontService,sans-serif" font-weight="400" font-size="21" transform="translate(756.104 251)">𝑥<tspan font-size="15" x="11.1267" y="5">𝑘</tspan></text><path d="M0.000884362-0.166664 54.0957 0.120376 54.0939 0.453705-0.000884362 0.166664ZM52.7827-3.71998 60.7614 0.322415 52.7402 4.27991Z" fill="#000005" transform="matrix(1 0 0 -1 569.5 243.822)"/><path d="M683.5 243.333 737.595 243.333 737.595 243.667 683.5 243.667ZM736.261 239.5 744.261 243.5 736.261 247.5Z" fill="#000005"/><text fill="#000005" font-family="Cambria Math,Cambria Math_MSFontService,sans-serif" font-weight="400" font-size="43" transform="translate(336.023 260)">⋯</text><path d="M745.407 220.638 744.578 220.079 744.764 219.803 745.593 220.362ZM744.301 219.893 743.472 219.334 743.659 219.057 744.488 219.616ZM743.196 219.147 742.367 218.588 742.553 218.312 743.382 218.871ZM742.09 218.402 741.261 217.843 741.448 217.567 742.277 218.126ZM740.985 217.657 740.156 217.097 740.342 216.821 741.171 217.38ZM739.879 216.911 739.05 216.352 739.237 216.076 740.066 216.635ZM738.774 216.166 737.945 215.607 738.131 215.33 738.96 215.889ZM737.668 215.42 736.839 214.861 737.026 214.585 737.855 215.144ZM736.563 214.675 735.734 214.116 735.92 213.839 736.749 214.398ZM735.457 213.929 734.628 213.37 734.815 213.094 735.644 213.653ZM734.354 213.19 733.508 212.656 733.687 212.374 734.532 212.908ZM733.227 212.478 732.381 211.943 732.56 211.662 733.405 212.196ZM732.1 211.765 731.254 211.231 731.433 210.949 732.278 211.484ZM730.973 211.053 730.127 210.518 730.306 210.237 731.151 210.771ZM729.846 210.34 729.036 209.828 729.006 209.812 729.171 209.522 729.214 209.547 730.024 210.059ZM728.716 209.647 727.848 209.151 728.013 208.862 728.881 209.357ZM727.558 208.986 726.689 208.491 726.854 208.202 727.723 208.697ZM726.399 208.326 725.531 207.831 725.696 207.542 726.564 208.037ZM725.241 207.666 724.372 207.171 724.537 206.882 725.406 207.377ZM724.082 207.006 723.668 206.77 723.209 206.538 723.359 206.24 723.833 206.48 724.247 206.717ZM722.911 206.387 722.019 205.936 722.169 205.639 723.062 206.09ZM721.721 205.786 720.829 205.334 720.98 205.037 721.872 205.488ZM720.532 205.184 719.639 204.732 719.79 204.435 720.682 204.886ZM719.342 204.582 718.45 204.13 718.6 203.833 719.492 204.284ZM718.156 204.002 717.231 203.623 717.357 203.315 718.283 203.694ZM716.923 203.497 715.997 203.118 716.124 202.81 717.049 203.189ZM715.689 202.992 714.763 202.613 714.89 202.304 715.815 202.683ZM714.455 202.486 713.53 202.107 713.656 201.799 714.581 202.178ZM713.221 201.981 713.187 201.967 712.28 201.695 712.376 201.376 713.313 201.658 713.347 201.672ZM711.96 201.6 711.003 201.312 711.098 200.993 712.056 201.28ZM710.683 201.217 709.726 200.929 709.821 200.61 710.779 200.897ZM709.406 200.833 708.448 200.546 708.544 200.227 709.502 200.514ZM708.15 200.466 707.161 200.316 707.211 199.986 708.2 200.136ZM706.831 200.266 705.843 200.115 705.893 199.786 706.882 199.936ZM705.513 200.065 704.525 199.915 704.575 199.586 705.563 199.736ZM704.195 199.865 703.288 199.727 703.317 199.729 703.235 199.731 703.226 199.398 703.308 199.396C703.318 199.396 703.328 199.396 703.338 199.398L704.245 199.536ZM702.902 199.74 701.902 199.766 701.893 199.433 702.893 199.407ZM701.569 199.775 700.569 199.801 700.56 199.468 701.56 199.442ZM700.236 199.81 699.236 199.837 699.228 199.503 700.227 199.477ZM698.903 199.845 698.567 199.854 698.594 199.851 697.942 199.976 697.879 199.649 698.531 199.524C698.54 199.522 698.549 199.521 698.558 199.521L698.894 199.512ZM697.615 200.039 696.633 200.227 696.57 199.9 697.552 199.712ZM696.305 200.29 695.323 200.479 695.26 200.151 696.242 199.963ZM694.996 200.541 694.031 200.726 694.031 200.726 693.93 200.41 693.969 200.399 694.933 200.214ZM693.72 200.833 692.773 201.153 692.666 200.837 693.614 200.517ZM692.457 201.26 691.51 201.58 691.403 201.264 692.351 200.944ZM691.194 201.687 690.247 202.007 690.14 201.691 691.088 201.371ZM689.931 202.114 689.616 202.22 689.032 202.501 688.889 202.2 689.509 201.905 689.824 201.798ZM688.732 202.645 687.83 203.076 687.686 202.775 688.588 202.344ZM687.529 203.22 686.627 203.651 686.483 203.351 687.385 202.919ZM686.326 203.795 685.424 204.227 685.28 203.926 686.182 203.494ZM685.142 204.379 684.274 204.877 684.109 204.588 684.976 204.09ZM683.985 205.043 683.118 205.54 682.952 205.251 683.819 204.753ZM682.829 205.706 681.961 206.203 681.795 205.914 682.663 205.417ZM681.672 206.369 681.083 206.707 680.824 206.879 680.64 206.601 680.917 206.418 681.506 206.08ZM680.546 207.063 679.713 207.614 679.529 207.336 680.362 206.785ZM679.435 207.798 678.601 208.35 678.417 208.072 679.251 207.52ZM678.323 208.534 677.489 209.086 677.305 208.808 678.139 208.256ZM677.211 209.27 676.842 209.514 676.404 209.843 676.204 209.576 676.658 209.236 677.027 208.992ZM676.137 210.043 675.337 210.643 675.137 210.376 675.937 209.776ZM675.07 210.843 674.27 211.443 674.07 211.176 674.87 210.576ZM674.004 211.643 673.933 211.696 673.733 211.429 673.804 211.376ZM677.3 213.963 668.5 215.563 672.5 207.563Z" fill="#FF0000"/><path d="M636.407 214.638 635.578 214.079 635.764 213.803 636.593 214.362ZM635.301 213.893 634.472 213.334 634.659 213.057 635.488 213.616ZM634.196 213.147 633.367 212.588 633.553 212.312 634.382 212.871ZM633.09 212.402 632.261 211.843 632.448 211.567 633.277 212.126ZM631.985 211.657 631.156 211.097 631.342 210.821 632.171 211.38ZM630.879 210.911 630.05 210.352 630.237 210.076 631.066 210.635ZM629.774 210.166 628.945 209.607 629.131 209.33 629.96 209.889ZM628.668 209.42 627.839 208.861 628.026 208.585 628.855 209.144ZM627.563 208.675 626.734 208.116 626.92 207.839 627.749 208.398ZM626.457 207.929 625.628 207.37 625.815 207.094 626.644 207.653ZM625.354 207.19 624.508 206.656 624.687 206.374 625.532 206.908ZM624.227 206.478 623.381 205.943 623.56 205.662 624.405 206.196ZM623.1 205.765 622.254 205.231 622.433 204.949 623.278 205.484ZM621.973 205.053 621.127 204.518 621.306 204.237 622.151 204.771ZM620.846 204.34 620.036 203.828 620.006 203.812 620.171 203.522 620.214 203.547 621.024 204.059ZM619.716 203.647 618.848 203.151 619.013 202.862 619.881 203.357ZM618.558 202.986 617.689 202.491 617.854 202.202 618.723 202.697ZM617.399 202.326 616.531 201.831 616.696 201.542 617.564 202.037ZM616.241 201.666 615.372 201.171 615.537 200.882 616.406 201.377ZM615.082 201.006 614.668 200.77 614.209 200.538 614.359 200.24 614.833 200.48 615.247 200.717ZM613.911 200.387 613.019 199.936 613.169 199.639 614.062 200.09ZM612.721 199.786 611.829 199.334 611.98 199.037 612.872 199.488ZM611.532 199.184 610.639 198.732 610.79 198.435 611.682 198.886ZM610.342 198.582 609.45 198.13 609.6 197.833 610.492 198.284ZM609.156 198.002 608.231 197.623 608.357 197.315 609.283 197.694ZM607.923 197.497 606.997 197.118 607.124 196.81 608.049 197.189ZM606.689 196.992 605.763 196.613 605.89 196.304 606.815 196.683ZM605.455 196.486 604.53 196.107 604.656 195.799 605.581 196.178ZM604.221 195.981 604.187 195.967 603.28 195.695 603.376 195.376 604.313 195.658 604.347 195.672ZM602.96 195.6 602.003 195.312 602.098 194.993 603.056 195.28ZM601.683 195.217 600.726 194.929 600.821 194.61 601.779 194.897ZM600.406 194.833 599.448 194.546 599.544 194.227 600.502 194.514ZM599.15 194.466 598.161 194.316 598.211 193.986 599.2 194.136ZM597.831 194.266 596.843 194.115 596.893 193.786 597.882 193.936ZM596.513 194.065 595.525 193.915 595.575 193.586 596.563 193.736ZM595.195 193.865 594.288 193.727 594.317 193.729 594.235 193.731 594.226 193.398 594.308 193.396C594.318 193.396 594.328 193.396 594.338 193.398L595.245 193.536ZM593.902 193.74 592.902 193.766 592.893 193.433 593.893 193.407ZM592.569 193.775 591.569 193.801 591.56 193.468 592.56 193.442ZM591.236 193.81 590.236 193.837 590.228 193.503 591.227 193.477ZM589.903 193.845 589.567 193.854 589.594 193.851 588.942 193.976 588.879 193.649 589.531 193.524C589.54 193.522 589.549 193.521 589.558 193.521L589.894 193.512ZM588.615 194.039 587.633 194.227 587.57 193.9 588.552 193.712ZM587.305 194.29 586.323 194.479 586.26 194.151 587.242 193.963ZM585.996 194.541 585.031 194.726 585.031 194.726 584.93 194.41 584.969 194.399 585.933 194.214ZM584.72 194.833 583.773 195.153 583.666 194.837 584.614 194.517ZM583.457 195.26 582.51 195.58 582.403 195.264 583.351 194.944ZM582.194 195.687 581.247 196.007 581.14 195.691 582.088 195.371ZM580.931 196.114 580.616 196.22 580.032 196.501 579.889 196.2 580.509 195.905 580.824 195.798ZM579.732 196.645 578.83 197.076 578.686 196.775 579.588 196.344ZM578.529 197.22 577.627 197.651 577.483 197.351 578.385 196.919ZM577.326 197.795 576.424 198.227 576.28 197.926 577.182 197.494ZM576.142 198.379 575.274 198.877 575.109 198.588 575.976 198.09ZM574.985 199.043 574.118 199.54 573.952 199.251 574.819 198.753ZM573.829 199.706 572.961 200.203 572.795 199.914 573.663 199.417ZM572.672 200.369 572.083 200.707 571.824 200.879 571.64 200.601 571.917 200.418 572.506 200.08ZM571.546 201.063 570.713 201.614 570.529 201.336 571.362 200.785ZM570.435 201.798 569.601 202.35 569.417 202.072 570.251 201.52ZM569.323 202.534 568.489 203.086 568.305 202.808 569.139 202.256ZM568.211 203.27 567.842 203.514 567.404 203.843 567.204 203.576 567.658 203.236 568.027 202.992ZM567.137 204.043 566.337 204.643 566.137 204.376 566.937 203.776ZM566.07 204.843 565.27 205.443 565.07 205.176 565.87 204.576ZM565.004 205.643 564.933 205.696 564.733 205.429 564.804 205.376ZM568.3 207.963 559.5 209.563 563.5 201.563Z" fill="#FF0000"/><path d="M149.407 219.638 148.578 219.079 148.764 218.803 149.593 219.362ZM148.301 218.893 147.472 218.334 147.659 218.057 148.488 218.616ZM147.196 218.147 146.367 217.588 146.553 217.312 147.382 217.871ZM146.09 217.402 145.261 216.843 145.448 216.567 146.277 217.126ZM144.985 216.657 144.156 216.097 144.342 215.821 145.171 216.38ZM143.879 215.911 143.05 215.352 143.237 215.076 144.066 215.635ZM142.774 215.166 141.945 214.607 142.131 214.33 142.96 214.889ZM141.668 214.42 140.839 213.861 141.026 213.585 141.855 214.144ZM140.563 213.675 139.734 213.116 139.92 212.839 140.749 213.398ZM139.457 212.929 138.628 212.37 138.815 212.094 139.644 212.653ZM138.354 212.19 137.508 211.656 137.687 211.374 138.532 211.908ZM137.227 211.478 136.381 210.943 136.56 210.662 137.405 211.196ZM136.1 210.765 135.254 210.231 135.433 209.949 136.278 210.484ZM134.973 210.053 134.127 209.518 134.306 209.237 135.151 209.771ZM133.846 209.34 133.036 208.828 133.006 208.812 133.171 208.522 133.214 208.547 134.024 209.059ZM132.716 208.647 131.848 208.151 132.013 207.862 132.881 208.357ZM131.558 207.986 130.689 207.491 130.854 207.202 131.723 207.697ZM130.399 207.326 129.531 206.831 129.696 206.542 130.564 207.037ZM129.241 206.666 128.372 206.171 128.537 205.882 129.406 206.377ZM128.082 206.006 127.668 205.77 127.209 205.538 127.359 205.24 127.833 205.48 128.247 205.717ZM126.911 205.387 126.019 204.936 126.169 204.639 127.062 205.09ZM125.721 204.786 124.829 204.334 124.98 204.037 125.872 204.488ZM124.532 204.184 123.639 203.732 123.79 203.435 124.682 203.886ZM123.342 203.582 122.45 203.13 122.6 202.833 123.492 203.284ZM122.156 203.002 121.231 202.623 121.357 202.315 122.283 202.694ZM120.923 202.497 119.997 202.118 120.124 201.81 121.049 202.189ZM119.689 201.992 118.763 201.613 118.89 201.304 119.815 201.683ZM118.455 201.486 117.53 201.107 117.656 200.799 118.581 201.178ZM117.221 200.981 117.187 200.967 116.28 200.695 116.376 200.376 117.313 200.658 117.347 200.672ZM115.96 200.6 115.003 200.312 115.098 199.993 116.056 200.28ZM114.683 200.217 113.726 199.929 113.821 199.61 114.779 199.897ZM113.406 199.833 112.448 199.546 112.544 199.227 113.502 199.514ZM112.15 199.466 111.161 199.316 111.211 198.986 112.2 199.136ZM110.831 199.266 109.843 199.115 109.893 198.786 110.882 198.936ZM109.513 199.065 108.525 198.915 108.575 198.586 109.563 198.736ZM108.195 198.865 107.288 198.727 107.317 198.729 107.235 198.731 107.226 198.398 107.308 198.396C107.318 198.396 107.328 198.396 107.338 198.398L108.245 198.536ZM106.902 198.74 105.902 198.766 105.893 198.433 106.893 198.407ZM105.569 198.775 104.569 198.801 104.56 198.468 105.56 198.442ZM104.236 198.81 103.236 198.837 103.228 198.503 104.227 198.477ZM102.903 198.845 102.567 198.854 102.594 198.851 101.942 198.976 101.879 198.649 102.531 198.524C102.54 198.522 102.549 198.521 102.558 198.521L102.894 198.512ZM101.615 199.039 100.633 199.227 100.57 198.9 101.552 198.712ZM100.305 199.29 99.3231 199.479 99.2603 199.151 100.242 198.963ZM98.9958 199.541 98.0314 199.726 98.0314 199.726 97.9295 199.41 97.9687 199.399 98.933 199.214ZM97.7205 199.833 96.7731 200.153 96.6664 199.837 97.6137 199.517ZM96.4574 200.26 95.51 200.58 95.4033 200.264 96.3506 199.944ZM95.1942 200.687 94.2469 201.007 94.1402 200.691 95.0875 200.371ZM93.9311 201.114 93.6159 201.22 93.0325 201.501 92.8887 201.2 93.5092 200.905 93.8244 200.798ZM92.7318 201.645 91.8296 202.076 91.6858 201.775 92.5879 201.344ZM91.5289 202.22 90.6268 202.651 90.483 202.351 91.3851 201.919ZM90.3261 202.795 89.4239 203.227 89.2801 202.926 90.1823 202.494ZM89.1419 203.379 88.2744 203.877 88.1086 203.588 88.976 203.09ZM87.9853 204.043 87.1178 204.54 86.952 204.251 87.8194 203.753ZM86.8287 204.706 85.9612 205.203 85.7954 204.914 86.6628 204.417ZM85.6721 205.369 85.083 205.707 84.8244 205.879 84.6405 205.601 84.9171 205.418 85.5062 205.08ZM84.5464 206.063 83.7125 206.614 83.5285 206.336 84.3625 205.785ZM83.4345 206.798 82.6006 207.35 82.4166 207.072 83.2506 206.52ZM82.3226 207.534 81.4887 208.086 81.3047 207.808 82.1387 207.256ZM81.2107 208.27 80.842 208.514 80.4037 208.843 80.2037 208.576 80.6581 208.236 81.0267 207.992ZM80.1371 209.043 79.3371 209.643 79.1371 209.376 79.9371 208.776ZM79.0704 209.843 78.2704 210.443 78.0704 210.176 78.8704 209.576ZM78.0037 210.643 77.9334 210.696 77.7334 210.429 77.8037 210.376ZM81.3001 212.963 72.5001 214.563 76.5001 206.563Z" fill="#FF0000"/><path d="M262.407 214.638 261.578 214.079 261.764 213.803 262.593 214.362ZM261.301 213.893 260.472 213.334 260.659 213.057 261.488 213.616ZM260.196 213.147 259.367 212.588 259.553 212.312 260.382 212.871ZM259.09 212.402 258.261 211.843 258.448 211.567 259.277 212.126ZM257.985 211.657 257.156 211.097 257.342 210.821 258.171 211.38ZM256.879 210.911 256.05 210.352 256.237 210.076 257.066 210.635ZM255.774 210.166 254.945 209.607 255.131 209.33 255.96 209.889ZM254.668 209.42 253.839 208.861 254.026 208.585 254.855 209.144ZM253.563 208.675 252.734 208.116 252.92 207.839 253.749 208.398ZM252.457 207.929 251.628 207.37 251.815 207.094 252.644 207.653ZM251.354 207.19 250.508 206.656 250.687 206.374 251.532 206.908ZM250.227 206.478 249.381 205.943 249.56 205.662 250.405 206.196ZM249.1 205.765 248.254 205.231 248.433 204.949 249.278 205.484ZM247.973 205.053 247.127 204.518 247.306 204.237 248.151 204.771ZM246.846 204.34 246.036 203.828 246.006 203.812 246.171 203.522 246.214 203.547 247.024 204.059ZM245.716 203.647 244.848 203.151 245.013 202.862 245.881 203.357ZM244.558 202.986 243.689 202.491 243.854 202.202 244.723 202.697ZM243.399 202.326 242.531 201.831 242.696 201.542 243.564 202.037ZM242.241 201.666 241.372 201.171 241.537 200.882 242.406 201.377ZM241.082 201.006 240.668 200.77 240.209 200.538 240.359 200.24 240.833 200.48 241.247 200.717ZM239.911 200.387 239.019 199.936 239.169 199.639 240.062 200.09ZM238.721 199.786 237.829 199.334 237.98 199.037 238.872 199.488ZM237.532 199.184 236.639 198.732 236.79 198.435 237.682 198.886ZM236.342 198.582 235.45 198.13 235.6 197.833 236.492 198.284ZM235.156 198.002 234.231 197.623 234.357 197.315 235.283 197.694ZM233.923 197.497 232.997 197.118 233.124 196.81 234.049 197.189ZM232.689 196.992 231.763 196.613 231.89 196.304 232.815 196.683ZM231.455 196.486 230.53 196.107 230.656 195.799 231.581 196.178ZM230.221 195.981 230.187 195.967 229.28 195.695 229.376 195.376 230.313 195.658 230.347 195.672ZM228.96 195.6 228.003 195.312 228.098 194.993 229.056 195.28ZM227.683 195.217 226.726 194.929 226.821 194.61 227.779 194.897ZM226.406 194.833 225.448 194.546 225.544 194.227 226.502 194.514ZM225.15 194.466 224.161 194.316 224.211 193.986 225.2 194.136ZM223.831 194.266 222.843 194.115 222.893 193.786 223.882 193.936ZM222.513 194.065 221.525 193.915 221.575 193.586 222.563 193.736ZM221.195 193.865 220.288 193.727 220.317 193.729 220.235 193.731 220.226 193.398 220.308 193.396C220.318 193.396 220.328 193.396 220.338 193.398L221.245 193.536ZM219.902 193.74 218.902 193.766 218.893 193.433 219.893 193.407ZM218.569 193.775 217.569 193.801 217.56 193.468 218.56 193.442ZM217.236 193.81 216.236 193.837 216.227 193.503 217.227 193.477ZM215.903 193.845 215.567 193.854 215.594 193.851 214.942 193.976 214.879 193.649 215.531 193.524C215.54 193.522 215.549 193.521 215.558 193.521L215.894 193.512ZM214.615 194.039 213.633 194.227 213.57 193.9 214.552 193.712ZM213.305 194.29 212.323 194.479 212.26 194.151 213.242 193.963ZM211.996 194.541 211.031 194.726 211.031 194.726 210.93 194.41 210.969 194.399 211.933 194.214ZM210.72 194.833 209.773 195.153 209.666 194.837 210.614 194.517ZM209.457 195.26 208.51 195.58 208.403 195.264 209.351 194.944ZM208.194 195.687 207.247 196.007 207.14 195.691 208.087 195.371ZM206.931 196.114 206.616 196.22 206.032 196.501 205.889 196.2 206.509 195.905 206.824 195.798ZM205.732 196.645 204.83 197.076 204.686 196.775 205.588 196.344ZM204.529 197.22 203.627 197.651 203.483 197.351 204.385 196.919ZM203.326 197.795 202.424 198.227 202.28 197.926 203.182 197.494ZM202.142 198.379 201.274 198.877 201.109 198.588 201.976 198.09ZM200.985 199.043 200.118 199.54 199.952 199.251 200.819 198.753ZM199.829 199.706 198.961 200.203 198.795 199.914 199.663 199.417ZM198.672 200.369 198.083 200.707 197.824 200.879 197.64 200.601 197.917 200.418 198.506 200.08ZM197.546 201.063 196.712 201.614 196.529 201.336 197.362 200.785ZM196.435 201.798 195.601 202.35 195.417 202.072 196.251 201.52ZM195.323 202.534 194.489 203.086 194.305 202.808 195.139 202.256ZM194.211 203.27 193.842 203.514 193.404 203.843 193.204 203.576 193.658 203.236 194.027 202.992ZM193.137 204.043 192.337 204.643 192.137 204.376 192.937 203.776ZM192.07 204.843 191.27 205.443 191.07 205.176 191.87 204.576ZM191.004 205.643 190.933 205.696 190.733 205.429 190.804 205.376ZM194.3 207.963 185.5 209.563 189.5 201.563Z" fill="#FF0000"/><path d="M526.407 214.638 525.578 214.079 525.764 213.803 526.593 214.362ZM525.301 213.893 524.472 213.334 524.659 213.057 525.488 213.616ZM524.196 213.147 523.367 212.588 523.553 212.312 524.382 212.871ZM523.09 212.402 522.261 211.843 522.448 211.567 523.277 212.126ZM521.985 211.657 521.156 211.097 521.342 210.821 522.171 211.38ZM520.879 210.911 520.05 210.352 520.237 210.076 521.066 210.635ZM519.774 210.166 518.945 209.607 519.131 209.33 519.96 209.889ZM518.668 209.42 517.839 208.861 518.026 208.585 518.855 209.144ZM517.563 208.675 516.734 208.116 516.92 207.839 517.749 208.398ZM516.457 207.929 515.628 207.37 515.815 207.094 516.644 207.653ZM515.354 207.19 514.508 206.656 514.687 206.374 515.532 206.908ZM514.227 206.478 513.381 205.943 513.56 205.662 514.405 206.196ZM513.1 205.765 512.254 205.231 512.433 204.949 513.278 205.484ZM511.973 205.053 511.127 204.518 511.306 204.237 512.151 204.771ZM510.846 204.34 510.036 203.828 510.006 203.812 510.171 203.522 510.214 203.547 511.024 204.059ZM509.716 203.647 508.848 203.151 509.013 202.862 509.881 203.357ZM508.558 202.986 507.689 202.491 507.854 202.202 508.723 202.697ZM507.399 202.326 506.531 201.831 506.696 201.542 507.564 202.037ZM506.241 201.666 505.372 201.171 505.537 200.882 506.406 201.377ZM505.082 201.006 504.668 200.77 504.209 200.538 504.359 200.24 504.833 200.48 505.247 200.717ZM503.911 200.387 503.019 199.936 503.169 199.639 504.062 200.09ZM502.721 199.786 501.829 199.334 501.98 199.037 502.872 199.488ZM501.532 199.184 500.639 198.732 500.79 198.435 501.682 198.886ZM500.342 198.582 499.45 198.13 499.6 197.833 500.492 198.284ZM499.156 198.002 498.231 197.623 498.357 197.315 499.283 197.694ZM497.923 197.497 496.997 197.118 497.124 196.81 498.049 197.189ZM496.689 196.992 495.763 196.613 495.89 196.304 496.815 196.683ZM495.455 196.486 494.53 196.107 494.656 195.799 495.581 196.178ZM494.221 195.981 494.187 195.967 493.28 195.695 493.376 195.376 494.313 195.658 494.347 195.672ZM492.96 195.6 492.003 195.312 492.098 194.993 493.056 195.28ZM491.683 195.217 490.726 194.929 490.821 194.61 491.779 194.897ZM490.406 194.833 489.448 194.546 489.544 194.227 490.502 194.514ZM489.15 194.466 488.161 194.316 488.211 193.986 489.2 194.136ZM487.831 194.266 486.843 194.115 486.893 193.786 487.882 193.936ZM486.513 194.065 485.525 193.915 485.575 193.586 486.563 193.736ZM485.195 193.865 484.288 193.727 484.317 193.729 484.235 193.731 484.226 193.398 484.308 193.396C484.318 193.396 484.328 193.396 484.338 193.398L485.245 193.536ZM483.902 193.74 482.902 193.766 482.893 193.433 483.893 193.407ZM482.569 193.775 481.569 193.801 481.56 193.468 482.56 193.442ZM481.236 193.81 480.236 193.837 480.228 193.503 481.227 193.477ZM479.903 193.845 479.567 193.854 479.594 193.851 478.942 193.976 478.879 193.649 479.531 193.524C479.54 193.522 479.549 193.521 479.558 193.521L479.894 193.512ZM478.615 194.039 477.633 194.227 477.57 193.9 478.552 193.712ZM477.305 194.29 476.323 194.479 476.26 194.151 477.242 193.963ZM475.996 194.541 475.031 194.726 475.031 194.726 474.93 194.41 474.969 194.399 475.933 194.214ZM474.72 194.833 473.773 195.153 473.666 194.837 474.614 194.517ZM473.457 195.26 472.51 195.58 472.403 195.264 473.351 194.944ZM472.194 195.687 471.247 196.007 471.14 195.691 472.087 195.371ZM470.931 196.114 470.616 196.22 470.032 196.501 469.889 196.2 470.509 195.905 470.824 195.798ZM469.732 196.645 468.83 197.076 468.686 196.775 469.588 196.344ZM468.529 197.22 467.627 197.651 467.483 197.351 468.385 196.919ZM467.326 197.795 466.424 198.227 466.28 197.926 467.182 197.494ZM466.142 198.379 465.274 198.877 465.109 198.588 465.976 198.09ZM464.985 199.043 464.118 199.54 463.952 199.251 464.819 198.753ZM463.829 199.706 462.961 200.203 462.795 199.914 463.663 199.417ZM462.672 200.369 462.083 200.707 461.824 200.879 461.64 200.601 461.917 200.418 462.506 200.08ZM461.546 201.063 460.713 201.614 460.529 201.336 461.362 200.785ZM460.435 201.798 459.601 202.35 459.417 202.072 460.251 201.52ZM459.323 202.534 458.489 203.086 458.305 202.808 459.139 202.256ZM458.211 203.27 457.842 203.514 457.404 203.843 457.204 203.576 457.658 203.236 458.027 202.992ZM457.137 204.043 456.337 204.643 456.137 204.376 456.937 203.776ZM456.07 204.843 455.27 205.443 455.07 205.176 455.87 204.576ZM455.004 205.643 454.933 205.696 454.733 205.429 454.804 205.376ZM458.3 207.963 449.5 209.563 453.5 201.563Z" fill="#FF0000"/><path d="M760.365 212.598 759.776 211.791 760.045 211.594 760.635 212.402ZM759.579 211.522 758.989 210.714 759.258 210.518 759.848 211.325ZM758.792 210.445 758.203 209.638 758.472 209.441 759.062 210.248ZM758.006 209.368 757.416 208.561 757.685 208.364 758.275 209.172ZM757.219 208.292 756.63 207.484 756.899 207.288 757.489 208.095ZM756.433 207.215 755.843 206.408 756.112 206.211 756.702 207.018ZM755.646 206.138 755.057 205.331 755.326 205.134 755.916 205.942ZM754.86 205.062 754.27 204.254 754.539 204.058 755.129 204.865ZM754.073 203.985 753.928 203.786 753.458 203.208 753.717 202.998 754.197 203.589 754.343 203.788ZM753.248 202.949 752.618 202.172 752.877 201.962 753.507 202.739ZM752.408 201.914 751.778 201.137 752.037 200.927 752.667 201.704ZM751.568 200.878 750.938 200.102 751.196 199.892 751.827 200.668ZM750.728 199.843 750.097 199.067 750.356 198.857 750.986 199.633ZM749.887 198.808 749.257 198.031 749.516 197.821 750.146 198.598ZM749.047 197.772 748.417 196.996 748.676 196.786 749.306 197.562ZM748.207 196.737 747.577 195.961 747.836 195.751 748.466 196.527ZM747.367 195.702 746.933 195.168 746.728 194.947 746.973 194.72 747.192 194.958 747.626 195.492ZM746.502 194.702 745.823 193.968 746.067 193.742 746.747 194.476ZM745.596 193.724 744.917 192.99 745.162 192.763 745.841 193.497ZM744.691 192.745 744.012 192.011 744.256 191.785 744.935 192.519ZM743.785 191.766 743.106 191.032 743.351 190.806 744.03 191.54ZM742.876 190.802 742.164 190.1 742.397 189.863 743.11 190.565ZM741.926 189.866 741.214 189.165 741.448 188.927 742.16 189.629ZM740.976 188.931 740.264 188.229 740.498 187.991 741.21 188.693ZM740.026 187.995 739.314 187.293 739.548 187.056 740.26 187.758ZM739.076 187.059 738.883 186.869 738.34 186.4 738.558 186.147 739.117 186.631 739.31 186.822ZM738.088 186.182 737.331 185.527 737.55 185.275 738.306 185.929ZM737.079 185.309 736.323 184.655 736.541 184.403 737.297 185.057ZM736.071 184.437 735.314 183.783 735.533 183.531 736.289 184.185ZM735.062 183.565 734.306 182.911 734.524 182.659 735.28 183.313ZM734.051 182.714 733.253 182.111 733.454 181.845 734.252 182.448ZM732.987 181.91 732.19 181.307 732.391 181.041 733.188 181.644ZM731.924 181.106 731.126 180.502 731.327 180.237 732.125 180.84ZM730.86 180.301 730.063 179.698 730.264 179.432 731.061 180.036ZM729.797 179.497 729.149 179.008 729.001 178.909 729.185 178.632 729.351 178.742 729.998 179.231ZM728.723 178.724 727.891 178.169 728.076 177.892 728.908 178.447ZM727.614 177.985 726.782 177.43 726.967 177.153 727.799 177.707ZM726.504 177.245 725.672 176.69 725.857 176.413 726.689 176.968ZM725.395 176.505 724.563 175.951 724.748 175.673 725.58 176.228ZM724.286 175.766 723.533 175.264 723.46 175.224 723.624 174.933 723.717 174.986 724.471 175.488ZM723.17 175.06 722.299 174.568 722.463 174.278 723.334 174.769ZM722.009 174.404 721.138 173.913 721.302 173.623 722.173 174.114ZM720.848 173.749 719.977 173.258 720.141 172.967 721.012 173.459ZM719.687 173.094 718.816 172.602 718.98 172.312 719.85 172.803ZM718.526 172.438 717.655 171.947 717.818 171.657 718.689 172.148ZM717.364 171.783 717.231 171.708 716.478 171.342 716.624 171.042 717.394 171.417 717.528 171.493ZM716.179 171.196 715.279 170.759 715.425 170.459 716.324 170.897ZM714.98 170.613 714.08 170.176 714.226 169.876 715.125 170.313ZM713.781 170.03 712.881 169.592 713.027 169.292 713.927 169.73ZM712.582 169.446 711.682 169.009 711.828 168.709 712.728 169.147ZM711.383 168.863 710.483 168.426 710.629 168.126 711.529 168.563ZM710.19 168.291 709.266 167.908 709.394 167.6 710.317 167.983ZM708.958 167.78 708.034 167.397 708.162 167.089 709.086 167.472ZM707.726 167.27 706.803 166.887 706.93 166.579 707.854 166.962ZM706.495 166.759 705.571 166.376 705.699 166.068 706.622 166.451ZM705.263 166.248 704.339 165.865 704.467 165.557 705.391 165.94ZM704.031 165.738 703.108 165.355 703.235 165.047 704.159 165.43ZM702.8 165.227 702.624 165.154 701.868 164.893 701.977 164.578 702.751 164.846 702.927 164.919ZM701.553 164.784 700.608 164.458 700.717 164.143 701.662 164.469ZM700.293 164.349 699.348 164.022 699.456 163.707 700.402 164.034ZM699.032 163.913 698.087 163.587 698.196 163.272 699.141 163.598ZM697.772 163.478 696.827 163.151 696.936 162.836 697.881 163.163ZM696.512 163.042 695.567 162.716 695.676 162.401 696.621 162.727ZM695.252 162.607 694.307 162.28 694.416 161.965 695.361 162.292ZM693.998 162.182 693.036 161.906 693.128 161.586 694.09 161.861ZM692.716 161.814 691.755 161.539 691.847 161.218 692.808 161.494ZM691.434 161.447 690.473 161.171 690.565 160.851 691.526 161.126ZM690.153 161.079 689.191 160.804 689.283 160.483 690.245 160.759ZM688.871 160.712 687.91 160.436 688.002 160.116 688.963 160.391ZM687.589 160.344 686.628 160.069 686.72 159.748 687.681 160.024ZM686.308 159.977 685.346 159.701 685.438 159.381 686.399 159.657ZM685.026 159.61 684.767 159.535 684.063 159.37 684.14 159.046 684.858 159.215 685.118 159.289ZM683.739 159.294 682.765 159.065 682.842 158.741 683.815 158.97ZM682.441 158.989 681.467 158.76 681.544 158.436 682.517 158.665ZM681.143 158.684 680.169 158.455 680.246 158.131 681.219 158.36ZM679.845 158.379 678.871 158.15 678.948 157.826 679.921 158.055ZM678.547 158.074 677.573 157.846 677.65 157.521 678.623 157.75ZM677.249 157.769 676.275 157.541 676.352 157.216 677.325 157.445ZM675.951 157.464 674.977 157.236 675.054 156.911 676.027 157.14ZM674.653 157.159 674.399 157.1 673.68 156.962 673.743 156.634 674.476 156.775 674.729 156.835ZM673.352 156.899 672.37 156.71 672.433 156.382 673.415 156.571ZM672.043 156.647 671.061 156.458 671.124 156.131 672.106 156.319ZM670.734 156.395 669.752 156.206 669.815 155.879 670.797 156.068ZM669.424 156.143 668.442 155.954 668.505 155.627 669.487 155.816ZM668.115 155.891 667.133 155.703 667.196 155.375 668.178 155.564ZM666.806 155.64 665.824 155.451 665.887 155.123 666.869 155.312ZM665.496 155.388 664.514 155.199 664.577 154.872 665.559 155.061ZM664.187 155.136 663.205 154.947 663.268 154.62 664.25 154.809ZM662.883 154.891 661.895 154.736 661.946 154.406 662.934 154.561ZM661.565 154.684 660.577 154.529 660.629 154.2 661.617 154.355ZM660.248 154.477 659.26 154.322 659.312 153.993 660.3 154.148ZM658.931 154.271 657.943 154.116 657.995 153.786 658.982 153.941ZM657.614 154.064 656.662 153.915 656.631 153.911 656.671 153.58 656.713 153.585 657.665 153.735ZM656.3 153.871 655.308 153.751 655.348 153.42 656.34 153.54ZM654.977 153.711 653.984 153.592 654.024 153.261 655.017 153.381ZM653.653 153.552 652.66 153.432 652.7 153.101 653.693 153.221ZM652.329 153.392 651.336 153.272 651.376 152.941 652.369 153.061ZM651.006 153.232 650.013 153.112 650.053 152.781 651.045 152.901ZM649.682 153.072 649.418 153.041 648.691 152.967 648.724 152.636 649.457 152.71 649.722 152.741ZM648.359 152.934 647.364 152.834 647.397 152.502 648.392 152.602ZM647.032 152.8 646.037 152.7 646.071 152.368 647.066 152.469ZM645.706 152.666 644.711 152.566 644.744 152.235 645.739 152.335ZM644.379 152.533 643.384 152.433 643.418 152.101 644.413 152.201ZM643.053 152.399 642.058 152.299 642.091 151.967 643.086 152.067ZM641.726 152.265 641.358 152.228 640.733 152.179 640.76 151.847 641.392 151.897 641.759 151.934ZM640.401 152.153 639.404 152.075 639.43 151.743 640.427 151.821ZM639.072 152.049 638.075 151.97 638.101 151.638 639.098 151.716ZM637.743 151.944 636.746 151.866 636.772 151.534 637.769 151.612ZM636.413 151.84 635.416 151.762 635.443 151.429 636.44 151.508ZM635.084 151.735 634.087 151.657 634.113 151.325 635.11 151.403ZM633.755 151.631 632.758 151.553 632.784 151.22 633.781 151.299ZM632.427 151.528 631.429 151.454 631.454 151.122 632.451 151.195ZM631.097 151.43 630.099 151.357 630.124 151.025 631.121 151.098ZM629.767 151.333 628.77 151.259 628.794 150.927 629.791 151ZM628.437 151.235 627.44 151.162 627.464 150.829 628.462 150.903ZM627.107 151.138 626.11 151.064 626.134 150.732 627.132 150.805ZM625.778 151.04 624.78 150.967 624.805 150.634 625.802 150.708ZM624.448 150.943 623.451 150.869 623.475 150.537 624.472 150.61ZM623.121 150.847 622.122 150.791 622.141 150.458 623.14 150.514ZM621.79 150.772 620.791 150.715 620.81 150.382 621.808 150.439ZM620.458 150.696 619.46 150.64 619.479 150.307 620.477 150.364ZM619.127 150.621 618.129 150.565 618.148 150.232 619.146 150.288ZM617.796 150.546 616.798 150.489 616.816 150.156 617.815 150.213ZM616.465 150.47 615.466 150.414 615.485 150.081 616.484 150.138ZM615.134 150.395 614.135 150.339 614.154 150.006 615.152 150.062ZM613.802 150.32 613.303 150.291 612.804 150.265 612.822 149.932 613.322 149.959 613.821 149.987ZM612.471 150.247 611.473 150.193 611.491 149.86 612.489 149.914ZM611.14 150.175 610.142 150.121 610.159 149.788 611.158 149.842ZM609.809 150.103 608.81 150.049 608.828 149.716 609.827 149.77ZM608.477 150.031 607.479 149.978 607.497 149.645 608.495 149.699ZM607.146 149.96 606.147 149.906 606.165 149.573 607.164 149.627ZM605.814 149.888 604.816 149.834 604.834 149.501 605.832 149.555ZM604.483 149.816 603.484 149.762 603.502 149.429 604.501 149.483ZM603.152 149.744 602.866 149.729 602.155 149.701 602.168 149.367 602.884 149.396 603.17 149.412ZM601.822 149.687 600.823 149.647 600.836 149.314 601.835 149.354ZM600.49 149.634 599.49 149.594 599.504 149.261 600.503 149.301ZM599.157 149.581 598.158 149.541 598.171 149.208 599.171 149.248ZM597.825 149.527 596.826 149.487 596.839 149.154 597.838 149.194ZM596.493 149.474 595.494 149.434 595.507 149.101 596.506 149.141ZM595.161 149.421 594.161 149.381 594.175 149.048 595.174 149.088ZM593.828 149.367 592.829 149.328 592.842 148.994 593.842 149.034ZM592.496 149.314 591.931 149.292 591.498 149.277 591.509 148.944 591.944 148.959 592.509 148.981ZM591.165 149.266 590.165 149.233 590.176 148.9 591.176 148.933ZM589.832 149.222 588.833 149.189 588.844 148.856 589.843 148.889ZM588.499 149.178 587.5 149.146 587.511 148.812 588.51 148.845ZM587.167 149.135 586.167 149.102 586.178 148.768 587.178 148.801ZM585.834 149.091 584.835 149.058 584.846 148.725 585.845 148.757ZM584.502 149.047 583.502 149.014 583.513 148.681 584.513 148.714ZM583.169 149.003 582.169 148.97 582.181 148.637 583.18 148.67ZM581.836 148.959 580.837 148.926 580.848 148.593 581.847 148.626ZM580.504 148.915 579.504 148.882 579.515 148.549 580.515 148.582ZM579.171 148.871 578.172 148.838 578.183 148.505 579.182 148.538ZM577.839 148.827 576.839 148.794 576.85 148.461 577.85 148.494ZM576.506 148.783 575.507 148.75 575.518 148.417 576.517 148.45ZM575.173 148.739 574.174 148.706 574.185 148.373 575.184 148.406ZM573.841 148.695 572.841 148.662 572.852 148.329 573.852 148.362ZM572.508 148.651 571.509 148.618 571.52 148.285 572.519 148.318ZM571.176 148.607 570.176 148.574 570.187 148.241 571.187 148.274ZM569.843 148.563 569.182 148.542 568.845 148.534 568.853 148.2 569.193 148.208 569.854 148.23ZM568.512 148.526 567.512 148.502 567.52 148.169 568.52 148.193ZM567.179 148.494 566.179 148.471 566.187 148.137 567.187 148.161ZM565.846 148.463 564.846 148.439 564.854 148.106 565.854 148.129ZM564.513 148.431 563.513 148.407 563.521 148.074 564.521 148.098ZM563.18 148.399 562.18 148.376 562.188 148.043 563.188 148.066ZM561.847 148.368 560.847 148.344 560.855 148.011 561.855 148.035ZM560.514 148.336 559.514 148.313 559.522 147.979 560.522 148.003ZM559.181 148.305 558.181 148.281 558.189 147.948 559.189 147.972ZM557.848 148.273 556.848 148.25 556.856 147.916 557.856 147.94ZM556.515 148.242 555.515 148.218 555.523 147.885 556.523 147.908ZM555.182 148.21 554.182 148.186 554.19 147.853 555.19 147.877ZM553.849 148.178 552.849 148.155 552.857 147.822 553.857 147.845ZM552.516 148.147 551.516 148.123 551.524 147.79 552.524 147.814ZM551.183 148.115 550.183 148.092 550.191 147.758 551.191 147.782ZM549.85 148.084 548.851 148.06 548.858 147.727 549.858 147.751ZM548.517 148.052 547.518 148.029 547.526 147.695 548.525 147.719ZM547.184 148.021 546.185 147.997 546.193 147.664 547.192 147.687ZM545.851 147.989 545.434 147.979 544.853 147.97 544.858 147.637 545.441 147.646 545.859 147.656ZM544.52 147.965 543.52 147.949 543.525 147.616 544.525 147.632ZM543.186 147.944 542.187 147.929 542.192 147.595 543.192 147.611ZM541.853 147.923 540.853 147.908 540.859 147.574 541.858 147.59ZM540.52 147.903 539.52 147.887 539.525 147.554 540.525 147.569ZM539.187 147.882 538.187 147.866 538.192 147.533 539.192 147.549ZM537.854 147.861 536.854 147.845 536.859 147.512 537.859 147.528ZM536.521 147.84 535.521 147.825 535.526 147.491 536.526 147.507ZM535.187 147.819 534.188 147.804 534.193 147.471 535.193 147.486ZM533.854 147.799 532.854 147.783 532.859 147.45 533.859 147.465ZM532.521 147.778 531.521 147.762 531.526 147.429 532.526 147.445ZM531.188 147.757 530.188 147.742 530.193 147.408 531.193 147.424ZM529.855 147.736 528.855 147.721 528.86 147.388 529.86 147.403ZM528.522 147.716 527.522 147.7 527.527 147.367 528.527 147.382ZM527.188 147.695 526.189 147.679 526.194 147.346 527.194 147.362ZM525.855 147.674 524.855 147.658 524.86 147.325 525.86 147.341ZM524.522 147.653 523.522 147.638 523.527 147.304 524.527 147.32ZM523.189 147.633 522.189 147.617 522.194 147.284 523.194 147.299ZM521.856 147.612 521.372 147.604 520.857 147.6 520.86 147.267 521.378 147.271 521.861 147.278ZM520.524 147.598 519.524 147.59 519.526 147.256 520.526 147.264ZM519.19 147.587 518.191 147.579 518.193 147.246 519.193 147.254ZM517.857 147.577 516.857 147.569 516.86 147.236 517.86 147.243ZM516.524 147.566 515.524 147.558 515.527 147.225 516.527 147.233ZM515.191 147.556 514.191 147.548 514.193 147.215 515.193 147.222ZM513.857 147.545 512.857 147.538 512.86 147.204 513.86 147.212ZM512.524 147.535 511.524 147.527 511.527 147.194 512.527 147.202ZM511.191 147.524 510.191 147.517 510.193 147.183 511.193 147.191ZM509.857 147.514 508.858 147.506 508.86 147.173 509.86 147.181ZM508.524 147.504 507.524 147.496 507.527 147.162 508.527 147.17ZM507.191 147.493 506.191 147.485 506.194 147.152 507.194 147.16ZM505.858 147.483 504.858 147.475 504.86 147.142 505.86 147.149ZM504.524 147.472 503.524 147.464 503.527 147.131 504.527 147.139ZM503.191 147.462 502.191 147.454 502.194 147.121 503.194 147.128ZM501.858 147.451 500.858 147.444 500.86 147.11 501.86 147.118ZM500.524 147.441 499.524 147.433 499.527 147.1 500.527 147.108ZM499.191 147.43 498.191 147.423 498.194 147.089 499.194 147.097ZM497.858 147.42 497.436 147.417 496.858 147.414 496.86 147.08 497.439 147.083 497.86 147.087ZM496.525 147.412 495.525 147.406 495.527 147.073 496.527 147.078ZM495.192 147.405 494.192 147.399 494.193 147.066 495.193 147.071ZM493.858 147.397 492.858 147.392 492.86 147.059 493.86 147.064ZM492.525 147.39 491.525 147.385 491.527 147.051 492.527 147.057ZM491.192 147.383 490.192 147.378 490.193 147.044 491.193 147.05ZM489.858 147.376 488.858 147.37 488.86 147.037 489.86 147.042ZM488.525 147.369 487.525 147.363 487.527 147.03 488.527 147.035ZM487.192 147.361 486.192 147.356 486.194 147.023 487.194 147.028ZM485.858 147.354 484.858 147.349 484.86 147.015 485.86 147.021ZM484.525 147.347 483.525 147.342 483.527 147.008 484.527 147.014ZM483.192 147.34 482.192 147.334 482.194 147.001 483.194 147.006ZM481.858 147.333 480.858 147.327 480.86 146.994 481.86 146.999ZM480.525 147.325 479.525 147.32 479.527 146.987 480.527 146.992ZM479.192 147.318 478.192 147.313 478.194 146.979 479.194 146.985ZM477.859 147.311 476.859 147.305 476.86 146.972 477.86 146.978ZM476.525 147.304 475.525 147.298 475.527 146.965 476.527 146.97ZM475.192 147.296 474.312 147.292 474.193 147.292 474.193 146.958 474.313 146.958 475.194 146.963ZM473.859 147.292 472.859 147.292 472.859 146.958 473.859 146.958ZM472.526 147.292 471.526 147.292 471.526 146.958 472.526 146.958ZM471.193 147.292 470.193 147.292 470.193 146.958 471.193 146.958ZM469.859 147.292 468.859 147.292 468.859 146.958 469.859 146.958ZM468.526 147.292 467.526 147.292 467.526 146.958 468.526 146.958ZM467.193 147.292 466.193 147.292 466.193 146.958 467.193 146.958ZM465.859 147.292 464.859 147.292 464.859 146.958 465.859 146.958ZM464.526 147.292 463.526 147.292 463.526 146.958 464.526 146.958ZM463.193 147.292 463.188 147.292 462.193 147.292 462.193 146.958 463.188 146.958 463.193 146.958ZM461.859 147.292 460.859 147.292 460.859 146.958 461.859 146.958ZM460.526 147.292 459.526 147.292 459.526 146.958 460.526 146.958ZM459.193 147.292 458.193 147.292 458.193 146.958 459.193 146.958ZM457.859 147.292 456.859 147.292 456.859 146.958 457.859 146.958ZM456.526 147.292 455.526 147.292 455.526 146.958 456.526 146.958ZM455.193 147.292 454.193 147.292 454.193 146.958 455.193 146.958ZM453.859 147.292 452.859 147.292 452.859 146.958 453.859 146.958ZM452.526 147.292 452.5 147.292 451.527 147.298 451.525 146.964 452.5 146.958 452.526 146.958ZM451.194 147.3 450.194 147.306 450.192 146.972 451.192 146.966ZM449.861 147.308 448.861 147.314 448.859 146.98 449.859 146.974ZM448.527 147.316 447.527 147.322 447.525 146.989 448.525 146.982ZM447.194 147.324 446.194 147.33 446.192 146.997 447.192 146.991ZM445.861 147.332 444.861 147.338 444.859 147.005 445.859 146.999ZM444.527 147.34 443.527 147.346 443.525 147.013 444.525 147.007ZM443.194 147.348 442.194 147.354 442.192 147.021 443.192 147.015ZM441.861 147.356 440.861 147.363 440.859 147.029 441.859 147.023ZM440.527 147.365 439.527 147.371 439.525 147.038 440.525 147.032ZM439.194 147.374 438.194 147.38 438.192 147.047 439.192 147.04ZM437.861 147.382 436.861 147.389 436.859 147.055 437.859 147.049ZM436.528 147.391 435.528 147.397 435.525 147.064 436.525 147.057ZM435.194 147.399 434.194 147.406 434.192 147.072 435.192 147.066ZM433.861 147.408 432.861 147.414 432.859 147.081 433.859 147.075ZM432.528 147.417 432.501 147.417 431.528 147.423 431.525 147.09 432.499 147.083 432.525 147.083ZM431.194 147.426 430.194 147.432 430.192 147.099 431.192 147.092ZM429.861 147.435 428.861 147.441 428.859 147.108 429.859 147.101ZM428.528 147.444 427.528 147.451 427.526 147.117 428.525 147.11ZM427.194 147.453 426.194 147.46 426.192 147.126 427.192 147.119ZM425.861 147.462 424.861 147.469 424.859 147.135 425.859 147.129ZM424.528 147.471 423.528 147.478 423.526 147.144 424.526 147.138ZM423.195 147.48 422.195 147.488 422.192 147.154 423.192 147.147ZM421.861 147.49 420.861 147.497 420.859 147.164 421.859 147.157ZM420.528 147.5 419.528 147.507 419.526 147.174 420.526 147.167ZM419.195 147.51 418.195 147.517 418.192 147.184 419.192 147.176ZM417.861 147.52 416.861 147.527 416.859 147.194 417.859 147.186ZM416.528 147.529 415.528 147.537 415.526 147.204 416.526 147.196ZM415.195 147.539 414.876 147.542 414.195 147.547 414.192 147.214 414.874 147.208 415.192 147.206ZM413.862 147.55 412.862 147.558 412.859 147.225 413.859 147.217ZM412.528 147.561 411.528 147.569 411.526 147.235 412.526 147.227ZM411.195 147.571 410.195 147.579 410.192 147.246 411.192 147.238ZM409.862 147.582 408.862 147.59 408.859 147.257 409.859 147.249ZM408.529 147.593 407.529 147.601 407.526 147.268 408.526 147.26ZM407.195 147.604 407.126 147.604 406.195 147.613 406.192 147.279 407.124 147.271 407.193 147.27ZM405.862 147.616 404.862 147.625 404.859 147.291 405.859 147.282ZM404.529 147.628 403.529 147.637 403.526 147.304 404.526 147.294ZM403.196 147.64 402.196 147.649 402.193 147.316 403.193 147.307ZM401.862 147.652 400.862 147.661 400.859 147.328 401.859 147.319ZM400.529 147.664 400.252 147.667 399.529 147.674 399.526 147.341 400.249 147.333 400.526 147.331ZM399.196 147.678 398.196 147.688 398.193 147.355 399.193 147.344ZM397.863 147.691 396.863 147.702 396.859 147.368 397.859 147.358ZM396.529 147.705 395.53 147.715 395.526 147.382 396.526 147.372ZM395.196 147.719 394.196 147.729 394.193 147.396 395.193 147.386ZM393.863 147.733 392.863 147.745 392.859 147.412 393.859 147.4ZM392.53 147.749 391.53 147.762 391.526 147.428 392.526 147.416ZM391.197 147.766 390.197 147.778 390.193 147.445 391.193 147.432ZM389.864 147.782 389.065 147.792 388.864 147.795 388.859 147.461 389.061 147.458 389.859 147.449ZM388.531 147.8 387.531 147.815 387.526 147.482 388.526 147.467ZM387.198 147.82 386.198 147.836 386.193 147.503 387.193 147.487ZM385.865 147.841 385.003 147.854 384.866 147.857 384.859 147.524 384.997 147.521 385.859 147.508ZM384.532 147.864 383.533 147.885 383.526 147.552 384.525 147.531ZM383.199 147.892 382.199 147.913 382.193 147.579 383.192 147.559ZM381.868 147.921 380.869 147.955 380.858 147.621 381.857 147.588ZM380.536 147.966 380.131 147.979 379.53 147.979 379.53 147.646 380.119 147.646 380.525 147.632ZM379.195 147.976 378.195 147.965 378.199 147.631 379.199 147.643ZM377.862 147.961 376.862 147.95 376.866 147.617 377.866 147.628ZM376.529 147.946 375.529 147.935 375.533 147.602 376.532 147.613ZM375.195 147.931 374.195 147.92 374.199 147.587 375.199 147.598ZM373.862 147.917 372.862 147.905 372.866 147.572 373.866 147.583ZM372.529 147.902 371.529 147.891 371.533 147.557 372.533 147.568ZM371.196 147.887 370.196 147.876 370.199 147.543 371.199 147.554ZM369.862 147.872 368.862 147.861 368.866 147.528 369.866 147.539ZM368.529 147.857 367.529 147.846 367.533 147.513 368.533 147.524ZM367.196 147.843 366.196 147.831 366.2 147.498 367.2 147.509ZM365.863 147.828 364.863 147.817 364.866 147.483 365.866 147.494ZM364.529 147.813 363.53 147.802 363.533 147.468 364.533 147.48ZM363.196 147.798 362.623 147.792 362.196 147.785 362.201 147.452 362.627 147.458 363.2 147.465ZM361.862 147.781 360.863 147.766 360.867 147.433 361.867 147.447ZM360.529 147.761 359.529 147.747 359.534 147.413 360.534 147.428ZM359.196 147.742 358.196 147.727 358.201 147.394 359.201 147.408ZM357.863 147.722 356.863 147.708 356.868 147.374 357.868 147.389ZM356.53 147.703 355.53 147.688 355.535 147.355 356.534 147.369ZM355.196 147.683 354.197 147.669 354.201 147.335 355.201 147.35ZM353.863 147.664 352.863 147.649 352.868 147.316 353.868 147.331ZM352.53 147.644 351.53 147.63 351.535 147.296 352.535 147.311ZM351.197 147.625 350.197 147.61 350.202 147.277 351.202 147.292ZM349.864 147.605 348.864 147.591 348.869 147.258 349.869 147.272ZM348.53 147.586 347.531 147.571 347.535 147.238 348.535 147.253ZM347.197 147.567 346.197 147.552 346.202 147.219 347.202 147.233ZM345.864 147.547 345.498 147.542 344.863 147.529 344.87 147.196 345.503 147.208 345.869 147.214ZM344.53 147.523 343.53 147.503 343.537 147.17 344.537 147.189ZM343.197 147.496 342.197 147.477 342.204 147.143 343.204 147.163ZM341.864 147.47 340.864 147.451 340.871 147.117 341.871 147.137ZM340.531 147.444 339.531 147.424 339.538 147.091 340.537 147.111ZM339.198 147.418 338.198 147.398 338.205 147.065 339.204 147.084ZM337.865 147.391 336.865 147.372 336.871 147.039 337.871 147.058ZM336.532 147.365 335.532 147.346 335.538 147.012 336.538 147.032ZM335.199 147.339 334.199 147.319 334.205 146.986 335.205 147.006ZM333.865 147.313 332.866 147.293 332.872 146.96 333.872 146.98ZM332.532 147.287 331.533 147.267 331.539 146.934 332.539 146.953ZM331.199 147.26 330.2 147.241 330.206 146.907 331.206 146.927ZM329.866 147.234 328.866 147.214 328.873 146.881 329.873 146.901ZM328.533 147.208 327.533 147.188 327.54 146.855 328.54 146.875ZM327.2 147.182 326.2 147.162 326.207 146.829 327.207 146.848ZM325.867 147.155 324.867 147.136 324.874 146.802 325.874 146.822ZM324.534 147.129 323.534 147.109 323.541 146.776 324.541 146.796ZM323.201 147.103 322.201 147.083 322.208 146.75 323.207 146.77ZM321.868 147.077 320.868 147.057 320.875 146.724 321.874 146.743ZM320.535 147.05 319.535 147.031 319.542 146.698 320.541 146.717ZM319.202 147.024 318.202 147.005 318.208 146.671 319.208 146.691ZM317.869 146.998 316.869 146.978 316.875 146.645 317.875 146.665ZM316.536 146.972 315.536 146.952 315.542 146.619 316.542 146.639ZM315.202 146.946 314.203 146.926 314.209 146.593 315.209 146.612ZM313.869 146.919 312.87 146.9 312.876 146.566 313.876 146.586ZM312.536 146.893 311.537 146.873 311.543 146.54 312.543 146.56ZM311.203 146.867 310.559 146.854 310.204 146.848 310.21 146.515 310.566 146.521 311.21 146.534ZM309.87 146.842 308.871 146.824 308.877 146.491 309.876 146.509ZM308.537 146.818 307.538 146.8 307.543 146.467 308.543 146.485ZM307.204 146.794 306.204 146.776 306.21 146.443 307.21 146.461ZM305.871 146.77 304.871 146.752 304.877 146.419 305.877 146.437ZM304.538 146.746 303.538 146.728 303.544 146.395 304.544 146.413ZM303.205 146.722 302.205 146.704 302.211 146.371 303.211 146.389ZM301.872 146.698 300.872 146.681 300.878 146.347 301.878 146.365ZM300.539 146.675 299.539 146.657 299.545 146.323 300.545 146.341ZM299.205 146.651 298.206 146.633 298.212 146.3 299.211 146.317ZM297.872 146.627 296.873 146.609 296.879 146.276 297.878 146.294ZM296.539 146.603 295.539 146.585 295.545 146.252 296.545 146.27ZM295.206 146.579 294.206 146.561 294.212 146.228 295.212 146.246ZM293.873 146.555 292.873 146.537 292.879 146.204 293.879 146.222ZM292.54 146.531 291.54 146.513 291.546 146.18 292.546 146.198ZM291.207 146.507 290.207 146.489 290.213 146.156 291.213 146.174ZM289.874 146.483 288.874 146.466 288.88 146.132 289.88 146.15ZM288.54 146.46 287.541 146.442 287.547 146.108 288.546 146.126ZM287.207 146.436 286.208 146.418 286.214 146.084 287.213 146.102ZM285.874 146.412 284.874 146.394 284.88 146.061 285.88 146.079ZM284.541 146.388 283.541 146.37 283.547 146.037 284.547 146.055ZM283.208 146.364 282.208 146.346 282.214 146.013 283.214 146.031ZM281.875 146.34 280.875 146.322 280.881 145.989 281.881 146.007ZM280.542 146.316 279.542 146.298 279.548 145.965 280.548 145.983ZM279.209 146.292 278.209 146.274 278.215 145.941 279.215 145.959ZM277.876 146.268 276.876 146.251 276.882 145.917 277.882 145.935ZM276.542 146.245 275.685 146.229 275.543 146.227 275.549 145.893 275.691 145.896 276.548 145.911ZM275.209 146.221 274.21 146.202 274.216 145.869 275.215 145.887ZM273.876 146.196 272.876 146.178 272.882 145.845 273.882 145.863ZM272.543 146.172 271.543 146.154 271.549 145.821 272.549 145.839ZM271.21 146.148 270.21 146.13 270.216 145.797 271.216 145.815ZM269.877 146.124 268.877 146.106 268.883 145.773 269.883 145.791ZM268.544 146.1 267.544 146.082 267.55 145.748 268.55 145.767ZM267.211 146.076 266.211 146.058 266.217 145.724 267.217 145.742ZM265.878 146.052 264.878 146.033 264.884 145.7 265.884 145.718ZM264.544 146.027 263.545 146.009 263.551 145.676 264.55 145.694ZM263.211 146.003 262.211 145.985 262.218 145.652 263.217 145.67ZM261.878 145.979 260.878 145.961 260.884 145.628 261.884 145.646ZM260.545 145.955 259.545 145.937 259.551 145.604 260.551 145.622ZM259.212 145.931 258.435 145.917 258.213 145.914 258.217 145.581 258.441 145.583 259.218 145.597ZM257.88 145.911 256.88 145.899 256.884 145.566 257.884 145.577ZM256.547 145.896 255.547 145.885 255.551 145.551 256.55 145.562ZM255.214 145.881 254.214 145.87 254.217 145.536 255.217 145.548ZM253.88 145.866 252.88 145.855 252.884 145.522 253.884 145.533ZM252.547 145.851 251.547 145.84 251.551 145.507 252.551 145.518ZM251.214 145.836 250.214 145.825 250.217 145.492 251.217 145.503ZM249.88 145.822 248.881 145.811 248.884 145.477 249.884 145.488ZM248.547 145.807 247.547 145.796 247.551 145.462 248.551 145.474ZM247.214 145.792 246.214 145.781 246.218 145.448 247.218 145.459ZM245.881 145.777 244.881 145.766 244.884 145.433 245.884 145.444ZM244.547 145.762 243.548 145.751 243.551 145.418 244.551 145.429ZM243.214 145.748 242.214 145.736 242.218 145.403 243.218 145.414ZM241.881 145.733 241.561 145.729 240.883 145.729 240.883 145.396 241.564 145.396 241.885 145.399ZM240.549 145.729 239.549 145.729 239.549 145.396 240.549 145.396ZM239.216 145.729 238.216 145.729 238.216 145.396 239.216 145.396ZM237.883 145.729 236.883 145.729 236.883 145.396 237.883 145.396ZM236.549 145.729 235.549 145.729 235.549 145.396 236.549 145.396ZM235.216 145.729 234.216 145.729 234.216 145.396 235.216 145.396ZM233.883 145.729 232.883 145.729 232.883 145.396 233.883 145.396ZM232.549 145.729 231.549 145.729 231.549 145.396 232.549 145.396ZM231.216 145.729 230.216 145.729 230.216 145.396 231.216 145.396ZM229.883 145.729 228.883 145.729 228.883 145.396 229.883 145.396ZM228.549 145.729 227.549 145.729 227.549 145.396 228.549 145.396ZM227.216 145.729 226.216 145.729 226.216 145.396 227.216 145.396ZM225.883 145.729 225.063 145.729 224.883 145.73 224.882 145.397 225.063 145.396 225.883 145.396ZM224.55 145.731 223.55 145.735 223.549 145.402 224.549 145.398ZM223.217 145.736 222.217 145.74 222.216 145.407 223.216 145.403ZM221.884 145.742 220.884 145.746 220.882 145.412 221.882 145.408ZM220.55 145.747 219.55 145.751 219.549 145.417 220.549 145.414ZM219.217 145.752 218.217 145.756 218.216 145.423 219.216 145.419ZM217.884 145.757 216.884 145.761 216.882 145.428 217.882 145.424ZM216.55 145.762 215.55 145.766 215.549 145.433 216.549 145.429ZM215.217 145.768 214.217 145.772 214.216 145.438 215.216 145.434ZM213.884 145.773 212.884 145.777 212.882 145.443 213.882 145.44ZM212.55 145.778 211.55 145.782 211.549 145.449 212.549 145.445ZM211.217 145.783 210.217 145.787 210.216 145.454 211.216 145.45ZM209.884 145.789 209.063 145.792 208.886 145.795 208.88 145.461 209.062 145.458 209.882 145.455ZM208.552 145.8 207.553 145.816 207.547 145.483 208.547 145.467ZM207.219 145.822 206.219 145.838 206.214 145.505 207.214 145.489ZM205.886 145.844 204.886 145.86 204.881 145.527 205.881 145.51ZM204.553 145.865 203.553 145.882 203.548 145.548 204.547 145.532ZM203.22 145.887 202.22 145.903 202.214 145.57 203.214 145.554ZM201.887 145.909 200.887 145.925 200.881 145.592 201.881 145.576ZM200.553 145.931 199.554 145.947 199.548 145.614 200.548 145.597ZM199.22 145.952 198.22 145.969 198.215 145.635 199.215 145.619ZM197.887 145.974 196.887 145.991 196.882 145.657 197.882 145.641ZM196.554 145.996 195.554 146.012 195.549 145.679 196.549 145.663ZM195.221 146.018 194.221 146.034 194.216 145.701 195.215 145.684ZM193.888 146.039 193.753 146.042 192.891 146.071 192.88 145.738 193.747 145.708 193.882 145.706ZM192.558 146.083 191.559 146.117 191.547 145.784 192.547 145.749ZM191.225 146.128 190.226 146.162 190.215 145.829 191.214 145.795ZM189.893 146.174 188.894 146.208 188.882 145.875 189.882 145.841ZM188.56 146.219 187.561 146.253 187.55 145.92 188.549 145.886ZM187.228 146.265 186.228 146.299 186.217 145.966 187.216 145.932ZM185.895 146.31 184.896 146.345 184.884 146.011 185.884 145.977ZM184.563 146.356 183.563 146.39 183.552 146.057 184.551 146.023ZM183.23 146.401 182.231 146.436 182.219 146.102 183.219 146.068ZM181.898 146.447 180.898 146.481 180.887 146.148 181.886 146.114ZM180.565 146.493 179.566 146.527 179.554 146.194 180.554 146.159ZM179.233 146.538 179.131 146.542 178.236 146.586 178.22 146.253 179.119 146.208 179.221 146.205ZM177.903 146.603 176.905 146.652 176.888 146.32 177.887 146.27ZM176.572 146.669 175.573 146.719 175.556 146.386 176.555 146.336ZM175.24 146.735 174.241 146.785 174.225 146.452 175.223 146.402ZM173.908 146.802 172.91 146.851 172.893 146.518 173.892 146.469ZM172.577 146.868 171.578 146.918 171.561 146.585 172.56 146.535ZM171.245 146.934 170.246 146.984 170.23 146.651 171.228 146.601ZM169.913 147 168.914 147.05 168.898 146.717 169.897 146.668ZM168.582 147.067 167.583 147.116 167.566 146.783 168.565 146.734ZM167.25 147.133 166.251 147.183 166.235 146.85 167.233 146.8ZM165.918 147.199 165.321 147.229 164.924 147.258 164.9 146.926 165.304 146.896 165.902 146.866ZM164.591 147.282 163.594 147.355 163.57 147.023 164.567 146.95ZM163.262 147.38 162.264 147.453 162.24 147.12 163.237 147.047ZM161.932 147.477 160.935 147.55 160.91 147.218 161.908 147.145ZM160.602 147.574 159.605 147.647 159.58 147.315 160.578 147.242ZM159.272 147.672 158.275 147.745 158.251 147.412 159.248 147.339ZM157.943 147.769 156.945 147.842 156.921 147.509 157.918 147.436ZM156.613 147.866 155.615 147.939 155.591 147.607 156.588 147.534ZM155.283 147.964 154.286 148.036 154.261 147.704 155.259 147.631ZM153.953 148.061 152.956 148.134 152.932 147.801 153.929 147.728ZM152.623 148.158 152.512 148.166 151.635 148.264 151.599 147.933 152.488 147.834 152.599 147.826ZM151.304 148.301 150.31 148.411 150.273 148.08 151.267 147.969ZM149.979 148.448 148.985 148.558 148.948 148.227 149.942 148.117ZM148.654 148.595 147.66 148.706 147.623 148.374 148.617 148.264ZM147.329 148.742 146.335 148.853 146.298 148.521 147.292 148.411ZM146.003 148.89 145.01 149 144.973 148.669 145.967 148.558ZM144.678 149.037 143.684 149.147 143.648 148.816 144.641 148.706ZM143.353 149.184 142.359 149.295 142.322 148.963 143.316 148.853ZM142.028 149.331 141.034 149.442 140.997 149.11 141.991 149ZM140.708 149.478 139.719 149.623 139.671 149.293 140.66 149.148ZM139.389 149.671 138.4 149.815 138.351 149.486 139.341 149.341ZM138.07 149.864 137.08 150.008 137.032 149.679 138.022 149.534ZM136.75 150.057 135.761 150.201 135.713 149.871 136.702 149.727ZM135.431 150.249 134.442 150.394 134.393 150.064 135.383 149.92ZM134.112 150.442 133.122 150.587 133.074 150.257 134.064 150.113ZM132.793 150.635 131.803 150.78 131.755 150.45 132.744 150.305ZM131.473 150.828 130.484 150.973 130.436 150.643 131.425 150.498ZM130.154 151.021 130.024 151.04 129.187 151.224 129.116 150.898 129.976 150.71 130.106 150.691ZM128.861 151.295 127.885 151.51 127.813 151.184 128.79 150.97ZM127.559 151.581 126.582 151.795 126.511 151.47 127.488 151.256ZM126.257 151.867 125.28 152.081 125.209 151.755 126.185 151.541ZM124.954 152.152 123.978 152.367 123.906 152.041 124.883 151.827ZM123.652 152.438 122.675 152.652 122.604 152.327 123.581 152.113ZM122.35 152.724 121.373 152.938 121.301 152.612 122.278 152.398ZM121.047 153.01 120.348 153.163 120.094 153.247 119.991 152.93 120.277 152.837 120.976 152.684ZM119.777 153.35 118.826 153.66 118.723 153.343 119.674 153.033ZM118.509 153.764 117.559 154.074 117.455 153.757 118.406 153.447ZM117.242 154.177 116.291 154.487 116.188 154.17 117.138 153.86ZM115.974 154.591 115.024 154.901 114.92 154.584 115.871 154.274ZM114.707 155.004 113.756 155.314 113.653 154.997 114.603 154.687ZM113.439 155.418 112.488 155.728 112.385 155.411 113.336 155.101ZM112.172 155.831 111.552 156.033 111.243 156.162 111.115 155.855 111.448 155.717 112.068 155.514ZM110.935 156.29 110.011 156.674 109.883 156.366 110.807 155.983ZM109.703 156.802 108.78 157.185 108.652 156.878 109.576 156.494ZM108.472 157.313 107.549 157.697 107.421 157.389 108.344 157.005ZM107.241 157.825 106.317 158.208 106.189 157.901 107.113 157.517ZM106.009 158.336 105.086 158.72 104.958 158.412 105.882 158.028ZM104.778 158.848 103.855 159.231 103.727 158.924 104.65 158.54ZM103.547 159.359 103.439 159.404 102.671 159.808 102.516 159.513 103.311 159.096 103.419 159.051ZM102.376 159.963 101.49 160.429 101.335 160.134 102.22 159.668ZM101.195 160.584 100.31 161.049 100.155 160.754 101.04 160.289ZM100.015 161.204 99.1296 161.669 98.9746 161.374 99.8598 160.909ZM98.8346 161.824 97.9493 162.289 97.7943 161.994 98.6795 161.529ZM97.6542 162.444 96.769 162.909 96.6139 162.614 97.4992 162.149ZM96.4739 163.064 96.0776 163.273 95.6252 163.564 95.4452 163.283 95.9225 162.978 96.3189 162.769ZM95.3446 163.744 94.5029 164.283 94.3229 164.003 95.1646 163.463ZM94.2224 164.463 93.3807 165.003 93.2007 164.723 94.0424 164.183ZM93.1001 165.183 92.2584 165.723 92.0784 165.443 92.9201 164.903ZM91.9779 165.903 91.1362 166.443 90.9562 166.163 91.7979 165.623ZM90.8556 166.623 90.0139 167.163 89.8339 166.883 90.6756 166.343ZM89.7333 167.343 89.465 167.515 88.9291 167.916 88.7296 167.649 89.2851 167.235 89.5533 167.063ZM88.6621 168.116 87.8611 168.715 87.6616 168.448 88.4626 167.849ZM87.5941 168.914 86.7931 169.513 86.5936 169.246 87.3946 168.647ZM86.5261 169.712 85.7251 170.311 85.5255 170.044 86.3266 169.445ZM85.4581 170.511 84.6571 171.109 84.4575 170.842 85.2585 170.244ZM84.3901 171.309 83.5891 171.907 83.3895 171.64 84.1905 171.042ZM83.344 172.115 82.5892 172.771 82.3706 172.519 83.1254 171.863ZM82.3376 172.989 81.5828 173.645 81.3642 173.394 82.119 172.738ZM81.3312 173.864 80.5764 174.52 80.3578 174.268 81.1126 173.612ZM80.3248 174.738 79.57 175.394 79.3514 175.143 80.1062 174.487ZM79.3184 175.613 78.5636 176.269 78.345 176.017 79.0998 175.361ZM78.312 176.488 78.2969 176.501 77.618 177.19 77.3807 176.956 78.0782 176.249 78.0934 176.236ZM77.3839 177.427 76.6817 178.139 76.4444 177.905 77.1466 177.193ZM76.4476 178.376 75.7453 179.088 75.508 178.854 76.2103 178.142ZM75.5112 179.325 74.8089 180.037 74.5716 179.803 75.2739 179.091ZM74.5748 180.275 73.8725 180.986 73.6352 180.752 74.3375 180.04ZM73.6485 181.223 72.979 181.966 72.7314 181.743 73.4009 181ZM72.7558 182.213 72.0862 182.956 71.8386 182.733 72.5082 181.99ZM71.863 183.204 71.1935 183.946 70.9459 183.723 71.6155 182.981ZM70.9703 184.194 70.3008 184.937 70.0532 184.714 70.7227 183.971ZM70.0776 185.184 69.7488 185.549 69.4436 185.941 69.1807 185.737 69.5013 185.326 69.83 184.961ZM69.2387 186.204 68.6239 186.993 68.361 186.788 68.9758 185.999ZM68.419 187.256 67.8043 188.045 67.5414 187.84 68.1561 187.051ZM67.5994 188.308 66.9846 189.096 66.7217 188.891 67.3365 188.103ZM66.7797 189.359 66.444 189.79 66.1843 190.154 65.9131 189.96 66.1811 189.585 66.5168 189.154ZM65.9906 190.425 65.4094 191.239 65.1381 191.045 65.7194 190.231ZM65.2156 191.51 64.6344 192.324 64.3631 192.13 64.9444 191.316ZM64.4406 192.595 63.8594 193.409 63.5882 193.215 64.1694 192.401ZM63.6657 193.68 63.6357 193.722 63.1393 194.518 62.8565 194.341 63.3644 193.528 63.3944 193.486ZM62.9628 194.801 62.4333 195.649 62.1505 195.472 62.68 194.624ZM62.2568 195.932 61.7273 196.78 61.4445 196.604 61.974 195.755ZM61.5508 197.063 61.0213 197.911 60.7385 197.735 61.268 196.886ZM60.8448 198.194 60.7934 198.276 60.5106 198.1 60.562 198.017ZM64.8071 198.904 57.5001 204.063 57.7577 195.122Z" fill="#FF0000"/></g></svg>