<svg width="756" height="272" xmlns="http://www.w3.org/2000/svg" xmlns:xlink="http://www.w3.org/1999/xlink" overflow="hidden"><defs><clipPath id="clip0"><rect x="108" y="330" width="756" height="272"/></clipPath></defs><g clip-path="url(#clip0)" transform="translate(-108 -330)"><path d="M692.5 469C692.5 445.528 730.78 426.5 778 426.5 825.22 426.5 863.5 445.528 863.5 469 863.5 492.472 825.22 511.5 778 511.5 730.78 511.5 692.5 492.472 692.5 469Z" stroke="#000005" stroke-width="0.333333" stroke-linejoin="round" stroke-miterlimit="10" fill="none" fill-rule="evenodd"/><text fill="#000005" font-family="Cambria Math,Cambria Math_MSFontService,sans-serif" font-weight="400" font-size="27" transform="translate(722.909 463)">𝑒<tspan font-size="27" x="21.16" y="0">=</tspan><tspan font-size="27" x="48.5667" y="0">𝑐</tspan><tspan font-size="27" x="67.6733" y="0">∗</tspan><tspan font-size="27" x="86.4333" y="0">𝑑</tspan><tspan font-size="27" x="0" y="32">𝑒</tspan><tspan font-size="27" x="21.16" y="32">=</tspan><tspan font-size="27" x="48.5667" y="32">20</tspan></text><path d="M381.5 561.5C381.5 539.409 421.347 521.5 470.5 521.5 519.653 521.5 559.5 539.409 559.5 561.5 559.5 583.591 519.653 601.5 470.5 601.5 421.347 601.5 381.5 583.591 381.5 561.5Z" stroke="#000005" stroke-width="0.333333" stroke-linejoin="round" stroke-miterlimit="10" fill="none" fill-rule="evenodd"/><text fill="#000005" font-family="Cambria Math,Cambria Math_MSFontService,sans-serif" font-weight="400" font-size="27" transform="translate(411.019 555)">𝑑<tspan font-size="27" x="23.7533" y="0">=</tspan><tspan font-size="27" x="51.16" y="0">𝑏</tspan><tspan font-size="27" x="72.0067" y="0">+</tspan><tspan font-size="27" x="97.9333" y="0">1</tspan><tspan font-size="27" x="0" y="32">𝑑</tspan><tspan font-size="27" x="23.7533" y="32">=</tspan><tspan font-size="27" x="51.16" y="32">4</tspan></text><path d="M377.5 373C377.5 350.08 419.809 331.5 472 331.5 524.191 331.5 566.5 350.08 566.5 373 566.5 395.92 524.191 414.5 472 414.5 419.809 414.5 377.5 395.92 377.5 373Z" stroke="#000005" stroke-width="0.333333" stroke-linejoin="round" stroke-miterlimit="10" fill="none" fill-rule="evenodd"/><text fill="#000005" font-family="Cambria Math,Cambria Math_MSFontService,sans-serif" font-weight="400" font-size="27" transform="translate(413.577 367)">𝑐<tspan font-size="27" x="20.5867" y="0">=</tspan><tspan font-size="27" x="47.9933" y="0">𝑎</tspan><tspan font-size="27" x="69.4067" y="0">+</tspan><tspan font-size="27" x="95.3333" y="0">𝑏</tspan><tspan font-size="27" x="0" y="32">𝑐</tspan><tspan font-size="27" x="20.5867" y="32">=</tspan><tspan font-size="27" x="47.9933" y="32">5</tspan></text><path d="M108.5 564C108.5 543.289 131.557 526.5 160 526.5 188.443 526.5 211.5 543.289 211.5 564 211.5 584.711 188.443 601.5 160 601.5 131.557 601.5 108.5 584.711 108.5 564Z" stroke="#000005" stroke-width="0.333333" stroke-linejoin="round" stroke-miterlimit="10" fill="none" fill-rule="evenodd"/><text fill="#000005" font-family="Cambria Math,Cambria Math_MSFontService,sans-serif" font-weight="400" font-size="27" transform="translate(124.03 574)">𝑏<tspan font-size="27" x="22.3267" y="0">=</tspan><tspan font-size="27" x="49.7333" y="0">3</tspan></text><path d="M109.5 374.5C109.5 353.513 132.557 336.5 161 336.5 189.443 336.5 212.5 353.513 212.5 374.5 212.5 395.487 189.443 412.5 161 412.5 132.557 412.5 109.5 395.487 109.5 374.5Z" stroke="#000005" stroke-width="0.333333" stroke-linejoin="round" stroke-miterlimit="10" fill="none" fill-rule="evenodd"/><text fill="#000005" font-family="Cambria Math,Cambria Math_MSFontService,sans-serif" font-weight="400" font-size="27" transform="translate(123.937 384)">𝑎<tspan font-size="27" x="22.8933" y="0">=</tspan><tspan font-size="27" x="50.3" y="0">2</tspan></text><path d="M0.361518-0.560133 203.433 130.505 202.71 131.626-0.361518 0.560133ZM204.121 126.982 208.674 134.681 199.783 133.704Z" fill="#000005" transform="matrix(1 0 0 -1 196.5 537.181)"/><path d="M0.00437369-0.666652 159.171 0.37759 159.163 1.71089-0.00437369 0.666652ZM157.86-2.96442 165.833 1.08798 157.807 5.03541Z" fill="#000005" transform="matrix(1 0 0 -1 212.5 374.588)"/><path d="M0.0100711-0.666591 163.148 1.79816 163.128 3.13134-0.0100711 0.666591ZM161.865-1.55494 169.804 2.56546 161.744 6.44415Z" fill="#000005" transform="matrix(1 0 0 -1 211.5 564.065)"/><path d="M566.766 372.889 711.645 435.859 711.113 437.082 566.234 374.111ZM711.751 432.27 717.493 439.128 708.562 439.607Z" fill="#000005"/><path d="M0.245624-0.619769 151.424 59.2948 150.933 60.5343-0.245624 0.619769ZM151.413 55.7047 157.376 62.3708 148.465 63.1419Z" fill="#000005" transform="matrix(1 0 0 -1 559.5 561.871)"/></g></svg>